M48
;Layer_Color=9474304
;FILE_FORMAT=4:4
METRIC,LZ
;TYPE=PLATED
T01F00S00C0.3000
T02F00S00C0.4000
T03F00S00C0.5000
T05F00S00C1.0000
T06F00S00C1.6000
T07F00S00C3.0000
;TYPE=NON_PLATED
T08F00S00C0.6500
T09F00S00C3.2500
%
T01
X0004711Y0010995
Y0012095
Y0013195
X0005811Y0010995
X0006911
X00071Y00096
X0014871Y0010995
Y0012095
Y0013195
X0015971Y0010995
X0017071
X00171Y00096
X0025115Y0010995
Y0012095
Y0013195
X0026215Y0010995
X0027315
X00271Y00096
X0035315Y0010995
Y0012095
Y0013195
X0036415Y0010995
X0037515
X00371Y00096
X0045415Y0010995
Y0012095
Y0013195
X0046515Y0010995
X0047615
X00471Y00096
X00571
X00621
X0062717Y0011
Y00121
Y00132
X0063817Y0011
X0064917
X0072877
Y00121
Y00132
X0073977Y0011
X0075077
X00721Y00096
X00821
X0083121Y0011
Y00121
Y00132
X0084221Y0011
X0085321
X0093321Y0011
Y00121
Y00132
X00921Y00096
X0094421Y0011
X0095521
X0103421Y0011
Y00121
Y00132
X0104521Y0011
X0105621
X0117Y001
X0115Y0008
X0117Y0006
X0115Y0004
X0117Y0002
X0119Y0004
X01196Y00046
X0121Y0006
Y001
X01221Y00096
X0123Y0008
Y0004
X01246Y00046
X0125Y0006
Y001
X01271Y00096
X0127Y0008
Y0012
X0129Y001
X01321Y00096
X0133Y001
X0131Y0012
X0133Y0014
X0129
X0127Y0004
X0129Y0002
X0125
X0121
X0131Y0004
X0133Y0002
X01346Y00046
X0139Y0002
X0141Y0004
X0143Y0002
X0145Y0004
Y0008
X0143Y001
Y0014
X0145Y0012
X0141
X0139Y0014
Y001
X0149Y0008
Y0004
X0147Y0002
Y0006
X0151
X0153Y0004
Y0008
Y0012
X0151Y001
Y0014
X0149Y0012
X0157
Y0008
Y0004
X0155Y0002
Y0006
Y001
Y0014
X01621Y00096
X01671
X01679Y00135
X01721Y00096
X01696Y00046
X0151Y0002
X01746Y00046
X01796
X01803Y0006575
X01821Y00096
X01771
X01921
X01927Y00135
X01896Y00046
Y00146
X01846
X01796
X0178975Y0021625
X0178975Y0023225
X018095Y00241
X01846Y00246
X01896
X01921Y00296
X01871
X01836Y00308
X0182Y00318
X018215Y003504
Y003584
X01829Y003544
X018285Y003459
Y003629
X0181975Y00371
X01802Y00371
X01781478Y00371045
X0177454Y003515
X01796Y00346
X0178246Y00308
X01771Y00296
X017415Y00241
X0174Y003515
X01765Y004425
X017765Y00441
X01785Y004505
X01793
X01789Y00458
X017975Y004575
X017805
X01782Y00488
X017815Y00497
X01771Y00496
X018015Y00499
X01817Y0049
X01823Y004725
Y004575
X01816Y00448
X01803Y00442
X01834Y00422
X01854Y00385
X01854Y00344
X01896Y00346
X01894Y00433
Y00453
X01894Y00478
X01885Y00496
X01896Y0051254
X01894Y0053008
X01906Y00535
X01914
X01922
X0193
X019535Y00524
X01949Y00485
X01916Y00435
X01846Y0053
X01832Y00525
X01825Y0053
X01921Y00196
X01721
X01671
X01621
X0157Y002
Y0016
X0155Y0018
Y0022
X0153Y002
Y0016
X0151Y0018
Y0022
X0149Y002
Y0016
X0145
Y002
X0141
X014Y0027
X0141Y0029
X0143
X0142Y0031
X014
X0139Y0033
X0137
X0135
X0141
X014Y0035
X0142
X0141Y0037
X014Y0039
X0142
X0146
X0149
X0153
X0157
X0155Y0037
X0157Y0035
X0153
X0151Y0037
X0149Y0035
Y0031
X0147Y0029
X0145Y0031
X0151Y0033
Y0029
Y0026
X0153Y0024
X0149
X0157
X0155Y0026
Y0029
Y0033
X0157Y0031
X0153
X01621Y00296
X01671
X01721
Y00396
X01671
X01621
X01646Y00446
X01675Y004445
Y004625
Y0048004
Y0049758
X01621Y00496
X01596Y00446
X01546
X01646Y00346
Y00246
Y00146
X01346
X013425Y002575
X0136
X013775
X017085Y00531
X01321Y0033845
X01321Y0025845
X01296Y00246
X0129Y0022
X0131Y002
X01321Y00196
X0127Y002
X01235
X01215
X01225Y0021
X01215Y0022
X01225Y0023
X01205
Y0025
X01225
X01215Y0026
X01225Y0027
X01205
Y0029
X01225
X01215Y003
X01235
Y0028
X01215
X01195
X01175
X01185Y0029
X01165
X01145
Y0027
X01165
X01185
X01175Y0026
X01185Y0025
X01165
X01145
Y0023
X01165
X01185
X01175Y0024
X01195
Y0026
X01155
Y0028
Y003
X01175
X01195
X01253Y00322
X01235Y0026
Y0024
X01215
X01235Y0022
X01195
X01175
X01185Y0021
X01165
X01145
X01155Y0022
Y0024
Y002
X01175
X01195
X01205Y0021
X0127Y0016
X01296Y00146
X01046Y00246
X0107701Y0031175
X0110241Y003482
X0100141Y003482
X0097501Y0031175
X00946Y00246
Y00446
X00996
X01051Y00442
X010485Y0045525
X01068
X01079Y00458
X0105975Y0048325
X01071Y00496
X0108025Y0053
X01094
X0104675Y0051675
X01021Y00496
X00971
X01121
X00921
X00871
X0084475Y0048325
X00853Y0045525
X00863Y00458
X00856Y00434
X00834Y00442
X008335Y0045525
X00796Y00446
X00746
X00696
X00646
X00629Y0046
X00618Y0045525
X005985
X00599Y00444
X00597Y00423
X0060975Y0048325
X00621Y00496
X0063025Y0053
X00643Y00529
X0059675Y0051675
X00571Y00496
X00546Y00446
Y00346
X00596
X00621Y00296
X00571
X00596Y00246
X00646
X00621Y00196
X00571
X00596Y00146
X00546
Y00246
X0067001Y0031175
X0069537Y003482
X0079697
X0077101Y0031175
X00746Y00246
X00846
X0087301Y0031175
X0089941Y003482
X00896Y00446
X00879Y0053
X0086525
X0083175Y0051675
X00821Y00496
X00721
X00671
X00521
X00471
X00421
X00371
X0036975Y0048325
X00378Y0045525
X00388Y00459
X003585Y0045525
X00357Y00423
X00296Y00446
X00246
X00188Y00459
X00178Y0045525
X001585
X00159Y00444
X00157Y00423
X0016975Y0048325
X00171Y00496
X0015675Y0051675
X0019025Y0053
X00202Y00529
X00221Y00496
X00271
Y00396
X00246Y00346
X00226Y00357
X0021696Y003482
X0019203Y0031175
X00146Y00346
Y00246
X00171Y00196
X00271
X00296Y00246
X00346
X00396
X00446
X00496
X0049803Y0031175
X005224Y003482
X00446Y00346
X00431Y00357
X004214Y003482
X0039603Y0031175
X00346Y00346
X00329Y00357
X003194Y003482
X0029403Y0031175
X00246Y00246
X00371Y00196
X00471
X00496Y00446
X00446
X00403Y0053
X0039025
X0035675Y0051675
X00071Y00496
X00096Y00446
X00046
X00071Y00396
X00046Y00346
X0011536Y003482
X00124Y00357
X0009103Y0031175
X00046Y00246
X00071Y00196
X00096Y00546
X00046
X00071Y00596
X00121
Y00696
X0008325Y0068825
X0005875Y0065175
X00046Y00646
Y00746
X00121Y00796
X00127Y00868
Y00879
Y0089
X00116
X00105
X00206
X00217
X00228
Y00879
Y00868
X00221Y00796
X00246Y00746
X00221Y00696
X0018425Y0068825
X0015975Y0065175
X00146Y00646
X00246
X0026175Y0065175
X0028625Y0068825
X00346Y00646
X00361Y00641
X0036419Y0065175
X0038825Y0068825
X00446Y00646
X00463Y00642
X0046579Y0065175
X00471Y00596
X00421
X00371
X00364Y00555
X00365Y0054475
X00296Y00546
X00246
X00271Y00596
X00321
X00221
X00164Y00555
X00165Y0054475
X00146Y00746
X00346
X00321Y00796
X0033Y00868
Y00879
Y0089
X00319
X00308
X0041044
X0042144
X0043244
Y00879
Y00868
X00421Y00796
X00446Y00746
X0049025Y0068825
X00521Y00796
X0053404Y00868
Y00879
Y0089
X0052304
X0051204
X00496Y00546
X00446
X00546
X00605Y0054475
X00604Y00555
X00627Y0054
X00646Y00546
X00696
X00746
X00796
X0084Y0054475
X00845Y00555
X00896Y00546
X00834Y0064
X0084078Y006518
X00796Y00646
X00748Y00644
X0073878Y006518
X00696Y00646
X00646Y00641
X0063778Y006518
X00596Y00646
X00546
X00571Y00696
X00596Y00746
X00546
X00571Y00796
X00596Y00846
X00546
X00571Y00896
X0068398Y0089
X0069498
X0070598
Y00879
Y00868
X00696Y00846
X00796
X0080698Y00868
Y00879
Y0089
X0079598
X0078498
X0088698
X0089798
X0090898
Y00879
Y00868
X00896Y00846
Y00746
X0086523Y0068825
X0076323
X00796Y00746
X00696
X0066223Y0068825
X00571Y00596
X00946Y00546
X00996
X01055Y0054475
X01038Y00641
X0104482Y006518
X0106923Y0068825
X01046Y00746
X00996
X0096723Y0068825
X0094322Y006518
X00951Y00643
X01139Y006625
X0116375Y0069975
X0119075Y006995
X01203Y0072075
X0117575Y00721
X01175Y00806
X01195
X01205Y00816
X01185
X01175Y00826
X01195
X01215
X01225Y00816
X01215Y00806
X01235
Y00826
Y00846
X01215
X01225Y00836
X01205
X01195Y00846
X01175
X01185Y00836
X01165
X01155Y00826
X01165Y00816
X01155Y00806
X01145Y00816
Y00836
X01155Y00846
X01096Y00846
X0111302Y00868
Y00879
Y0089
X0110202
X0109102
X0101147Y0089005
Y0087905
Y0086805
X0100047Y0089005
X0098947
X00996Y00846
X01121Y00796
X0122775Y00758
X01296Y00746
X01313Y00797
X01273
Y0084
X012685Y00847
X012775
X012885Y008525
X012975
X013145Y0086675
X013235
X013325
X01323Y0084
X01271Y00696
X01346Y00746
X0143Y007205
X0145475Y0068325
X01482Y006835
X01494Y0066225
X01467Y00662
X01446Y00646
X0151875Y00625
X01546Y00646
X01596
X01585Y00612
X01643Y00619
X01646Y00671
X01621Y00696
X01586Y00688
X01546Y00746
X0152Y00777
X01596Y00778
X01665Y00775
X01685
X01705Y0071
X017145Y0070475
Y0069675
X01705Y006915
X01675Y007
X01721Y00596
X0173Y00544
X01696Y00546
X01646
X01606Y00557
X01365Y00623
X0139Y00826
X01399
X01408
Y00835
Y00844
X01399
Y00853
X01408
X01399Y00835
X0139
X0136Y00847
X01355Y00866
Y00879
Y00893
X01432Y00894
Y00885
X01436Y00876
X01445
X01463Y00876
X01472
X01476Y00885
Y00894
X014705Y00905
Y00915
X014955Y00921
X015045
X015155Y00921
X015245Y00921
X015335Y009245
X015335Y009335
X01521Y00896
X01557Y0090525
X0157804Y00902414
X01623Y00894
X01625Y00857
X016775Y008725
X01671Y00896
X016775Y00925
X01721Y00896
X0173Y00901
X01543Y00872
X01446Y00846
X01459Y00936
X01767Y00915
X01771Y00896
X01808Y0091
X01839Y00915
X01873Y00901
X01921Y00896
X01896Y00846
X01887Y0084
X01879
X01864
X01856
Y00848
X01864
X01835Y00855
X01808Y00864
X01812Y00838
X01804
X01795Y00842
X01817Y00829
X01824Y00805
X0182Y00793
X0182001Y0073168
X01828372Y00713128
Y00696872
X01811608
Y00713128
X0179332Y0070501
Y0072151
X01796Y00746
X01846
X0184668Y0072149
Y0070499
Y0068849
X01871Y00696
X0187969Y0069661
Y0068811
Y0067961
Y0067111
Y0066261
Y0065411
Y0064561
X0186261Y0064531
X0185411
X01875Y00619
X0189
X01871Y00596
X01893Y0056833
X01896Y00546
X01846
X018275Y005525
X018125
X01815Y005875
Y00597
X01772Y0058925
X01767Y00582
X01746Y00546
X0173969Y0063511
X01796Y00646
X0179332Y0068851
X01771Y00696
X0181999Y0067832
X0187969Y0070511
Y0071361
Y0072211
Y0073061
Y0073911
Y0074761
Y0075611
Y0076461
X0187089Y0076469
X0187961Y0078531
X0189Y00791
X01888Y008
Y00808
Y00816
X01921Y00796
Y00596
X0173969Y0077511
X01696Y00946
X01624Y00946
X0157804Y00954414
X01557Y0095725
X015335Y009575
X015335Y009485
X015245Y00961
X015155
X015045Y00967
X014955
X01483
X01474
X01486Y00957
X01459Y00952
Y00944
X0142525Y009535
X01346Y00946
X01296
X0124Y00943
X0122
X0123Y00953
X0122Y00963
X0123Y00973
X0121
X0122Y00983
X0124
Y00963
X0121Y00953
X01174
X01154
X01164Y00943
X01144
Y00963
X01164
X01154Y00973
X01164Y00983
X01144
X01174Y00973
T02
X01857Y0053
X01Y005075
X00989
Y004925
X01
X00785
X00774
Y005075
X00785
X0055
Y004925
X00539
Y005075
X0031
X00299
Y004925
X0031
X0011
X00099
Y005075
X0011
T03
X01626Y00973
X01723
T05
X0173675Y000562
X0176215
X0184385
X0186925
X0183475Y001605
X0180935
X0178395
X0175855
X0177125Y001859
X0179665
X0182205
X0184745
X011194Y002119
X01094
X010686
X010184
X00993
X009676
Y002881
X00993
X010184
X010686
X01094
X011194
X009164
X00891
X008656
X0081396
X0078856
X0076316
X0071236
X0068696
X0066156
Y002119
X0068696
X0071236
X0076316
X0078856
X0081396
X008656
X00891
X009164
X0053939
X0051399
X0048859
X0043839
X0041299
X0038759
X0033639
X0031099
X0028559
X0023395
X0020855
X0018315
Y002881
X0020855
X0023395
X0028559
X0031099
X0033639
X0038759
X0041299
X0043839
X0048859
X0051399
X0053939
X0013235
X0010695
X0008155
Y002119
X0010695
X0013235
X0014281Y007119
X0009261
X0006721
X0004181
Y007881
X0006721
X0009261
X0014281
X0016821
X0019361
X0024481
X0027021
X0029561
X0034725
X0037265
X0039805
X0044885
X0047425
X0049965
Y007119
X0047425
X0044885
X0039805
X0037265
X0034725
X0029561
X0027021
X0024481
X0019361
X0016821
X0062079
X0064619
X0067159
X0072179
X0074719
X0077259
X0082379
X0084919
X0087459
X0092623
Y007881
X0087459
X0084919
X0082379
X0077259
X0074719
X0072179
X0067159
X0064619
X0062079
X0095163
X0097703
X0102783
X0105323
X0107863
Y007119
X0105323
X0102783
X0097703
X0095163
T06
X000614Y0005
X001122
X00163
X002138
X002646
X003154
X003662
X00417
X004678
X005186
X006414Y00047
X006922
X00743
X007938
X008446
X008954
X009462
X00997
X010478
X010986
X013092Y000657
X014108
X0172555Y001275
X0188045
X014108Y001673
X013092
X010986Y00953
X010478
X00997
X009462
X008954
X008446
X007938
X00743
X006922
X006414
X005196
X004688
X00418
X003672
X003164
X002656
X002148
X00164
X001132
X000624
T07
X0058Y0005
X0164
X01928Y00953
X0058Y0095
T08
X017741Y0094195
X018319
T09
X0174585Y00097
X0186015
M30
