G04*
G04 #@! TF.GenerationSoftware,Altium Limited,Altium Designer,25.4.2 (15)*
G04*
G04 Layer_Color=32896*
%FSLAX44Y44*%
%MOMM*%
G71*
G04*
G04 #@! TF.SameCoordinates,73184756-021C-4AC8-A4DF-FCC11D8EA491*
G04*
G04*
G04 #@! TF.FilePolarity,Positive*
G04*
G01*
G75*
%ADD12C,0.2000*%
%ADD14C,0.1667*%
D12*
X1766250Y237750D02*
X1786250D01*
X1766250Y226750D02*
X1786250D01*
X1766250D02*
Y237750D01*
X1786250Y226750D02*
Y237750D01*
X1792500Y74000D02*
X1813500D01*
Y120000D01*
X1792500D02*
X1813500D01*
X1792500Y74000D02*
Y120000D01*
X1766250Y210750D02*
X1786250D01*
X1766250D02*
Y221750D01*
X1786250D01*
Y210750D02*
Y221750D01*
X1804000Y323000D02*
X1815000D01*
X1804000Y303000D02*
Y323000D01*
Y303000D02*
X1815000D01*
Y323000D01*
D14*
X1820830Y338332D02*
X1822496Y339998D01*
X1825828D01*
X1827494Y338332D01*
Y331668D01*
X1825828Y330002D01*
X1822496D01*
X1820830Y331668D01*
X1817498Y338332D02*
X1815831Y339998D01*
X1812499D01*
X1810833Y338332D01*
Y336666D01*
X1812499Y335000D01*
X1814165D01*
X1812499D01*
X1810833Y333334D01*
Y331668D01*
X1812499Y330002D01*
X1815831D01*
X1817498Y331668D01*
X1807501Y330002D02*
X1804169D01*
X1805835D01*
Y339998D01*
X1807501Y338332D01*
X1792506Y330002D02*
X1799170D01*
X1792506Y336666D01*
Y338332D01*
X1794172Y339998D01*
X1797504D01*
X1799170Y338332D01*
X1760827Y227502D02*
Y237498D01*
X1755829D01*
X1754163Y235832D01*
Y232500D01*
X1755829Y230834D01*
X1760827D01*
X1757495D02*
X1754163Y227502D01*
X1750831Y235832D02*
X1749164Y237498D01*
X1745832D01*
X1744166Y235832D01*
Y234166D01*
X1745832Y232500D01*
X1747498D01*
X1745832D01*
X1744166Y230834D01*
Y229168D01*
X1745832Y227502D01*
X1749164D01*
X1750831Y229168D01*
X1734169Y227502D02*
X1740834D01*
X1734169Y234166D01*
Y235832D01*
X1735836Y237498D01*
X1739168D01*
X1740834Y235832D01*
X1730837D02*
X1729171Y237498D01*
X1725839D01*
X1724173Y235832D01*
Y229168D01*
X1725839Y227502D01*
X1729171D01*
X1730837Y229168D01*
Y235832D01*
X1753330Y218332D02*
X1754996Y219998D01*
X1758328D01*
X1759994Y218332D01*
Y211668D01*
X1758328Y210002D01*
X1754996D01*
X1753330Y211668D01*
X1749998Y218332D02*
X1748331Y219998D01*
X1744999D01*
X1743333Y218332D01*
Y216666D01*
X1744999Y215000D01*
X1746665D01*
X1744999D01*
X1743333Y213334D01*
Y211668D01*
X1744999Y210002D01*
X1748331D01*
X1749998Y211668D01*
X1740001Y210002D02*
X1736669D01*
X1738335D01*
Y219998D01*
X1740001Y218332D01*
X1731670Y219998D02*
X1725006D01*
Y218332D01*
X1731670Y211668D01*
Y210002D01*
X1813330Y135832D02*
X1814996Y137498D01*
X1818328D01*
X1819994Y135832D01*
Y129168D01*
X1818328Y127502D01*
X1814996D01*
X1813330Y129168D01*
X1809998Y135832D02*
X1808331Y137498D01*
X1804999D01*
X1803333Y135832D01*
Y134166D01*
X1804999Y132500D01*
X1806665D01*
X1804999D01*
X1803333Y130834D01*
Y129168D01*
X1804999Y127502D01*
X1808331D01*
X1809998Y129168D01*
X1800001Y127502D02*
X1796669D01*
X1798335D01*
Y137498D01*
X1800001Y135832D01*
X1785006Y137498D02*
X1791670D01*
Y132500D01*
X1788338Y134166D01*
X1786672D01*
X1785006Y132500D01*
Y129168D01*
X1786672Y127502D01*
X1790004D01*
X1791670Y129168D01*
M02*
