G04*
G04 #@! TF.GenerationSoftware,Altium Limited,Altium Designer,25.4.2 (15)*
G04*
G04 Layer_Color=8388736*
%FSLAX44Y44*%
%MOMM*%
G71*
G04*
G04 #@! TF.SameCoordinates,73184756-021C-4AC8-A4DF-FCC11D8EA491*
G04*
G04*
G04 #@! TF.FilePolarity,Negative*
G04*
G01*
G75*
G04:AMPARAMS|DCode=15|XSize=5.2mm|YSize=5.2mm|CornerRadius=1.3mm|HoleSize=0mm|Usage=FLASHONLY|Rotation=270.000|XOffset=0mm|YOffset=0mm|HoleType=Round|Shape=RoundedRectangle|*
%AMROUNDEDRECTD15*
21,1,5.2000,2.6000,0,0,270.0*
21,1,2.6000,5.2000,0,0,270.0*
1,1,2.6000,-1.3000,-1.3000*
1,1,2.6000,-1.3000,1.3000*
1,1,2.6000,1.3000,1.3000*
1,1,2.6000,1.3000,-1.3000*
%
%ADD15ROUNDEDRECTD15*%
G04:AMPARAMS|DCode=16|XSize=5mm|YSize=2mm|CornerRadius=0.5mm|HoleSize=0mm|Usage=FLASHONLY|Rotation=270.000|XOffset=0mm|YOffset=0mm|HoleType=Round|Shape=RoundedRectangle|*
%AMROUNDEDRECTD16*
21,1,5.0000,1.0000,0,0,270.0*
21,1,4.0000,2.0000,0,0,270.0*
1,1,1.0000,-0.5000,-2.0000*
1,1,1.0000,-0.5000,2.0000*
1,1,1.0000,0.5000,2.0000*
1,1,1.0000,0.5000,-2.0000*
%
%ADD16ROUNDEDRECTD16*%
G04:AMPARAMS|DCode=17|XSize=0.6mm|YSize=1.1mm|CornerRadius=0.15mm|HoleSize=0mm|Usage=FLASHONLY|Rotation=270.000|XOffset=0mm|YOffset=0mm|HoleType=Round|Shape=RoundedRectangle|*
%AMROUNDEDRECTD17*
21,1,0.6000,0.8000,0,0,270.0*
21,1,0.3000,1.1000,0,0,270.0*
1,1,0.3000,-0.4000,-0.1500*
1,1,0.3000,-0.4000,0.1500*
1,1,0.3000,0.4000,0.1500*
1,1,0.3000,0.4000,-0.1500*
%
%ADD17ROUNDEDRECTD17*%
%ADD18R,3.8000X4.4000*%
G04:AMPARAMS|DCode=19|XSize=0.4mm|YSize=0.9mm|CornerRadius=0.1mm|HoleSize=0mm|Usage=FLASHONLY|Rotation=0.000|XOffset=0mm|YOffset=0mm|HoleType=Round|Shape=RoundedRectangle|*
%AMROUNDEDRECTD19*
21,1,0.4000,0.7000,0,0,0.0*
21,1,0.2000,0.9000,0,0,0.0*
1,1,0.2000,0.1000,-0.3500*
1,1,0.2000,-0.1000,-0.3500*
1,1,0.2000,-0.1000,0.3500*
1,1,0.2000,0.1000,0.3500*
%
%ADD19ROUNDEDRECTD19*%
G04:AMPARAMS|DCode=20|XSize=1.05mm|YSize=0.65mm|CornerRadius=0.1625mm|HoleSize=0mm|Usage=FLASHONLY|Rotation=180.000|XOffset=0mm|YOffset=0mm|HoleType=Round|Shape=RoundedRectangle|*
%AMROUNDEDRECTD20*
21,1,1.0500,0.3250,0,0,180.0*
21,1,0.7250,0.6500,0,0,180.0*
1,1,0.3250,-0.3625,0.1625*
1,1,0.3250,0.3625,0.1625*
1,1,0.3250,0.3625,-0.1625*
1,1,0.3250,-0.3625,-0.1625*
%
%ADD20ROUNDEDRECTD20*%
%ADD21R,0.4000X0.8000*%
%ADD22R,1.2000X1.2000*%
%ADD23R,0.8000X0.4000*%
%ADD24R,0.8000X0.8000*%
G04:AMPARAMS|DCode=25|XSize=0.6mm|YSize=1.14mm|CornerRadius=0.15mm|HoleSize=0mm|Usage=FLASHONLY|Rotation=180.000|XOffset=0mm|YOffset=0mm|HoleType=Round|Shape=RoundedRectangle|*
%AMROUNDEDRECTD25*
21,1,0.6000,0.8400,0,0,180.0*
21,1,0.3000,1.1400,0,0,180.0*
1,1,0.3000,-0.1500,0.4200*
1,1,0.3000,0.1500,0.4200*
1,1,0.3000,0.1500,-0.4200*
1,1,0.3000,-0.1500,-0.4200*
%
%ADD25ROUNDEDRECTD25*%
G04:AMPARAMS|DCode=26|XSize=0.3mm|YSize=1.14mm|CornerRadius=0.075mm|HoleSize=0mm|Usage=FLASHONLY|Rotation=180.000|XOffset=0mm|YOffset=0mm|HoleType=Round|Shape=RoundedRectangle|*
%AMROUNDEDRECTD26*
21,1,0.3000,0.9900,0,0,180.0*
21,1,0.1500,1.1400,0,0,180.0*
1,1,0.1500,-0.0750,0.4950*
1,1,0.1500,0.0750,0.4950*
1,1,0.1500,0.0750,-0.4950*
1,1,0.1500,-0.0750,-0.4950*
%
%ADD26ROUNDEDRECTD26*%
G04:AMPARAMS|DCode=27|XSize=2.7mm|YSize=6mm|CornerRadius=0.675mm|HoleSize=0mm|Usage=FLASHONLY|Rotation=0.000|XOffset=0mm|YOffset=0mm|HoleType=Round|Shape=RoundedRectangle|*
%AMROUNDEDRECTD27*
21,1,2.7000,4.6500,0,0,0.0*
21,1,1.3500,6.0000,0,0,0.0*
1,1,1.3500,0.6750,-2.3250*
1,1,1.3500,-0.6750,-2.3250*
1,1,1.3500,-0.6750,2.3250*
1,1,1.3500,0.6750,2.3250*
%
%ADD27ROUNDEDRECTD27*%
G04:AMPARAMS|DCode=28|XSize=2.3mm|YSize=1.7mm|CornerRadius=0.425mm|HoleSize=0mm|Usage=FLASHONLY|Rotation=180.000|XOffset=0mm|YOffset=0mm|HoleType=Round|Shape=RoundedRectangle|*
%AMROUNDEDRECTD28*
21,1,2.3000,0.8500,0,0,180.0*
21,1,1.4500,1.7000,0,0,180.0*
1,1,0.8500,-0.7250,0.4250*
1,1,0.8500,0.7250,0.4250*
1,1,0.8500,0.7250,-0.4250*
1,1,0.8500,-0.7250,-0.4250*
%
%ADD28ROUNDEDRECTD28*%
G04:AMPARAMS|DCode=29|XSize=2.3mm|YSize=1.7mm|CornerRadius=0.425mm|HoleSize=0mm|Usage=FLASHONLY|Rotation=90.000|XOffset=0mm|YOffset=0mm|HoleType=Round|Shape=RoundedRectangle|*
%AMROUNDEDRECTD29*
21,1,2.3000,0.8500,0,0,90.0*
21,1,1.4500,1.7000,0,0,90.0*
1,1,0.8500,0.4250,0.7250*
1,1,0.8500,0.4250,-0.7250*
1,1,0.8500,-0.4250,-0.7250*
1,1,0.8500,-0.4250,0.7250*
%
%ADD29ROUNDEDRECTD29*%
G04:AMPARAMS|DCode=30|XSize=0.3mm|YSize=1.5mm|CornerRadius=0.075mm|HoleSize=0mm|Usage=FLASHONLY|Rotation=90.000|XOffset=0mm|YOffset=0mm|HoleType=Round|Shape=RoundedRectangle|*
%AMROUNDEDRECTD30*
21,1,0.3000,1.3500,0,0,90.0*
21,1,0.1500,1.5000,0,0,90.0*
1,1,0.1500,0.6750,0.0750*
1,1,0.1500,0.6750,-0.0750*
1,1,0.1500,-0.6750,-0.0750*
1,1,0.1500,-0.6750,0.0750*
%
%ADD30ROUNDEDRECTD30*%
G04:AMPARAMS|DCode=31|XSize=0.3mm|YSize=1.5mm|CornerRadius=0.075mm|HoleSize=0mm|Usage=FLASHONLY|Rotation=180.000|XOffset=0mm|YOffset=0mm|HoleType=Round|Shape=RoundedRectangle|*
%AMROUNDEDRECTD31*
21,1,0.3000,1.3500,0,0,180.0*
21,1,0.1500,1.5000,0,0,180.0*
1,1,0.1500,-0.0750,0.6750*
1,1,0.1500,0.0750,0.6750*
1,1,0.1500,0.0750,-0.6750*
1,1,0.1500,-0.0750,-0.6750*
%
%ADD31ROUNDEDRECTD31*%
G04:AMPARAMS|DCode=32|XSize=0.9mm|YSize=0.8mm|CornerRadius=0.2mm|HoleSize=0mm|Usage=FLASHONLY|Rotation=90.000|XOffset=0mm|YOffset=0mm|HoleType=Round|Shape=RoundedRectangle|*
%AMROUNDEDRECTD32*
21,1,0.9000,0.4000,0,0,90.0*
21,1,0.5000,0.8000,0,0,90.0*
1,1,0.4000,0.2000,0.2500*
1,1,0.4000,0.2000,-0.2500*
1,1,0.4000,-0.2000,-0.2500*
1,1,0.4000,-0.2000,0.2500*
%
%ADD32ROUNDEDRECTD32*%
G04:AMPARAMS|DCode=33|XSize=0.9mm|YSize=0.6mm|CornerRadius=0.15mm|HoleSize=0mm|Usage=FLASHONLY|Rotation=180.000|XOffset=0mm|YOffset=0mm|HoleType=Round|Shape=RoundedRectangle|*
%AMROUNDEDRECTD33*
21,1,0.9000,0.3000,0,0,180.0*
21,1,0.6000,0.6000,0,0,180.0*
1,1,0.3000,-0.3000,0.1500*
1,1,0.3000,0.3000,0.1500*
1,1,0.3000,0.3000,-0.1500*
1,1,0.3000,-0.3000,-0.1500*
%
%ADD33ROUNDEDRECTD33*%
%ADD34R,1.6000X2.5000*%
G04:AMPARAMS|DCode=35|XSize=1mm|YSize=1.4mm|CornerRadius=0.25mm|HoleSize=0mm|Usage=FLASHONLY|Rotation=270.000|XOffset=0mm|YOffset=0mm|HoleType=Round|Shape=RoundedRectangle|*
%AMROUNDEDRECTD35*
21,1,1.0000,0.9000,0,0,270.0*
21,1,0.5000,1.4000,0,0,270.0*
1,1,0.5000,-0.4500,-0.2500*
1,1,0.5000,-0.4500,0.2500*
1,1,0.5000,0.4500,0.2500*
1,1,0.5000,0.4500,-0.2500*
%
%ADD35ROUNDEDRECTD35*%
G04:AMPARAMS|DCode=36|XSize=1mm|YSize=0.5mm|CornerRadius=0.125mm|HoleSize=0mm|Usage=FLASHONLY|Rotation=270.000|XOffset=0mm|YOffset=0mm|HoleType=Round|Shape=RoundedRectangle|*
%AMROUNDEDRECTD36*
21,1,1.0000,0.2500,0,0,270.0*
21,1,0.7500,0.5000,0,0,270.0*
1,1,0.2500,-0.1250,-0.3750*
1,1,0.2500,-0.1250,0.3750*
1,1,0.2500,0.1250,0.3750*
1,1,0.2500,0.1250,-0.3750*
%
%ADD36ROUNDEDRECTD36*%
G04:AMPARAMS|DCode=37|XSize=1.2mm|YSize=0.5mm|CornerRadius=0.125mm|HoleSize=0mm|Usage=FLASHONLY|Rotation=270.000|XOffset=0mm|YOffset=0mm|HoleType=Round|Shape=RoundedRectangle|*
%AMROUNDEDRECTD37*
21,1,1.2000,0.2500,0,0,270.0*
21,1,0.9500,0.5000,0,0,270.0*
1,1,0.2500,-0.1250,-0.4750*
1,1,0.2500,-0.1250,0.4750*
1,1,0.2500,0.1250,0.4750*
1,1,0.2500,0.1250,-0.4750*
%
%ADD37ROUNDEDRECTD37*%
G04:AMPARAMS|DCode=38|XSize=1.25mm|YSize=0.35mm|CornerRadius=0.0875mm|HoleSize=0mm|Usage=FLASHONLY|Rotation=90.000|XOffset=0mm|YOffset=0mm|HoleType=Round|Shape=RoundedRectangle|*
%AMROUNDEDRECTD38*
21,1,1.2500,0.1750,0,0,90.0*
21,1,1.0750,0.3500,0,0,90.0*
1,1,0.1750,0.0875,0.5375*
1,1,0.1750,0.0875,-0.5375*
1,1,0.1750,-0.0875,-0.5375*
1,1,0.1750,-0.0875,0.5375*
%
%ADD38ROUNDEDRECTD38*%
G04:AMPARAMS|DCode=39|XSize=0.5mm|YSize=0.5mm|CornerRadius=0.125mm|HoleSize=0mm|Usage=FLASHONLY|Rotation=270.000|XOffset=0mm|YOffset=0mm|HoleType=Round|Shape=RoundedRectangle|*
%AMROUNDEDRECTD39*
21,1,0.5000,0.2500,0,0,270.0*
21,1,0.2500,0.5000,0,0,270.0*
1,1,0.2500,-0.1250,-0.1250*
1,1,0.2500,-0.1250,0.1250*
1,1,0.2500,0.1250,0.1250*
1,1,0.2500,0.1250,-0.1250*
%
%ADD39ROUNDEDRECTD39*%
G04:AMPARAMS|DCode=40|XSize=0.9mm|YSize=0.8mm|CornerRadius=0.2mm|HoleSize=0mm|Usage=FLASHONLY|Rotation=0.000|XOffset=0mm|YOffset=0mm|HoleType=Round|Shape=RoundedRectangle|*
%AMROUNDEDRECTD40*
21,1,0.9000,0.4000,0,0,0.0*
21,1,0.5000,0.8000,0,0,0.0*
1,1,0.4000,0.2500,-0.2000*
1,1,0.4000,-0.2500,-0.2000*
1,1,0.4000,-0.2500,0.2000*
1,1,0.4000,0.2500,0.2000*
%
%ADD40ROUNDEDRECTD40*%
G04:AMPARAMS|DCode=41|XSize=0.5mm|YSize=0.6mm|CornerRadius=0.125mm|HoleSize=0mm|Usage=FLASHONLY|Rotation=90.000|XOffset=0mm|YOffset=0mm|HoleType=Round|Shape=RoundedRectangle|*
%AMROUNDEDRECTD41*
21,1,0.5000,0.3500,0,0,90.0*
21,1,0.2500,0.6000,0,0,90.0*
1,1,0.2500,0.1750,0.1250*
1,1,0.2500,0.1750,-0.1250*
1,1,0.2500,-0.1750,-0.1250*
1,1,0.2500,-0.1750,0.1250*
%
%ADD41ROUNDEDRECTD41*%
G04:AMPARAMS|DCode=42|XSize=0.5mm|YSize=0.6mm|CornerRadius=0.125mm|HoleSize=0mm|Usage=FLASHONLY|Rotation=0.000|XOffset=0mm|YOffset=0mm|HoleType=Round|Shape=RoundedRectangle|*
%AMROUNDEDRECTD42*
21,1,0.5000,0.3500,0,0,0.0*
21,1,0.2500,0.6000,0,0,0.0*
1,1,0.2500,0.1250,-0.1750*
1,1,0.2500,-0.1250,-0.1750*
1,1,0.2500,-0.1250,0.1750*
1,1,0.2500,0.1250,0.1750*
%
%ADD42ROUNDEDRECTD42*%
G04:AMPARAMS|DCode=43|XSize=1.1mm|YSize=1.3mm|CornerRadius=0.275mm|HoleSize=0mm|Usage=FLASHONLY|Rotation=180.000|XOffset=0mm|YOffset=0mm|HoleType=Round|Shape=RoundedRectangle|*
%AMROUNDEDRECTD43*
21,1,1.1000,0.7500,0,0,180.0*
21,1,0.5500,1.3000,0,0,180.0*
1,1,0.5500,-0.2750,0.3750*
1,1,0.5500,0.2750,0.3750*
1,1,0.5500,0.2750,-0.3750*
1,1,0.5500,-0.2750,-0.3750*
%
%ADD43ROUNDEDRECTD43*%
G04:AMPARAMS|DCode=44|XSize=1.1mm|YSize=1.3mm|CornerRadius=0.275mm|HoleSize=0mm|Usage=FLASHONLY|Rotation=270.000|XOffset=0mm|YOffset=0mm|HoleType=Round|Shape=RoundedRectangle|*
%AMROUNDEDRECTD44*
21,1,1.1000,0.7500,0,0,270.0*
21,1,0.5500,1.3000,0,0,270.0*
1,1,0.5500,-0.3750,-0.2750*
1,1,0.5500,-0.3750,0.2750*
1,1,0.5500,0.3750,0.2750*
1,1,0.5500,0.3750,-0.2750*
%
%ADD44ROUNDEDRECTD44*%
%ADD45C,3.2500*%
%ADD46C,1.5000*%
%ADD47C,2.4000*%
%ADD48C,1.5500*%
%ADD49O,0.8000X2.1000*%
%ADD50O,0.8000X1.8000*%
%ADD51C,0.6500*%
%ADD52C,3.2000*%
%ADD53C,6.0000*%
%ADD54O,2.0000X3.0000*%
%ADD55C,0.8032*%
D15*
X1458000Y349000D02*
D03*
Y239000D02*
D03*
D16*
X1192000Y882000D02*
D03*
Y966000D02*
D03*
Y164000D02*
D03*
Y80000D02*
D03*
D17*
X1321000Y309050D02*
D03*
Y296350D02*
D03*
Y283650D02*
D03*
Y270950D02*
D03*
X1379000Y309050D02*
D03*
Y296350D02*
D03*
Y283650D02*
D03*
Y270950D02*
D03*
X1321000Y389050D02*
D03*
Y376350D02*
D03*
Y363650D02*
D03*
Y350950D02*
D03*
X1379000Y389050D02*
D03*
Y376350D02*
D03*
Y363650D02*
D03*
Y350950D02*
D03*
D18*
X1356000Y290000D02*
D03*
X1356000Y370000D02*
D03*
D19*
X1350000Y265000D02*
D03*
Y315000D02*
D03*
X1350000Y345000D02*
D03*
Y395000D02*
D03*
D20*
X1601250Y893750D02*
D03*
X1642750D02*
D03*
X1601250Y872250D02*
D03*
X1642750D02*
D03*
X1602250Y945750D02*
D03*
X1643750D02*
D03*
X1602250Y924250D02*
D03*
X1643750D02*
D03*
D21*
X1760500Y635000D02*
D03*
X1769000D02*
D03*
X1777500D02*
D03*
X1786000D02*
D03*
X1794500D02*
D03*
X1803000D02*
D03*
X1811500D02*
D03*
X1820000D02*
D03*
X1828500D02*
D03*
X1837000D02*
D03*
X1845500D02*
D03*
X1854000D02*
D03*
X1862500D02*
D03*
X1871000D02*
D03*
X1879500D02*
D03*
X1760500Y775000D02*
D03*
X1769000D02*
D03*
X1777500D02*
D03*
X1786000D02*
D03*
X1794500D02*
D03*
X1803000D02*
D03*
X1811500D02*
D03*
X1820000D02*
D03*
X1828500D02*
D03*
X1837000D02*
D03*
X1845500D02*
D03*
X1854000D02*
D03*
X1862500D02*
D03*
X1871000D02*
D03*
X1879500D02*
D03*
D22*
X1836500Y721500D02*
D03*
X1820000D02*
D03*
X1803500D02*
D03*
Y705000D02*
D03*
Y688500D02*
D03*
X1820000D02*
D03*
X1836500D02*
D03*
Y705000D02*
D03*
X1820000D02*
D03*
D23*
X1890000Y764500D02*
D03*
Y756000D02*
D03*
Y747500D02*
D03*
Y739000D02*
D03*
Y730500D02*
D03*
Y722000D02*
D03*
Y713500D02*
D03*
Y705000D02*
D03*
Y696500D02*
D03*
Y688000D02*
D03*
Y679500D02*
D03*
Y671000D02*
D03*
Y662500D02*
D03*
Y654000D02*
D03*
Y645500D02*
D03*
X1750000D02*
D03*
Y654000D02*
D03*
Y662500D02*
D03*
Y671000D02*
D03*
Y679500D02*
D03*
Y688000D02*
D03*
Y696500D02*
D03*
Y705000D02*
D03*
Y713500D02*
D03*
Y722000D02*
D03*
Y730500D02*
D03*
Y739000D02*
D03*
Y747500D02*
D03*
Y756000D02*
D03*
Y764500D02*
D03*
D24*
Y635000D02*
D03*
X1890000D02*
D03*
X1750000Y775000D02*
D03*
X1890000D02*
D03*
D25*
X1835000Y930000D02*
D03*
X1827000D02*
D03*
X1771000D02*
D03*
X1779000D02*
D03*
D26*
X1820500D02*
D03*
X1815500D02*
D03*
X1810500D02*
D03*
X1805500D02*
D03*
X1800500D02*
D03*
X1795500D02*
D03*
X1790500D02*
D03*
X1785500D02*
D03*
D27*
X1373000Y937000D02*
D03*
X1323000D02*
D03*
D28*
X1339000Y223000D02*
D03*
X1381000D02*
D03*
X1701000Y973000D02*
D03*
X1659000D02*
D03*
X1052200Y130000D02*
D03*
X1094200D02*
D03*
X950600D02*
D03*
X992600D02*
D03*
X849000D02*
D03*
X891000D02*
D03*
X747400D02*
D03*
X789400D02*
D03*
X645800D02*
D03*
X687800D02*
D03*
X472200D02*
D03*
X514200D02*
D03*
X370600D02*
D03*
X412600D02*
D03*
X269000D02*
D03*
X311000D02*
D03*
X167400D02*
D03*
X209400D02*
D03*
X65800D02*
D03*
X107800D02*
D03*
X108800Y870000D02*
D03*
X66800D02*
D03*
X210400D02*
D03*
X168400D02*
D03*
X312000D02*
D03*
X270000D02*
D03*
X413600D02*
D03*
X371600D02*
D03*
X515200D02*
D03*
X473200D02*
D03*
X687800D02*
D03*
X645800D02*
D03*
X789400D02*
D03*
X747400D02*
D03*
X891000D02*
D03*
X849000D02*
D03*
X992600D02*
D03*
X950600D02*
D03*
X1094200D02*
D03*
X1052200D02*
D03*
D29*
X1279000Y351000D02*
D03*
Y309000D02*
D03*
D30*
X1750000Y442500D02*
D03*
Y447500D02*
D03*
Y452500D02*
D03*
Y457500D02*
D03*
Y462500D02*
D03*
Y467500D02*
D03*
Y472500D02*
D03*
Y477500D02*
D03*
Y482500D02*
D03*
Y487500D02*
D03*
Y492500D02*
D03*
Y497500D02*
D03*
X1838000D02*
D03*
Y492500D02*
D03*
Y487500D02*
D03*
Y482500D02*
D03*
Y477500D02*
D03*
Y472500D02*
D03*
Y467500D02*
D03*
Y462500D02*
D03*
Y457500D02*
D03*
Y452500D02*
D03*
Y447500D02*
D03*
Y442500D02*
D03*
D31*
X1766500Y514000D02*
D03*
X1771500D02*
D03*
X1776500D02*
D03*
X1781500D02*
D03*
X1786500D02*
D03*
X1791500D02*
D03*
X1796500D02*
D03*
X1801500D02*
D03*
X1806500D02*
D03*
X1811500D02*
D03*
X1816500D02*
D03*
X1821500D02*
D03*
Y426000D02*
D03*
X1816500D02*
D03*
X1811500D02*
D03*
X1806500D02*
D03*
X1801500D02*
D03*
X1796500D02*
D03*
X1791500D02*
D03*
X1786500D02*
D03*
X1781500D02*
D03*
X1776500D02*
D03*
X1771500D02*
D03*
X1766500D02*
D03*
D32*
X1868500Y549830D02*
D03*
Y568330D02*
D03*
X1883000D02*
D03*
Y549830D02*
D03*
X1253000Y334500D02*
D03*
Y351500D02*
D03*
X1254000Y808500D02*
D03*
Y825500D02*
D03*
X1294000D02*
D03*
Y808500D02*
D03*
X1273000Y825500D02*
D03*
Y808500D02*
D03*
X1313000Y808500D02*
D03*
Y825500D02*
D03*
X1873000Y912500D02*
D03*
Y929500D02*
D03*
X1730000Y912500D02*
D03*
Y929500D02*
D03*
X1578040Y872164D02*
D03*
Y889164D02*
D03*
X1578040Y924164D02*
D03*
Y941164D02*
D03*
X1679000Y123500D02*
D03*
Y106500D02*
D03*
X1927000Y123500D02*
D03*
Y106500D02*
D03*
X1854000Y356500D02*
D03*
Y373500D02*
D03*
X1054000Y348500D02*
D03*
Y331500D02*
D03*
X953000Y348500D02*
D03*
Y331500D02*
D03*
X851000Y348500D02*
D03*
Y331500D02*
D03*
X749000Y348500D02*
D03*
Y331500D02*
D03*
X647000Y348500D02*
D03*
Y331500D02*
D03*
X473990Y348500D02*
D03*
Y331500D02*
D03*
X372990Y348500D02*
D03*
Y331500D02*
D03*
X270990Y348500D02*
D03*
Y331500D02*
D03*
X168990Y348500D02*
D03*
Y331500D02*
D03*
X66990Y348500D02*
D03*
Y331500D02*
D03*
X107210Y651500D02*
D03*
Y668500D02*
D03*
X208210Y651500D02*
D03*
Y668500D02*
D03*
X310210Y651500D02*
D03*
Y668500D02*
D03*
X412210Y651500D02*
D03*
Y668500D02*
D03*
X514210Y651500D02*
D03*
Y668500D02*
D03*
X686190Y651500D02*
D03*
Y668500D02*
D03*
X787190Y651500D02*
D03*
Y668500D02*
D03*
X889190Y651500D02*
D03*
Y668500D02*
D03*
X991190Y651500D02*
D03*
Y668500D02*
D03*
X1093190Y651500D02*
D03*
Y668500D02*
D03*
X1520000Y933500D02*
D03*
Y948500D02*
D03*
X1293000Y880500D02*
D03*
Y865500D02*
D03*
X1802000Y396500D02*
D03*
Y381500D02*
D03*
X1781478Y396545D02*
D03*
Y381545D02*
D03*
X1819750Y396500D02*
D03*
Y381500D02*
D03*
X1010000Y507500D02*
D03*
Y492500D02*
D03*
X795000Y507500D02*
D03*
Y492500D02*
D03*
X560000Y507500D02*
D03*
Y492500D02*
D03*
X320000Y507500D02*
D03*
Y492500D02*
D03*
X120000Y507500D02*
D03*
Y492500D02*
D03*
D33*
X1474000Y934500D02*
D03*
Y944000D02*
D03*
Y953500D02*
D03*
X1444000Y934500D02*
D03*
Y944000D02*
D03*
Y953500D02*
D03*
D34*
X1459000Y944000D02*
D03*
D35*
X1078000Y348000D02*
D03*
Y330000D02*
D03*
X977000Y348000D02*
D03*
Y330000D02*
D03*
X875000Y348000D02*
D03*
Y330000D02*
D03*
X773000Y348000D02*
D03*
Y330000D02*
D03*
X671000Y348000D02*
D03*
Y330000D02*
D03*
X497990Y348000D02*
D03*
Y330000D02*
D03*
X396990Y348000D02*
D03*
Y330000D02*
D03*
X294990Y348000D02*
D03*
Y330000D02*
D03*
X192990Y348000D02*
D03*
Y330000D02*
D03*
X90990Y348000D02*
D03*
Y330000D02*
D03*
X83210Y652000D02*
D03*
Y670000D02*
D03*
X184210Y652000D02*
D03*
Y670000D02*
D03*
X286210Y652000D02*
D03*
Y670000D02*
D03*
X388210Y652000D02*
D03*
Y670000D02*
D03*
X490210Y652000D02*
D03*
Y670000D02*
D03*
X662190Y652000D02*
D03*
Y670000D02*
D03*
X763190Y652000D02*
D03*
Y670000D02*
D03*
X865190Y652000D02*
D03*
Y670000D02*
D03*
X967190Y652000D02*
D03*
Y670000D02*
D03*
X1069190Y652000D02*
D03*
Y670000D02*
D03*
D36*
X1798500Y874000D02*
D03*
X1808000D02*
D03*
X1817500D02*
D03*
X1798500Y900000D02*
D03*
X1808000D02*
D03*
X1817500D02*
D03*
X1732000Y227000D02*
D03*
X1741500D02*
D03*
X1751000D02*
D03*
X1732000Y253000D02*
D03*
X1741500D02*
D03*
X1751000D02*
D03*
X1800000Y227000D02*
D03*
X1809500D02*
D03*
X1819000D02*
D03*
X1800000Y253000D02*
D03*
X1809500D02*
D03*
X1819000D02*
D03*
D37*
X1313500Y851750D02*
D03*
X1323000D02*
D03*
X1332500D02*
D03*
X1313500Y880250D02*
D03*
X1323000D02*
D03*
X1332500D02*
D03*
D38*
X1069500Y530000D02*
D03*
X1063000D02*
D03*
X1056500D02*
D03*
X1050000D02*
D03*
X1043500D02*
D03*
X1037000D02*
D03*
X1030500D02*
D03*
X1069500Y470000D02*
D03*
X1063000D02*
D03*
X1056500D02*
D03*
X1050000D02*
D03*
X1043500D02*
D03*
X1037000D02*
D03*
X1030500D02*
D03*
X854500Y530000D02*
D03*
X848000D02*
D03*
X841500D02*
D03*
X835000D02*
D03*
X828500D02*
D03*
X822000D02*
D03*
X815500D02*
D03*
X854500Y470000D02*
D03*
X848000D02*
D03*
X841500D02*
D03*
X835000D02*
D03*
X828500D02*
D03*
X822000D02*
D03*
X815500D02*
D03*
X619500Y530000D02*
D03*
X613000D02*
D03*
X606500D02*
D03*
X600000D02*
D03*
X593500D02*
D03*
X587000D02*
D03*
X580500D02*
D03*
X619500Y470000D02*
D03*
X613000D02*
D03*
X606500D02*
D03*
X600000D02*
D03*
X593500D02*
D03*
X587000D02*
D03*
X580500D02*
D03*
X379500Y530000D02*
D03*
X373000D02*
D03*
X366500D02*
D03*
X360000D02*
D03*
X353500D02*
D03*
X347000D02*
D03*
X340500D02*
D03*
X379500Y470000D02*
D03*
X373000D02*
D03*
X366500D02*
D03*
X360000D02*
D03*
X353500D02*
D03*
X347000D02*
D03*
X340500D02*
D03*
X179500Y530000D02*
D03*
X173000D02*
D03*
X166500D02*
D03*
X160000D02*
D03*
X153500D02*
D03*
X147000D02*
D03*
X140500D02*
D03*
X179500Y470000D02*
D03*
X173000D02*
D03*
X166500D02*
D03*
X160000D02*
D03*
X153500D02*
D03*
X147000D02*
D03*
X140500D02*
D03*
D39*
X1910000Y517500D02*
D03*
Y508500D02*
D03*
D40*
X1798000Y576000D02*
D03*
X1815000D02*
D03*
X1703500Y480040D02*
D03*
X1686500D02*
D03*
X1703500Y462500D02*
D03*
X1686500D02*
D03*
X1703500Y444500D02*
D03*
X1686500D02*
D03*
X1703500Y497580D02*
D03*
X1686500D02*
D03*
X1885500Y512540D02*
D03*
X1868500D02*
D03*
X1102500Y330000D02*
D03*
X1119500D02*
D03*
X1001500D02*
D03*
X1018500D02*
D03*
X899500D02*
D03*
X916500D02*
D03*
X797500D02*
D03*
X814500D02*
D03*
X695500D02*
D03*
X712500D02*
D03*
X522490D02*
D03*
X539490D02*
D03*
X421490D02*
D03*
X438490D02*
D03*
X319490D02*
D03*
X336490D02*
D03*
X217490D02*
D03*
X234490D02*
D03*
X115490D02*
D03*
X132490D02*
D03*
X58710Y670000D02*
D03*
X41710D02*
D03*
X159710D02*
D03*
X142710D02*
D03*
X261710D02*
D03*
X244710D02*
D03*
X363710D02*
D03*
X346710D02*
D03*
X465710D02*
D03*
X448710D02*
D03*
X637690D02*
D03*
X620690D02*
D03*
X738690D02*
D03*
X721690D02*
D03*
X840690D02*
D03*
X823690D02*
D03*
X942690D02*
D03*
X925690D02*
D03*
X1044690D02*
D03*
X1027690D02*
D03*
X1443500Y910000D02*
D03*
X1458500D02*
D03*
X1347500Y826000D02*
D03*
X1332500D02*
D03*
X1387500Y846000D02*
D03*
X1372500D02*
D03*
X1862500Y805000D02*
D03*
X1877500D02*
D03*
X1928000Y524000D02*
D03*
X1943000D02*
D03*
X1868500Y478000D02*
D03*
X1883500D02*
D03*
X1868500Y453000D02*
D03*
X1883500D02*
D03*
X1868500Y433000D02*
D03*
X1883500D02*
D03*
X1812500Y542000D02*
D03*
X1827500D02*
D03*
X1868500Y530080D02*
D03*
X1883500D02*
D03*
D41*
X1756000Y601000D02*
D03*
Y611000D02*
D03*
X1772000Y601000D02*
D03*
Y611000D02*
D03*
X1798000Y601000D02*
D03*
Y611000D02*
D03*
X1764938Y392500D02*
D03*
Y382500D02*
D03*
X1776500Y550000D02*
D03*
Y540000D02*
D03*
X1749398Y392500D02*
D03*
Y382500D02*
D03*
X1801500Y337000D02*
D03*
Y327000D02*
D03*
X1817040Y337000D02*
D03*
Y327000D02*
D03*
X1801460Y282000D02*
D03*
Y292000D02*
D03*
X1817000D02*
D03*
Y282000D02*
D03*
D42*
X1764540Y364000D02*
D03*
X1774540D02*
D03*
X1750000D02*
D03*
X1740000D02*
D03*
X1791960Y308000D02*
D03*
X1801960D02*
D03*
X1826500D02*
D03*
X1816500D02*
D03*
X1852000Y568500D02*
D03*
X1842000D02*
D03*
X1730000Y531000D02*
D03*
X1720000D02*
D03*
X1866500Y496000D02*
D03*
X1876500D02*
D03*
D43*
X1444000Y889000D02*
D03*
X1464000D02*
D03*
X1388000D02*
D03*
X1368000D02*
D03*
X1388000Y866000D02*
D03*
X1368000D02*
D03*
X1862500Y827000D02*
D03*
X1882500D02*
D03*
X1929000Y498000D02*
D03*
X1949000D02*
D03*
D44*
X1500000Y934000D02*
D03*
Y954000D02*
D03*
X1273000Y880000D02*
D03*
Y860000D02*
D03*
X1557000Y872000D02*
D03*
Y892000D02*
D03*
X1557000Y924000D02*
D03*
Y944000D02*
D03*
X1916000Y465500D02*
D03*
Y445500D02*
D03*
D45*
X1745850Y97000D02*
D03*
X1860150D02*
D03*
D46*
X1834750Y160500D02*
D03*
X1809350D02*
D03*
X1783950D02*
D03*
X1758550D02*
D03*
X1771250Y185900D02*
D03*
X1796650D02*
D03*
X1822050D02*
D03*
X1847450D02*
D03*
D47*
X1880450Y127500D02*
D03*
X1725550D02*
D03*
D48*
X1869250Y56200D02*
D03*
X1736750D02*
D03*
X1843850D02*
D03*
X1762150D02*
D03*
D49*
X1759800Y936950D02*
D03*
X1846200D02*
D03*
D50*
Y978750D02*
D03*
X1759800D02*
D03*
D51*
X1774100Y941950D02*
D03*
X1831900D02*
D03*
D52*
X641400Y47000D02*
D03*
X692200D02*
D03*
X743000D02*
D03*
X793800D02*
D03*
X844600D02*
D03*
X895400D02*
D03*
X946200D02*
D03*
X997000D02*
D03*
X1047800D02*
D03*
X1098600D02*
D03*
X61400Y50000D02*
D03*
X112200D02*
D03*
X163000D02*
D03*
X213800D02*
D03*
X264600D02*
D03*
X315400D02*
D03*
X366200D02*
D03*
X417000D02*
D03*
X467800D02*
D03*
X518600D02*
D03*
X519600Y953000D02*
D03*
X468800D02*
D03*
X418000D02*
D03*
X367200D02*
D03*
X316400D02*
D03*
X265600D02*
D03*
X214800D02*
D03*
X164000D02*
D03*
X113200D02*
D03*
X62400D02*
D03*
X1098600D02*
D03*
X1047800D02*
D03*
X997000D02*
D03*
X946200D02*
D03*
X895400D02*
D03*
X844600D02*
D03*
X793800D02*
D03*
X743000D02*
D03*
X692200D02*
D03*
X641400D02*
D03*
X1410800Y65700D02*
D03*
X1309200D02*
D03*
Y167300D02*
D03*
X1410800D02*
D03*
D53*
X580000Y50000D02*
D03*
Y950000D02*
D03*
X1640000Y50000D02*
D03*
X1928000Y953000D02*
D03*
D54*
X1068600Y211900D02*
D03*
X1094000D02*
D03*
X1119400D02*
D03*
X1068600Y288100D02*
D03*
X1094000D02*
D03*
X1119400D02*
D03*
X967600Y211900D02*
D03*
X993000D02*
D03*
X1018400D02*
D03*
X967600Y288100D02*
D03*
X993000D02*
D03*
X1018400D02*
D03*
X865600Y211900D02*
D03*
X891000D02*
D03*
X916400D02*
D03*
X865600Y288100D02*
D03*
X891000D02*
D03*
X916400D02*
D03*
X763160Y211900D02*
D03*
X788560D02*
D03*
X813960D02*
D03*
X763160Y288100D02*
D03*
X788560D02*
D03*
X813960D02*
D03*
X661560Y211900D02*
D03*
X686960D02*
D03*
X712360D02*
D03*
X661560Y288100D02*
D03*
X686960D02*
D03*
X712360D02*
D03*
X488590Y211900D02*
D03*
X513990D02*
D03*
X539390D02*
D03*
X488590Y288100D02*
D03*
X513990D02*
D03*
X539390D02*
D03*
X387590Y211900D02*
D03*
X412990D02*
D03*
X438390D02*
D03*
X387590Y288100D02*
D03*
X412990D02*
D03*
X438390D02*
D03*
X285590Y211900D02*
D03*
X310990D02*
D03*
X336390D02*
D03*
X285590Y288100D02*
D03*
X310990D02*
D03*
X336390D02*
D03*
X183150Y211900D02*
D03*
X208550D02*
D03*
X233950D02*
D03*
X183150Y288100D02*
D03*
X208550D02*
D03*
X233950D02*
D03*
X81550Y211900D02*
D03*
X106950D02*
D03*
X132350D02*
D03*
X81550Y288100D02*
D03*
X106950D02*
D03*
X132350D02*
D03*
X92610Y788100D02*
D03*
X67210D02*
D03*
X41810D02*
D03*
X92610Y711900D02*
D03*
X67210D02*
D03*
X41810D02*
D03*
X193610Y788100D02*
D03*
X168210D02*
D03*
X142810D02*
D03*
X193610Y711900D02*
D03*
X168210D02*
D03*
X142810D02*
D03*
X295610Y788100D02*
D03*
X270210D02*
D03*
X244810D02*
D03*
X295610Y711900D02*
D03*
X270210D02*
D03*
X244810D02*
D03*
X398050Y788100D02*
D03*
X372650D02*
D03*
X347250D02*
D03*
X398050Y711900D02*
D03*
X372650D02*
D03*
X347250D02*
D03*
X499650Y788100D02*
D03*
X474250D02*
D03*
X448850D02*
D03*
X499650Y711900D02*
D03*
X474250D02*
D03*
X448850D02*
D03*
X671590Y788100D02*
D03*
X646190D02*
D03*
X620790D02*
D03*
X671590Y711900D02*
D03*
X646190D02*
D03*
X620790D02*
D03*
X772590Y788100D02*
D03*
X747190D02*
D03*
X721790D02*
D03*
X772590Y711900D02*
D03*
X747190D02*
D03*
X721790D02*
D03*
X874590Y788100D02*
D03*
X849190D02*
D03*
X823790D02*
D03*
X874590Y711900D02*
D03*
X849190D02*
D03*
X823790D02*
D03*
X977030Y788100D02*
D03*
X951630D02*
D03*
X926230D02*
D03*
X977030Y711900D02*
D03*
X951630D02*
D03*
X926230D02*
D03*
X1078630Y788100D02*
D03*
X1053230D02*
D03*
X1027830D02*
D03*
X1078630Y711900D02*
D03*
X1053230D02*
D03*
X1027830D02*
D03*
D55*
X1227750Y758000D02*
D03*
X1203000Y720750D02*
D03*
X1175750Y721000D02*
D03*
X1190750Y699500D02*
D03*
X1163750Y699750D02*
D03*
X1139000Y662500D02*
D03*
M02*
