G04*
G04 #@! TF.GenerationSoftware,Altium Limited,Altium Designer,25.4.2 (15)*
G04*
G04 Layer_Color=16711935*
%FSLAX44Y44*%
%MOMM*%
G71*
G04*
G04 #@! TF.SameCoordinates,BB2F4313-EE7A-43B8-A872-F110206310C3*
G04*
G04*
G04 #@! TF.FilePolarity,Negative*
G04*
G01*
G75*
G04:AMPARAMS|DCode=41|XSize=0.5mm|YSize=0.6mm|CornerRadius=0.125mm|HoleSize=0mm|Usage=FLASHONLY|Rotation=90.000|XOffset=0mm|YOffset=0mm|HoleType=Round|Shape=RoundedRectangle|*
%AMROUNDEDRECTD41*
21,1,0.5000,0.3500,0,0,90.0*
21,1,0.2500,0.6000,0,0,90.0*
1,1,0.2500,0.1750,0.1250*
1,1,0.2500,0.1750,-0.1250*
1,1,0.2500,-0.1750,-0.1250*
1,1,0.2500,-0.1750,0.1250*
%
%ADD41ROUNDEDRECTD41*%
G04:AMPARAMS|DCode=42|XSize=0.5mm|YSize=0.6mm|CornerRadius=0.125mm|HoleSize=0mm|Usage=FLASHONLY|Rotation=0.000|XOffset=0mm|YOffset=0mm|HoleType=Round|Shape=RoundedRectangle|*
%AMROUNDEDRECTD42*
21,1,0.5000,0.3500,0,0,0.0*
21,1,0.2500,0.6000,0,0,0.0*
1,1,0.2500,0.1250,-0.1750*
1,1,0.2500,-0.1250,-0.1750*
1,1,0.2500,-0.1250,0.1750*
1,1,0.2500,0.1250,0.1750*
%
%ADD42ROUNDEDRECTD42*%
%ADD45C,3.2500*%
%ADD46C,1.5000*%
%ADD47C,2.4000*%
%ADD48C,1.5500*%
%ADD49O,0.8000X2.1000*%
%ADD50O,0.8000X1.8000*%
%ADD51C,0.6500*%
%ADD52C,3.2000*%
%ADD53C,6.0000*%
%ADD54O,2.0000X3.0000*%
%ADD55C,0.8032*%
G04:AMPARAMS|DCode=67|XSize=1.1mm|YSize=1.6mm|CornerRadius=0.275mm|HoleSize=0mm|Usage=FLASHONLY|Rotation=90.000|XOffset=0mm|YOffset=0mm|HoleType=Round|Shape=RoundedRectangle|*
%AMROUNDEDRECTD67*
21,1,1.1000,1.0500,0,0,90.0*
21,1,0.5500,1.6000,0,0,90.0*
1,1,0.5500,0.5250,0.2750*
1,1,0.5500,0.5250,-0.2750*
1,1,0.5500,-0.5250,-0.2750*
1,1,0.5500,-0.5250,0.2750*
%
%ADD67ROUNDEDRECTD67*%
D41*
X1809500Y308000D02*
D03*
Y318000D02*
D03*
D42*
X1771250Y232250D02*
D03*
X1781250D02*
D03*
X1781250Y216250D02*
D03*
X1771250D02*
D03*
D45*
X1745850Y97000D02*
D03*
X1860150D02*
D03*
D46*
X1834750Y160500D02*
D03*
X1809350D02*
D03*
X1783950D02*
D03*
X1758550D02*
D03*
X1771250Y185900D02*
D03*
X1796650D02*
D03*
X1822050D02*
D03*
X1847450D02*
D03*
D47*
X1880450Y127500D02*
D03*
X1725550D02*
D03*
D48*
X1869250Y56200D02*
D03*
X1736750D02*
D03*
X1843850D02*
D03*
X1762150D02*
D03*
D49*
X1759800Y936950D02*
D03*
X1846200D02*
D03*
D50*
Y978750D02*
D03*
X1759800D02*
D03*
D51*
X1774100Y941950D02*
D03*
X1831900D02*
D03*
D52*
X641400Y47000D02*
D03*
X692200D02*
D03*
X743000D02*
D03*
X793800D02*
D03*
X844600D02*
D03*
X895400D02*
D03*
X946200D02*
D03*
X997000D02*
D03*
X1047800D02*
D03*
X1098600D02*
D03*
X61400Y50000D02*
D03*
X112200D02*
D03*
X163000D02*
D03*
X213800D02*
D03*
X264600D02*
D03*
X315400D02*
D03*
X366200D02*
D03*
X417000D02*
D03*
X467800D02*
D03*
X518600D02*
D03*
X519600Y953000D02*
D03*
X468800D02*
D03*
X418000D02*
D03*
X367200D02*
D03*
X316400D02*
D03*
X265600D02*
D03*
X214800D02*
D03*
X164000D02*
D03*
X113200D02*
D03*
X62400D02*
D03*
X1098600D02*
D03*
X1047800D02*
D03*
X997000D02*
D03*
X946200D02*
D03*
X895400D02*
D03*
X844600D02*
D03*
X793800D02*
D03*
X743000D02*
D03*
X692200D02*
D03*
X641400D02*
D03*
X1410800Y65700D02*
D03*
X1309200D02*
D03*
Y167300D02*
D03*
X1410800D02*
D03*
D53*
X580000Y50000D02*
D03*
Y950000D02*
D03*
X1640000Y50000D02*
D03*
X1928000Y953000D02*
D03*
D54*
X1068600Y211900D02*
D03*
X1094000D02*
D03*
X1119400D02*
D03*
X1068600Y288100D02*
D03*
X1094000D02*
D03*
X1119400D02*
D03*
X967600Y211900D02*
D03*
X993000D02*
D03*
X1018400D02*
D03*
X967600Y288100D02*
D03*
X993000D02*
D03*
X1018400D02*
D03*
X865600Y211900D02*
D03*
X891000D02*
D03*
X916400D02*
D03*
X865600Y288100D02*
D03*
X891000D02*
D03*
X916400D02*
D03*
X763160Y211900D02*
D03*
X788560D02*
D03*
X813960D02*
D03*
X763160Y288100D02*
D03*
X788560D02*
D03*
X813960D02*
D03*
X661560Y211900D02*
D03*
X686960D02*
D03*
X712360D02*
D03*
X661560Y288100D02*
D03*
X686960D02*
D03*
X712360D02*
D03*
X488590Y211900D02*
D03*
X513990D02*
D03*
X539390D02*
D03*
X488590Y288100D02*
D03*
X513990D02*
D03*
X539390D02*
D03*
X387590Y211900D02*
D03*
X412990D02*
D03*
X438390D02*
D03*
X387590Y288100D02*
D03*
X412990D02*
D03*
X438390D02*
D03*
X285590Y211900D02*
D03*
X310990D02*
D03*
X336390D02*
D03*
X285590Y288100D02*
D03*
X310990D02*
D03*
X336390D02*
D03*
X183150Y211900D02*
D03*
X208550D02*
D03*
X233950D02*
D03*
X183150Y288100D02*
D03*
X208550D02*
D03*
X233950D02*
D03*
X81550Y211900D02*
D03*
X106950D02*
D03*
X132350D02*
D03*
X81550Y288100D02*
D03*
X106950D02*
D03*
X132350D02*
D03*
X92610Y788100D02*
D03*
X67210D02*
D03*
X41810D02*
D03*
X92610Y711900D02*
D03*
X67210D02*
D03*
X41810D02*
D03*
X193610Y788100D02*
D03*
X168210D02*
D03*
X142810D02*
D03*
X193610Y711900D02*
D03*
X168210D02*
D03*
X142810D02*
D03*
X295610Y788100D02*
D03*
X270210D02*
D03*
X244810D02*
D03*
X295610Y711900D02*
D03*
X270210D02*
D03*
X244810D02*
D03*
X398050Y788100D02*
D03*
X372650D02*
D03*
X347250D02*
D03*
X398050Y711900D02*
D03*
X372650D02*
D03*
X347250D02*
D03*
X499650Y788100D02*
D03*
X474250D02*
D03*
X448850D02*
D03*
X499650Y711900D02*
D03*
X474250D02*
D03*
X448850D02*
D03*
X671590Y788100D02*
D03*
X646190D02*
D03*
X620790D02*
D03*
X671590Y711900D02*
D03*
X646190D02*
D03*
X620790D02*
D03*
X772590Y788100D02*
D03*
X747190D02*
D03*
X721790D02*
D03*
X772590Y711900D02*
D03*
X747190D02*
D03*
X721790D02*
D03*
X874590Y788100D02*
D03*
X849190D02*
D03*
X823790D02*
D03*
X874590Y711900D02*
D03*
X849190D02*
D03*
X823790D02*
D03*
X977030Y788100D02*
D03*
X951630D02*
D03*
X926230D02*
D03*
X977030Y711900D02*
D03*
X951630D02*
D03*
X926230D02*
D03*
X1078630Y788100D02*
D03*
X1053230D02*
D03*
X1027830D02*
D03*
X1078630Y711900D02*
D03*
X1053230D02*
D03*
X1027830D02*
D03*
D55*
X1518750Y625000D02*
D03*
X1494000Y662250D02*
D03*
X1467000Y662000D02*
D03*
X1482000Y683500D02*
D03*
X1454750Y683250D02*
D03*
X1430000Y720500D02*
D03*
X1446000Y646000D02*
D03*
D67*
X1803000Y82000D02*
D03*
Y112000D02*
D03*
M02*
