G04*
G04 #@! TF.GenerationSoftware,Altium Limited,Altium Designer,25.4.2 (15)*
G04*
G04 Layer_Physical_Order=1*
G04 Layer_Color=255*
%FSLAX44Y44*%
%MOMM*%
G71*
G04*
G04 #@! TF.SameCoordinates,73184756-021C-4AC8-A4DF-FCC11D8EA491*
G04*
G04*
G04 #@! TF.FilePolarity,Positive*
G04*
G01*
G75*
%ADD10C,0.2500*%
%ADD11C,0.4000*%
%ADD12C,0.2000*%
%ADD13C,0.3000*%
G04:AMPARAMS|DCode=15|XSize=5.2mm|YSize=5.2mm|CornerRadius=1.3mm|HoleSize=0mm|Usage=FLASHONLY|Rotation=270.000|XOffset=0mm|YOffset=0mm|HoleType=Round|Shape=RoundedRectangle|*
%AMROUNDEDRECTD15*
21,1,5.2000,2.6000,0,0,270.0*
21,1,2.6000,5.2000,0,0,270.0*
1,1,2.6000,-1.3000,-1.3000*
1,1,2.6000,-1.3000,1.3000*
1,1,2.6000,1.3000,1.3000*
1,1,2.6000,1.3000,-1.3000*
%
%ADD15ROUNDEDRECTD15*%
G04:AMPARAMS|DCode=16|XSize=5mm|YSize=2mm|CornerRadius=0.5mm|HoleSize=0mm|Usage=FLASHONLY|Rotation=270.000|XOffset=0mm|YOffset=0mm|HoleType=Round|Shape=RoundedRectangle|*
%AMROUNDEDRECTD16*
21,1,5.0000,1.0000,0,0,270.0*
21,1,4.0000,2.0000,0,0,270.0*
1,1,1.0000,-0.5000,-2.0000*
1,1,1.0000,-0.5000,2.0000*
1,1,1.0000,0.5000,2.0000*
1,1,1.0000,0.5000,-2.0000*
%
%ADD16ROUNDEDRECTD16*%
G04:AMPARAMS|DCode=17|XSize=0.6mm|YSize=1.1mm|CornerRadius=0.15mm|HoleSize=0mm|Usage=FLASHONLY|Rotation=270.000|XOffset=0mm|YOffset=0mm|HoleType=Round|Shape=RoundedRectangle|*
%AMROUNDEDRECTD17*
21,1,0.6000,0.8000,0,0,270.0*
21,1,0.3000,1.1000,0,0,270.0*
1,1,0.3000,-0.4000,-0.1500*
1,1,0.3000,-0.4000,0.1500*
1,1,0.3000,0.4000,0.1500*
1,1,0.3000,0.4000,-0.1500*
%
%ADD17ROUNDEDRECTD17*%
%ADD18R,3.8000X4.4000*%
G04:AMPARAMS|DCode=19|XSize=0.4mm|YSize=0.9mm|CornerRadius=0.1mm|HoleSize=0mm|Usage=FLASHONLY|Rotation=0.000|XOffset=0mm|YOffset=0mm|HoleType=Round|Shape=RoundedRectangle|*
%AMROUNDEDRECTD19*
21,1,0.4000,0.7000,0,0,0.0*
21,1,0.2000,0.9000,0,0,0.0*
1,1,0.2000,0.1000,-0.3500*
1,1,0.2000,-0.1000,-0.3500*
1,1,0.2000,-0.1000,0.3500*
1,1,0.2000,0.1000,0.3500*
%
%ADD19ROUNDEDRECTD19*%
G04:AMPARAMS|DCode=20|XSize=1.05mm|YSize=0.65mm|CornerRadius=0.1625mm|HoleSize=0mm|Usage=FLASHONLY|Rotation=180.000|XOffset=0mm|YOffset=0mm|HoleType=Round|Shape=RoundedRectangle|*
%AMROUNDEDRECTD20*
21,1,1.0500,0.3250,0,0,180.0*
21,1,0.7250,0.6500,0,0,180.0*
1,1,0.3250,-0.3625,0.1625*
1,1,0.3250,0.3625,0.1625*
1,1,0.3250,0.3625,-0.1625*
1,1,0.3250,-0.3625,-0.1625*
%
%ADD20ROUNDEDRECTD20*%
%ADD21R,0.4000X0.8000*%
%ADD22R,1.2000X1.2000*%
%ADD23R,0.8000X0.4000*%
%ADD24R,0.8000X0.8000*%
G04:AMPARAMS|DCode=25|XSize=0.6mm|YSize=1.14mm|CornerRadius=0.15mm|HoleSize=0mm|Usage=FLASHONLY|Rotation=180.000|XOffset=0mm|YOffset=0mm|HoleType=Round|Shape=RoundedRectangle|*
%AMROUNDEDRECTD25*
21,1,0.6000,0.8400,0,0,180.0*
21,1,0.3000,1.1400,0,0,180.0*
1,1,0.3000,-0.1500,0.4200*
1,1,0.3000,0.1500,0.4200*
1,1,0.3000,0.1500,-0.4200*
1,1,0.3000,-0.1500,-0.4200*
%
%ADD25ROUNDEDRECTD25*%
G04:AMPARAMS|DCode=26|XSize=0.3mm|YSize=1.14mm|CornerRadius=0.075mm|HoleSize=0mm|Usage=FLASHONLY|Rotation=180.000|XOffset=0mm|YOffset=0mm|HoleType=Round|Shape=RoundedRectangle|*
%AMROUNDEDRECTD26*
21,1,0.3000,0.9900,0,0,180.0*
21,1,0.1500,1.1400,0,0,180.0*
1,1,0.1500,-0.0750,0.4950*
1,1,0.1500,0.0750,0.4950*
1,1,0.1500,0.0750,-0.4950*
1,1,0.1500,-0.0750,-0.4950*
%
%ADD26ROUNDEDRECTD26*%
G04:AMPARAMS|DCode=27|XSize=2.7mm|YSize=6mm|CornerRadius=0.675mm|HoleSize=0mm|Usage=FLASHONLY|Rotation=0.000|XOffset=0mm|YOffset=0mm|HoleType=Round|Shape=RoundedRectangle|*
%AMROUNDEDRECTD27*
21,1,2.7000,4.6500,0,0,0.0*
21,1,1.3500,6.0000,0,0,0.0*
1,1,1.3500,0.6750,-2.3250*
1,1,1.3500,-0.6750,-2.3250*
1,1,1.3500,-0.6750,2.3250*
1,1,1.3500,0.6750,2.3250*
%
%ADD27ROUNDEDRECTD27*%
G04:AMPARAMS|DCode=28|XSize=2.3mm|YSize=1.7mm|CornerRadius=0.425mm|HoleSize=0mm|Usage=FLASHONLY|Rotation=180.000|XOffset=0mm|YOffset=0mm|HoleType=Round|Shape=RoundedRectangle|*
%AMROUNDEDRECTD28*
21,1,2.3000,0.8500,0,0,180.0*
21,1,1.4500,1.7000,0,0,180.0*
1,1,0.8500,-0.7250,0.4250*
1,1,0.8500,0.7250,0.4250*
1,1,0.8500,0.7250,-0.4250*
1,1,0.8500,-0.7250,-0.4250*
%
%ADD28ROUNDEDRECTD28*%
G04:AMPARAMS|DCode=29|XSize=2.3mm|YSize=1.7mm|CornerRadius=0.425mm|HoleSize=0mm|Usage=FLASHONLY|Rotation=90.000|XOffset=0mm|YOffset=0mm|HoleType=Round|Shape=RoundedRectangle|*
%AMROUNDEDRECTD29*
21,1,2.3000,0.8500,0,0,90.0*
21,1,1.4500,1.7000,0,0,90.0*
1,1,0.8500,0.4250,0.7250*
1,1,0.8500,0.4250,-0.7250*
1,1,0.8500,-0.4250,-0.7250*
1,1,0.8500,-0.4250,0.7250*
%
%ADD29ROUNDEDRECTD29*%
G04:AMPARAMS|DCode=30|XSize=0.3mm|YSize=1.5mm|CornerRadius=0.075mm|HoleSize=0mm|Usage=FLASHONLY|Rotation=90.000|XOffset=0mm|YOffset=0mm|HoleType=Round|Shape=RoundedRectangle|*
%AMROUNDEDRECTD30*
21,1,0.3000,1.3500,0,0,90.0*
21,1,0.1500,1.5000,0,0,90.0*
1,1,0.1500,0.6750,0.0750*
1,1,0.1500,0.6750,-0.0750*
1,1,0.1500,-0.6750,-0.0750*
1,1,0.1500,-0.6750,0.0750*
%
%ADD30ROUNDEDRECTD30*%
G04:AMPARAMS|DCode=31|XSize=0.3mm|YSize=1.5mm|CornerRadius=0.075mm|HoleSize=0mm|Usage=FLASHONLY|Rotation=180.000|XOffset=0mm|YOffset=0mm|HoleType=Round|Shape=RoundedRectangle|*
%AMROUNDEDRECTD31*
21,1,0.3000,1.3500,0,0,180.0*
21,1,0.1500,1.5000,0,0,180.0*
1,1,0.1500,-0.0750,0.6750*
1,1,0.1500,0.0750,0.6750*
1,1,0.1500,0.0750,-0.6750*
1,1,0.1500,-0.0750,-0.6750*
%
%ADD31ROUNDEDRECTD31*%
G04:AMPARAMS|DCode=32|XSize=0.9mm|YSize=0.8mm|CornerRadius=0.2mm|HoleSize=0mm|Usage=FLASHONLY|Rotation=90.000|XOffset=0mm|YOffset=0mm|HoleType=Round|Shape=RoundedRectangle|*
%AMROUNDEDRECTD32*
21,1,0.9000,0.4000,0,0,90.0*
21,1,0.5000,0.8000,0,0,90.0*
1,1,0.4000,0.2000,0.2500*
1,1,0.4000,0.2000,-0.2500*
1,1,0.4000,-0.2000,-0.2500*
1,1,0.4000,-0.2000,0.2500*
%
%ADD32ROUNDEDRECTD32*%
G04:AMPARAMS|DCode=33|XSize=0.9mm|YSize=0.6mm|CornerRadius=0.15mm|HoleSize=0mm|Usage=FLASHONLY|Rotation=180.000|XOffset=0mm|YOffset=0mm|HoleType=Round|Shape=RoundedRectangle|*
%AMROUNDEDRECTD33*
21,1,0.9000,0.3000,0,0,180.0*
21,1,0.6000,0.6000,0,0,180.0*
1,1,0.3000,-0.3000,0.1500*
1,1,0.3000,0.3000,0.1500*
1,1,0.3000,0.3000,-0.1500*
1,1,0.3000,-0.3000,-0.1500*
%
%ADD33ROUNDEDRECTD33*%
%ADD34R,1.6000X2.5000*%
G04:AMPARAMS|DCode=35|XSize=1mm|YSize=1.4mm|CornerRadius=0.25mm|HoleSize=0mm|Usage=FLASHONLY|Rotation=270.000|XOffset=0mm|YOffset=0mm|HoleType=Round|Shape=RoundedRectangle|*
%AMROUNDEDRECTD35*
21,1,1.0000,0.9000,0,0,270.0*
21,1,0.5000,1.4000,0,0,270.0*
1,1,0.5000,-0.4500,-0.2500*
1,1,0.5000,-0.4500,0.2500*
1,1,0.5000,0.4500,0.2500*
1,1,0.5000,0.4500,-0.2500*
%
%ADD35ROUNDEDRECTD35*%
G04:AMPARAMS|DCode=36|XSize=1mm|YSize=0.5mm|CornerRadius=0.125mm|HoleSize=0mm|Usage=FLASHONLY|Rotation=270.000|XOffset=0mm|YOffset=0mm|HoleType=Round|Shape=RoundedRectangle|*
%AMROUNDEDRECTD36*
21,1,1.0000,0.2500,0,0,270.0*
21,1,0.7500,0.5000,0,0,270.0*
1,1,0.2500,-0.1250,-0.3750*
1,1,0.2500,-0.1250,0.3750*
1,1,0.2500,0.1250,0.3750*
1,1,0.2500,0.1250,-0.3750*
%
%ADD36ROUNDEDRECTD36*%
G04:AMPARAMS|DCode=37|XSize=1.2mm|YSize=0.5mm|CornerRadius=0.125mm|HoleSize=0mm|Usage=FLASHONLY|Rotation=270.000|XOffset=0mm|YOffset=0mm|HoleType=Round|Shape=RoundedRectangle|*
%AMROUNDEDRECTD37*
21,1,1.2000,0.2500,0,0,270.0*
21,1,0.9500,0.5000,0,0,270.0*
1,1,0.2500,-0.1250,-0.4750*
1,1,0.2500,-0.1250,0.4750*
1,1,0.2500,0.1250,0.4750*
1,1,0.2500,0.1250,-0.4750*
%
%ADD37ROUNDEDRECTD37*%
G04:AMPARAMS|DCode=38|XSize=1.25mm|YSize=0.35mm|CornerRadius=0.0875mm|HoleSize=0mm|Usage=FLASHONLY|Rotation=90.000|XOffset=0mm|YOffset=0mm|HoleType=Round|Shape=RoundedRectangle|*
%AMROUNDEDRECTD38*
21,1,1.2500,0.1750,0,0,90.0*
21,1,1.0750,0.3500,0,0,90.0*
1,1,0.1750,0.0875,0.5375*
1,1,0.1750,0.0875,-0.5375*
1,1,0.1750,-0.0875,-0.5375*
1,1,0.1750,-0.0875,0.5375*
%
%ADD38ROUNDEDRECTD38*%
G04:AMPARAMS|DCode=39|XSize=0.5mm|YSize=0.5mm|CornerRadius=0.125mm|HoleSize=0mm|Usage=FLASHONLY|Rotation=270.000|XOffset=0mm|YOffset=0mm|HoleType=Round|Shape=RoundedRectangle|*
%AMROUNDEDRECTD39*
21,1,0.5000,0.2500,0,0,270.0*
21,1,0.2500,0.5000,0,0,270.0*
1,1,0.2500,-0.1250,-0.1250*
1,1,0.2500,-0.1250,0.1250*
1,1,0.2500,0.1250,0.1250*
1,1,0.2500,0.1250,-0.1250*
%
%ADD39ROUNDEDRECTD39*%
G04:AMPARAMS|DCode=40|XSize=0.9mm|YSize=0.8mm|CornerRadius=0.2mm|HoleSize=0mm|Usage=FLASHONLY|Rotation=0.000|XOffset=0mm|YOffset=0mm|HoleType=Round|Shape=RoundedRectangle|*
%AMROUNDEDRECTD40*
21,1,0.9000,0.4000,0,0,0.0*
21,1,0.5000,0.8000,0,0,0.0*
1,1,0.4000,0.2500,-0.2000*
1,1,0.4000,-0.2500,-0.2000*
1,1,0.4000,-0.2500,0.2000*
1,1,0.4000,0.2500,0.2000*
%
%ADD40ROUNDEDRECTD40*%
G04:AMPARAMS|DCode=41|XSize=0.5mm|YSize=0.6mm|CornerRadius=0.125mm|HoleSize=0mm|Usage=FLASHONLY|Rotation=90.000|XOffset=0mm|YOffset=0mm|HoleType=Round|Shape=RoundedRectangle|*
%AMROUNDEDRECTD41*
21,1,0.5000,0.3500,0,0,90.0*
21,1,0.2500,0.6000,0,0,90.0*
1,1,0.2500,0.1750,0.1250*
1,1,0.2500,0.1750,-0.1250*
1,1,0.2500,-0.1750,-0.1250*
1,1,0.2500,-0.1750,0.1250*
%
%ADD41ROUNDEDRECTD41*%
G04:AMPARAMS|DCode=42|XSize=0.5mm|YSize=0.6mm|CornerRadius=0.125mm|HoleSize=0mm|Usage=FLASHONLY|Rotation=0.000|XOffset=0mm|YOffset=0mm|HoleType=Round|Shape=RoundedRectangle|*
%AMROUNDEDRECTD42*
21,1,0.5000,0.3500,0,0,0.0*
21,1,0.2500,0.6000,0,0,0.0*
1,1,0.2500,0.1250,-0.1750*
1,1,0.2500,-0.1250,-0.1750*
1,1,0.2500,-0.1250,0.1750*
1,1,0.2500,0.1250,0.1750*
%
%ADD42ROUNDEDRECTD42*%
G04:AMPARAMS|DCode=43|XSize=1.1mm|YSize=1.3mm|CornerRadius=0.275mm|HoleSize=0mm|Usage=FLASHONLY|Rotation=180.000|XOffset=0mm|YOffset=0mm|HoleType=Round|Shape=RoundedRectangle|*
%AMROUNDEDRECTD43*
21,1,1.1000,0.7500,0,0,180.0*
21,1,0.5500,1.3000,0,0,180.0*
1,1,0.5500,-0.2750,0.3750*
1,1,0.5500,0.2750,0.3750*
1,1,0.5500,0.2750,-0.3750*
1,1,0.5500,-0.2750,-0.3750*
%
%ADD43ROUNDEDRECTD43*%
G04:AMPARAMS|DCode=44|XSize=1.1mm|YSize=1.3mm|CornerRadius=0.275mm|HoleSize=0mm|Usage=FLASHONLY|Rotation=270.000|XOffset=0mm|YOffset=0mm|HoleType=Round|Shape=RoundedRectangle|*
%AMROUNDEDRECTD44*
21,1,1.1000,0.7500,0,0,270.0*
21,1,0.5500,1.3000,0,0,270.0*
1,1,0.5500,-0.3750,-0.2750*
1,1,0.5500,-0.3750,0.2750*
1,1,0.5500,0.3750,0.2750*
1,1,0.5500,0.3750,-0.2750*
%
%ADD44ROUNDEDRECTD44*%
%ADD45C,3.2500*%
%ADD46C,1.5000*%
%ADD47C,2.4000*%
%ADD48C,1.5500*%
%ADD49O,0.8000X2.1000*%
%ADD50O,0.8000X1.8000*%
%ADD51C,0.6500*%
%ADD52C,3.2000*%
%ADD53C,6.0000*%
%ADD54O,2.0000X3.0000*%
%ADD56C,0.7000*%
%ADD57C,0.3500*%
%ADD58C,0.2300*%
%ADD59C,0.5000*%
%ADD60C,1.0000*%
%ADD61C,0.6000*%
%ADD62C,0.3810*%
%ADD63C,0.1600*%
%ADD64C,0.6000*%
%ADD65C,1.0000*%
%ADD66C,0.8000*%
G36*
X1538000Y943500D02*
X1516000D01*
X1511500Y948000D01*
X1490000D01*
X1488000Y950000D01*
X1469000D01*
Y971000D01*
X1489000D01*
X1538000Y971000D01*
Y943500D01*
D02*
G37*
G36*
X1246000Y930000D02*
X1138000D01*
Y996941D01*
X1246000D01*
Y930000D01*
D02*
G37*
G36*
X1542000Y917000D02*
X1489000D01*
Y927000D01*
X1469000D01*
Y938000D01*
X1487000D01*
X1489000Y940000D01*
X1542000D01*
Y917000D01*
D02*
G37*
G36*
X1331000Y892000D02*
X1326000Y887000D01*
Y873000D01*
X1320059D01*
Y887000D01*
X1320059Y887000D01*
X1319826Y888170D01*
X1319163Y889163D01*
X1319163Y889163D01*
X1317163Y891163D01*
X1316171Y891826D01*
X1315000Y892059D01*
Y904000D01*
Y937000D01*
X1331000D01*
Y892000D01*
D02*
G37*
G36*
X1480000Y871000D02*
X1457000D01*
Y899000D01*
X1453000Y903000D01*
Y920000D01*
X1480000D01*
Y871000D01*
D02*
G37*
G36*
X1449000Y900000D02*
X1451000Y898000D01*
X1451000Y871000D01*
X1427000D01*
X1426000Y871414D01*
Y896000D01*
X1437000Y907000D01*
Y938000D01*
X1449000D01*
Y900000D01*
D02*
G37*
G36*
X1336750Y862250D02*
X1310500D01*
Y869941D01*
X1317000D01*
X1318170Y870174D01*
X1318284Y870250D01*
X1318775D01*
X1318888Y870174D01*
X1320059Y869941D01*
X1326000D01*
X1327171Y870174D01*
X1327284Y870250D01*
X1328250D01*
X1329500Y871500D01*
Y886174D01*
X1330326Y887000D01*
X1336750D01*
Y862250D01*
D02*
G37*
G36*
X1021470Y857050D02*
X980470D01*
Y896050D01*
X1021470D01*
Y857050D01*
D02*
G37*
G36*
X1123020Y857000D02*
X1082020D01*
Y896000D01*
X1123020D01*
Y857000D01*
D02*
G37*
G36*
X918980D02*
X877980D01*
Y896000D01*
X918980D01*
Y857000D01*
D02*
G37*
G36*
X816980D02*
X775980D01*
Y896000D01*
X816980D01*
Y857000D01*
D02*
G37*
G36*
X715980D02*
X674980D01*
Y896000D01*
X715980D01*
Y857000D01*
D02*
G37*
G36*
X544040D02*
X503040D01*
Y896000D01*
X544040D01*
Y857000D01*
D02*
G37*
G36*
X442440D02*
X401440D01*
Y896000D01*
X442440D01*
Y857000D01*
D02*
G37*
G36*
X340000D02*
X299000D01*
Y896000D01*
X340000D01*
Y857000D01*
D02*
G37*
G36*
X238000D02*
X197000D01*
Y896000D01*
X238000D01*
Y857000D01*
D02*
G37*
G36*
X137000D02*
X96000D01*
Y896000D01*
X137000D01*
Y857000D01*
D02*
G37*
G36*
X1374000Y857000D02*
X1377941Y853059D01*
Y841000D01*
X1349000D01*
Y899000D01*
X1374000D01*
Y857000D01*
D02*
G37*
G36*
X1303000Y836000D02*
X1257000D01*
Y866000D01*
X1282000D01*
X1285941Y869941D01*
X1303000D01*
Y836000D01*
D02*
G37*
G36*
X1413000Y818000D02*
X1381000D01*
Y903000D01*
X1355000D01*
Y972000D01*
X1413000D01*
Y818000D01*
D02*
G37*
G36*
X1289000Y914000D02*
Y892000D01*
X1290000Y891000D01*
X1292000Y889000D01*
X1315000D01*
X1317000Y887000D01*
Y873000D01*
X1251000D01*
X1245000Y867000D01*
Y799000D01*
X1138000D01*
Y918000D01*
X1285000D01*
X1289000Y914000D01*
D02*
G37*
G36*
X1892000Y796000D02*
X1872059D01*
Y812059D01*
X1875000Y815000D01*
Y844000D01*
X1892000D01*
Y796000D01*
D02*
G37*
G36*
X1869000D02*
X1854000D01*
Y834000D01*
X1851000Y837000D01*
Y855000D01*
X1869000D01*
Y796000D01*
D02*
G37*
G36*
X975470Y827050D02*
X964470Y816050D01*
X964470Y760050D01*
X939470D01*
Y816050D01*
X928470Y827050D01*
Y996941D01*
X975470D01*
Y827050D01*
D02*
G37*
G36*
X1077020Y827000D02*
X1066020Y816000D01*
X1066020Y760000D01*
X1041020D01*
Y816000D01*
X1030020Y827000D01*
Y996941D01*
X1077020D01*
Y827000D01*
D02*
G37*
G36*
X872980D02*
X861980Y816000D01*
X861980Y760000D01*
X836980D01*
Y816000D01*
X825980Y827000D01*
Y996941D01*
X872980D01*
Y827000D01*
D02*
G37*
G36*
X770980D02*
X759980Y816000D01*
X759980Y760000D01*
X734980D01*
Y816000D01*
X723980Y827000D01*
Y996941D01*
X770980D01*
Y827000D01*
D02*
G37*
G36*
X669980D02*
X658980Y816000D01*
X658980Y760000D01*
X633980D01*
Y816000D01*
X622980Y827000D01*
Y996941D01*
X669980D01*
Y827000D01*
D02*
G37*
G36*
X498040D02*
X487040Y816000D01*
X487040Y760000D01*
X462040D01*
Y816000D01*
X451040Y827000D01*
Y996941D01*
X498040D01*
Y827000D01*
D02*
G37*
G36*
X396440D02*
X385440Y816000D01*
X385440Y760000D01*
X360440D01*
Y816000D01*
X349440Y827000D01*
Y996941D01*
X396440D01*
Y827000D01*
D02*
G37*
G36*
X294000D02*
X283000Y816000D01*
X283000Y760000D01*
X258000D01*
Y816000D01*
X247000Y827000D01*
Y996941D01*
X294000D01*
Y827000D01*
D02*
G37*
G36*
X192000D02*
X181000Y816000D01*
X181000Y760000D01*
X156000D01*
Y816000D01*
X145000Y827000D01*
Y996941D01*
X192000D01*
Y827000D01*
D02*
G37*
G36*
X91000D02*
X80000Y816000D01*
X80000Y760000D01*
X55000D01*
Y816000D01*
X44000Y827000D01*
Y996941D01*
X91000D01*
Y827000D01*
D02*
G37*
G36*
X1850470Y674520D02*
X1789510D01*
Y735480D01*
X1850470D01*
Y674520D01*
D02*
G37*
G36*
X1933000Y515059D02*
X1905000D01*
X1903829Y514826D01*
X1903342Y514500D01*
X1902000D01*
Y541500D01*
X1933000D01*
Y515059D01*
D02*
G37*
G36*
X1940000Y392000D02*
X1774000D01*
Y404000D01*
X1857000D01*
X1860000Y407000D01*
Y461521D01*
X1860500Y461931D01*
X1907000D01*
X1907000Y448000D01*
X1907407D01*
Y442750D01*
X1907776Y440897D01*
X1908826Y439325D01*
X1910397Y438276D01*
X1911051Y436118D01*
X1911000Y435994D01*
Y434005D01*
X1911761Y432168D01*
X1913168Y430761D01*
X1915005Y430000D01*
X1916995D01*
X1918832Y430761D01*
X1920239Y432168D01*
X1921000Y434005D01*
Y435994D01*
X1920949Y436118D01*
X1921603Y438276D01*
X1923175Y439325D01*
X1924224Y440897D01*
X1924593Y442750D01*
Y448000D01*
X1925000D01*
Y462000D01*
X1925000Y462000D01*
X1924593Y464000D01*
Y468250D01*
X1924224Y470103D01*
X1923175Y471675D01*
X1921603Y472724D01*
X1919750Y473093D01*
X1912250D01*
X1910397Y472724D01*
X1908826Y471675D01*
X1907776Y470103D01*
X1907570Y469069D01*
X1861978D01*
X1860000Y471047D01*
Y489000D01*
X1901000D01*
X1905000Y493000D01*
Y512000D01*
X1940000D01*
Y392000D01*
D02*
G37*
G36*
X1328000Y356182D02*
X1326730Y355504D01*
X1326366Y355747D01*
X1325000Y356019D01*
X1317000D01*
X1315634Y355747D01*
X1314477Y354973D01*
X1314173Y354519D01*
X1289622D01*
Y358250D01*
X1289137Y360689D01*
X1287756Y362756D01*
X1285689Y364137D01*
X1283250Y364622D01*
X1274750D01*
X1272311Y364137D01*
X1270244Y362756D01*
X1268863Y360689D01*
X1268378Y358250D01*
Y355069D01*
X1258866D01*
X1258768Y355561D01*
X1257884Y356884D01*
X1256561Y357768D01*
X1255000Y358078D01*
X1251000D01*
X1249439Y357768D01*
X1248116Y356884D01*
X1247232Y355561D01*
X1246922Y354000D01*
Y349000D01*
X1247232Y347439D01*
X1247345Y347270D01*
X1247000Y346000D01*
X1247000D01*
X1247000Y346000D01*
Y340000D01*
X1247000D01*
X1247345Y338730D01*
X1247232Y338561D01*
X1246922Y337000D01*
Y332000D01*
X1247232Y330439D01*
X1248116Y329116D01*
X1248922Y328578D01*
Y324993D01*
X1248761Y324832D01*
X1248000Y322995D01*
Y321006D01*
X1248761Y319168D01*
X1250168Y317761D01*
X1252005Y317000D01*
X1253995D01*
X1255832Y317761D01*
X1257239Y319168D01*
X1258000Y321006D01*
Y322995D01*
X1257239Y324832D01*
X1257078Y324993D01*
Y328578D01*
X1257884Y329116D01*
X1258768Y330439D01*
X1259078Y332000D01*
Y337000D01*
X1258768Y338561D01*
X1258655Y338730D01*
X1259000Y340000D01*
X1259000D01*
X1259000Y340000D01*
Y346000D01*
X1259000Y346000D01*
X1259000D01*
X1259183Y347249D01*
X1259626Y347931D01*
X1268378D01*
Y343750D01*
X1268863Y341311D01*
X1270244Y339244D01*
X1272311Y337863D01*
X1274750Y337378D01*
X1283250D01*
X1285689Y337863D01*
X1287756Y339244D01*
X1289137Y341311D01*
X1289622Y343750D01*
Y347381D01*
X1314173D01*
X1314477Y346927D01*
X1315634Y346153D01*
X1316922Y345897D01*
Y341443D01*
X1316761Y341282D01*
X1316000Y339445D01*
Y337455D01*
X1316761Y335618D01*
X1318168Y334211D01*
X1320005Y333450D01*
X1321994D01*
X1323832Y334211D01*
X1325239Y335618D01*
X1326000Y337455D01*
Y339445D01*
X1325239Y341282D01*
X1325078Y341443D01*
Y345897D01*
X1326366Y346153D01*
X1326730Y346397D01*
X1328000Y345718D01*
Y276182D01*
X1326730Y275504D01*
X1326366Y275747D01*
X1325000Y276019D01*
X1317000D01*
X1315634Y275747D01*
X1314477Y274973D01*
X1313703Y273816D01*
X1313431Y272450D01*
Y269450D01*
X1313703Y268084D01*
X1314477Y266927D01*
X1315634Y266153D01*
X1316922Y265897D01*
Y261443D01*
X1316761Y261282D01*
X1316000Y259445D01*
Y257455D01*
X1316761Y255618D01*
X1318168Y254211D01*
X1320005Y253450D01*
X1321995D01*
X1323832Y254211D01*
X1325239Y255618D01*
X1326000Y257455D01*
Y259445D01*
X1325239Y261282D01*
X1325078Y261443D01*
Y265897D01*
X1326366Y266153D01*
X1326730Y266397D01*
X1328000Y265718D01*
Y251000D01*
X1261000D01*
X1245000Y235000D01*
Y136000D01*
X1137000D01*
X1137000Y353000D01*
X1218000D01*
X1223000Y358000D01*
X1223000Y402000D01*
X1328000Y402000D01*
Y356182D01*
D02*
G37*
G36*
X1585000Y276000D02*
X1421000D01*
X1416000Y271000D01*
X1416000Y256000D01*
X1411000Y251000D01*
X1336000D01*
Y402000D01*
X1585000D01*
Y276000D01*
D02*
G37*
G36*
X1560000Y3059D02*
X1362000D01*
Y237000D01*
X1418000Y237000D01*
X1423000Y242000D01*
X1423000Y262000D01*
X1428000Y267000D01*
X1560000D01*
Y3059D01*
D02*
G37*
G36*
X1065210Y104000D02*
X1024210D01*
Y143000D01*
X1065210D01*
Y104000D01*
D02*
G37*
G36*
X862210D02*
X821210D01*
Y143000D01*
X862210D01*
Y104000D01*
D02*
G37*
G36*
X759770D02*
X718770D01*
Y143000D01*
X759770D01*
Y104000D01*
D02*
G37*
G36*
X658170D02*
X617170D01*
Y143000D01*
X658170D01*
Y104000D01*
D02*
G37*
G36*
X964210Y104000D02*
X923210D01*
Y143000D01*
X964210D01*
Y104000D01*
D02*
G37*
G36*
X485150Y103950D02*
X444150D01*
Y142950D01*
X485150D01*
Y103950D01*
D02*
G37*
G36*
X282150D02*
X241150D01*
Y142950D01*
X282150D01*
Y103950D01*
D02*
G37*
G36*
X179710D02*
X138710D01*
Y142950D01*
X179710D01*
Y103950D01*
D02*
G37*
G36*
X78110D02*
X37110D01*
Y142950D01*
X78110D01*
Y103950D01*
D02*
G37*
G36*
X384150Y103950D02*
X343150D01*
Y142950D01*
X384150D01*
Y103950D01*
D02*
G37*
G36*
X1351000Y3059D02*
X1138000D01*
Y111000D01*
X1248000D01*
X1257000Y120000D01*
Y228000D01*
X1265000Y236000D01*
X1351000D01*
Y3059D01*
D02*
G37*
G36*
X1106210Y184000D02*
X1117210Y173000D01*
Y3059D01*
X1070210D01*
Y173000D01*
X1081210Y184000D01*
X1081210Y240000D01*
X1106210D01*
Y184000D01*
D02*
G37*
G36*
X1005210Y184000D02*
X1016210Y173000D01*
Y3059D01*
X969210D01*
Y173000D01*
X980210Y184000D01*
X980210Y240000D01*
X1005210D01*
Y184000D01*
D02*
G37*
G36*
X903210Y184000D02*
X914210Y173000D01*
Y3059D01*
X867210D01*
Y173000D01*
X878210Y184000D01*
X878210Y240000D01*
X903210D01*
Y184000D01*
D02*
G37*
G36*
X800770D02*
X811770Y173000D01*
Y3059D01*
X764770D01*
Y173000D01*
X775770Y184000D01*
X775770Y240000D01*
X800770D01*
Y184000D01*
D02*
G37*
G36*
X699170D02*
X710170Y173000D01*
Y3059D01*
X663170D01*
Y173000D01*
X674170Y184000D01*
X674170Y240000D01*
X699170D01*
Y184000D01*
D02*
G37*
G36*
X526150Y183950D02*
X537150Y172950D01*
Y3059D01*
X490150D01*
Y172950D01*
X501150Y183950D01*
X501150Y239950D01*
X526150D01*
Y183950D01*
D02*
G37*
G36*
X425150Y183950D02*
X436150Y172950D01*
Y3059D01*
X389150D01*
Y172950D01*
X400150Y183950D01*
X400150Y239950D01*
X425150D01*
Y183950D01*
D02*
G37*
G36*
X323150Y183950D02*
X334150Y172950D01*
Y3059D01*
X287150D01*
Y172950D01*
X298150Y183950D01*
X298150Y239950D01*
X323150D01*
Y183950D01*
D02*
G37*
G36*
X220710D02*
X231710Y172950D01*
Y3059D01*
X184710D01*
Y172950D01*
X195710Y183950D01*
X195710Y239950D01*
X220710D01*
Y183950D01*
D02*
G37*
G36*
X119110D02*
X130110Y172950D01*
Y3059D01*
X83110D01*
Y172950D01*
X94110Y183950D01*
X94110Y239950D01*
X119110D01*
Y183950D01*
D02*
G37*
%LPC*%
G36*
X1886000Y484078D02*
X1881000D01*
X1880970Y484072D01*
X1879000Y484000D01*
X1879000Y484000D01*
X1879000Y484000D01*
X1873000D01*
Y472000D01*
X1879000D01*
X1879000Y472000D01*
X1880970Y471928D01*
X1881000Y471922D01*
X1886000D01*
X1887561Y472232D01*
X1888884Y473116D01*
X1889081Y473412D01*
X1892011D01*
X1893005Y473000D01*
X1894995D01*
X1896832Y473761D01*
X1898239Y475168D01*
X1899000Y477006D01*
Y478995D01*
X1898239Y480832D01*
X1896832Y482239D01*
X1894995Y483000D01*
X1893005D01*
X1892011Y482588D01*
X1889081D01*
X1888884Y482884D01*
X1887561Y483768D01*
X1886000Y484078D01*
D02*
G37*
G36*
X1886000Y459078D02*
X1881000D01*
X1880970Y459072D01*
X1879000Y459000D01*
X1879000Y459000D01*
X1879000Y459000D01*
X1873000D01*
Y447000D01*
X1879000D01*
X1879000Y447000D01*
X1880970Y446928D01*
X1881000Y446922D01*
X1886000D01*
X1887561Y447232D01*
X1888884Y448116D01*
X1889081Y448412D01*
X1892011D01*
X1893005Y448000D01*
X1894995D01*
X1896832Y448761D01*
X1898239Y450168D01*
X1899000Y452005D01*
Y453995D01*
X1898239Y455832D01*
X1896832Y457239D01*
X1894995Y458000D01*
X1893005D01*
X1892011Y457588D01*
X1889081D01*
X1888884Y457884D01*
X1887561Y458768D01*
X1886000Y459078D01*
D02*
G37*
G36*
Y439078D02*
X1881000D01*
X1880970Y439072D01*
X1879000Y439000D01*
X1879000Y439000D01*
X1879000Y439000D01*
X1873000D01*
Y427000D01*
X1879000D01*
X1879000Y427000D01*
X1880970Y426928D01*
X1881000Y426922D01*
X1886000D01*
X1887561Y427232D01*
X1888884Y428116D01*
X1889081Y428412D01*
X1892011D01*
X1893005Y428000D01*
X1894995D01*
X1896832Y428761D01*
X1898239Y430168D01*
X1899000Y432006D01*
Y433995D01*
X1898239Y435832D01*
X1896832Y437239D01*
X1894995Y438000D01*
X1893005D01*
X1892011Y437588D01*
X1889081D01*
X1888884Y437884D01*
X1887561Y438768D01*
X1886000Y439078D01*
D02*
G37*
G36*
X1415800Y187717D02*
Y172300D01*
X1431217D01*
X1430993Y173425D01*
X1429410Y177247D01*
X1427112Y180687D01*
X1424187Y183612D01*
X1420747Y185910D01*
X1416926Y187493D01*
X1415800Y187717D01*
D02*
G37*
G36*
X1405800D02*
X1404675Y187493D01*
X1400853Y185910D01*
X1397413Y183612D01*
X1394488Y180687D01*
X1392190Y177247D01*
X1390607Y173425D01*
X1390383Y172300D01*
X1405800D01*
Y187717D01*
D02*
G37*
G36*
X1431217Y162300D02*
X1415800D01*
Y146883D01*
X1416926Y147107D01*
X1420747Y148690D01*
X1424187Y150988D01*
X1427112Y153913D01*
X1429410Y157353D01*
X1430993Y161175D01*
X1431217Y162300D01*
D02*
G37*
G36*
X1405800D02*
X1390383D01*
X1390607Y161175D01*
X1392190Y157353D01*
X1394488Y153913D01*
X1397413Y150988D01*
X1400853Y148690D01*
X1404675Y147107D01*
X1405800Y146883D01*
Y162300D01*
D02*
G37*
G36*
X1415800Y86117D02*
Y70700D01*
X1431217D01*
X1430993Y71825D01*
X1429410Y75647D01*
X1427112Y79087D01*
X1424187Y82012D01*
X1420747Y84310D01*
X1416926Y85893D01*
X1415800Y86117D01*
D02*
G37*
G36*
X1405800D02*
X1404675Y85893D01*
X1400853Y84310D01*
X1397413Y82012D01*
X1394488Y79087D01*
X1392190Y75647D01*
X1390607Y71825D01*
X1390383Y70700D01*
X1405800D01*
Y86117D01*
D02*
G37*
G36*
X1431217Y60700D02*
X1415800D01*
Y45283D01*
X1416926Y45507D01*
X1420747Y47090D01*
X1424187Y49388D01*
X1427112Y52313D01*
X1429410Y55753D01*
X1430993Y59574D01*
X1431217Y60700D01*
D02*
G37*
G36*
X1405800D02*
X1390383D01*
X1390607Y59574D01*
X1392190Y55753D01*
X1394488Y52313D01*
X1397413Y49388D01*
X1400853Y47090D01*
X1404675Y45507D01*
X1405800Y45283D01*
Y60700D01*
D02*
G37*
G36*
X1314200Y187717D02*
Y172300D01*
X1329617D01*
X1329393Y173425D01*
X1327810Y177247D01*
X1325512Y180687D01*
X1322587Y183612D01*
X1319147Y185910D01*
X1315325Y187493D01*
X1314200Y187717D01*
D02*
G37*
G36*
X1304200D02*
X1303074Y187493D01*
X1299253Y185910D01*
X1295813Y183612D01*
X1292888Y180687D01*
X1290590Y177247D01*
X1289007Y173425D01*
X1288783Y172300D01*
X1304200D01*
Y187717D01*
D02*
G37*
G36*
X1329617Y162300D02*
X1314200D01*
Y146883D01*
X1315325Y147107D01*
X1319147Y148690D01*
X1322587Y150988D01*
X1325512Y153913D01*
X1327810Y157353D01*
X1329393Y161175D01*
X1329617Y162300D01*
D02*
G37*
G36*
X1304200D02*
X1288783D01*
X1289007Y161175D01*
X1290590Y157353D01*
X1292888Y153913D01*
X1295813Y150988D01*
X1299253Y148690D01*
X1303074Y147107D01*
X1304200Y146883D01*
Y162300D01*
D02*
G37*
G36*
X1314200Y86117D02*
Y70700D01*
X1329617D01*
X1329393Y71825D01*
X1327810Y75647D01*
X1325512Y79087D01*
X1322587Y82012D01*
X1319147Y84310D01*
X1315325Y85893D01*
X1314200Y86117D01*
D02*
G37*
G36*
X1304200D02*
X1303074Y85893D01*
X1299253Y84310D01*
X1295813Y82012D01*
X1292888Y79087D01*
X1290590Y75647D01*
X1289007Y71825D01*
X1288783Y70700D01*
X1304200D01*
Y86117D01*
D02*
G37*
G36*
X1329617Y60700D02*
X1314200D01*
Y45283D01*
X1315325Y45507D01*
X1319147Y47090D01*
X1322587Y49388D01*
X1325512Y52313D01*
X1327810Y55753D01*
X1329393Y59574D01*
X1329617Y60700D01*
D02*
G37*
G36*
X1304200D02*
X1288783D01*
X1289007Y59574D01*
X1290590Y55753D01*
X1292888Y52313D01*
X1295813Y49388D01*
X1299253Y47090D01*
X1303074Y45507D01*
X1304200Y45283D01*
Y60700D01*
D02*
G37*
%LPD*%
D10*
X1046750Y516750D02*
X1054750D01*
X1038750D02*
X1046750D01*
X831750D02*
X839750D01*
X823750D02*
X831750D01*
X596750D02*
X604750D01*
X588750D02*
X596750D01*
X356750D02*
X364750D01*
X348750D02*
X356750D01*
X156750D02*
X164750D01*
X148750D02*
X156750D01*
X1059750Y483250D02*
X1067750D01*
X1051750D02*
X1059750D01*
X844750D02*
X852750D01*
X836750D02*
X844750D01*
X1484500Y935250D02*
Y942535D01*
X1483035Y944000D02*
X1484500Y942535D01*
X1474000Y944000D02*
X1483035D01*
X166500Y518500D02*
Y530000D01*
X164750Y516750D02*
X166500Y518500D01*
X147000D02*
X148750Y516750D01*
X147000Y518500D02*
Y530000D01*
X366500Y518500D02*
Y530000D01*
X364750Y516750D02*
X366500Y518500D01*
X347000D02*
X348750Y516750D01*
X347000Y518500D02*
Y530000D01*
X606500Y518500D02*
Y530000D01*
X604750Y516750D02*
X606500Y518500D01*
X587000D02*
X588750Y516750D01*
X587000Y518500D02*
Y530000D01*
X841500Y518500D02*
Y530000D01*
X839750Y516750D02*
X841500Y518500D01*
X822000D02*
X823750Y516750D01*
X822000Y518500D02*
Y530000D01*
X835000Y470000D02*
Y481500D01*
X836750Y483250D01*
X852750D02*
X854500Y481500D01*
Y470000D02*
Y481500D01*
X1069500Y470000D02*
Y481500D01*
X1067750Y483250D02*
X1069500Y481500D01*
X1050000D02*
X1051750Y483250D01*
X1050000Y470000D02*
Y481500D01*
X1037000Y518500D02*
Y530000D01*
Y518500D02*
X1038750Y516750D01*
X1054750D02*
X1056500Y518500D01*
Y530000D01*
X1679000Y123500D02*
Y135000D01*
X1927000Y123500D02*
Y135000D01*
X1708500Y531000D02*
X1720000D01*
X1815000Y587500D02*
Y588500D01*
Y576000D02*
Y587500D01*
X1675000Y497580D02*
X1686500D01*
X1675000Y480040D02*
X1686500D01*
X1675000Y462500D02*
X1686500D01*
X1675000Y444500D02*
X1686500D01*
X1873000Y901000D02*
Y912500D01*
Y900000D02*
Y901000D01*
X1730000Y901000D02*
Y912500D01*
Y900000D02*
Y901000D01*
X1854000Y344000D02*
Y356500D01*
X1734000Y955000D02*
X1781000D01*
X1785500Y930000D02*
Y950500D01*
X1781000Y955000D02*
X1785500Y950500D01*
X1730000Y951000D02*
X1734000Y955000D01*
X1730000Y929500D02*
Y951000D01*
X1821000Y955000D02*
X1869000D01*
X1873000Y930000D02*
Y951000D01*
X1869000Y955000D02*
X1873000Y951000D01*
X1815500Y949500D02*
X1821000Y955000D01*
X1815500Y930000D02*
Y949500D01*
X1858000Y513000D02*
X1868040D01*
X1853000Y497000D02*
Y508000D01*
X1858000Y513000D01*
X1848500Y492500D02*
X1853000Y497000D01*
X1838000Y492500D02*
X1848500D01*
X1854000Y373500D02*
Y385000D01*
X1834000Y422000D02*
Y432000D01*
X1827000Y439000D02*
X1834000Y432000D01*
X1814000Y439000D02*
X1827000D01*
X1811500Y436500D02*
X1814000Y439000D01*
X1811500Y426000D02*
Y436500D01*
X1703500Y444960D02*
X1721960D01*
X1703500Y497540D02*
X1749960D01*
X1750000Y497500D01*
X1734500Y457500D02*
X1750000D01*
X1721960Y444960D02*
X1734500Y457500D01*
X1721960Y480040D02*
X1734500Y467500D01*
X1703500Y480040D02*
X1721960D01*
X1703500Y462500D02*
X1750000D01*
X1734500Y467500D02*
X1750000D01*
X1868040Y513000D02*
X1868500Y512540D01*
D11*
X1342000Y840000D02*
X1347500Y834500D01*
X1327000Y900000D02*
X1339657D01*
X1342000Y897657D01*
Y840000D02*
Y897657D01*
X1347500Y826000D02*
Y834500D01*
X1321000Y338450D02*
Y350950D01*
X1321000Y258450D02*
Y270950D01*
X1253000Y322000D02*
Y334500D01*
X1862500Y775000D02*
Y788500D01*
X1774540Y351500D02*
Y364000D01*
X1740000Y351500D02*
Y364000D01*
X1812500Y533500D02*
Y542000D01*
X1879500Y775000D02*
Y785200D01*
X1879800Y679500D02*
X1890000D01*
X1879800Y671000D02*
X1890000D01*
X1879800Y662500D02*
X1890000D01*
X1879800Y654000D02*
X1890000D01*
X1879800Y645500D02*
X1890000D01*
X1871000Y764800D02*
Y775000D01*
X1879800Y764500D02*
X1890000D01*
X1879800Y756000D02*
X1890000D01*
X1879800Y747500D02*
X1890000D01*
X1879800Y739000D02*
X1890000D01*
X1879800Y730500D02*
X1890000D01*
X1879800Y722000D02*
X1890000D01*
X1879800Y713500D02*
X1890000D01*
X1879800Y705000D02*
X1890000D01*
X1879800Y696500D02*
X1890000D01*
X1879800Y688000D02*
X1890000D01*
D12*
X1851000Y35000D02*
X1917500D01*
X1927000Y44500D01*
Y106500D01*
X1809850Y857365D02*
X1817500Y865015D01*
X1809850Y841172D02*
Y857365D01*
Y841172D02*
X1812000Y839022D01*
Y838000D02*
Y839022D01*
X1817500Y865015D02*
Y874000D01*
X1798500Y865015D02*
X1806150Y857365D01*
Y841172D02*
Y857365D01*
X1804000Y838000D02*
Y839022D01*
X1806150Y841172D01*
X1798500Y865015D02*
Y874000D01*
X1679000Y74000D02*
X1696650Y56350D01*
X1679000Y74000D02*
Y106500D01*
X1696650Y56350D02*
X1736600D01*
X1882500Y542500D02*
Y549830D01*
X1812500Y529500D02*
Y533500D01*
X1806500Y523500D02*
X1812500Y529500D01*
X1806500Y514000D02*
Y523500D01*
X1797327Y920673D02*
X1806150D01*
X1796000Y922000D02*
X1797327Y920673D01*
X1796000Y922000D02*
Y929500D01*
X1795500Y930000D02*
X1796000Y929500D01*
X1806150Y920673D02*
Y923347D01*
X1810500Y930000D02*
Y938500D01*
X1809000Y940000D02*
X1810500Y938500D01*
X1802000Y940000D02*
X1809000D01*
X1800700Y938700D02*
X1802000Y940000D01*
X1800700Y930200D02*
Y938700D01*
X1800500Y930000D02*
X1800700Y930200D01*
X1714500Y704750D02*
X1715522D01*
X1717672Y702600D01*
X1745828D01*
X1747000Y703772D01*
Y704000D01*
X1748000Y705000D01*
X1750000D01*
X1745828Y698900D02*
X1747000Y697728D01*
X1714500Y696750D02*
X1715522D01*
X1717672Y698900D01*
X1745828D01*
X1748000Y696500D02*
X1750000D01*
X1747000Y697500D02*
X1748000Y696500D01*
X1747000Y697500D02*
Y697728D01*
X1798500Y900000D02*
Y910350D01*
X1806150Y918000D01*
Y920673D01*
X1806000Y923497D02*
X1806150Y923347D01*
X1806000Y923497D02*
Y929500D01*
X1805500Y930000D02*
X1806000Y929500D01*
X1809850Y918000D02*
X1817500Y910350D01*
Y900000D02*
Y910350D01*
X1809850Y918000D02*
Y923347D01*
X1810000Y923497D01*
Y929500D01*
X1810500Y930000D01*
X1868500Y539955D02*
X1879955D01*
X1882500Y542500D01*
X1811500Y495500D02*
X1817000Y490000D01*
X1811500Y495500D02*
Y514000D01*
X1854000Y373500D02*
X1854000Y373500D01*
X1736600Y56350D02*
X1736750Y56200D01*
X1843850Y42150D02*
X1851000Y35000D01*
X1843850Y42150D02*
Y56200D01*
X1782460Y308000D02*
X1791960D01*
X1826500D02*
X1836000D01*
D13*
X1501000Y808000D02*
X1764000D01*
X1289000Y596000D02*
X1501000Y808000D01*
X603000Y596000D02*
X1289000D01*
X1225000Y441000D02*
X1502000D01*
X1715000Y654000D01*
X1750000D01*
X1208000Y471000D02*
X1461000D01*
X1669500Y679500D02*
X1750000D01*
X1461000Y471000D02*
X1669500Y679500D01*
X1472000Y460000D02*
X1683000Y671000D01*
X1212000Y460000D02*
X1472000D01*
X1683000Y671000D02*
X1750000D01*
X1699500Y662500D02*
X1750000D01*
X1487000Y450000D02*
X1699500Y662500D01*
X1218000Y450000D02*
X1487000D01*
X1514000Y431000D02*
X1728500Y645500D01*
X1234000Y431000D02*
X1514000D01*
X1728500Y645500D02*
X1750000D01*
X1244000Y631000D02*
X1457000Y844000D01*
X184000Y631000D02*
X1244000D01*
X1457000Y844000D02*
X1780000D01*
X198000Y623000D02*
X1255000D01*
X1467000Y835000D01*
X1776000D01*
X374000Y614000D02*
X1267000D01*
X1479000Y826000D02*
X1772000D01*
X1267000Y614000D02*
X1479000Y826000D01*
X1279000Y605000D02*
X1491000Y817000D01*
X1768000D01*
X394000Y605000D02*
X1279000D01*
X1574000Y756000D02*
X1750000D01*
X1057000Y558000D02*
X1376000D01*
X1574000Y756000D01*
X1353000Y567000D02*
X1550500Y764500D01*
X868000Y567000D02*
X1353000D01*
X1550500Y764500D02*
X1750000D01*
X1611500Y730500D02*
X1750000D01*
X1193000Y522000D02*
X1403000D01*
X1611500Y730500D01*
X1397000Y535000D02*
X1601000Y739000D01*
X1750000D01*
X1188000Y535000D02*
X1397000D01*
X1677125Y924625D02*
X1677500Y925000D01*
X1643875Y924125D02*
X1644375Y924625D01*
X1677125D01*
X1642750Y872250D02*
X1642875Y872375D01*
X1677375D01*
X1677500Y872500D01*
X340500Y481250D02*
X340500Y481250D01*
X609750Y483250D02*
X617750D01*
X601750D02*
X609750D01*
X369750D02*
X377750D01*
X361750D02*
X369750D01*
X169750D02*
X177750D01*
X161750D02*
X169750D01*
X899430Y329970D02*
X899450Y329950D01*
X899430Y329970D02*
Y348180D01*
X796990Y329970D02*
Y348180D01*
X695390Y329970D02*
Y348180D01*
X522420Y329970D02*
X522440Y329950D01*
X522420Y329970D02*
Y348180D01*
X421420Y329970D02*
X421440Y329950D01*
X421420Y329970D02*
Y348180D01*
X319420Y329970D02*
X319440Y329950D01*
X319420Y329970D02*
Y348180D01*
X216980Y329970D02*
Y348180D01*
X115380Y329970D02*
Y348180D01*
X637760Y651820D02*
Y670030D01*
X637740Y670050D02*
X637760Y670030D01*
X738760Y651820D02*
Y670030D01*
X738740Y670050D02*
X738760Y670030D01*
X840760Y651820D02*
Y670030D01*
X840740Y670050D02*
X840760Y670030D01*
X1390000Y807000D02*
Y826000D01*
X1373000Y790000D02*
X1390000Y807000D01*
X1273000Y825500D02*
Y840000D01*
X1313000Y797000D02*
X1313000Y797000D01*
Y808500D01*
X1313000Y808500D01*
X1299000Y790000D02*
X1373000D01*
X1294000Y795000D02*
Y808500D01*
Y795000D02*
X1299000Y790000D01*
X1650000Y688000D02*
X1694000D01*
X1697000Y685000D01*
X1707692D01*
X1710692Y688000D01*
X1750000D01*
X1446000Y484000D02*
X1650000Y688000D01*
X1710500Y716500D02*
X1713500Y713500D01*
X1698308Y716500D02*
X1710500D01*
X1713500Y713500D02*
X1750000D01*
X1650500D02*
X1695308D01*
X1698308Y716500D01*
X1433000Y496000D02*
X1650500Y713500D01*
X1543000Y872000D02*
X1557000D01*
X1425250Y953500D02*
X1425250Y953500D01*
X1444000D01*
X1444000Y953500D01*
X1431000Y929000D02*
X1438000D01*
X1428000Y932000D02*
X1431000Y929000D01*
X1428000Y932000D02*
Y942243D01*
X1429757Y944000D01*
X1444000D01*
X91030Y311750D02*
Y329960D01*
X192030Y311750D02*
Y329960D01*
X294030Y311750D02*
Y329960D01*
X396030Y311750D02*
Y329960D01*
X498030Y311750D02*
Y329960D01*
X670010Y311750D02*
Y329960D01*
X771010Y311750D02*
Y329960D01*
X873010Y311750D02*
Y329960D01*
X975010Y311750D02*
Y329960D01*
X1077010Y311750D02*
Y329960D01*
X1069230Y670040D02*
Y688250D01*
X967230Y670040D02*
Y688250D01*
X865230Y670040D02*
Y688250D01*
X763230Y670040D02*
Y688250D01*
X662230Y670040D02*
Y688250D01*
X490250Y670040D02*
Y688250D01*
X388250Y670040D02*
Y688250D01*
X286250Y670040D02*
Y688250D01*
X184250Y670040D02*
Y688250D01*
X83250Y670040D02*
Y688250D01*
X539340Y288050D02*
X539390Y288100D01*
Y329900D01*
X539440Y329950D01*
X522400Y348200D02*
X522420Y348180D01*
X497690Y348200D02*
X497940Y347950D01*
X474190Y348200D02*
X497690D01*
X473940Y348450D02*
X474190Y348200D01*
X473940Y309990D02*
Y331450D01*
X469400Y305450D02*
X473940Y309990D01*
X507900Y258200D02*
X513940Y252160D01*
Y211850D02*
Y252160D01*
X475900Y258200D02*
X507900D01*
X469400Y264700D02*
Y305450D01*
Y264700D02*
X475900Y258200D01*
X368400Y264700D02*
X374900Y258200D01*
X368400Y264700D02*
Y305450D01*
X374900Y258200D02*
X406900D01*
X412940Y211850D02*
Y252160D01*
X406900Y258200D02*
X412940Y252160D01*
X368400Y305450D02*
X372940Y309990D01*
Y331450D01*
Y348450D02*
X373190Y348200D01*
X396690D01*
X396940Y347950D01*
X421400Y348200D02*
X421420Y348180D01*
X438390Y329900D02*
X438440Y329950D01*
X438390Y288100D02*
Y329900D01*
X438340Y288050D02*
X438390Y288100D01*
X266400Y264700D02*
X272900Y258200D01*
X266400Y264700D02*
Y305450D01*
X272900Y258200D02*
X304900D01*
X310940Y211850D02*
Y252160D01*
X304900Y258200D02*
X310940Y252160D01*
X266400Y305450D02*
X270940Y309990D01*
Y331450D01*
Y348450D02*
X271190Y348200D01*
X294690D01*
X294940Y347950D01*
X319400Y348200D02*
X319420Y348180D01*
X336390Y329900D02*
X336440Y329950D01*
X336390Y288100D02*
Y329900D01*
X336340Y288050D02*
X336390Y288100D01*
X163960Y264700D02*
X170460Y258200D01*
X163960Y264700D02*
Y305450D01*
X170460Y258200D02*
X202460D01*
X208500Y211850D02*
Y252160D01*
X202460Y258200D02*
X208500Y252160D01*
X163960Y305450D02*
X168500Y309990D01*
Y331450D01*
Y348450D02*
X168750Y348200D01*
X192250D01*
X192500Y347950D01*
X216960Y348200D02*
X216980Y348180D01*
Y329970D02*
X217000Y329950D01*
X233950Y329900D02*
X234000Y329950D01*
X233950Y288100D02*
Y329900D01*
X233900Y288050D02*
X233950Y288100D01*
X62360Y264700D02*
X68860Y258200D01*
X62360Y264700D02*
Y305450D01*
X68860Y258200D02*
X100860D01*
X106900Y211850D02*
Y252160D01*
X100860Y258200D02*
X106900Y252160D01*
X62360Y305450D02*
X66900Y309990D01*
Y331450D01*
Y348450D02*
X67150Y348200D01*
X90650D01*
X90900Y347950D01*
X115360Y348200D02*
X115380Y348180D01*
Y329970D02*
X115400Y329950D01*
X132350Y329900D02*
X132400Y329950D01*
X132350Y288100D02*
Y329900D01*
X132300Y288050D02*
X132350Y288100D01*
X1119350Y288050D02*
X1119400Y288100D01*
Y329900D01*
X1119450Y329950D01*
X1102430Y329970D02*
X1102450Y329950D01*
X1102430Y329970D02*
Y348180D01*
X1102410Y348200D02*
X1102430Y348180D01*
X1077700Y348200D02*
X1077950Y347950D01*
X1054200Y348200D02*
X1077700D01*
X1053950Y348450D02*
X1054200Y348200D01*
X1053950Y309990D02*
Y331450D01*
X1049410Y305450D02*
X1053950Y309990D01*
X1087910Y258200D02*
X1093950Y252160D01*
Y211850D02*
Y252160D01*
X1055910Y258200D02*
X1087910D01*
X1049410Y264700D02*
Y305450D01*
Y264700D02*
X1055910Y258200D01*
X948410Y264700D02*
X954910Y258200D01*
X948410Y264700D02*
Y305450D01*
X954910Y258200D02*
X986910D01*
X992950Y211850D02*
Y252160D01*
X986910Y258200D02*
X992950Y252160D01*
X948410Y305450D02*
X952950Y309990D01*
Y331450D01*
Y348450D02*
X953200Y348200D01*
X976700D01*
X976950Y347950D01*
X1001410Y348200D02*
X1001430Y348180D01*
Y329970D02*
Y348180D01*
Y329970D02*
X1001450Y329950D01*
X1018400Y329900D02*
X1018450Y329950D01*
X1018400Y288100D02*
Y329900D01*
X1018350Y288050D02*
X1018400Y288100D01*
X846410Y264700D02*
X852910Y258200D01*
X846410Y264700D02*
Y305450D01*
X852910Y258200D02*
X884910D01*
X890950Y211850D02*
Y252160D01*
X884910Y258200D02*
X890950Y252160D01*
X846410Y305450D02*
X850950Y309990D01*
Y331450D01*
Y348450D02*
X851200Y348200D01*
X874700D01*
X874950Y347950D01*
X899410Y348200D02*
X899430Y348180D01*
X916400Y329900D02*
X916450Y329950D01*
X916400Y288100D02*
Y329900D01*
X916350Y288050D02*
X916400Y288100D01*
X743970Y264700D02*
X750470Y258200D01*
X743970Y264700D02*
Y305450D01*
X750470Y258200D02*
X782470D01*
X788510Y211850D02*
Y252160D01*
X782470Y258200D02*
X788510Y252160D01*
X743970Y305450D02*
X748510Y309990D01*
Y331450D01*
Y348450D02*
X748760Y348200D01*
X772260D01*
X772510Y347950D01*
X796970Y348200D02*
X796990Y348180D01*
Y329970D02*
X797010Y329950D01*
X813960Y329900D02*
X814010Y329950D01*
X813960Y288100D02*
Y329900D01*
X813910Y288050D02*
X813960Y288100D01*
X642370Y264700D02*
X648870Y258200D01*
X642370Y264700D02*
Y305450D01*
X648870Y258200D02*
X680870D01*
X686910Y211850D02*
Y252160D01*
X680870Y258200D02*
X686910Y252160D01*
X642370Y305450D02*
X646910Y309990D01*
Y331450D01*
Y348450D02*
X647160Y348200D01*
X670660D01*
X670910Y347950D01*
X695370Y348200D02*
X695390Y348180D01*
Y329970D02*
X695410Y329950D01*
X712360Y329900D02*
X712410Y329950D01*
X712360Y288100D02*
Y329900D01*
X712310Y288050D02*
X712360Y288100D01*
X620790Y711900D02*
X620840Y711950D01*
X620790Y670100D02*
Y711900D01*
X620740Y670050D02*
X620790Y670100D01*
X637760Y651820D02*
X637780Y651800D01*
X662240Y652050D02*
X662490Y651800D01*
X685990D01*
X686240Y651550D01*
Y668550D02*
Y690010D01*
X690780Y694550D01*
X646240Y747840D02*
X652280Y741800D01*
X646240Y747840D02*
Y788150D01*
X652280Y741800D02*
X684280D01*
X690780Y694550D02*
Y735300D01*
X684280Y741800D02*
X690780Y735300D01*
X785280Y741800D02*
X791780Y735300D01*
Y694550D02*
Y735300D01*
X753280Y741800D02*
X785280D01*
X747240Y747840D02*
Y788150D01*
Y747840D02*
X753280Y741800D01*
X787240Y690010D02*
X791780Y694550D01*
X787240Y668550D02*
Y690010D01*
X786990Y651800D02*
X787240Y651550D01*
X763490Y651800D02*
X786990D01*
X763240Y652050D02*
X763490Y651800D01*
X738760Y651820D02*
X738780Y651800D01*
X721740Y670050D02*
X721790Y670100D01*
Y711900D01*
X721840Y711950D01*
X887280Y741800D02*
X893780Y735300D01*
Y694550D02*
Y735300D01*
X855280Y741800D02*
X887280D01*
X849240Y747840D02*
Y788150D01*
Y747840D02*
X855280Y741800D01*
X889240Y690010D02*
X893780Y694550D01*
X889240Y668550D02*
Y690010D01*
X888990Y651800D02*
X889240Y651550D01*
X865490Y651800D02*
X888990D01*
X865240Y652050D02*
X865490Y651800D01*
X840760Y651820D02*
X840780Y651800D01*
X823740Y670050D02*
X823790Y670100D01*
Y711900D01*
X823840Y711950D01*
X989720Y741800D02*
X996220Y735300D01*
Y694550D02*
Y735300D01*
X957720Y741800D02*
X989720D01*
X951680Y747840D02*
Y788150D01*
Y747840D02*
X957720Y741800D01*
X991680Y690010D02*
X996220Y694550D01*
X991680Y668550D02*
Y690010D01*
X991430Y651800D02*
X991680Y651550D01*
X967930Y651800D02*
X991430D01*
X967680Y652050D02*
X967930Y651800D01*
X943200Y651820D02*
X943220Y651800D01*
X943200Y651820D02*
Y670030D01*
X943180Y670050D02*
X943200Y670030D01*
X926180Y670050D02*
X926230Y670100D01*
Y711900D01*
X926280Y711950D01*
X1091320Y741800D02*
X1097820Y735300D01*
Y694550D02*
Y735300D01*
X1059320Y741800D02*
X1091320D01*
X1053280Y747840D02*
Y788150D01*
Y747840D02*
X1059320Y741800D01*
X1093280Y690010D02*
X1097820Y694550D01*
X1093280Y668550D02*
Y690010D01*
X1093030Y651800D02*
X1093280Y651550D01*
X1069530Y651800D02*
X1093030D01*
X1069280Y652050D02*
X1069530Y651800D01*
X1044800Y651820D02*
X1044820Y651800D01*
X1044800Y651820D02*
Y670030D01*
X1044780Y670050D02*
X1044800Y670030D01*
X1027780Y670050D02*
X1027830Y670100D01*
Y711900D01*
X1027880Y711950D01*
X448800Y711850D02*
X448850Y711900D01*
X448800Y670050D02*
Y711850D01*
X448750Y670000D02*
X448800Y670050D01*
X465750Y670000D02*
X465770Y669980D01*
Y651770D02*
Y669980D01*
Y651770D02*
X465790Y651750D01*
X490250Y652000D02*
X490500Y651750D01*
X514000D01*
X514250Y651500D01*
Y668500D02*
Y689960D01*
X518790Y694500D01*
X474250Y747790D02*
X480290Y741750D01*
X474250Y747790D02*
Y788100D01*
X480290Y741750D02*
X512290D01*
X518790Y694500D02*
Y735250D01*
X512290Y741750D02*
X518790Y735250D01*
X347200Y711850D02*
X347250Y711900D01*
X347200Y670050D02*
Y711850D01*
X347150Y670000D02*
X347200Y670050D01*
X364150Y670000D02*
X364170Y669980D01*
Y651770D02*
Y669980D01*
Y651770D02*
X364190Y651750D01*
X388650Y652000D02*
X388900Y651750D01*
X412400D01*
X412650Y651500D01*
Y668500D02*
Y689960D01*
X417190Y694500D01*
X372650Y747790D02*
X378690Y741750D01*
X372650Y747790D02*
Y788100D01*
X378690Y741750D02*
X410690D01*
X417190Y694500D02*
Y735250D01*
X410690Y741750D02*
X417190Y735250D01*
X244760Y711850D02*
X244810Y711900D01*
X244760Y670050D02*
Y711850D01*
X244710Y670000D02*
X244760Y670050D01*
X261710Y670000D02*
X261730Y669980D01*
Y651770D02*
Y669980D01*
Y651770D02*
X261750Y651750D01*
X286210Y652000D02*
X286460Y651750D01*
X309960D01*
X310210Y651500D01*
Y668500D02*
Y689960D01*
X314750Y694500D01*
X270210Y747790D02*
X276250Y741750D01*
X270210Y747790D02*
Y788100D01*
X276250Y741750D02*
X308250D01*
X314750Y694500D02*
Y735250D01*
X308250Y741750D02*
X314750Y735250D01*
X142760Y711850D02*
X142810Y711900D01*
X142760Y670050D02*
Y711850D01*
X142710Y670000D02*
X142760Y670050D01*
X159710Y670000D02*
X159730Y669980D01*
Y651770D02*
Y669980D01*
Y651770D02*
X159750Y651750D01*
X184210Y652000D02*
X184460Y651750D01*
X207960D01*
X208210Y651500D01*
Y668500D02*
Y689960D01*
X212750Y694500D01*
X168210Y747790D02*
X174250Y741750D01*
X168210Y747790D02*
Y788100D01*
X174250Y741750D02*
X206250D01*
X212750Y694500D02*
Y735250D01*
X206250Y741750D02*
X212750Y735250D01*
X105250Y741750D02*
X111750Y735250D01*
Y694500D02*
Y735250D01*
X73250Y741750D02*
X105250D01*
X67210Y747790D02*
Y788100D01*
Y747790D02*
X73250Y741750D01*
X107210Y689960D02*
X111750Y694500D01*
X107210Y668500D02*
Y689960D01*
X106960Y651750D02*
X107210Y651500D01*
X83460Y651750D02*
X106960D01*
X83210Y652000D02*
X83460Y651750D01*
X58730Y651770D02*
X58750Y651750D01*
X58730Y651770D02*
Y669980D01*
X58710Y670000D02*
X58730Y669980D01*
X41710Y670000D02*
X41760Y670050D01*
Y711850D01*
X41810Y711900D01*
X160000Y530000D02*
Y540250D01*
X164500Y544750D01*
X165000D01*
X179500Y530000D02*
X190250D01*
X190250Y530000D01*
X153500Y459750D02*
X158000Y455250D01*
X153500Y459750D02*
Y470000D01*
X173000Y459750D02*
X177500Y455250D01*
X173000Y459750D02*
Y470000D01*
X160000D02*
Y481500D01*
X161750Y483250D01*
X177750D02*
X179500Y481500D01*
Y470000D02*
Y481500D01*
X360000Y530000D02*
Y540250D01*
X364500Y544750D01*
X365000D01*
X379500Y530000D02*
X390250D01*
X390250Y530000D01*
X353500Y459750D02*
X358000Y455250D01*
X353500Y459750D02*
Y470000D01*
X373000Y459750D02*
X377500Y455250D01*
X373000Y459750D02*
Y470000D01*
X360000D02*
Y481500D01*
X361750Y483250D01*
X377750D02*
X379500Y481500D01*
Y470000D02*
Y481500D01*
X600000Y530000D02*
Y540250D01*
X604500Y544750D01*
X605000D01*
X619500Y530000D02*
X630250D01*
X630250Y530000D01*
X593500Y459750D02*
X598000Y455250D01*
X593500Y459750D02*
Y470000D01*
X613000Y459750D02*
X617500Y455250D01*
X613000Y459750D02*
Y470000D01*
X600000D02*
Y481500D01*
X601750Y483250D01*
X617750D02*
X619500Y481500D01*
Y470000D02*
Y481500D01*
X835000Y530000D02*
Y540250D01*
X839500Y544750D01*
X840000D01*
X854500Y530000D02*
X865250D01*
X865250Y530000D01*
X828500Y459750D02*
X833000Y455250D01*
X828500Y459750D02*
Y470000D01*
X848000Y459750D02*
X852500Y455250D01*
X848000Y459750D02*
Y470000D01*
X1063000Y459750D02*
Y470000D01*
Y459750D02*
X1067500Y455250D01*
X1043500Y459750D02*
Y470000D01*
Y459750D02*
X1048000Y455250D01*
X1080250Y530000D02*
X1080250Y530000D01*
X1069500Y530000D02*
X1080250D01*
X1054500Y544750D02*
X1055000D01*
X1050000Y540250D02*
X1054500Y544750D01*
X1050000Y530000D02*
Y540250D01*
X1557000Y924000D02*
X1557125Y924125D01*
X1602125D01*
X1602250Y924250D01*
X1273000Y797000D02*
Y808500D01*
X1323000Y840000D02*
X1323000Y840000D01*
X1323000Y840000D02*
Y851750D01*
X1323000Y851750D02*
X1323000Y851750D01*
X1313250Y851500D02*
X1313500Y851750D01*
X1313250Y825750D02*
Y851500D01*
X1313000Y825500D02*
X1313250Y825750D01*
X1294000Y825500D02*
X1313000D01*
X1273000Y808500D02*
X1273000Y808500D01*
X1254000Y808500D02*
X1273000D01*
X1254000Y808500D02*
X1254000Y808500D01*
X1242500Y825500D02*
X1254000D01*
X1844000Y799000D02*
Y846000D01*
X1835000Y855000D02*
X1844000Y846000D01*
Y799000D02*
X1854000Y789000D01*
X1557125Y872125D02*
X1601125D01*
X1854000Y775000D02*
Y789000D01*
X1602250Y924250D02*
X1643750D01*
X1643750D02*
X1643875Y924125D01*
X1824000Y805000D02*
X1845500Y783500D01*
Y775000D02*
Y783500D01*
X1827000Y793000D02*
X1837000Y783000D01*
X1820000Y793000D02*
X1827000D01*
X1837000Y775000D02*
Y783000D01*
X1780000Y844000D02*
X1811500Y812500D01*
Y775000D02*
Y812500D01*
X1803000Y775000D02*
Y808000D01*
X1776000Y835000D02*
X1803000Y808000D01*
X1772000Y826000D02*
X1794500Y803500D01*
Y775000D02*
Y803500D01*
X1786000Y775000D02*
Y799000D01*
X1768000Y817000D02*
X1786000Y799000D01*
X1764000Y808000D02*
X1777500Y794500D01*
Y772545D02*
Y794500D01*
X1769000Y775000D02*
Y789000D01*
X1527000Y799000D02*
X1759000D01*
X1769000Y789000D01*
X1314000Y586000D02*
X1527000Y799000D01*
X1754000Y790000D02*
X1760500Y783500D01*
X1548000Y790000D02*
X1754000D01*
X1334000Y576000D02*
X1548000Y790000D01*
X1760500Y775000D02*
Y783500D01*
X1601125Y872125D02*
X1601250Y872250D01*
X1642750D01*
X1557000Y872000D02*
X1557125Y872125D01*
X1602375Y945875D02*
X1623875D01*
X1624125D02*
X1643625D01*
X1623125Y893875D02*
X1642625D01*
X1601375D02*
X1622875D01*
X1623000Y894000D02*
X1623125Y893875D01*
X1622875D02*
X1623000Y894000D01*
X1578040Y941164D02*
Y954414D01*
X1557000Y944000D02*
Y957250D01*
X1557000Y892000D02*
Y905250D01*
X1578040Y889164D02*
Y902414D01*
X1279050Y350950D02*
X1321000D01*
X1279000Y351000D02*
X1279050Y350950D01*
X1278500Y351500D02*
X1279000Y351000D01*
X1253000Y351500D02*
X1278500D01*
X1875000Y619000D02*
Y619812D01*
X1879500Y624312D02*
Y635000D01*
X1875000Y619812D02*
X1879500Y624312D01*
X852000Y576000D02*
X1334000D01*
X620000Y586000D02*
X1314000D01*
X1392000Y549000D02*
X1590500Y747500D01*
X1750000D01*
X1069000Y549000D02*
X1392000D01*
X1636000Y722000D02*
X1750000D01*
X1198000Y509000D02*
X1423000D01*
X1636000Y722000D01*
X1201000Y496000D02*
X1433000D01*
X1204000Y484000D02*
X1446000D01*
X1063000Y543000D02*
X1069000Y549000D01*
X1043500Y544500D02*
X1057000Y558000D01*
X848000Y547000D02*
X868000Y567000D01*
X828500Y552500D02*
X852000Y576000D01*
X613000Y579000D02*
X620000Y586000D01*
X1855250Y446750D02*
X1862250D01*
X1849500Y452500D02*
X1855250Y446750D01*
X1838000Y452500D02*
X1849500D01*
X1803000Y441500D02*
X1806500Y438000D01*
Y426000D02*
Y438000D01*
X1803000Y441500D02*
Y442000D01*
X593500Y586500D02*
X603000Y596000D01*
X373000Y584000D02*
X394000Y605000D01*
X353500Y593500D02*
X374000Y614000D01*
X173000Y598000D02*
X198000Y623000D01*
X153500Y600500D02*
X184000Y631000D01*
X1043500Y530000D02*
Y544500D01*
X1821500Y514000D02*
Y525418D01*
X1825000Y528918D02*
Y530000D01*
X1821500Y525418D02*
X1825000Y528918D01*
X1838000Y487500D02*
X1851500D01*
X1859684Y495684D02*
X1866184D01*
X1851500Y487500D02*
X1859684Y495684D01*
X1866184D02*
X1866500Y496000D01*
X1816000Y448000D02*
X1816500Y447500D01*
X1838000D01*
X1730000Y531000D02*
Y544000D01*
Y519000D02*
Y531000D01*
Y519000D02*
X1735000Y514000D01*
X1766500D01*
X1858000Y453000D02*
X1868500D01*
X1848500Y462500D02*
X1858000Y453000D01*
X1838000Y462500D02*
X1848500D01*
X1868500Y478000D02*
X1868500Y478000D01*
X1858000Y478000D02*
X1868500D01*
X1853500Y482500D02*
X1858000Y478000D01*
X1838000Y482500D02*
X1853500D01*
X1848500Y477500D02*
X1860500Y465500D01*
X1916000D01*
X1838000Y477500D02*
X1848500D01*
X1816500Y411500D02*
Y426000D01*
X1819750Y396500D02*
Y408250D01*
X1816500Y411500D02*
X1819750Y408250D01*
X1799809Y396309D02*
X1801500Y398000D01*
Y426000D01*
X1781478Y396545D02*
X1781500Y396567D01*
Y426000D01*
X1750000Y442500D02*
X1765000D01*
X1801500Y499000D02*
Y514000D01*
X1823000Y472500D02*
X1838000D01*
X1823000Y457500D02*
X1838000D01*
X1776500Y426000D02*
Y441000D01*
X166500Y390500D02*
Y470000D01*
Y390500D02*
X179000Y378000D01*
X1162000D01*
X147000Y387000D02*
X163000Y371000D01*
X147000Y387000D02*
Y470000D01*
X163000Y371000D02*
X1174000D01*
X1234000Y431000D01*
X1162000Y378000D02*
X1225000Y441000D01*
X1063000Y530000D02*
Y543000D01*
X1154000Y386000D02*
X1218000Y450000D01*
X1145000Y393000D02*
X1212000Y460000D01*
X1137000Y400000D02*
X1208000Y471000D01*
X1127000Y407000D02*
X1204000Y484000D01*
X1120000Y415000D02*
X1201000Y496000D01*
X1111000Y422000D02*
X1198000Y509000D01*
X1104000Y433000D02*
X1193000Y522000D01*
X1096000Y443000D02*
X1188000Y535000D01*
X606500Y419500D02*
X619000Y407000D01*
X1127000D01*
X595000Y400000D02*
X1137000D01*
X587000Y408000D02*
X595000Y400000D01*
X366500Y405500D02*
X379000Y393000D01*
X1145000D01*
X347000Y404000D02*
X365000Y386000D01*
X1154000D01*
X822000Y434000D02*
X841000Y415000D01*
X1120000D01*
X822000Y434000D02*
Y470000D01*
X841500Y433500D02*
X853000Y422000D01*
X841500Y433500D02*
Y470000D01*
X853000Y422000D02*
X1111000D01*
X1037000Y440000D02*
Y470000D01*
Y440000D02*
X1044000Y433000D01*
X1104000D01*
X1056500Y448500D02*
X1062000Y443000D01*
X1096000D01*
X1056500Y448500D02*
Y470000D01*
X828500Y530000D02*
Y552500D01*
X848000Y530000D02*
Y547000D01*
X606500Y419500D02*
Y470000D01*
X587000Y408000D02*
Y470000D01*
X366500Y405500D02*
Y470000D01*
X347000Y404000D02*
Y470000D01*
X613000Y530000D02*
Y579000D01*
X593500Y530000D02*
Y586500D01*
X373000Y530000D02*
Y584000D01*
X353500Y530000D02*
Y593500D01*
X173000Y530000D02*
Y598000D01*
X153500Y530000D02*
Y600500D01*
D15*
X1458000Y349000D02*
D03*
Y239000D02*
D03*
D16*
X1192000Y882000D02*
D03*
Y966000D02*
D03*
Y164000D02*
D03*
Y80000D02*
D03*
D17*
X1321000Y309050D02*
D03*
Y296350D02*
D03*
Y283650D02*
D03*
Y270950D02*
D03*
X1379000Y309050D02*
D03*
Y296350D02*
D03*
Y283650D02*
D03*
Y270950D02*
D03*
X1321000Y389050D02*
D03*
Y376350D02*
D03*
Y363650D02*
D03*
Y350950D02*
D03*
X1379000Y389050D02*
D03*
Y376350D02*
D03*
Y363650D02*
D03*
Y350950D02*
D03*
D18*
X1356000Y290000D02*
D03*
X1356000Y370000D02*
D03*
D19*
X1350000Y265000D02*
D03*
Y315000D02*
D03*
X1350000Y345000D02*
D03*
Y395000D02*
D03*
D20*
X1601250Y893750D02*
D03*
X1642750D02*
D03*
X1601250Y872250D02*
D03*
X1642750D02*
D03*
X1602250Y945750D02*
D03*
X1643750D02*
D03*
X1602250Y924250D02*
D03*
X1643750D02*
D03*
D21*
X1760500Y635000D02*
D03*
X1769000D02*
D03*
X1777500D02*
D03*
X1786000D02*
D03*
X1794500D02*
D03*
X1803000D02*
D03*
X1811500D02*
D03*
X1820000D02*
D03*
X1828500D02*
D03*
X1837000D02*
D03*
X1845500D02*
D03*
X1854000D02*
D03*
X1862500D02*
D03*
X1871000D02*
D03*
X1879500D02*
D03*
X1760500Y775000D02*
D03*
X1769000D02*
D03*
X1777500D02*
D03*
X1786000D02*
D03*
X1794500D02*
D03*
X1803000D02*
D03*
X1811500D02*
D03*
X1820000D02*
D03*
X1828500D02*
D03*
X1837000D02*
D03*
X1845500D02*
D03*
X1854000D02*
D03*
X1862500D02*
D03*
X1871000D02*
D03*
X1879500D02*
D03*
D22*
X1836500Y721500D02*
D03*
X1820000D02*
D03*
X1803500D02*
D03*
Y705000D02*
D03*
Y688500D02*
D03*
X1820000D02*
D03*
X1836500D02*
D03*
Y705000D02*
D03*
X1820000D02*
D03*
D23*
X1890000Y764500D02*
D03*
Y756000D02*
D03*
Y747500D02*
D03*
Y739000D02*
D03*
Y730500D02*
D03*
Y722000D02*
D03*
Y713500D02*
D03*
Y705000D02*
D03*
Y696500D02*
D03*
Y688000D02*
D03*
Y679500D02*
D03*
Y671000D02*
D03*
Y662500D02*
D03*
Y654000D02*
D03*
Y645500D02*
D03*
X1750000D02*
D03*
Y654000D02*
D03*
Y662500D02*
D03*
Y671000D02*
D03*
Y679500D02*
D03*
Y688000D02*
D03*
Y696500D02*
D03*
Y705000D02*
D03*
Y713500D02*
D03*
Y722000D02*
D03*
Y730500D02*
D03*
Y739000D02*
D03*
Y747500D02*
D03*
Y756000D02*
D03*
Y764500D02*
D03*
D24*
Y635000D02*
D03*
X1890000D02*
D03*
X1750000Y775000D02*
D03*
X1890000D02*
D03*
D25*
X1835000Y930000D02*
D03*
X1827000D02*
D03*
X1771000D02*
D03*
X1779000D02*
D03*
D26*
X1820500D02*
D03*
X1815500D02*
D03*
X1810500D02*
D03*
X1805500D02*
D03*
X1800500D02*
D03*
X1795500D02*
D03*
X1790500D02*
D03*
X1785500D02*
D03*
D27*
X1373000Y937000D02*
D03*
X1323000D02*
D03*
D28*
X1339000Y223000D02*
D03*
X1381000D02*
D03*
X1701000Y973000D02*
D03*
X1659000D02*
D03*
X1052200Y130000D02*
D03*
X1094200D02*
D03*
X950600D02*
D03*
X992600D02*
D03*
X849000D02*
D03*
X891000D02*
D03*
X747400D02*
D03*
X789400D02*
D03*
X645800D02*
D03*
X687800D02*
D03*
X472200D02*
D03*
X514200D02*
D03*
X370600D02*
D03*
X412600D02*
D03*
X269000D02*
D03*
X311000D02*
D03*
X167400D02*
D03*
X209400D02*
D03*
X65800D02*
D03*
X107800D02*
D03*
X108800Y870000D02*
D03*
X66800D02*
D03*
X210400D02*
D03*
X168400D02*
D03*
X312000D02*
D03*
X270000D02*
D03*
X413600D02*
D03*
X371600D02*
D03*
X515200D02*
D03*
X473200D02*
D03*
X687800D02*
D03*
X645800D02*
D03*
X789400D02*
D03*
X747400D02*
D03*
X891000D02*
D03*
X849000D02*
D03*
X992600D02*
D03*
X950600D02*
D03*
X1094200D02*
D03*
X1052200D02*
D03*
D29*
X1279000Y351000D02*
D03*
Y309000D02*
D03*
D30*
X1750000Y442500D02*
D03*
Y447500D02*
D03*
Y452500D02*
D03*
Y457500D02*
D03*
Y462500D02*
D03*
Y467500D02*
D03*
Y472500D02*
D03*
Y477500D02*
D03*
Y482500D02*
D03*
Y487500D02*
D03*
Y492500D02*
D03*
Y497500D02*
D03*
X1838000D02*
D03*
Y492500D02*
D03*
Y487500D02*
D03*
Y482500D02*
D03*
Y477500D02*
D03*
Y472500D02*
D03*
Y467500D02*
D03*
Y462500D02*
D03*
Y457500D02*
D03*
Y452500D02*
D03*
Y447500D02*
D03*
Y442500D02*
D03*
D31*
X1766500Y514000D02*
D03*
X1771500D02*
D03*
X1776500D02*
D03*
X1781500D02*
D03*
X1786500D02*
D03*
X1791500D02*
D03*
X1796500D02*
D03*
X1801500D02*
D03*
X1806500D02*
D03*
X1811500D02*
D03*
X1816500D02*
D03*
X1821500D02*
D03*
Y426000D02*
D03*
X1816500D02*
D03*
X1811500D02*
D03*
X1806500D02*
D03*
X1801500D02*
D03*
X1796500D02*
D03*
X1791500D02*
D03*
X1786500D02*
D03*
X1781500D02*
D03*
X1776500D02*
D03*
X1771500D02*
D03*
X1766500D02*
D03*
D32*
X1868500Y549830D02*
D03*
Y568330D02*
D03*
X1883000D02*
D03*
Y549830D02*
D03*
X1253000Y334500D02*
D03*
Y351500D02*
D03*
X1254000Y808500D02*
D03*
Y825500D02*
D03*
X1294000D02*
D03*
Y808500D02*
D03*
X1273000Y825500D02*
D03*
Y808500D02*
D03*
X1313000Y808500D02*
D03*
Y825500D02*
D03*
X1873000Y912500D02*
D03*
Y929500D02*
D03*
X1730000Y912500D02*
D03*
Y929500D02*
D03*
X1578040Y872164D02*
D03*
Y889164D02*
D03*
X1578040Y924164D02*
D03*
Y941164D02*
D03*
X1679000Y123500D02*
D03*
Y106500D02*
D03*
X1927000Y123500D02*
D03*
Y106500D02*
D03*
X1854000Y356500D02*
D03*
Y373500D02*
D03*
X1054000Y348500D02*
D03*
Y331500D02*
D03*
X953000Y348500D02*
D03*
Y331500D02*
D03*
X851000Y348500D02*
D03*
Y331500D02*
D03*
X749000Y348500D02*
D03*
Y331500D02*
D03*
X647000Y348500D02*
D03*
Y331500D02*
D03*
X473990Y348500D02*
D03*
Y331500D02*
D03*
X372990Y348500D02*
D03*
Y331500D02*
D03*
X270990Y348500D02*
D03*
Y331500D02*
D03*
X168990Y348500D02*
D03*
Y331500D02*
D03*
X66990Y348500D02*
D03*
Y331500D02*
D03*
X107210Y651500D02*
D03*
Y668500D02*
D03*
X208210Y651500D02*
D03*
Y668500D02*
D03*
X310210Y651500D02*
D03*
Y668500D02*
D03*
X412210Y651500D02*
D03*
Y668500D02*
D03*
X514210Y651500D02*
D03*
Y668500D02*
D03*
X686190Y651500D02*
D03*
Y668500D02*
D03*
X787190Y651500D02*
D03*
Y668500D02*
D03*
X889190Y651500D02*
D03*
Y668500D02*
D03*
X991190Y651500D02*
D03*
Y668500D02*
D03*
X1093190Y651500D02*
D03*
Y668500D02*
D03*
X1520000Y933500D02*
D03*
Y948500D02*
D03*
X1293000Y880500D02*
D03*
Y865500D02*
D03*
X1802000Y396500D02*
D03*
Y381500D02*
D03*
X1781478Y396545D02*
D03*
Y381545D02*
D03*
X1819750Y396500D02*
D03*
Y381500D02*
D03*
X1010000Y507500D02*
D03*
Y492500D02*
D03*
X795000Y507500D02*
D03*
Y492500D02*
D03*
X560000Y507500D02*
D03*
Y492500D02*
D03*
X320000Y507500D02*
D03*
Y492500D02*
D03*
X120000Y507500D02*
D03*
Y492500D02*
D03*
D33*
X1474000Y934500D02*
D03*
Y944000D02*
D03*
Y953500D02*
D03*
X1444000Y934500D02*
D03*
Y944000D02*
D03*
Y953500D02*
D03*
D34*
X1459000Y944000D02*
D03*
D35*
X1078000Y348000D02*
D03*
Y330000D02*
D03*
X977000Y348000D02*
D03*
Y330000D02*
D03*
X875000Y348000D02*
D03*
Y330000D02*
D03*
X773000Y348000D02*
D03*
Y330000D02*
D03*
X671000Y348000D02*
D03*
Y330000D02*
D03*
X497990Y348000D02*
D03*
Y330000D02*
D03*
X396990Y348000D02*
D03*
Y330000D02*
D03*
X294990Y348000D02*
D03*
Y330000D02*
D03*
X192990Y348000D02*
D03*
Y330000D02*
D03*
X90990Y348000D02*
D03*
Y330000D02*
D03*
X83210Y652000D02*
D03*
Y670000D02*
D03*
X184210Y652000D02*
D03*
Y670000D02*
D03*
X286210Y652000D02*
D03*
Y670000D02*
D03*
X388210Y652000D02*
D03*
Y670000D02*
D03*
X490210Y652000D02*
D03*
Y670000D02*
D03*
X662190Y652000D02*
D03*
Y670000D02*
D03*
X763190Y652000D02*
D03*
Y670000D02*
D03*
X865190Y652000D02*
D03*
Y670000D02*
D03*
X967190Y652000D02*
D03*
Y670000D02*
D03*
X1069190Y652000D02*
D03*
Y670000D02*
D03*
D36*
X1798500Y874000D02*
D03*
X1808000D02*
D03*
X1817500D02*
D03*
X1798500Y900000D02*
D03*
X1808000D02*
D03*
X1817500D02*
D03*
X1732000Y227000D02*
D03*
X1741500D02*
D03*
X1751000D02*
D03*
X1732000Y253000D02*
D03*
X1741500D02*
D03*
X1751000D02*
D03*
X1800000Y227000D02*
D03*
X1809500D02*
D03*
X1819000D02*
D03*
X1800000Y253000D02*
D03*
X1809500D02*
D03*
X1819000D02*
D03*
D37*
X1313500Y851750D02*
D03*
X1323000D02*
D03*
X1332500D02*
D03*
X1313500Y880250D02*
D03*
X1323000D02*
D03*
X1332500D02*
D03*
D38*
X1069500Y530000D02*
D03*
X1063000D02*
D03*
X1056500D02*
D03*
X1050000D02*
D03*
X1043500D02*
D03*
X1037000D02*
D03*
X1030500D02*
D03*
X1069500Y470000D02*
D03*
X1063000D02*
D03*
X1056500D02*
D03*
X1050000D02*
D03*
X1043500D02*
D03*
X1037000D02*
D03*
X1030500D02*
D03*
X854500Y530000D02*
D03*
X848000D02*
D03*
X841500D02*
D03*
X835000D02*
D03*
X828500D02*
D03*
X822000D02*
D03*
X815500D02*
D03*
X854500Y470000D02*
D03*
X848000D02*
D03*
X841500D02*
D03*
X835000D02*
D03*
X828500D02*
D03*
X822000D02*
D03*
X815500D02*
D03*
X619500Y530000D02*
D03*
X613000D02*
D03*
X606500D02*
D03*
X600000D02*
D03*
X593500D02*
D03*
X587000D02*
D03*
X580500D02*
D03*
X619500Y470000D02*
D03*
X613000D02*
D03*
X606500D02*
D03*
X600000D02*
D03*
X593500D02*
D03*
X587000D02*
D03*
X580500D02*
D03*
X379500Y530000D02*
D03*
X373000D02*
D03*
X366500D02*
D03*
X360000D02*
D03*
X353500D02*
D03*
X347000D02*
D03*
X340500D02*
D03*
X379500Y470000D02*
D03*
X373000D02*
D03*
X366500D02*
D03*
X360000D02*
D03*
X353500D02*
D03*
X347000D02*
D03*
X340500D02*
D03*
X179500Y530000D02*
D03*
X173000D02*
D03*
X166500D02*
D03*
X160000D02*
D03*
X153500D02*
D03*
X147000D02*
D03*
X140500D02*
D03*
X179500Y470000D02*
D03*
X173000D02*
D03*
X166500D02*
D03*
X160000D02*
D03*
X153500D02*
D03*
X147000D02*
D03*
X140500D02*
D03*
D39*
X1910000Y517500D02*
D03*
Y508500D02*
D03*
D40*
X1798000Y576000D02*
D03*
X1815000D02*
D03*
X1703500Y480040D02*
D03*
X1686500D02*
D03*
X1703500Y462500D02*
D03*
X1686500D02*
D03*
X1703500Y444500D02*
D03*
X1686500D02*
D03*
X1703500Y497580D02*
D03*
X1686500D02*
D03*
X1885500Y512540D02*
D03*
X1868500D02*
D03*
X1102500Y330000D02*
D03*
X1119500D02*
D03*
X1001500D02*
D03*
X1018500D02*
D03*
X899500D02*
D03*
X916500D02*
D03*
X797500D02*
D03*
X814500D02*
D03*
X695500D02*
D03*
X712500D02*
D03*
X522490D02*
D03*
X539490D02*
D03*
X421490D02*
D03*
X438490D02*
D03*
X319490D02*
D03*
X336490D02*
D03*
X217490D02*
D03*
X234490D02*
D03*
X115490D02*
D03*
X132490D02*
D03*
X58710Y670000D02*
D03*
X41710D02*
D03*
X159710D02*
D03*
X142710D02*
D03*
X261710D02*
D03*
X244710D02*
D03*
X363710D02*
D03*
X346710D02*
D03*
X465710D02*
D03*
X448710D02*
D03*
X637690D02*
D03*
X620690D02*
D03*
X738690D02*
D03*
X721690D02*
D03*
X840690D02*
D03*
X823690D02*
D03*
X942690D02*
D03*
X925690D02*
D03*
X1044690D02*
D03*
X1027690D02*
D03*
X1443500Y910000D02*
D03*
X1458500D02*
D03*
X1347500Y826000D02*
D03*
X1332500D02*
D03*
X1387500Y846000D02*
D03*
X1372500D02*
D03*
X1862500Y805000D02*
D03*
X1877500D02*
D03*
X1928000Y524000D02*
D03*
X1943000D02*
D03*
X1868500Y478000D02*
D03*
X1883500D02*
D03*
X1868500Y453000D02*
D03*
X1883500D02*
D03*
X1868500Y433000D02*
D03*
X1883500D02*
D03*
X1812500Y542000D02*
D03*
X1827500D02*
D03*
X1868500Y530080D02*
D03*
X1883500D02*
D03*
D41*
X1756000Y601000D02*
D03*
Y611000D02*
D03*
X1772000Y601000D02*
D03*
Y611000D02*
D03*
X1798000Y601000D02*
D03*
Y611000D02*
D03*
X1764938Y392500D02*
D03*
Y382500D02*
D03*
X1776500Y550000D02*
D03*
Y540000D02*
D03*
X1749398Y392500D02*
D03*
Y382500D02*
D03*
X1801500Y337000D02*
D03*
Y327000D02*
D03*
X1817040Y337000D02*
D03*
Y327000D02*
D03*
X1801460Y282000D02*
D03*
Y292000D02*
D03*
X1817000D02*
D03*
Y282000D02*
D03*
D42*
X1764540Y364000D02*
D03*
X1774540D02*
D03*
X1750000D02*
D03*
X1740000D02*
D03*
X1791960Y308000D02*
D03*
X1801960D02*
D03*
X1826500D02*
D03*
X1816500D02*
D03*
X1852000Y568500D02*
D03*
X1842000D02*
D03*
X1730000Y531000D02*
D03*
X1720000D02*
D03*
X1866500Y496000D02*
D03*
X1876500D02*
D03*
D43*
X1444000Y889000D02*
D03*
X1464000D02*
D03*
X1388000D02*
D03*
X1368000D02*
D03*
X1388000Y866000D02*
D03*
X1368000D02*
D03*
X1862500Y827000D02*
D03*
X1882500D02*
D03*
X1929000Y498000D02*
D03*
X1949000D02*
D03*
D44*
X1500000Y934000D02*
D03*
Y954000D02*
D03*
X1273000Y880000D02*
D03*
Y860000D02*
D03*
X1557000Y872000D02*
D03*
Y892000D02*
D03*
X1557000Y924000D02*
D03*
Y944000D02*
D03*
X1916000Y465500D02*
D03*
Y445500D02*
D03*
D45*
X1745850Y97000D02*
D03*
X1860150D02*
D03*
D46*
X1834750Y160500D02*
D03*
X1809350D02*
D03*
X1783950D02*
D03*
X1758550D02*
D03*
X1771250Y185900D02*
D03*
X1796650D02*
D03*
X1822050D02*
D03*
X1847450D02*
D03*
D47*
X1880450Y127500D02*
D03*
X1725550D02*
D03*
D48*
X1869250Y56200D02*
D03*
X1736750D02*
D03*
X1843850D02*
D03*
X1762150D02*
D03*
D49*
X1759800Y936950D02*
D03*
X1846200D02*
D03*
D50*
Y978750D02*
D03*
X1759800D02*
D03*
D51*
X1774100Y941950D02*
D03*
X1831900D02*
D03*
D52*
X641400Y47000D02*
D03*
X692200D02*
D03*
X743000D02*
D03*
X793800D02*
D03*
X844600D02*
D03*
X895400D02*
D03*
X946200D02*
D03*
X997000D02*
D03*
X1047800D02*
D03*
X1098600D02*
D03*
X61400Y50000D02*
D03*
X112200D02*
D03*
X163000D02*
D03*
X213800D02*
D03*
X264600D02*
D03*
X315400D02*
D03*
X366200D02*
D03*
X417000D02*
D03*
X467800D02*
D03*
X518600D02*
D03*
X519600Y953000D02*
D03*
X468800D02*
D03*
X418000D02*
D03*
X367200D02*
D03*
X316400D02*
D03*
X265600D02*
D03*
X214800D02*
D03*
X164000D02*
D03*
X113200D02*
D03*
X62400D02*
D03*
X1098600D02*
D03*
X1047800D02*
D03*
X997000D02*
D03*
X946200D02*
D03*
X895400D02*
D03*
X844600D02*
D03*
X793800D02*
D03*
X743000D02*
D03*
X692200D02*
D03*
X641400D02*
D03*
X1410800Y65700D02*
D03*
X1309200D02*
D03*
Y167300D02*
D03*
X1410800D02*
D03*
D53*
X580000Y50000D02*
D03*
Y950000D02*
D03*
X1640000Y50000D02*
D03*
X1928000Y953000D02*
D03*
D54*
X1068600Y211900D02*
D03*
X1094000D02*
D03*
X1119400D02*
D03*
X1068600Y288100D02*
D03*
X1094000D02*
D03*
X1119400D02*
D03*
X967600Y211900D02*
D03*
X993000D02*
D03*
X1018400D02*
D03*
X967600Y288100D02*
D03*
X993000D02*
D03*
X1018400D02*
D03*
X865600Y211900D02*
D03*
X891000D02*
D03*
X916400D02*
D03*
X865600Y288100D02*
D03*
X891000D02*
D03*
X916400D02*
D03*
X763160Y211900D02*
D03*
X788560D02*
D03*
X813960D02*
D03*
X763160Y288100D02*
D03*
X788560D02*
D03*
X813960D02*
D03*
X661560Y211900D02*
D03*
X686960D02*
D03*
X712360D02*
D03*
X661560Y288100D02*
D03*
X686960D02*
D03*
X712360D02*
D03*
X488590Y211900D02*
D03*
X513990D02*
D03*
X539390D02*
D03*
X488590Y288100D02*
D03*
X513990D02*
D03*
X539390D02*
D03*
X387590Y211900D02*
D03*
X412990D02*
D03*
X438390D02*
D03*
X387590Y288100D02*
D03*
X412990D02*
D03*
X438390D02*
D03*
X285590Y211900D02*
D03*
X310990D02*
D03*
X336390D02*
D03*
X285590Y288100D02*
D03*
X310990D02*
D03*
X336390D02*
D03*
X183150Y211900D02*
D03*
X208550D02*
D03*
X233950D02*
D03*
X183150Y288100D02*
D03*
X208550D02*
D03*
X233950D02*
D03*
X81550Y211900D02*
D03*
X106950D02*
D03*
X132350D02*
D03*
X81550Y288100D02*
D03*
X106950D02*
D03*
X132350D02*
D03*
X92610Y788100D02*
D03*
X67210D02*
D03*
X41810D02*
D03*
X92610Y711900D02*
D03*
X67210D02*
D03*
X41810D02*
D03*
X193610Y788100D02*
D03*
X168210D02*
D03*
X142810D02*
D03*
X193610Y711900D02*
D03*
X168210D02*
D03*
X142810D02*
D03*
X295610Y788100D02*
D03*
X270210D02*
D03*
X244810D02*
D03*
X295610Y711900D02*
D03*
X270210D02*
D03*
X244810D02*
D03*
X398050Y788100D02*
D03*
X372650D02*
D03*
X347250D02*
D03*
X398050Y711900D02*
D03*
X372650D02*
D03*
X347250D02*
D03*
X499650Y788100D02*
D03*
X474250D02*
D03*
X448850D02*
D03*
X499650Y711900D02*
D03*
X474250D02*
D03*
X448850D02*
D03*
X671590Y788100D02*
D03*
X646190D02*
D03*
X620790D02*
D03*
X671590Y711900D02*
D03*
X646190D02*
D03*
X620790D02*
D03*
X772590Y788100D02*
D03*
X747190D02*
D03*
X721790D02*
D03*
X772590Y711900D02*
D03*
X747190D02*
D03*
X721790D02*
D03*
X874590Y788100D02*
D03*
X849190D02*
D03*
X823790D02*
D03*
X874590Y711900D02*
D03*
X849190D02*
D03*
X823790D02*
D03*
X977030Y788100D02*
D03*
X951630D02*
D03*
X926230D02*
D03*
X977030Y711900D02*
D03*
X951630D02*
D03*
X926230D02*
D03*
X1078630Y788100D02*
D03*
X1053230D02*
D03*
X1027830D02*
D03*
X1078630Y711900D02*
D03*
X1053230D02*
D03*
X1027830D02*
D03*
D56*
X140500Y482000D02*
Y486500D01*
X580500Y482000D02*
Y486500D01*
X340500Y481250D02*
X340500Y481250D01*
X340500Y481250D02*
Y486500D01*
X334500Y492500D02*
X340500Y486500D01*
X299000Y492500D02*
X334500D01*
X815500Y478500D02*
Y486500D01*
X785000Y492500D02*
X809500D01*
X1000000D02*
X1024500D01*
X774000D02*
X785000D01*
X550000D02*
X574500D01*
X110000D02*
X134500D01*
X809500D02*
X815500Y486500D01*
X140500Y513500D02*
Y519500D01*
X134500Y507500D02*
X140500Y513500D01*
X99000Y507500D02*
X134500D01*
Y492500D02*
X140500Y486500D01*
X99000Y492500D02*
X110000D01*
X340500Y513500D02*
Y519500D01*
X334500Y507500D02*
X340500Y513500D01*
X299000Y507500D02*
X334500D01*
X580500Y513500D02*
Y519500D01*
X574500Y507500D02*
X580500Y513500D01*
X560000Y507500D02*
X574500D01*
X539000D02*
X560000D01*
X574500Y492500D02*
X580500Y486500D01*
X539000Y492500D02*
X550000D01*
X815500Y513500D02*
Y519500D01*
X809500Y507500D02*
X815500Y513500D01*
X774000Y507500D02*
X809500D01*
X989000Y492500D02*
X1000000D01*
X1030500Y480500D02*
Y486500D01*
X1024500Y492500D02*
X1030500Y486500D01*
X989000Y507500D02*
X1010000D01*
X1024500D01*
X1030500Y513500D01*
Y519500D01*
X1868500Y539955D02*
Y549830D01*
Y530080D02*
Y539955D01*
X1868500Y530080D02*
X1868500Y530080D01*
Y549830D02*
X1868500Y549830D01*
X1857000Y530000D02*
X1868420D01*
D57*
X140500Y470000D02*
Y482000D01*
X580500Y470000D02*
Y482000D01*
X340500Y470000D02*
Y481250D01*
X815500Y470000D02*
Y478500D01*
X140500Y519500D02*
Y530000D01*
X340500Y519500D02*
Y530000D01*
X580500Y519500D02*
Y530000D01*
X815500Y519500D02*
Y530000D01*
X1030500Y470000D02*
Y480500D01*
Y519500D02*
Y530000D01*
D58*
X1776500Y554250D02*
Y575639D01*
X1756000Y573211D02*
Y594097D01*
Y542000D02*
Y573211D01*
Y594097D02*
Y598000D01*
X1776500Y575639D02*
Y575750D01*
X1783500Y582750D01*
X1776500Y550000D02*
Y554250D01*
X1783500Y582750D02*
Y606500D01*
Y620500D01*
X1777500Y626500D02*
X1783500Y620500D01*
X1756000Y542000D02*
X1771500Y526500D01*
X1798000Y576000D02*
Y601000D01*
X1796500Y514000D02*
Y553500D01*
X1806000Y563000D02*
X1829000D01*
X1796500Y553500D02*
X1806000Y563000D01*
X1829000D02*
X1834500Y568500D01*
X1786500Y514000D02*
Y556250D01*
X1798000Y567750D01*
Y576000D01*
X1772000Y601000D02*
X1772000Y601000D01*
X1772000Y589250D02*
Y601000D01*
X1772000Y589250D02*
X1772000Y589250D01*
X1781500Y497000D02*
Y514000D01*
X1834500Y568500D02*
X1842000D01*
X1852000D02*
X1852085Y568415D01*
X1868915D01*
X1869000Y568330D01*
X1798000Y576000D02*
X1798000Y576000D01*
X1798000Y601000D02*
X1798000Y601000D01*
Y611000D02*
Y619000D01*
X1794500Y622500D02*
X1798000Y619000D01*
X1794500Y622500D02*
Y635000D01*
X1777500Y626500D02*
Y635000D01*
X1771500Y514000D02*
Y526500D01*
X1776500Y514000D02*
Y540000D01*
X1772000Y611000D02*
Y621000D01*
X1769000Y624000D02*
X1772000Y621000D01*
X1769000Y624000D02*
Y635000D01*
X1756000Y611000D02*
Y620000D01*
X1760500Y624500D01*
Y635000D01*
D59*
X1890000Y775000D02*
Y791000D01*
Y775000D02*
X1890000Y775000D01*
Y635000D02*
X1890000Y635000D01*
X1890000Y619000D02*
X1890000Y619000D01*
Y635000D01*
X1883000Y568330D02*
X1893000D01*
X1882500D02*
X1883000D01*
X1332500Y848250D02*
Y851750D01*
Y848250D02*
X1332500Y848250D01*
Y826000D02*
Y848250D01*
X1949000Y498000D02*
X1949000Y498000D01*
X1949000Y485000D02*
Y498000D01*
X1949000Y485000D02*
X1949000Y485000D01*
X1883500Y530080D02*
X1894000D01*
X1808000Y874000D02*
Y885000D01*
X1822750D01*
X1783750D02*
X1808000D01*
X1739800Y635000D02*
X1750000D01*
X1739800Y775000D02*
X1750000D01*
X1812500Y542000D02*
Y552500D01*
X1827500Y542000D02*
Y552500D01*
X1885500Y512540D02*
X1896000D01*
X1943000Y524000D02*
X1953500D01*
X1916000Y435000D02*
Y445500D01*
X1883500Y433000D02*
X1894000D01*
X1883500Y453000D02*
X1894000D01*
X1883500Y478000D02*
X1894000D01*
X1781478Y371045D02*
Y381545D01*
X1802000Y371000D02*
Y381500D01*
X1819750Y371000D02*
Y381500D01*
X1771000Y919000D02*
Y930000D01*
X1767000Y915000D02*
X1771000Y919000D01*
X1835000D02*
X1839000Y915000D01*
X1835000Y919000D02*
Y930000D01*
X1779000Y889750D02*
X1783750Y885000D01*
X1779000Y889750D02*
Y930000D01*
X1822750Y885000D02*
X1827000Y889250D01*
Y930000D01*
X1808000Y864000D02*
Y874000D01*
Y900000D02*
Y910000D01*
X1741500Y241000D02*
Y253000D01*
X1876500Y496000D02*
X1885000D01*
X1876500D02*
Y496000D01*
X1853973Y356473D02*
X1854000Y356500D01*
X1809500Y241000D02*
Y253000D01*
D60*
X1626000Y973000D02*
X1659000D01*
X1701000D02*
X1723000D01*
D61*
X1862500Y805000D02*
X1862500Y805000D01*
Y788500D02*
Y805000D01*
D62*
X1854000Y635000D02*
Y645200D01*
X1862500Y635000D02*
Y645200D01*
D63*
X1799750Y185900D02*
X1807850Y194000D01*
Y216650D01*
X1811150Y194000D02*
Y216650D01*
X1743150Y142350D02*
X1745700Y139800D01*
X1743150Y142350D02*
Y216650D01*
X1739850Y140983D02*
Y216650D01*
X1743150Y263350D02*
Y330733D01*
Y263350D02*
X1751000Y255500D01*
X1739850Y263350D02*
Y332100D01*
X1800000Y255500D02*
X1807850Y263350D01*
Y277433D01*
X1811150Y263350D02*
Y278800D01*
X1786500Y426000D02*
X1787200Y426700D01*
Y434220D02*
X1787350Y434370D01*
X1785000Y449713D02*
X1787350Y447363D01*
Y434370D02*
Y447363D01*
X1787200Y426700D02*
Y434220D01*
X1785000Y449713D02*
Y450500D01*
X1790800Y426700D02*
Y434220D01*
X1790650Y434370D02*
Y447363D01*
Y434370D02*
X1790800Y434220D01*
X1790650Y447363D02*
X1793000Y449713D01*
X1790800Y426700D02*
X1791500Y426000D01*
X1793000Y449713D02*
Y450500D01*
X1821500Y357550D02*
Y358400D01*
X1820000Y356050D02*
X1821500Y357550D01*
X1811633Y356050D02*
X1820000D01*
X1807620Y352037D02*
X1811633Y356050D01*
X1807620Y337937D02*
Y352037D01*
X1820000Y352750D02*
X1821500Y351250D01*
Y350400D02*
Y351250D01*
X1813000Y352750D02*
X1820000D01*
X1810920Y350670D02*
X1813000Y352750D01*
X1810920Y337937D02*
Y350670D01*
X1811857Y337000D02*
X1817040D01*
X1810920Y337937D02*
X1811857Y337000D01*
X1806683D02*
X1807620Y337937D01*
X1801500Y337000D02*
X1806683D01*
X1755620Y347870D02*
Y358218D01*
X1739850Y332100D02*
X1755620Y347870D01*
X1743150Y330733D02*
X1758920Y346503D01*
Y358380D01*
X1732000Y255500D02*
X1739850Y263350D01*
X1750000Y364162D02*
X1755518Y369680D01*
X1759755Y382500D02*
X1764938D01*
X1758818Y369722D02*
X1764540Y364000D01*
X1758818Y369722D02*
Y381563D01*
X1759755Y382500D01*
X1755518Y369680D02*
Y381563D01*
X1749398Y382500D02*
X1754580D01*
X1755518Y381563D01*
X1758920Y358380D02*
X1764540Y364000D01*
X1750000Y363838D02*
X1755620Y358218D01*
X1807620Y321997D02*
Y326063D01*
X1806683Y327000D02*
X1807620Y326063D01*
X1801500Y327000D02*
X1806683D01*
X1807580Y313654D02*
Y321957D01*
X1807620Y321997D01*
X1810880Y313492D02*
Y320590D01*
X1810920Y320630D02*
Y326063D01*
X1811857Y327000D02*
X1817040D01*
X1810880Y320590D02*
X1810920Y320630D01*
Y326063D02*
X1811857Y327000D01*
X1810880Y313492D02*
X1816500Y307872D01*
X1801960Y308034D02*
X1807580Y313654D01*
Y298350D02*
Y301961D01*
X1801960Y307581D02*
X1807580Y301961D01*
X1801960Y307581D02*
Y308000D01*
X1807580Y292937D02*
Y298350D01*
X1807580Y298350D02*
X1807580Y298350D01*
X1810880Y302124D02*
X1816500Y307743D01*
X1810880Y299717D02*
Y302124D01*
X1816500Y307743D02*
Y308000D01*
X1810880Y299717D02*
X1810880Y299717D01*
Y292937D02*
Y299717D01*
X1811817Y292000D02*
X1817000D01*
X1810880Y292937D02*
X1811817Y292000D01*
X1806643D02*
X1807580Y292937D01*
X1801460Y292000D02*
X1806643D01*
X1806913Y282000D02*
X1807850Y281063D01*
X1811150Y278800D02*
X1811150Y278800D01*
X1811150Y278800D02*
Y281063D01*
X1812087Y282000D02*
X1817000D01*
X1801460D02*
X1806913D01*
X1807850Y277433D02*
X1807850Y277433D01*
X1807850Y277433D02*
Y281063D01*
X1811150D02*
X1812087Y282000D01*
X1811150Y263350D02*
X1819000Y255500D01*
X1745700Y139800D02*
X1767050D01*
X1739850Y140983D02*
X1744333Y136500D01*
X1768417D01*
X1773050Y141133D01*
X1769750Y142500D02*
Y152400D01*
X1767050Y139800D02*
X1769750Y142500D01*
X1773050Y141133D02*
Y152400D01*
X1781150Y160500D01*
X1783950D01*
X1761650D02*
X1769750Y152400D01*
X1758550Y160500D02*
X1761650D01*
X1743150Y216650D02*
X1751000Y224500D01*
X1732000D02*
X1739850Y216650D01*
X1800000Y224500D02*
X1807850Y216650D01*
X1811150Y216650D02*
X1819000Y224500D01*
X1796650Y185900D02*
X1799750D01*
X1800000Y224500D02*
Y227000D01*
X1819250Y185900D02*
X1822050D01*
X1811150Y194000D02*
X1819250Y185900D01*
X1819000Y224500D02*
Y227000D01*
X1758818Y402151D02*
X1761367Y404700D01*
X1755518Y393437D02*
Y403518D01*
X1760000Y408000D01*
X1758818Y393437D02*
Y402151D01*
X1749398Y392500D02*
X1754580D01*
X1755518Y393437D01*
X1760000Y408000D02*
X1765000D01*
X1766500Y426000D02*
X1767200Y425300D01*
Y417780D02*
X1767350Y417630D01*
X1767200Y417780D02*
Y425300D01*
X1767350Y410350D02*
Y417630D01*
X1765000Y408000D02*
X1767350Y410350D01*
X1758818Y393437D02*
X1759755Y392500D01*
X1764938D01*
X1761367Y404700D02*
X1766367D01*
X1770650Y408983D02*
Y417630D01*
X1770800Y417780D01*
X1766367Y404700D02*
X1770650Y408983D01*
X1770800Y425300D02*
X1771500Y426000D01*
X1770800Y417780D02*
Y425300D01*
D64*
X748000Y644000D02*
D03*
X646000Y641000D02*
D03*
X1094000Y530000D02*
D03*
X431000Y357000D02*
D03*
X329000D02*
D03*
X226000D02*
D03*
X124000D02*
D03*
X361000Y641000D02*
D03*
X463000Y642000D02*
D03*
X1038000Y641000D02*
D03*
X834000Y640000D02*
D03*
X951000Y643000D02*
D03*
X643000Y529000D02*
D03*
X879000Y530000D02*
D03*
X845000Y555000D02*
D03*
X202000Y529000D02*
D03*
X164000Y555000D02*
D03*
X159000Y444000D02*
D03*
X188000Y459000D02*
D03*
X388000D02*
D03*
X364000Y555000D02*
D03*
X403000Y530000D02*
D03*
X627000Y540000D02*
D03*
X604000Y555000D02*
D03*
X599000Y444000D02*
D03*
X629000Y460000D02*
D03*
X834000Y442000D02*
D03*
X863000Y458000D02*
D03*
X1051000Y442000D02*
D03*
X1079000Y458000D02*
D03*
X856000Y434000D02*
D03*
X597000Y423000D02*
D03*
X157000D02*
D03*
X357000D02*
D03*
X1625000Y857000D02*
D03*
X1520000Y777000D02*
D03*
X1596000Y778000D02*
D03*
X1586000Y688000D02*
D03*
X1646000Y671000D02*
D03*
X1365000Y623000D02*
D03*
X1606000Y557000D02*
D03*
X1643000Y619000D02*
D03*
X1585000Y612000D02*
D03*
X1518750Y625000D02*
D03*
X1494000Y662250D02*
D03*
X1467000Y662000D02*
D03*
X1482000Y683500D02*
D03*
X1454750Y683250D02*
D03*
X1430000Y720500D02*
D03*
X1227750Y758000D02*
D03*
X1203000Y720750D02*
D03*
X1175750Y721000D02*
D03*
X1190750Y699500D02*
D03*
X1163750Y699750D02*
D03*
X1139000Y662500D02*
D03*
X1921000Y896000D02*
D03*
X1896000Y846000D02*
D03*
X1921000Y796000D02*
D03*
Y596000D02*
D03*
X1896000Y546000D02*
D03*
Y346000D02*
D03*
X1921000Y296000D02*
D03*
X1896000Y246000D02*
D03*
X1921000Y196000D02*
D03*
X1896000Y146000D02*
D03*
X1921000Y96000D02*
D03*
X1896000Y46000D02*
D03*
X1846000Y746000D02*
D03*
X1871000Y696000D02*
D03*
Y596000D02*
D03*
X1846000Y546000D02*
D03*
X1871000Y296000D02*
D03*
X1846000Y246000D02*
D03*
Y146000D02*
D03*
X1796000Y746000D02*
D03*
Y646000D02*
D03*
Y346000D02*
D03*
Y146000D02*
D03*
X1821000Y96000D02*
D03*
X1796000Y46000D02*
D03*
X1771000Y896000D02*
D03*
Y696000D02*
D03*
X1746000Y546000D02*
D03*
X1771000Y496000D02*
D03*
Y296000D02*
D03*
Y96000D02*
D03*
X1746000Y46000D02*
D03*
X1696000Y946000D02*
D03*
X1721000Y896000D02*
D03*
Y596000D02*
D03*
X1696000Y546000D02*
D03*
X1721000Y396000D02*
D03*
Y296000D02*
D03*
Y196000D02*
D03*
Y96000D02*
D03*
X1696000Y46000D02*
D03*
X1671000Y896000D02*
D03*
X1646000Y546000D02*
D03*
Y446000D02*
D03*
X1671000Y396000D02*
D03*
X1646000Y346000D02*
D03*
X1671000Y296000D02*
D03*
X1646000Y246000D02*
D03*
X1671000Y196000D02*
D03*
X1646000Y146000D02*
D03*
X1671000Y96000D02*
D03*
X1621000Y696000D02*
D03*
X1596000Y646000D02*
D03*
X1621000Y496000D02*
D03*
X1596000Y446000D02*
D03*
X1621000Y396000D02*
D03*
Y296000D02*
D03*
Y196000D02*
D03*
Y96000D02*
D03*
X1546000Y746000D02*
D03*
Y646000D02*
D03*
Y446000D02*
D03*
X1521000Y896000D02*
D03*
X1446000Y846000D02*
D03*
Y646000D02*
D03*
X1346000Y946000D02*
D03*
Y746000D02*
D03*
Y146000D02*
D03*
Y46000D02*
D03*
X1296000Y946000D02*
D03*
Y746000D02*
D03*
Y246000D02*
D03*
X1321000Y196000D02*
D03*
X1296000Y146000D02*
D03*
X1321000Y96000D02*
D03*
X1271000Y696000D02*
D03*
Y96000D02*
D03*
X1246000Y46000D02*
D03*
X1221000Y96000D02*
D03*
X1196000Y46000D02*
D03*
X1096000Y846000D02*
D03*
X1121000Y796000D02*
D03*
Y496000D02*
D03*
X1046000Y746000D02*
D03*
X1071000Y496000D02*
D03*
X1046000Y246000D02*
D03*
X996000Y846000D02*
D03*
Y746000D02*
D03*
Y546000D02*
D03*
X1021000Y496000D02*
D03*
X996000Y446000D02*
D03*
X946000Y546000D02*
D03*
X971000Y496000D02*
D03*
X946000Y446000D02*
D03*
Y246000D02*
D03*
X896000Y846000D02*
D03*
Y746000D02*
D03*
Y546000D02*
D03*
X921000Y496000D02*
D03*
X896000Y446000D02*
D03*
X921000Y96000D02*
D03*
X871000Y496000D02*
D03*
X846000Y246000D02*
D03*
X796000Y846000D02*
D03*
Y746000D02*
D03*
Y646000D02*
D03*
Y546000D02*
D03*
X821000Y496000D02*
D03*
X796000Y446000D02*
D03*
X821000Y96000D02*
D03*
X746000Y546000D02*
D03*
Y446000D02*
D03*
Y246000D02*
D03*
X696000Y846000D02*
D03*
Y746000D02*
D03*
Y646000D02*
D03*
Y546000D02*
D03*
X721000Y496000D02*
D03*
X696000Y446000D02*
D03*
X721000Y96000D02*
D03*
X646000Y546000D02*
D03*
X671000Y496000D02*
D03*
X646000Y446000D02*
D03*
Y246000D02*
D03*
X596000Y846000D02*
D03*
Y746000D02*
D03*
Y646000D02*
D03*
X621000Y496000D02*
D03*
X596000Y346000D02*
D03*
X621000Y296000D02*
D03*
X596000Y246000D02*
D03*
X621000Y196000D02*
D03*
X596000Y146000D02*
D03*
X621000Y96000D02*
D03*
X571000Y896000D02*
D03*
X546000Y846000D02*
D03*
X571000Y796000D02*
D03*
X546000Y746000D02*
D03*
X571000Y696000D02*
D03*
X546000Y646000D02*
D03*
X571000Y596000D02*
D03*
X546000Y546000D02*
D03*
X571000Y496000D02*
D03*
X546000Y446000D02*
D03*
Y346000D02*
D03*
X571000Y296000D02*
D03*
X546000Y246000D02*
D03*
X571000Y196000D02*
D03*
X546000Y146000D02*
D03*
X571000Y96000D02*
D03*
X521000Y796000D02*
D03*
X496000Y546000D02*
D03*
X521000Y496000D02*
D03*
X496000Y446000D02*
D03*
Y246000D02*
D03*
X446000Y746000D02*
D03*
Y646000D02*
D03*
X471000Y596000D02*
D03*
X446000Y546000D02*
D03*
X471000Y496000D02*
D03*
X446000Y446000D02*
D03*
Y346000D02*
D03*
Y246000D02*
D03*
X471000Y196000D02*
D03*
Y96000D02*
D03*
X421000Y796000D02*
D03*
Y596000D02*
D03*
Y496000D02*
D03*
X396000Y246000D02*
D03*
X346000Y746000D02*
D03*
Y646000D02*
D03*
X371000Y596000D02*
D03*
Y496000D02*
D03*
X346000Y346000D02*
D03*
Y246000D02*
D03*
X371000Y196000D02*
D03*
Y96000D02*
D03*
X321000Y796000D02*
D03*
Y596000D02*
D03*
X296000Y546000D02*
D03*
Y446000D02*
D03*
Y246000D02*
D03*
X246000Y746000D02*
D03*
Y646000D02*
D03*
X271000Y596000D02*
D03*
X246000Y546000D02*
D03*
X271000Y496000D02*
D03*
X246000Y446000D02*
D03*
X271000Y396000D02*
D03*
X246000Y346000D02*
D03*
Y246000D02*
D03*
X271000Y196000D02*
D03*
Y96000D02*
D03*
X221000Y796000D02*
D03*
Y696000D02*
D03*
Y596000D02*
D03*
Y496000D02*
D03*
X146000Y746000D02*
D03*
Y646000D02*
D03*
X171000Y496000D02*
D03*
X146000Y346000D02*
D03*
Y246000D02*
D03*
X171000Y196000D02*
D03*
Y96000D02*
D03*
X121000Y796000D02*
D03*
Y696000D02*
D03*
Y596000D02*
D03*
X96000Y546000D02*
D03*
Y446000D02*
D03*
X46000Y746000D02*
D03*
Y646000D02*
D03*
X71000Y596000D02*
D03*
X46000Y546000D02*
D03*
X71000Y496000D02*
D03*
X46000Y446000D02*
D03*
X71000Y396000D02*
D03*
X46000Y346000D02*
D03*
Y246000D02*
D03*
X71000Y196000D02*
D03*
Y96000D02*
D03*
X1677500Y925000D02*
D03*
Y872500D02*
D03*
X1314500Y866750D02*
D03*
X1323500D02*
D03*
X1332500D02*
D03*
X1828500Y345900D02*
D03*
X1829000Y354400D02*
D03*
X1828500Y362900D02*
D03*
X1780500Y457500D02*
D03*
X1789000Y458000D02*
D03*
X1832000Y525000D02*
D03*
X1846000Y530000D02*
D03*
X1815000Y597000D02*
D03*
X1797500Y457500D02*
D03*
X1782000Y488000D02*
D03*
X1767000Y582000D02*
D03*
X1210000Y60000D02*
D03*
X1290000Y220000D02*
D03*
X1210000Y100000D02*
D03*
X1230000Y80000D02*
D03*
X1170000Y100000D02*
D03*
X1150000Y80000D02*
D03*
X1170000Y60000D02*
D03*
X1150000Y40000D02*
D03*
X1230000D02*
D03*
X1190000D02*
D03*
X1210000Y20000D02*
D03*
X1170000D02*
D03*
X1270000Y200000D02*
D03*
Y160000D02*
D03*
X1250000Y100000D02*
D03*
Y60000D02*
D03*
Y20000D02*
D03*
X1270000Y120000D02*
D03*
Y80000D02*
D03*
Y40000D02*
D03*
X1310000Y120000D02*
D03*
Y200000D02*
D03*
Y40000D02*
D03*
X1290000Y20000D02*
D03*
X1330000D02*
D03*
X1290000Y100000D02*
D03*
X1330000D02*
D03*
X1290000Y140000D02*
D03*
X1330000D02*
D03*
X1390000D02*
D03*
X1430000D02*
D03*
X1390000Y100000D02*
D03*
X1430000D02*
D03*
X1390000Y20000D02*
D03*
X1430000D02*
D03*
X1410000Y40000D02*
D03*
Y200000D02*
D03*
Y120000D02*
D03*
X1490000Y40000D02*
D03*
X1530000D02*
D03*
X1570000D02*
D03*
X1450000D02*
D03*
X1490000Y80000D02*
D03*
X1530000D02*
D03*
X1570000D02*
D03*
X1450000D02*
D03*
X1490000Y120000D02*
D03*
X1530000D02*
D03*
X1570000D02*
D03*
X1450000D02*
D03*
X1470000Y20000D02*
D03*
X1550000D02*
D03*
X1510000D02*
D03*
X1470000Y60000D02*
D03*
X1550000D02*
D03*
X1510000D02*
D03*
X1550000Y100000D02*
D03*
X1510000D02*
D03*
X1550000Y140000D02*
D03*
X1510000D02*
D03*
X1450000Y160000D02*
D03*
X1570000D02*
D03*
X1530000D02*
D03*
X1490000D02*
D03*
Y200000D02*
D03*
Y240000D02*
D03*
X1530000Y200000D02*
D03*
Y240000D02*
D03*
X1570000D02*
D03*
Y200000D02*
D03*
X1510000Y180000D02*
D03*
X1550000D02*
D03*
Y220000D02*
D03*
X1510000D02*
D03*
X1550000Y260000D02*
D03*
X1510000D02*
D03*
X1450000Y200000D02*
D03*
X1460000Y390000D02*
D03*
X1450000Y310000D02*
D03*
X1470000Y290000D02*
D03*
X1490000Y390000D02*
D03*
X1530000D02*
D03*
X1570000D02*
D03*
X1510000Y370000D02*
D03*
X1550000D02*
D03*
X1510000Y330000D02*
D03*
X1550000D02*
D03*
Y290000D02*
D03*
X1510000D02*
D03*
X1400000Y310000D02*
D03*
Y350000D02*
D03*
X1570000Y310000D02*
D03*
Y350000D02*
D03*
X1530000D02*
D03*
Y310000D02*
D03*
X1490000Y350000D02*
D03*
Y310000D02*
D03*
X1430000Y290000D02*
D03*
X1377500Y257500D02*
D03*
X1360000D02*
D03*
X1342500D02*
D03*
X1400000Y270000D02*
D03*
X1410000Y290000D02*
D03*
X1420000Y310000D02*
D03*
X1350000Y330000D02*
D03*
X1370000D02*
D03*
X1390000D02*
D03*
X1410000D02*
D03*
X1420000Y350000D02*
D03*
X1410000Y370000D02*
D03*
X1400000Y390000D02*
D03*
X1420000D02*
D03*
X1890000Y791000D02*
D03*
Y619000D02*
D03*
X1164000Y943000D02*
D03*
X1144000D02*
D03*
X1154000Y953000D02*
D03*
X1174000D02*
D03*
X1164000Y963000D02*
D03*
X1144000D02*
D03*
Y983000D02*
D03*
X1164000D02*
D03*
X1174000Y973000D02*
D03*
X1154000D02*
D03*
X1230000D02*
D03*
X1210000D02*
D03*
X1220000Y983000D02*
D03*
X1240000D02*
D03*
Y963000D02*
D03*
X1220000D02*
D03*
X1210000Y953000D02*
D03*
X1230000D02*
D03*
X1240000Y943000D02*
D03*
X1220000D02*
D03*
X1399000Y844000D02*
D03*
Y853000D02*
D03*
X1355000Y893000D02*
D03*
Y879000D02*
D03*
Y866000D02*
D03*
X1360000Y847000D02*
D03*
X1288500Y852500D02*
D03*
X1297500D02*
D03*
X1273000Y840000D02*
D03*
X1268500Y847000D02*
D03*
X1277500D02*
D03*
X1313000Y797000D02*
D03*
X1705000Y691500D02*
D03*
Y710000D02*
D03*
X1795000Y842000D02*
D03*
X1817000Y829000D02*
D03*
X1685000Y775000D02*
D03*
X1665000D02*
D03*
X1675000Y700000D02*
D03*
X627170Y132000D02*
D03*
Y121000D02*
D03*
Y110000D02*
D03*
X638170D02*
D03*
X649170D02*
D03*
X728770Y132000D02*
D03*
Y121000D02*
D03*
Y110000D02*
D03*
X739770D02*
D03*
X750770D02*
D03*
X831210Y132000D02*
D03*
Y121000D02*
D03*
Y110000D02*
D03*
X842210D02*
D03*
X853210D02*
D03*
X933210Y132000D02*
D03*
Y121000D02*
D03*
Y110000D02*
D03*
X944210D02*
D03*
X955210D02*
D03*
X1034210Y132000D02*
D03*
Y121000D02*
D03*
Y110000D02*
D03*
X1045210D02*
D03*
X1056210D02*
D03*
X476150Y109950D02*
D03*
X465150D02*
D03*
X454150D02*
D03*
Y120950D02*
D03*
Y131950D02*
D03*
X375150Y109950D02*
D03*
X364150D02*
D03*
X353150D02*
D03*
Y120950D02*
D03*
Y131950D02*
D03*
X273150Y109950D02*
D03*
X262150D02*
D03*
X251150D02*
D03*
Y120950D02*
D03*
Y131950D02*
D03*
X170710Y109950D02*
D03*
X159710D02*
D03*
X148710D02*
D03*
Y120950D02*
D03*
Y131950D02*
D03*
X69110Y109950D02*
D03*
X58110D02*
D03*
X47110D02*
D03*
Y120950D02*
D03*
Y131950D02*
D03*
X1091020Y890000D02*
D03*
X1102020D02*
D03*
X1113020D02*
D03*
Y879000D02*
D03*
Y868000D02*
D03*
X989470Y890050D02*
D03*
X1000470D02*
D03*
X1011470D02*
D03*
Y879050D02*
D03*
Y868050D02*
D03*
X886980Y890000D02*
D03*
X897980D02*
D03*
X908980D02*
D03*
Y879000D02*
D03*
Y868000D02*
D03*
X784980Y890000D02*
D03*
X795980D02*
D03*
X806980D02*
D03*
Y879000D02*
D03*
Y868000D02*
D03*
X683980Y890000D02*
D03*
X694980D02*
D03*
X705980D02*
D03*
Y879000D02*
D03*
Y868000D02*
D03*
X512040Y890000D02*
D03*
X523040D02*
D03*
X534040D02*
D03*
Y879000D02*
D03*
Y868000D02*
D03*
X410440Y890000D02*
D03*
X421440D02*
D03*
X432440D02*
D03*
Y879000D02*
D03*
Y868000D02*
D03*
X308000Y890000D02*
D03*
X319000D02*
D03*
X330000D02*
D03*
Y879000D02*
D03*
Y868000D02*
D03*
X206000Y890000D02*
D03*
X217000D02*
D03*
X228000D02*
D03*
Y879000D02*
D03*
Y868000D02*
D03*
X127000D02*
D03*
Y879000D02*
D03*
Y890000D02*
D03*
X116000D02*
D03*
X105000D02*
D03*
X1543000Y872000D02*
D03*
X1425250Y953500D02*
D03*
X1533500Y924500D02*
D03*
X1533500Y933500D02*
D03*
X1515500Y921000D02*
D03*
X1524500Y921000D02*
D03*
X1504500Y921000D02*
D03*
X1495500D02*
D03*
X1533500Y948500D02*
D03*
X1533500Y957500D02*
D03*
X1483000Y967000D02*
D03*
X1474000D02*
D03*
X1515500Y961000D02*
D03*
X1524500D02*
D03*
X1504500Y967000D02*
D03*
X1495500D02*
D03*
X1486000Y957000D02*
D03*
X1470500Y915000D02*
D03*
Y905000D02*
D03*
X1463000Y876000D02*
D03*
X1476000Y885000D02*
D03*
X1472000Y876000D02*
D03*
X1476000Y894000D02*
D03*
X1432000Y894000D02*
D03*
X1436000Y876000D02*
D03*
X1432000Y885000D02*
D03*
X1445000Y876000D02*
D03*
X1459000Y936000D02*
D03*
Y952000D02*
D03*
Y944000D02*
D03*
X1408000Y853000D02*
D03*
Y844000D02*
D03*
X91030Y311750D02*
D03*
X192030D02*
D03*
X294030D02*
D03*
X396030D02*
D03*
X498030D02*
D03*
X670010D02*
D03*
X771010D02*
D03*
X873010D02*
D03*
X975010D02*
D03*
X1077010D02*
D03*
X1069230Y688250D02*
D03*
X967230D02*
D03*
X865230D02*
D03*
X763230D02*
D03*
X662230D02*
D03*
X490250D02*
D03*
X388250D02*
D03*
X286250D02*
D03*
X184250D02*
D03*
X83250D02*
D03*
X522400Y348200D02*
D03*
X421400Y348200D02*
D03*
X319400Y348200D02*
D03*
X216960D02*
D03*
X115360D02*
D03*
X1102410Y348200D02*
D03*
X1001410Y348200D02*
D03*
X899410Y348200D02*
D03*
X796970D02*
D03*
X695370D02*
D03*
X637780Y651800D02*
D03*
X738780Y651800D02*
D03*
X840780Y651800D02*
D03*
X943220D02*
D03*
X1044820D02*
D03*
X465790Y651750D02*
D03*
X364190D02*
D03*
X261750D02*
D03*
X159750Y651750D02*
D03*
X58750Y651750D02*
D03*
X165000Y544750D02*
D03*
X190250Y530000D02*
D03*
X156750Y516750D02*
D03*
X158500Y455250D02*
D03*
X178000D02*
D03*
X169750Y483250D02*
D03*
X365000Y544750D02*
D03*
X390250Y530000D02*
D03*
X356750Y516750D02*
D03*
X358500Y455250D02*
D03*
X378000D02*
D03*
X369750Y483250D02*
D03*
X605000Y544750D02*
D03*
X630250Y530000D02*
D03*
X596750Y516750D02*
D03*
X598500Y455250D02*
D03*
X618000D02*
D03*
X609750Y483250D02*
D03*
X840000Y544750D02*
D03*
X865250Y530000D02*
D03*
X831750Y516750D02*
D03*
X833500Y455250D02*
D03*
X853000D02*
D03*
X844750Y483250D02*
D03*
X1059750D02*
D03*
X1068000Y455250D02*
D03*
X1048500D02*
D03*
X1046750Y516750D02*
D03*
X1080250Y530000D02*
D03*
X1055000Y544750D02*
D03*
X1408000Y826000D02*
D03*
X1399000D02*
D03*
X1390000D02*
D03*
X1408000Y835000D02*
D03*
X1399000D02*
D03*
X1390000D02*
D03*
X1273000Y797000D02*
D03*
X1323000Y840000D02*
D03*
X1155000Y806000D02*
D03*
X1175000D02*
D03*
X1195000D02*
D03*
X1215000D02*
D03*
X1235000D02*
D03*
X1225000Y816000D02*
D03*
X1205000D02*
D03*
X1185000D02*
D03*
X1165000D02*
D03*
X1145000D02*
D03*
X1155000Y826000D02*
D03*
X1175000D02*
D03*
X1195000D02*
D03*
X1215000D02*
D03*
X1235000D02*
D03*
Y846000D02*
D03*
X1215000D02*
D03*
X1195000D02*
D03*
X1175000D02*
D03*
X1155000D02*
D03*
X1165000Y836000D02*
D03*
X1185000D02*
D03*
X1205000D02*
D03*
X1225000D02*
D03*
X1145000D02*
D03*
X1949000Y485000D02*
D03*
X1835000Y855000D02*
D03*
X1812000Y838000D02*
D03*
X1804000D02*
D03*
X1824000Y805000D02*
D03*
X1624000Y946000D02*
D03*
X1623000Y894000D02*
D03*
X1578040Y954414D02*
D03*
X1557000Y957250D02*
D03*
X1557000Y905250D02*
D03*
X1578040Y902414D02*
D03*
X1165000Y290000D02*
D03*
X1185000D02*
D03*
X1205000D02*
D03*
X1225000D02*
D03*
X1145000D02*
D03*
X1165000Y270000D02*
D03*
X1185000D02*
D03*
X1205000D02*
D03*
X1225000D02*
D03*
X1145000D02*
D03*
X1165000Y250000D02*
D03*
X1185000D02*
D03*
X1205000D02*
D03*
X1225000D02*
D03*
X1145000D02*
D03*
X1165000Y230000D02*
D03*
X1185000D02*
D03*
X1205000D02*
D03*
X1225000D02*
D03*
X1145000D02*
D03*
Y210000D02*
D03*
X1155000Y300000D02*
D03*
X1175000D02*
D03*
X1195000D02*
D03*
X1215000D02*
D03*
X1235000D02*
D03*
X1155000Y280000D02*
D03*
X1175000D02*
D03*
X1195000D02*
D03*
X1215000D02*
D03*
X1235000D02*
D03*
X1155000Y260000D02*
D03*
X1175000D02*
D03*
X1195000D02*
D03*
X1215000D02*
D03*
X1235000D02*
D03*
X1155000Y240000D02*
D03*
X1175000D02*
D03*
X1195000D02*
D03*
X1215000D02*
D03*
X1235000D02*
D03*
Y220000D02*
D03*
X1215000D02*
D03*
X1195000D02*
D03*
X1175000D02*
D03*
X1155000D02*
D03*
X1225000Y210000D02*
D03*
X1205000D02*
D03*
X1185000D02*
D03*
X1165000D02*
D03*
X1155000Y200000D02*
D03*
X1175000D02*
D03*
X1195000D02*
D03*
X1215000D02*
D03*
X1235000D02*
D03*
X1321000Y338450D02*
D03*
X1321000Y258450D02*
D03*
X1253000Y322000D02*
D03*
X1888000Y808000D02*
D03*
X1887000Y840000D02*
D03*
X1879000D02*
D03*
X1888000Y816000D02*
D03*
X1856000Y840000D02*
D03*
Y848000D02*
D03*
X1864000D02*
D03*
X1875000Y619000D02*
D03*
X1820000Y793000D02*
D03*
X1679000Y135000D02*
D03*
X1927000D02*
D03*
X1708500Y531000D02*
D03*
X1894000Y530080D02*
D03*
X1820000Y318000D02*
D03*
X1873000Y901000D02*
D03*
X1730000Y901000D02*
D03*
X1815000Y587500D02*
D03*
X1854000Y344000D02*
D03*
X1864000Y840000D02*
D03*
X1789750Y232250D02*
D03*
X1789750Y216250D02*
D03*
X1888000Y800000D02*
D03*
X1893000Y568330D02*
D03*
X1812500Y552500D02*
D03*
X1827500D02*
D03*
X1896000Y512540D02*
D03*
X1953500Y524000D02*
D03*
X1916000Y435000D02*
D03*
X1894000Y433000D02*
D03*
Y453000D02*
D03*
X1894000Y478000D02*
D03*
X1781478Y371045D02*
D03*
X1802000Y371000D02*
D03*
X1819750Y371000D02*
D03*
X1767000Y915000D02*
D03*
X1839000D02*
D03*
X1714500Y704750D02*
D03*
Y696750D02*
D03*
X1808000Y864000D02*
D03*
Y910000D02*
D03*
X1803000Y442000D02*
D03*
X1675000Y497580D02*
D03*
Y480040D02*
D03*
Y462500D02*
D03*
Y444500D02*
D03*
X1740000Y351500D02*
D03*
X1774540Y351500D02*
D03*
X1906000Y535000D02*
D03*
X1914000D02*
D03*
X1922000D02*
D03*
X1930000D02*
D03*
X1793320Y721510D02*
D03*
Y705010D02*
D03*
Y688510D02*
D03*
X1819990Y678320D02*
D03*
X1820010Y731680D02*
D03*
X1846680Y688490D02*
D03*
Y704990D02*
D03*
Y721490D02*
D03*
X1811608Y713128D02*
D03*
X1828372D02*
D03*
X1811608Y696872D02*
D03*
X1828372D02*
D03*
X1739690Y775110D02*
D03*
Y635110D02*
D03*
X1879610Y785310D02*
D03*
X1854110Y645310D02*
D03*
X1862610D02*
D03*
X1879690Y645610D02*
D03*
Y654110D02*
D03*
Y662610D02*
D03*
Y671110D02*
D03*
Y679610D02*
D03*
Y688110D02*
D03*
Y696610D02*
D03*
Y705110D02*
D03*
Y713610D02*
D03*
Y722110D02*
D03*
Y730610D02*
D03*
Y739110D02*
D03*
Y747610D02*
D03*
Y756110D02*
D03*
Y764610D02*
D03*
X1870890Y764690D02*
D03*
X1817000Y490000D02*
D03*
X1825000Y530000D02*
D03*
X1854000Y385000D02*
D03*
X1834000Y422000D02*
D03*
X1816000Y448000D02*
D03*
X1730000Y544000D02*
D03*
X1803000Y65750D02*
D03*
X1741500Y241000D02*
D03*
X1782460Y308000D02*
D03*
X1836000D02*
D03*
X1772000Y589250D02*
D03*
X1781500Y497000D02*
D03*
X1885000Y496000D02*
D03*
X1785000Y450500D02*
D03*
X1793000D02*
D03*
X1821500Y358400D02*
D03*
Y350400D02*
D03*
X1809500Y241000D02*
D03*
X1765000Y442500D02*
D03*
X1801500Y499000D02*
D03*
X1823000Y472500D02*
D03*
Y457500D02*
D03*
X1776500Y441000D02*
D03*
D65*
X1626000Y973000D02*
D03*
X1723000D02*
D03*
D66*
X110000Y507500D02*
D03*
X99000D02*
D03*
Y492500D02*
D03*
X110000D02*
D03*
X310000Y507500D02*
D03*
X299000D02*
D03*
Y492500D02*
D03*
X310000D02*
D03*
X550000Y507500D02*
D03*
X539000D02*
D03*
Y492500D02*
D03*
X550000D02*
D03*
X785000Y507500D02*
D03*
X774000D02*
D03*
Y492500D02*
D03*
X785000D02*
D03*
X1000000D02*
D03*
X989000D02*
D03*
Y507500D02*
D03*
X1000000D02*
D03*
X1857000Y530000D02*
D03*
M02*
