G04*
G04 #@! TF.GenerationSoftware,Altium Limited,Altium Designer,25.4.2 (15)*
G04*
G04 Layer_Physical_Order=4*
G04 Layer_Color=16711680*
%FSLAX44Y44*%
%MOMM*%
G71*
G04*
G04 #@! TF.SameCoordinates,BB2F4313-EE7A-43B8-A872-F110206310C3*
G04*
G04*
G04 #@! TF.FilePolarity,Positive*
G04*
G01*
G75*
%ADD11C,0.4000*%
%ADD12C,0.2000*%
%ADD13C,0.3000*%
G04:AMPARAMS|DCode=41|XSize=0.5mm|YSize=0.6mm|CornerRadius=0.125mm|HoleSize=0mm|Usage=FLASHONLY|Rotation=90.000|XOffset=0mm|YOffset=0mm|HoleType=Round|Shape=RoundedRectangle|*
%AMROUNDEDRECTD41*
21,1,0.5000,0.3500,0,0,90.0*
21,1,0.2500,0.6000,0,0,90.0*
1,1,0.2500,0.1750,0.1250*
1,1,0.2500,0.1750,-0.1250*
1,1,0.2500,-0.1750,-0.1250*
1,1,0.2500,-0.1750,0.1250*
%
%ADD41ROUNDEDRECTD41*%
G04:AMPARAMS|DCode=42|XSize=0.5mm|YSize=0.6mm|CornerRadius=0.125mm|HoleSize=0mm|Usage=FLASHONLY|Rotation=0.000|XOffset=0mm|YOffset=0mm|HoleType=Round|Shape=RoundedRectangle|*
%AMROUNDEDRECTD42*
21,1,0.5000,0.3500,0,0,0.0*
21,1,0.2500,0.6000,0,0,0.0*
1,1,0.2500,0.1250,-0.1750*
1,1,0.2500,-0.1250,-0.1750*
1,1,0.2500,-0.1250,0.1750*
1,1,0.2500,0.1250,0.1750*
%
%ADD42ROUNDEDRECTD42*%
%ADD45C,3.2500*%
%ADD46C,1.5000*%
%ADD47C,2.4000*%
%ADD48C,1.5500*%
%ADD49O,0.8000X2.1000*%
%ADD50O,0.8000X1.8000*%
%ADD51C,0.6500*%
%ADD52C,3.2000*%
%ADD53C,6.0000*%
%ADD54O,2.0000X3.0000*%
%ADD58C,0.2300*%
%ADD59C,0.5000*%
%ADD60C,1.0000*%
%ADD63C,0.1600*%
%ADD64C,0.6000*%
%ADD65C,1.0000*%
%ADD66C,0.8000*%
G04:AMPARAMS|DCode=67|XSize=1.1mm|YSize=1.6mm|CornerRadius=0.275mm|HoleSize=0mm|Usage=FLASHONLY|Rotation=90.000|XOffset=0mm|YOffset=0mm|HoleType=Round|Shape=RoundedRectangle|*
%AMROUNDEDRECTD67*
21,1,1.1000,1.0500,0,0,90.0*
21,1,0.5500,1.6000,0,0,90.0*
1,1,0.5500,0.5250,0.2750*
1,1,0.5500,0.5250,-0.2750*
1,1,0.5500,-0.5250,-0.2750*
1,1,0.5500,-0.5250,0.2750*
%
%ADD67ROUNDEDRECTD67*%
G36*
X1935786Y996532D02*
X1941430Y995177D01*
X1946792Y992956D01*
X1951740Y989923D01*
X1956154Y986154D01*
X1959923Y981740D01*
X1962956Y976792D01*
X1965177Y971430D01*
X1966532Y965786D01*
X1966974Y960165D01*
X1966941Y960000D01*
Y784000D01*
X1895000D01*
Y626000D01*
X1966941D01*
Y40000D01*
X1966974Y39835D01*
X1966532Y34214D01*
X1965177Y28570D01*
X1962956Y23208D01*
X1959923Y18260D01*
X1956154Y13846D01*
X1951740Y10077D01*
X1946792Y7044D01*
X1941430Y4823D01*
X1935786Y3468D01*
X1930165Y3026D01*
X1930000Y3059D01*
X1593059D01*
Y260000D01*
X1592826Y261171D01*
X1592163Y262163D01*
X1592163Y262163D01*
X1588726Y265600D01*
X1587500Y267000D01*
X1587500D01*
X1587500Y267000D01*
Y275674D01*
X1592163Y280337D01*
X1592163Y280337D01*
X1592826Y281329D01*
X1593059Y282500D01*
X1593059Y282500D01*
Y402000D01*
X1592826Y403171D01*
X1592163Y404163D01*
X1591171Y404826D01*
X1590000Y405059D01*
X1336000D01*
X1334830Y404826D01*
X1333837Y404163D01*
X1333174Y403171D01*
X1332941Y402000D01*
Y251000D01*
X1333174Y249829D01*
X1333837Y248837D01*
X1334830Y248174D01*
X1336000Y247941D01*
X1362000D01*
Y240059D01*
X1360829Y239826D01*
X1359837Y239163D01*
X1359174Y238171D01*
X1358941Y237000D01*
Y3059D01*
X1120269D01*
Y173000D01*
X1120269Y173000D01*
X1120036Y174170D01*
X1119373Y175163D01*
X1109269Y185267D01*
Y197370D01*
X1111269Y198014D01*
X1113348Y196418D01*
X1116267Y195209D01*
X1119400Y194797D01*
X1122533Y195209D01*
X1125452Y196418D01*
X1127959Y198342D01*
X1129882Y200848D01*
X1131091Y203767D01*
X1131504Y206900D01*
Y216900D01*
X1131091Y220033D01*
X1129882Y222952D01*
X1127959Y225459D01*
X1125452Y227382D01*
X1122533Y228591D01*
X1119400Y229004D01*
X1116267Y228591D01*
X1113348Y227382D01*
X1111269Y225786D01*
X1109269Y226430D01*
Y240000D01*
X1109036Y241171D01*
X1108373Y242163D01*
X1107381Y242826D01*
X1106210Y243059D01*
X1081210D01*
X1080040Y242826D01*
X1079047Y242163D01*
X1078384Y241171D01*
X1078151Y240000D01*
Y227218D01*
X1076151Y226231D01*
X1074652Y227382D01*
X1071733Y228591D01*
X1068600Y229004D01*
X1065467Y228591D01*
X1062548Y227382D01*
X1060042Y225459D01*
X1058118Y222952D01*
X1056909Y220033D01*
X1056496Y216900D01*
Y206900D01*
X1056909Y203767D01*
X1058118Y200848D01*
X1060042Y198342D01*
X1062548Y196418D01*
X1065467Y195209D01*
X1068600Y194797D01*
X1071733Y195209D01*
X1074652Y196418D01*
X1076151Y197569D01*
X1078151Y196582D01*
Y185267D01*
X1068047Y175163D01*
X1068047Y175163D01*
X1067384Y174171D01*
X1067151Y173000D01*
X1067151Y173000D01*
Y59438D01*
X1065151Y58831D01*
X1064112Y60387D01*
X1061187Y63312D01*
X1057747Y65610D01*
X1053925Y67193D01*
X1052800Y67417D01*
Y47000D01*
Y26583D01*
X1053925Y26807D01*
X1057747Y28390D01*
X1061187Y30688D01*
X1064112Y33613D01*
X1065151Y35169D01*
X1067151Y34562D01*
Y3059D01*
X1019269D01*
Y173000D01*
X1019269Y173000D01*
X1019036Y174170D01*
X1018373Y175163D01*
X1008269Y185267D01*
Y197370D01*
X1010269Y198014D01*
X1012348Y196418D01*
X1015267Y195209D01*
X1018400Y194797D01*
X1021533Y195209D01*
X1024452Y196418D01*
X1026958Y198342D01*
X1028882Y200848D01*
X1030091Y203767D01*
X1030504Y206900D01*
Y216900D01*
X1030091Y220033D01*
X1028882Y222952D01*
X1026958Y225459D01*
X1024452Y227382D01*
X1021533Y228591D01*
X1018400Y229004D01*
X1015267Y228591D01*
X1012348Y227382D01*
X1010269Y225786D01*
X1008269Y226430D01*
Y240000D01*
X1008036Y241171D01*
X1007373Y242163D01*
X1006381Y242826D01*
X1005210Y243059D01*
X980210D01*
X979040Y242826D01*
X978047Y242163D01*
X977384Y241171D01*
X977151Y240000D01*
Y227218D01*
X975151Y226231D01*
X973652Y227382D01*
X970733Y228591D01*
X967600Y229004D01*
X964467Y228591D01*
X961548Y227382D01*
X959042Y225459D01*
X957118Y222952D01*
X955909Y220033D01*
X955496Y216900D01*
Y206900D01*
X955909Y203767D01*
X957118Y200848D01*
X959042Y198342D01*
X961548Y196418D01*
X964467Y195209D01*
X967600Y194797D01*
X970733Y195209D01*
X973652Y196418D01*
X975151Y197569D01*
X977151Y196582D01*
Y185267D01*
X967047Y175163D01*
X967047Y175163D01*
X966384Y174171D01*
X966151Y173000D01*
X966151Y173000D01*
Y58540D01*
X964151Y57933D01*
X962512Y60387D01*
X959587Y63312D01*
X956147Y65610D01*
X952326Y67193D01*
X951200Y67417D01*
Y47000D01*
Y26583D01*
X952326Y26807D01*
X956147Y28390D01*
X959587Y30688D01*
X962512Y33613D01*
X964151Y36067D01*
X966151Y35460D01*
Y3059D01*
X917269D01*
Y173000D01*
X917269Y173000D01*
X917036Y174170D01*
X916373Y175163D01*
X906269Y185267D01*
Y197370D01*
X908269Y198014D01*
X910348Y196418D01*
X913267Y195209D01*
X916400Y194797D01*
X919533Y195209D01*
X922452Y196418D01*
X924958Y198342D01*
X926882Y200848D01*
X928091Y203767D01*
X928504Y206900D01*
Y216900D01*
X928091Y220033D01*
X926882Y222952D01*
X924958Y225459D01*
X922452Y227382D01*
X919533Y228591D01*
X916400Y229004D01*
X913267Y228591D01*
X910348Y227382D01*
X908269Y225786D01*
X906269Y226430D01*
Y240000D01*
X906036Y241171D01*
X905373Y242163D01*
X904381Y242826D01*
X903210Y243059D01*
X878210D01*
X877039Y242826D01*
X876047Y242163D01*
X875384Y241171D01*
X875151Y240000D01*
Y227218D01*
X873151Y226231D01*
X871652Y227382D01*
X868733Y228591D01*
X865600Y229004D01*
X862467Y228591D01*
X859548Y227382D01*
X857041Y225459D01*
X855118Y222952D01*
X853909Y220033D01*
X853496Y216900D01*
Y206900D01*
X853909Y203767D01*
X855118Y200848D01*
X857041Y198342D01*
X859548Y196418D01*
X862467Y195209D01*
X865600Y194797D01*
X868733Y195209D01*
X871652Y196418D01*
X873151Y197569D01*
X875151Y196582D01*
Y185267D01*
X865047Y175163D01*
X865047Y175163D01*
X864384Y174171D01*
X864151Y173000D01*
X864151Y173000D01*
Y59138D01*
X862151Y58532D01*
X860912Y60387D01*
X857987Y63312D01*
X854547Y65610D01*
X850725Y67193D01*
X849600Y67417D01*
Y47000D01*
Y26583D01*
X850725Y26807D01*
X854547Y28390D01*
X857987Y30688D01*
X860912Y33613D01*
X862151Y35468D01*
X864151Y34862D01*
Y3059D01*
X814829D01*
Y173000D01*
X814829Y173000D01*
X814596Y174170D01*
X813933Y175163D01*
X803829Y185267D01*
Y197370D01*
X805829Y198014D01*
X807908Y196418D01*
X810827Y195209D01*
X813960Y194797D01*
X817093Y195209D01*
X820012Y196418D01*
X822518Y198342D01*
X824442Y200848D01*
X825651Y203767D01*
X826064Y206900D01*
Y216900D01*
X825651Y220033D01*
X824442Y222952D01*
X822518Y225459D01*
X820012Y227382D01*
X817093Y228591D01*
X813960Y229004D01*
X810827Y228591D01*
X807908Y227382D01*
X805829Y225786D01*
X803829Y226430D01*
Y240000D01*
X803596Y241171D01*
X802933Y242163D01*
X801941Y242826D01*
X800770Y243059D01*
X775770D01*
X774600Y242826D01*
X773607Y242163D01*
X772944Y241171D01*
X772711Y240000D01*
Y227218D01*
X770711Y226231D01*
X769212Y227382D01*
X766293Y228591D01*
X763160Y229004D01*
X760027Y228591D01*
X757108Y227382D01*
X754602Y225459D01*
X752678Y222952D01*
X751469Y220033D01*
X751057Y216900D01*
Y206900D01*
X751469Y203767D01*
X752678Y200848D01*
X754602Y198342D01*
X757108Y196418D01*
X760027Y195209D01*
X763160Y194797D01*
X766293Y195209D01*
X769212Y196418D01*
X770711Y197569D01*
X772711Y196582D01*
Y185267D01*
X762607Y175163D01*
X762607Y175163D01*
X761944Y174171D01*
X761711Y173000D01*
X761711Y173000D01*
Y60395D01*
X759711Y59789D01*
X759312Y60387D01*
X756387Y63312D01*
X752947Y65610D01*
X749126Y67193D01*
X748000Y67417D01*
Y47000D01*
Y26583D01*
X749126Y26807D01*
X752947Y28390D01*
X756387Y30688D01*
X759312Y33613D01*
X759711Y34211D01*
X761711Y33605D01*
Y3059D01*
X713229D01*
Y173000D01*
X713229Y173000D01*
X712996Y174170D01*
X712333Y175163D01*
X702229Y185267D01*
Y197370D01*
X704229Y198014D01*
X706308Y196418D01*
X709227Y195209D01*
X712360Y194797D01*
X715493Y195209D01*
X718412Y196418D01*
X720919Y198342D01*
X722842Y200848D01*
X724051Y203767D01*
X724464Y206900D01*
Y216900D01*
X724051Y220033D01*
X722842Y222952D01*
X720919Y225459D01*
X718412Y227382D01*
X715493Y228591D01*
X712360Y229004D01*
X709227Y228591D01*
X706308Y227382D01*
X704229Y225786D01*
X702229Y226430D01*
Y240000D01*
X701996Y241171D01*
X701333Y242163D01*
X700341Y242826D01*
X699170Y243059D01*
X674170D01*
X672999Y242826D01*
X672007Y242163D01*
X671344Y241171D01*
X671111Y240000D01*
Y227218D01*
X669111Y226231D01*
X667612Y227382D01*
X664693Y228591D01*
X661560Y229004D01*
X658427Y228591D01*
X655508Y227382D01*
X653001Y225459D01*
X651078Y222952D01*
X649869Y220033D01*
X649456Y216900D01*
Y206900D01*
X649869Y203767D01*
X651078Y200848D01*
X653001Y198342D01*
X655508Y196418D01*
X658427Y195209D01*
X661560Y194797D01*
X664693Y195209D01*
X667612Y196418D01*
X669111Y197569D01*
X671111Y196582D01*
Y185267D01*
X661007Y175163D01*
X661007Y175163D01*
X660344Y174171D01*
X660111Y173000D01*
X660111Y173000D01*
Y60395D01*
X658111Y59789D01*
X657712Y60387D01*
X654787Y63312D01*
X651347Y65610D01*
X647525Y67193D01*
X646400Y67417D01*
Y47000D01*
Y26583D01*
X647525Y26807D01*
X651347Y28390D01*
X654787Y30688D01*
X657712Y33613D01*
X658111Y34211D01*
X660111Y33605D01*
Y3059D01*
X540209D01*
Y172950D01*
X540209Y172950D01*
X539976Y174121D01*
X539313Y175113D01*
X529209Y185217D01*
Y197456D01*
X531209Y198052D01*
X533338Y196418D01*
X536257Y195209D01*
X539390Y194797D01*
X542523Y195209D01*
X545442Y196418D01*
X547948Y198342D01*
X549872Y200848D01*
X551081Y203767D01*
X551494Y206900D01*
Y216900D01*
X551081Y220033D01*
X549872Y222952D01*
X547948Y225459D01*
X545442Y227382D01*
X542523Y228591D01*
X539390Y229004D01*
X536257Y228591D01*
X533338Y227382D01*
X531209Y225748D01*
X529209Y226343D01*
Y239950D01*
X528976Y241120D01*
X528313Y242113D01*
X527321Y242776D01*
X526150Y243009D01*
X501150D01*
X499980Y242776D01*
X498987Y242113D01*
X498324Y241120D01*
X498091Y239950D01*
Y227256D01*
X496091Y226270D01*
X494642Y227382D01*
X491723Y228591D01*
X488590Y229004D01*
X485457Y228591D01*
X482538Y227382D01*
X480032Y225459D01*
X478108Y222952D01*
X476899Y220033D01*
X476486Y216900D01*
Y206900D01*
X476899Y203767D01*
X478108Y200848D01*
X480032Y198342D01*
X482538Y196418D01*
X485457Y195209D01*
X488590Y194797D01*
X491723Y195209D01*
X494642Y196418D01*
X496091Y197530D01*
X498091Y196544D01*
Y185217D01*
X487987Y175113D01*
X487987Y175113D01*
X487324Y174121D01*
X487091Y172950D01*
X487091Y172950D01*
Y62527D01*
X485091Y61921D01*
X484112Y63387D01*
X481187Y66312D01*
X477747Y68610D01*
X473926Y70193D01*
X472800Y70417D01*
Y50000D01*
Y29583D01*
X473926Y29807D01*
X477747Y31390D01*
X481187Y33688D01*
X484112Y36613D01*
X485091Y38079D01*
X487091Y37473D01*
Y3059D01*
X439209D01*
Y172950D01*
X439209Y172950D01*
X438976Y174121D01*
X438313Y175113D01*
X428209Y185217D01*
Y197456D01*
X430209Y198052D01*
X432338Y196418D01*
X435257Y195209D01*
X438390Y194797D01*
X441523Y195209D01*
X444442Y196418D01*
X446949Y198342D01*
X448872Y200848D01*
X450081Y203767D01*
X450494Y206900D01*
Y216900D01*
X450081Y220033D01*
X448872Y222952D01*
X446949Y225459D01*
X444442Y227382D01*
X441523Y228591D01*
X438390Y229004D01*
X435257Y228591D01*
X432338Y227382D01*
X430209Y225748D01*
X428209Y226343D01*
Y239950D01*
X427976Y241120D01*
X427313Y242113D01*
X426321Y242776D01*
X425150Y243009D01*
X400150D01*
X398979Y242776D01*
X397987Y242113D01*
X397324Y241120D01*
X397091Y239950D01*
Y227256D01*
X395091Y226270D01*
X393642Y227382D01*
X390723Y228591D01*
X387590Y229004D01*
X384457Y228591D01*
X381538Y227382D01*
X379031Y225459D01*
X377108Y222952D01*
X375899Y220033D01*
X375486Y216900D01*
Y206900D01*
X375899Y203767D01*
X377108Y200848D01*
X379031Y198342D01*
X381538Y196418D01*
X384457Y195209D01*
X387590Y194797D01*
X390723Y195209D01*
X393642Y196418D01*
X395091Y197530D01*
X397091Y196544D01*
Y185217D01*
X386987Y175113D01*
X386987Y175113D01*
X386324Y174121D01*
X386091Y172950D01*
X386091Y172950D01*
Y61630D01*
X384091Y61023D01*
X382512Y63387D01*
X379587Y66312D01*
X376147Y68610D01*
X372326Y70193D01*
X371200Y70417D01*
Y50000D01*
X366200D01*
D01*
X371200D01*
Y29583D01*
X372326Y29807D01*
X376147Y31390D01*
X379587Y33688D01*
X382512Y36613D01*
X384091Y38977D01*
X386091Y38370D01*
Y3059D01*
X337209D01*
Y172950D01*
X337209Y172950D01*
X336976Y174121D01*
X336313Y175113D01*
X326209Y185217D01*
Y197456D01*
X328209Y198052D01*
X330338Y196418D01*
X333257Y195209D01*
X336390Y194797D01*
X339523Y195209D01*
X342442Y196418D01*
X344949Y198342D01*
X346872Y200848D01*
X348081Y203767D01*
X348494Y206900D01*
Y216900D01*
X348081Y220033D01*
X346872Y222952D01*
X344949Y225459D01*
X342442Y227382D01*
X339523Y228591D01*
X336390Y229004D01*
X333257Y228591D01*
X330338Y227382D01*
X328209Y225748D01*
X326209Y226343D01*
Y239950D01*
X325976Y241120D01*
X325313Y242113D01*
X324321Y242776D01*
X323150Y243009D01*
X298150D01*
X296980Y242776D01*
X295987Y242113D01*
X295324Y241120D01*
X295091Y239950D01*
Y227256D01*
X293091Y226270D01*
X291642Y227382D01*
X288723Y228591D01*
X285590Y229004D01*
X282457Y228591D01*
X279538Y227382D01*
X277031Y225459D01*
X275108Y222952D01*
X273899Y220033D01*
X273486Y216900D01*
Y206900D01*
X273899Y203767D01*
X275108Y200848D01*
X277031Y198342D01*
X279538Y196418D01*
X282457Y195209D01*
X285590Y194797D01*
X288723Y195209D01*
X291642Y196418D01*
X293091Y197530D01*
X295091Y196544D01*
Y185217D01*
X284987Y175113D01*
X284987Y175113D01*
X284324Y174121D01*
X284091Y172950D01*
X284091Y172950D01*
Y62228D01*
X282091Y61621D01*
X280912Y63387D01*
X277987Y66312D01*
X274547Y68610D01*
X270725Y70193D01*
X269600Y70417D01*
Y50000D01*
Y29583D01*
X270725Y29807D01*
X274547Y31390D01*
X277987Y33688D01*
X280912Y36613D01*
X282091Y38379D01*
X284091Y37772D01*
Y3059D01*
X234769D01*
Y172950D01*
X234769Y172950D01*
X234536Y174121D01*
X233873Y175113D01*
X223769Y185217D01*
Y197456D01*
X225769Y198052D01*
X227898Y196418D01*
X230817Y195209D01*
X233950Y194797D01*
X237083Y195209D01*
X240002Y196418D01*
X242509Y198342D01*
X244432Y200848D01*
X245641Y203767D01*
X246054Y206900D01*
Y216900D01*
X245641Y220033D01*
X244432Y222952D01*
X242509Y225459D01*
X240002Y227382D01*
X237083Y228591D01*
X233950Y229004D01*
X230817Y228591D01*
X227898Y227382D01*
X225769Y225748D01*
X223769Y226343D01*
Y239950D01*
X223536Y241120D01*
X222873Y242113D01*
X221881Y242776D01*
X220710Y243009D01*
X195710D01*
X194540Y242776D01*
X193547Y242113D01*
X192884Y241120D01*
X192651Y239950D01*
Y227256D01*
X190651Y226270D01*
X189202Y227382D01*
X186283Y228591D01*
X183150Y229004D01*
X180017Y228591D01*
X177098Y227382D01*
X174592Y225459D01*
X172668Y222952D01*
X171459Y220033D01*
X171047Y216900D01*
Y206900D01*
X171459Y203767D01*
X172668Y200848D01*
X174592Y198342D01*
X177098Y196418D01*
X180017Y195209D01*
X183150Y194797D01*
X186283Y195209D01*
X189202Y196418D01*
X190651Y197530D01*
X192651Y196544D01*
Y185217D01*
X182547Y175113D01*
X182547Y175113D01*
X181884Y174121D01*
X181651Y172950D01*
X181651Y172950D01*
Y63485D01*
X179651Y62879D01*
X179312Y63387D01*
X176387Y66312D01*
X172947Y68610D01*
X169125Y70193D01*
X168000Y70417D01*
Y50000D01*
Y29583D01*
X169125Y29807D01*
X172947Y31390D01*
X176387Y33688D01*
X179312Y36613D01*
X179651Y37121D01*
X181651Y36515D01*
Y3059D01*
X133169D01*
Y172950D01*
X133169Y172950D01*
X132936Y174121D01*
X132273Y175113D01*
X122169Y185217D01*
Y197456D01*
X124169Y198052D01*
X126298Y196418D01*
X129217Y195209D01*
X132350Y194797D01*
X135483Y195209D01*
X138402Y196418D01*
X140909Y198342D01*
X142832Y200848D01*
X144041Y203767D01*
X144454Y206900D01*
Y216900D01*
X144041Y220033D01*
X142832Y222952D01*
X140909Y225459D01*
X138402Y227382D01*
X135483Y228591D01*
X132350Y229004D01*
X129217Y228591D01*
X126298Y227382D01*
X124169Y225748D01*
X122169Y226343D01*
Y239950D01*
X121936Y241120D01*
X121273Y242113D01*
X120281Y242776D01*
X119110Y243009D01*
X94110D01*
X92940Y242776D01*
X91947Y242113D01*
X91284Y241120D01*
X91051Y239950D01*
Y227256D01*
X89051Y226270D01*
X87602Y227382D01*
X84683Y228591D01*
X81550Y229004D01*
X78417Y228591D01*
X75498Y227382D01*
X72991Y225459D01*
X71068Y222952D01*
X69859Y220033D01*
X69447Y216900D01*
Y206900D01*
X69859Y203767D01*
X71068Y200848D01*
X72991Y198342D01*
X75498Y196418D01*
X78417Y195209D01*
X81550Y194797D01*
X84683Y195209D01*
X87602Y196418D01*
X89051Y197530D01*
X91051Y196544D01*
Y185217D01*
X80947Y175113D01*
X80947Y175113D01*
X80284Y174121D01*
X80051Y172950D01*
X80051Y172950D01*
Y63485D01*
X78051Y62879D01*
X77712Y63387D01*
X74787Y66312D01*
X71347Y68610D01*
X67526Y70193D01*
X66400Y70417D01*
Y50000D01*
Y29583D01*
X67526Y29807D01*
X71347Y31390D01*
X74787Y33688D01*
X77712Y36613D01*
X78051Y37121D01*
X80051Y36515D01*
Y3059D01*
X40000D01*
X39835Y3026D01*
X34214Y3468D01*
X28570Y4823D01*
X23208Y7044D01*
X18260Y10077D01*
X13846Y13846D01*
X10077Y18260D01*
X7044Y23208D01*
X4823Y28570D01*
X3468Y34214D01*
X3026Y39835D01*
X3059Y40000D01*
Y960000D01*
X3026Y960165D01*
X3468Y965786D01*
X4823Y971430D01*
X7044Y976792D01*
X10077Y981740D01*
X13846Y986154D01*
X18260Y989923D01*
X23208Y992956D01*
X28570Y995177D01*
X34214Y996532D01*
X38941Y996904D01*
X40941Y995464D01*
Y827000D01*
X40941Y827000D01*
X41174Y825829D01*
X41837Y824837D01*
X51941Y814733D01*
Y802630D01*
X49941Y801986D01*
X47862Y803582D01*
X44943Y804791D01*
X41810Y805203D01*
X38677Y804791D01*
X35758Y803582D01*
X33252Y801658D01*
X31328Y799152D01*
X30119Y796233D01*
X29706Y793100D01*
Y783100D01*
X30119Y779967D01*
X31328Y777048D01*
X33252Y774541D01*
X35758Y772618D01*
X38677Y771409D01*
X41810Y770996D01*
X44943Y771409D01*
X47862Y772618D01*
X49941Y774214D01*
X51941Y773570D01*
Y760000D01*
X52174Y758829D01*
X52837Y757837D01*
X53829Y757174D01*
X55000Y756941D01*
X80000D01*
X81171Y757174D01*
X82163Y757837D01*
X82826Y758829D01*
X83059Y760000D01*
Y772782D01*
X85059Y773769D01*
X86558Y772618D01*
X89477Y771409D01*
X92610Y770996D01*
X95743Y771409D01*
X98662Y772618D01*
X101169Y774541D01*
X103092Y777048D01*
X104301Y779967D01*
X104714Y783100D01*
Y793100D01*
X104301Y796233D01*
X103092Y799152D01*
X101169Y801658D01*
X98662Y803582D01*
X95743Y804791D01*
X92610Y805203D01*
X89477Y804791D01*
X86558Y803582D01*
X85059Y802431D01*
X83059Y803418D01*
Y814733D01*
X93163Y824837D01*
X93163Y824837D01*
X93826Y825829D01*
X94059Y827000D01*
X94059Y827000D01*
Y940248D01*
X96059Y940855D01*
X96888Y939613D01*
X99813Y936688D01*
X103253Y934390D01*
X107075Y932807D01*
X108200Y932583D01*
Y953000D01*
Y973417D01*
X107075Y973193D01*
X103253Y971610D01*
X99813Y969312D01*
X96888Y966387D01*
X96059Y965145D01*
X94059Y965752D01*
Y996941D01*
X141941D01*
Y827000D01*
X141941Y827000D01*
X142174Y825829D01*
X142837Y824837D01*
X152941Y814733D01*
Y802630D01*
X150941Y801986D01*
X148862Y803582D01*
X145943Y804791D01*
X142810Y805203D01*
X139677Y804791D01*
X136758Y803582D01*
X134251Y801658D01*
X132328Y799152D01*
X131119Y796233D01*
X130707Y793100D01*
Y783100D01*
X131119Y779967D01*
X132328Y777048D01*
X134251Y774541D01*
X136758Y772618D01*
X139677Y771409D01*
X142810Y770996D01*
X145943Y771409D01*
X148862Y772618D01*
X150941Y774214D01*
X152941Y773570D01*
Y760000D01*
X153174Y758829D01*
X153837Y757837D01*
X154830Y757174D01*
X156000Y756941D01*
X181000D01*
X182171Y757174D01*
X183163Y757837D01*
X183826Y758829D01*
X184059Y760000D01*
Y772782D01*
X186059Y773769D01*
X187558Y772618D01*
X190477Y771409D01*
X193610Y770996D01*
X196743Y771409D01*
X199662Y772618D01*
X202169Y774541D01*
X204092Y777048D01*
X205301Y779967D01*
X205714Y783100D01*
Y793100D01*
X205301Y796233D01*
X204092Y799152D01*
X202169Y801658D01*
X199662Y803582D01*
X196743Y804791D01*
X193610Y805203D01*
X190477Y804791D01*
X187558Y803582D01*
X186059Y802431D01*
X184059Y803418D01*
Y814733D01*
X194163Y824837D01*
X194163Y824837D01*
X194826Y825829D01*
X195059Y827000D01*
X195059Y827000D01*
Y941146D01*
X197059Y941753D01*
X198488Y939613D01*
X201413Y936688D01*
X204853Y934390D01*
X208675Y932807D01*
X209800Y932583D01*
Y953000D01*
Y973417D01*
X208675Y973193D01*
X204853Y971610D01*
X201413Y969312D01*
X198488Y966387D01*
X197059Y964247D01*
X195059Y964854D01*
Y996941D01*
X243941D01*
Y827000D01*
X243941Y827000D01*
X244174Y825829D01*
X244837Y824837D01*
X254941Y814733D01*
Y802630D01*
X252941Y801986D01*
X250862Y803582D01*
X247943Y804791D01*
X244810Y805203D01*
X241677Y804791D01*
X238758Y803582D01*
X236252Y801658D01*
X234328Y799152D01*
X233119Y796233D01*
X232707Y793100D01*
Y783100D01*
X233119Y779967D01*
X234328Y777048D01*
X236252Y774541D01*
X238758Y772618D01*
X241677Y771409D01*
X244810Y770996D01*
X247943Y771409D01*
X250862Y772618D01*
X252941Y774214D01*
X254941Y773570D01*
Y760000D01*
X255174Y758829D01*
X255837Y757837D01*
X256829Y757174D01*
X258000Y756941D01*
X283000D01*
X284170Y757174D01*
X285163Y757837D01*
X285826Y758829D01*
X286059Y760000D01*
Y772782D01*
X288059Y773769D01*
X289558Y772618D01*
X292477Y771409D01*
X295610Y770996D01*
X298743Y771409D01*
X301662Y772618D01*
X304169Y774541D01*
X306092Y777048D01*
X307301Y779967D01*
X307714Y783100D01*
Y793100D01*
X307301Y796233D01*
X306092Y799152D01*
X304169Y801658D01*
X301662Y803582D01*
X298743Y804791D01*
X295610Y805203D01*
X292477Y804791D01*
X289558Y803582D01*
X288059Y802431D01*
X286059Y803418D01*
Y814733D01*
X296163Y824837D01*
X296163Y824837D01*
X296826Y825829D01*
X297059Y827000D01*
X297059Y827000D01*
Y940547D01*
X299059Y941154D01*
X300088Y939613D01*
X303013Y936688D01*
X306453Y934390D01*
X310275Y932807D01*
X311400Y932583D01*
Y953000D01*
Y973417D01*
X310275Y973193D01*
X306453Y971610D01*
X303013Y969312D01*
X300088Y966387D01*
X299059Y964846D01*
X297059Y965453D01*
Y996941D01*
X346381D01*
Y827000D01*
X346381Y827000D01*
X346614Y825829D01*
X347277Y824837D01*
X357381Y814733D01*
Y802630D01*
X355381Y801986D01*
X353302Y803582D01*
X350383Y804791D01*
X347250Y805203D01*
X344117Y804791D01*
X341198Y803582D01*
X338691Y801658D01*
X336768Y799152D01*
X335559Y796233D01*
X335146Y793100D01*
Y783100D01*
X335559Y779967D01*
X336768Y777048D01*
X338691Y774541D01*
X341198Y772618D01*
X344117Y771409D01*
X347250Y770996D01*
X350383Y771409D01*
X353302Y772618D01*
X355381Y774214D01*
X357381Y773570D01*
Y760000D01*
X357614Y758829D01*
X358277Y757837D01*
X359269Y757174D01*
X360440Y756941D01*
X385440D01*
X386610Y757174D01*
X387603Y757837D01*
X388266Y758829D01*
X388499Y760000D01*
Y772782D01*
X390499Y773769D01*
X391998Y772618D01*
X394917Y771409D01*
X398050Y770996D01*
X401183Y771409D01*
X404102Y772618D01*
X406609Y774541D01*
X408532Y777048D01*
X409741Y779967D01*
X410154Y783100D01*
Y793100D01*
X409741Y796233D01*
X408532Y799152D01*
X406609Y801658D01*
X404102Y803582D01*
X401183Y804791D01*
X398050Y805203D01*
X394917Y804791D01*
X391998Y803582D01*
X390499Y802431D01*
X388499Y803418D01*
Y814733D01*
X398603Y824837D01*
X398603Y824837D01*
X399266Y825829D01*
X399499Y827000D01*
X399499Y827000D01*
Y939445D01*
X401413Y940026D01*
X401688Y939613D01*
X404613Y936688D01*
X408053Y934390D01*
X411875Y932807D01*
X413000Y932583D01*
Y953000D01*
Y973417D01*
X411875Y973193D01*
X408053Y971610D01*
X404613Y969312D01*
X401688Y966387D01*
X401413Y965974D01*
X399499Y966555D01*
Y996941D01*
X447981D01*
Y827000D01*
X447981Y827000D01*
X448214Y825829D01*
X448877Y824837D01*
X458981Y814733D01*
Y802630D01*
X456981Y801986D01*
X454902Y803582D01*
X451983Y804791D01*
X448850Y805203D01*
X445717Y804791D01*
X442798Y803582D01*
X440291Y801658D01*
X438368Y799152D01*
X437159Y796233D01*
X436746Y793100D01*
Y783100D01*
X437159Y779967D01*
X438368Y777048D01*
X440291Y774541D01*
X442798Y772618D01*
X445717Y771409D01*
X448850Y770996D01*
X451983Y771409D01*
X454902Y772618D01*
X456981Y774214D01*
X458981Y773570D01*
Y760000D01*
X459214Y758829D01*
X459877Y757837D01*
X460869Y757174D01*
X462040Y756941D01*
X487040D01*
X488210Y757174D01*
X489203Y757837D01*
X489866Y758829D01*
X490099Y760000D01*
Y772782D01*
X492099Y773769D01*
X493598Y772618D01*
X496517Y771409D01*
X499650Y770996D01*
X502783Y771409D01*
X505702Y772618D01*
X508209Y774541D01*
X510132Y777048D01*
X511341Y779967D01*
X511754Y783100D01*
Y793100D01*
X511341Y796233D01*
X510132Y799152D01*
X508209Y801658D01*
X505702Y803582D01*
X502783Y804791D01*
X499650Y805203D01*
X496517Y804791D01*
X493598Y803582D01*
X492099Y802431D01*
X490099Y803418D01*
Y814733D01*
X500203Y824837D01*
X500203Y824837D01*
X500866Y825829D01*
X501099Y827000D01*
X501099Y827000D01*
Y939445D01*
X503013Y940026D01*
X503288Y939613D01*
X506213Y936688D01*
X509653Y934390D01*
X513475Y932807D01*
X514600Y932583D01*
Y953000D01*
Y973417D01*
X513475Y973193D01*
X509653Y971610D01*
X506213Y969312D01*
X503288Y966387D01*
X503013Y965974D01*
X501099Y966555D01*
Y996941D01*
X619921D01*
Y827000D01*
X619921Y827000D01*
X620154Y825829D01*
X620817Y824837D01*
X630921Y814733D01*
Y802630D01*
X628921Y801986D01*
X626842Y803582D01*
X623923Y804791D01*
X620790Y805203D01*
X617657Y804791D01*
X614738Y803582D01*
X612231Y801658D01*
X610308Y799152D01*
X609099Y796233D01*
X608686Y793100D01*
Y783100D01*
X609099Y779967D01*
X610308Y777048D01*
X612231Y774541D01*
X614738Y772618D01*
X617657Y771409D01*
X620790Y770996D01*
X623923Y771409D01*
X626842Y772618D01*
X628921Y774214D01*
X630921Y773570D01*
Y760000D01*
X631154Y758829D01*
X631817Y757837D01*
X632809Y757174D01*
X633980Y756941D01*
X658980D01*
X660151Y757174D01*
X661143Y757837D01*
X661806Y758829D01*
X662039Y760000D01*
Y772782D01*
X664039Y773769D01*
X665538Y772618D01*
X668457Y771409D01*
X671590Y770996D01*
X674723Y771409D01*
X677642Y772618D01*
X680149Y774541D01*
X682072Y777048D01*
X683281Y779967D01*
X683694Y783100D01*
Y793100D01*
X683281Y796233D01*
X682072Y799152D01*
X680149Y801658D01*
X677642Y803582D01*
X674723Y804791D01*
X671590Y805203D01*
X668457Y804791D01*
X665538Y803582D01*
X664039Y802431D01*
X662039Y803418D01*
Y814733D01*
X672143Y824837D01*
X672143Y824837D01*
X672806Y825829D01*
X673039Y827000D01*
X673039Y827000D01*
Y940278D01*
X675039Y940885D01*
X675888Y939613D01*
X678813Y936688D01*
X682253Y934390D01*
X686075Y932807D01*
X687200Y932583D01*
Y953000D01*
Y973417D01*
X686075Y973193D01*
X682253Y971610D01*
X678813Y969312D01*
X675888Y966387D01*
X675039Y965115D01*
X673039Y965722D01*
Y996941D01*
X720921D01*
Y827000D01*
X720921Y827000D01*
X721154Y825829D01*
X721817Y824837D01*
X731921Y814733D01*
Y802630D01*
X729921Y801986D01*
X727842Y803582D01*
X724923Y804791D01*
X721790Y805203D01*
X718657Y804791D01*
X715738Y803582D01*
X713232Y801658D01*
X711308Y799152D01*
X710099Y796233D01*
X709687Y793100D01*
Y783100D01*
X710099Y779967D01*
X711308Y777048D01*
X713232Y774541D01*
X715738Y772618D01*
X718657Y771409D01*
X721790Y770996D01*
X724923Y771409D01*
X727842Y772618D01*
X729921Y774214D01*
X731921Y773570D01*
Y760000D01*
X732154Y758829D01*
X732817Y757837D01*
X733810Y757174D01*
X734980Y756941D01*
X759980D01*
X761151Y757174D01*
X762143Y757837D01*
X762806Y758829D01*
X763039Y760000D01*
Y772782D01*
X765039Y773769D01*
X766538Y772618D01*
X769457Y771409D01*
X772590Y770996D01*
X775723Y771409D01*
X778642Y772618D01*
X781149Y774541D01*
X783072Y777048D01*
X784281Y779967D01*
X784694Y783100D01*
Y793100D01*
X784281Y796233D01*
X783072Y799152D01*
X781149Y801658D01*
X778642Y803582D01*
X775723Y804791D01*
X772590Y805203D01*
X769457Y804791D01*
X766538Y803582D01*
X765039Y802431D01*
X763039Y803418D01*
Y814733D01*
X773143Y824837D01*
X773143Y824837D01*
X773806Y825829D01*
X774039Y827000D01*
X774039Y827000D01*
Y941176D01*
X776039Y941783D01*
X777488Y939613D01*
X780413Y936688D01*
X783853Y934390D01*
X787675Y932807D01*
X788800Y932583D01*
Y953000D01*
Y973417D01*
X787675Y973193D01*
X783853Y971610D01*
X780413Y969312D01*
X777488Y966387D01*
X776039Y964217D01*
X774039Y964824D01*
Y996941D01*
X822921D01*
Y827000D01*
X822921Y827000D01*
X823154Y825829D01*
X823817Y824837D01*
X833921Y814733D01*
Y802630D01*
X831921Y801986D01*
X829842Y803582D01*
X826923Y804791D01*
X823790Y805203D01*
X820657Y804791D01*
X817738Y803582D01*
X815231Y801658D01*
X813308Y799152D01*
X812099Y796233D01*
X811686Y793100D01*
Y783100D01*
X812099Y779967D01*
X813308Y777048D01*
X815231Y774541D01*
X817738Y772618D01*
X820657Y771409D01*
X823790Y770996D01*
X826923Y771409D01*
X829842Y772618D01*
X831921Y774214D01*
X833921Y773570D01*
Y760000D01*
X834154Y758829D01*
X834817Y757837D01*
X835809Y757174D01*
X836980Y756941D01*
X861980D01*
X863150Y757174D01*
X864143Y757837D01*
X864806Y758829D01*
X865039Y760000D01*
Y772782D01*
X867039Y773769D01*
X868538Y772618D01*
X871457Y771409D01*
X874590Y770996D01*
X877723Y771409D01*
X880642Y772618D01*
X883149Y774541D01*
X885072Y777048D01*
X886281Y779967D01*
X886694Y783100D01*
Y793100D01*
X886281Y796233D01*
X885072Y799152D01*
X883149Y801658D01*
X880642Y803582D01*
X877723Y804791D01*
X874590Y805203D01*
X871457Y804791D01*
X868538Y803582D01*
X867039Y802431D01*
X865039Y803418D01*
Y814733D01*
X875143Y824837D01*
X875143Y824837D01*
X875806Y825829D01*
X876039Y827000D01*
X876039Y827000D01*
Y940577D01*
X878039Y941184D01*
X879088Y939613D01*
X882013Y936688D01*
X885453Y934390D01*
X889275Y932807D01*
X890400Y932583D01*
Y953000D01*
Y973417D01*
X889275Y973193D01*
X885453Y971610D01*
X882013Y969312D01*
X879088Y966387D01*
X878039Y964816D01*
X876039Y965423D01*
Y996941D01*
X925411D01*
Y827050D01*
X925411Y827050D01*
X925644Y825880D01*
X926307Y824887D01*
X936411Y814783D01*
Y802543D01*
X934411Y801948D01*
X932282Y803582D01*
X929363Y804791D01*
X926230Y805203D01*
X923097Y804791D01*
X920178Y803582D01*
X917672Y801658D01*
X915748Y799152D01*
X914539Y796233D01*
X914127Y793100D01*
Y783100D01*
X914539Y779967D01*
X915748Y777048D01*
X917672Y774541D01*
X920178Y772618D01*
X923097Y771409D01*
X926230Y770996D01*
X929363Y771409D01*
X932282Y772618D01*
X934411Y774252D01*
X936411Y773656D01*
Y760050D01*
X936644Y758879D01*
X937307Y757887D01*
X938299Y757224D01*
X939470Y756991D01*
X964470D01*
X965640Y757224D01*
X966633Y757887D01*
X967296Y758879D01*
X967529Y760050D01*
Y772744D01*
X969529Y773730D01*
X970978Y772618D01*
X973897Y771409D01*
X977030Y770996D01*
X980163Y771409D01*
X983082Y772618D01*
X985589Y774541D01*
X987512Y777048D01*
X988721Y779967D01*
X989134Y783100D01*
Y793100D01*
X988721Y796233D01*
X987512Y799152D01*
X985589Y801658D01*
X983082Y803582D01*
X980163Y804791D01*
X977030Y805203D01*
X973897Y804791D01*
X970978Y803582D01*
X969529Y802470D01*
X967529Y803456D01*
Y814783D01*
X977633Y824887D01*
X977633Y824887D01*
X978296Y825879D01*
X978529Y827050D01*
X978529Y827050D01*
Y939400D01*
X980443Y939981D01*
X980688Y939613D01*
X983613Y936688D01*
X987053Y934390D01*
X990875Y932807D01*
X992000Y932583D01*
Y953000D01*
Y973417D01*
X990875Y973193D01*
X987053Y971610D01*
X983613Y969312D01*
X980688Y966387D01*
X980443Y966019D01*
X978529Y966600D01*
Y996941D01*
X1026961D01*
Y827000D01*
X1026961Y827000D01*
X1027194Y825829D01*
X1027857Y824837D01*
X1037961Y814733D01*
Y802630D01*
X1035961Y801986D01*
X1033882Y803582D01*
X1030963Y804791D01*
X1027830Y805203D01*
X1024697Y804791D01*
X1021778Y803582D01*
X1019271Y801658D01*
X1017348Y799152D01*
X1016139Y796233D01*
X1015726Y793100D01*
Y783100D01*
X1016139Y779967D01*
X1017348Y777048D01*
X1019271Y774541D01*
X1021778Y772618D01*
X1024697Y771409D01*
X1027830Y770996D01*
X1030963Y771409D01*
X1033882Y772618D01*
X1035961Y774214D01*
X1037961Y773570D01*
Y760000D01*
X1038194Y758829D01*
X1038857Y757837D01*
X1039849Y757174D01*
X1041020Y756941D01*
X1066020D01*
X1067190Y757174D01*
X1068183Y757837D01*
X1068846Y758829D01*
X1069079Y760000D01*
Y772782D01*
X1071079Y773769D01*
X1072578Y772618D01*
X1075497Y771409D01*
X1078630Y770996D01*
X1081763Y771409D01*
X1084682Y772618D01*
X1087188Y774541D01*
X1089112Y777048D01*
X1090321Y779967D01*
X1090734Y783100D01*
Y793100D01*
X1090321Y796233D01*
X1089112Y799152D01*
X1087188Y801658D01*
X1084682Y803582D01*
X1081763Y804791D01*
X1078630Y805203D01*
X1075497Y804791D01*
X1072578Y803582D01*
X1071079Y802431D01*
X1069079Y803418D01*
Y814733D01*
X1079183Y824837D01*
X1079183Y824837D01*
X1079846Y825829D01*
X1080079Y827000D01*
X1080079Y827000D01*
Y939475D01*
X1081993Y940056D01*
X1082288Y939613D01*
X1085213Y936688D01*
X1088653Y934390D01*
X1092475Y932807D01*
X1093600Y932583D01*
Y953000D01*
Y973417D01*
X1092475Y973193D01*
X1088653Y971610D01*
X1085213Y969312D01*
X1082288Y966387D01*
X1081993Y965944D01*
X1080079Y966525D01*
Y996941D01*
X1930000D01*
X1930165Y996974D01*
X1935786Y996532D01*
D02*
G37*
G36*
X975470Y827050D02*
X964470Y816050D01*
X964470Y760050D01*
X939470D01*
Y816050D01*
X928470Y827050D01*
Y996941D01*
X975470D01*
Y827050D01*
D02*
G37*
G36*
X1077020Y827000D02*
X1066020Y816000D01*
X1066020Y760000D01*
X1041020D01*
Y816000D01*
X1030020Y827000D01*
Y996941D01*
X1077020D01*
Y827000D01*
D02*
G37*
G36*
X872980D02*
X861980Y816000D01*
X861980Y760000D01*
X836980D01*
Y816000D01*
X825980Y827000D01*
Y996941D01*
X872980D01*
Y827000D01*
D02*
G37*
G36*
X770980D02*
X759980Y816000D01*
X759980Y760000D01*
X734980D01*
Y816000D01*
X723980Y827000D01*
Y996941D01*
X770980D01*
Y827000D01*
D02*
G37*
G36*
X669980D02*
X658980Y816000D01*
X658980Y760000D01*
X633980D01*
Y816000D01*
X622980Y827000D01*
Y996941D01*
X669980D01*
Y827000D01*
D02*
G37*
G36*
X498040D02*
X487040Y816000D01*
X487040Y760000D01*
X462040D01*
Y816000D01*
X451040Y827000D01*
Y996941D01*
X498040D01*
Y827000D01*
D02*
G37*
G36*
X396440D02*
X385440Y816000D01*
X385440Y760000D01*
X360440D01*
Y816000D01*
X349440Y827000D01*
Y996941D01*
X396440D01*
Y827000D01*
D02*
G37*
G36*
X294000D02*
X283000Y816000D01*
X283000Y760000D01*
X258000D01*
Y816000D01*
X247000Y827000D01*
Y996941D01*
X294000D01*
Y827000D01*
D02*
G37*
G36*
X192000D02*
X181000Y816000D01*
X181000Y760000D01*
X156000D01*
Y816000D01*
X145000Y827000D01*
Y996941D01*
X192000D01*
Y827000D01*
D02*
G37*
G36*
X91000D02*
X80000Y816000D01*
X80000Y760000D01*
X55000D01*
Y816000D01*
X44000Y827000D01*
Y996941D01*
X91000D01*
Y827000D01*
D02*
G37*
G36*
X1590000Y282500D02*
X1583500Y276000D01*
X1421000D01*
X1416000Y271000D01*
X1416000Y256000D01*
X1411000Y251000D01*
X1336000D01*
Y402000D01*
X1590000D01*
Y282500D01*
D02*
G37*
G36*
Y260000D02*
Y3059D01*
X1362000D01*
Y237000D01*
X1418000Y237000D01*
X1423000Y242000D01*
X1423000Y262000D01*
X1428000Y267000D01*
X1583000D01*
X1590000Y260000D01*
D02*
G37*
G36*
X1106210Y184000D02*
X1117210Y173000D01*
Y3059D01*
X1070210D01*
Y173000D01*
X1081210Y184000D01*
X1081210Y240000D01*
X1106210D01*
Y184000D01*
D02*
G37*
G36*
X1005210Y184000D02*
X1016210Y173000D01*
Y3059D01*
X969210D01*
Y173000D01*
X980210Y184000D01*
X980210Y240000D01*
X1005210D01*
Y184000D01*
D02*
G37*
G36*
X903210Y184000D02*
X914210Y173000D01*
Y3059D01*
X867210D01*
Y173000D01*
X878210Y184000D01*
X878210Y240000D01*
X903210D01*
Y184000D01*
D02*
G37*
G36*
X800770D02*
X811770Y173000D01*
Y3059D01*
X764770D01*
Y173000D01*
X775770Y184000D01*
X775770Y240000D01*
X800770D01*
Y184000D01*
D02*
G37*
G36*
X699170D02*
X710170Y173000D01*
Y3059D01*
X663170D01*
Y173000D01*
X674170Y184000D01*
X674170Y240000D01*
X699170D01*
Y184000D01*
D02*
G37*
G36*
X526150Y183950D02*
X537150Y172950D01*
Y3059D01*
X490150D01*
Y172950D01*
X501150Y183950D01*
X501150Y239950D01*
X526150D01*
Y183950D01*
D02*
G37*
G36*
X425150Y183950D02*
X436150Y172950D01*
Y3059D01*
X389150D01*
Y172950D01*
X400150Y183950D01*
X400150Y239950D01*
X425150D01*
Y183950D01*
D02*
G37*
G36*
X323150Y183950D02*
X334150Y172950D01*
Y3059D01*
X287150D01*
Y172950D01*
X298150Y183950D01*
X298150Y239950D01*
X323150D01*
Y183950D01*
D02*
G37*
G36*
X220710D02*
X231710Y172950D01*
Y3059D01*
X184710D01*
Y172950D01*
X195710Y183950D01*
X195710Y239950D01*
X220710D01*
Y183950D01*
D02*
G37*
G36*
X119110D02*
X130110Y172950D01*
Y3059D01*
X83110D01*
Y172950D01*
X94110Y183950D01*
X94110Y239950D01*
X119110D01*
Y183950D01*
D02*
G37*
%LPC*%
G36*
X1851200Y991257D02*
Y983750D01*
X1855278D01*
X1854968Y986099D01*
X1854061Y988289D01*
X1852619Y990169D01*
X1851200Y991257D01*
D02*
G37*
G36*
X1841200Y991258D02*
X1839781Y990169D01*
X1838338Y988289D01*
X1837432Y986099D01*
X1837122Y983750D01*
X1841200D01*
Y991258D01*
D02*
G37*
G36*
X1764800Y991258D02*
Y983750D01*
X1768878D01*
X1768568Y986099D01*
X1767661Y988289D01*
X1766219Y990169D01*
X1764800Y991258D01*
D02*
G37*
G36*
X1754800D02*
X1753381Y990169D01*
X1751938Y988289D01*
X1751032Y986099D01*
X1750722Y983750D01*
D01*
X1754800D01*
Y991258D01*
D02*
G37*
G36*
X1855278Y973750D02*
X1851200D01*
Y966242D01*
X1852619Y967331D01*
X1854061Y969211D01*
X1854968Y971401D01*
X1855278Y973750D01*
Y973750D01*
D02*
G37*
G36*
X1768878Y973750D02*
X1764800D01*
Y966242D01*
X1766219Y967331D01*
X1767661Y969211D01*
X1768568Y971401D01*
X1768878Y973750D01*
D01*
D02*
G37*
G36*
X1754800D02*
X1750722D01*
X1751032Y971401D01*
X1751938Y969211D01*
X1753381Y967331D01*
X1754800Y966242D01*
Y973750D01*
D02*
G37*
G36*
X1841200Y973750D02*
X1837122D01*
Y973750D01*
X1837432Y971401D01*
X1838338Y969211D01*
X1839781Y967331D01*
X1841200Y966242D01*
Y973750D01*
D02*
G37*
G36*
X1626922Y980000D02*
X1625078D01*
X1623298Y979523D01*
X1621702Y978601D01*
X1620399Y977298D01*
X1619477Y975702D01*
X1619000Y973922D01*
Y972078D01*
X1619477Y970298D01*
X1620399Y968702D01*
X1621702Y967399D01*
X1623298Y966477D01*
X1625078Y966000D01*
X1626922D01*
X1628702Y966477D01*
X1630298Y967399D01*
X1631601Y968702D01*
X1632523Y970298D01*
X1633000Y972078D01*
Y973922D01*
X1632523Y975702D01*
X1631601Y977298D01*
X1630298Y978601D01*
X1628702Y979523D01*
X1626922Y980000D01*
D02*
G37*
G36*
X1103600Y973417D02*
Y958000D01*
X1119017D01*
X1118793Y959126D01*
X1117210Y962947D01*
X1114912Y966387D01*
X1111987Y969312D01*
X1108547Y971610D01*
X1104725Y973193D01*
X1103600Y973417D01*
D02*
G37*
G36*
X1002000D02*
Y958000D01*
X1017417D01*
X1017193Y959126D01*
X1015610Y962947D01*
X1013312Y966387D01*
X1010387Y969312D01*
X1006947Y971610D01*
X1003126Y973193D01*
X1002000Y973417D01*
D02*
G37*
G36*
X900400D02*
Y958000D01*
X915817D01*
X915593Y959126D01*
X914010Y962947D01*
X911712Y966387D01*
X908787Y969312D01*
X905347Y971610D01*
X901525Y973193D01*
X900400Y973417D01*
D02*
G37*
G36*
X798800D02*
Y958000D01*
X814217D01*
X813993Y959126D01*
X812410Y962947D01*
X810112Y966387D01*
X807187Y969312D01*
X803747Y971610D01*
X799926Y973193D01*
X798800Y973417D01*
D02*
G37*
G36*
X697200D02*
Y958000D01*
X712617D01*
X712393Y959126D01*
X710810Y962947D01*
X708512Y966387D01*
X705587Y969312D01*
X702147Y971610D01*
X698326Y973193D01*
X697200Y973417D01*
D02*
G37*
G36*
X524600D02*
Y958000D01*
X540017D01*
X539793Y959126D01*
X538210Y962947D01*
X535912Y966387D01*
X532987Y969312D01*
X529547Y971610D01*
X525726Y973193D01*
X524600Y973417D01*
D02*
G37*
G36*
X423000D02*
Y958000D01*
X438417D01*
X438193Y959126D01*
X436610Y962947D01*
X434312Y966387D01*
X431387Y969312D01*
X427947Y971610D01*
X424126Y973193D01*
X423000Y973417D01*
D02*
G37*
G36*
X321400D02*
Y958000D01*
X336817D01*
X336593Y959126D01*
X335010Y962947D01*
X332712Y966387D01*
X329787Y969312D01*
X326347Y971610D01*
X322525Y973193D01*
X321400Y973417D01*
D02*
G37*
G36*
X219800D02*
Y958000D01*
X235217D01*
X234993Y959126D01*
X233410Y962947D01*
X231112Y966387D01*
X228187Y969312D01*
X224747Y971610D01*
X220926Y973193D01*
X219800Y973417D01*
D02*
G37*
G36*
X118200D02*
Y958000D01*
X133617D01*
X133393Y959126D01*
X131810Y962947D01*
X129512Y966387D01*
X126587Y969312D01*
X123147Y971610D01*
X119326Y973193D01*
X118200Y973417D01*
D02*
G37*
G36*
X1579035Y959414D02*
X1577045D01*
X1575208Y958653D01*
X1573801Y957246D01*
X1573040Y955408D01*
Y953419D01*
X1573801Y951582D01*
X1575208Y950175D01*
X1577045Y949414D01*
X1579035D01*
X1580872Y950175D01*
X1582279Y951582D01*
X1583040Y953419D01*
Y955408D01*
X1582279Y957246D01*
X1580872Y958653D01*
X1579035Y959414D01*
D02*
G37*
G36*
X1851200Y950957D02*
Y941950D01*
X1855278D01*
Y943450D01*
X1854968Y945799D01*
X1854061Y947989D01*
X1852619Y949869D01*
X1851200Y950957D01*
D02*
G37*
G36*
X1119017Y948000D02*
X1103600D01*
Y932583D01*
X1104725Y932807D01*
X1108547Y934390D01*
X1111987Y936688D01*
X1114912Y939613D01*
X1117210Y943053D01*
X1118793Y946874D01*
X1119017Y948000D01*
D02*
G37*
G36*
X1017417D02*
X1002000D01*
Y932583D01*
X1003126Y932807D01*
X1006947Y934390D01*
X1010387Y936688D01*
X1013312Y939613D01*
X1015610Y943053D01*
X1017193Y946874D01*
X1017417Y948000D01*
D02*
G37*
G36*
X915817D02*
X900400D01*
Y932583D01*
X901525Y932807D01*
X905347Y934390D01*
X908787Y936688D01*
X911712Y939613D01*
X914010Y943053D01*
X915593Y946874D01*
X915817Y948000D01*
D02*
G37*
G36*
X814217D02*
X798800D01*
Y932583D01*
X799926Y932807D01*
X803747Y934390D01*
X807187Y936688D01*
X810112Y939613D01*
X812410Y943053D01*
X813993Y946874D01*
X814217Y948000D01*
D02*
G37*
G36*
X712617D02*
X697200D01*
Y932583D01*
X698326Y932807D01*
X702147Y934390D01*
X705587Y936688D01*
X708512Y939613D01*
X710810Y943053D01*
X712393Y946874D01*
X712617Y948000D01*
D02*
G37*
G36*
X540017D02*
X524600D01*
Y932583D01*
X525726Y932807D01*
X529547Y934390D01*
X532987Y936688D01*
X535912Y939613D01*
X538210Y943053D01*
X539793Y946874D01*
X540017Y948000D01*
D02*
G37*
G36*
X438417D02*
X423000D01*
Y932583D01*
X424126Y932807D01*
X427947Y934390D01*
X431387Y936688D01*
X434312Y939613D01*
X436610Y943053D01*
X438193Y946874D01*
X438417Y948000D01*
D02*
G37*
G36*
X336817D02*
X321400D01*
Y932583D01*
X322525Y932807D01*
X326347Y934390D01*
X329787Y936688D01*
X332712Y939613D01*
X335010Y943053D01*
X336593Y946874D01*
X336817Y948000D01*
D02*
G37*
G36*
X235217D02*
X219800D01*
Y932583D01*
X220926Y932807D01*
X224747Y934390D01*
X228187Y936688D01*
X231112Y939613D01*
X233410Y943053D01*
X234993Y946874D01*
X235217Y948000D01*
D02*
G37*
G36*
X133617D02*
X118200D01*
Y932583D01*
X119326Y932807D01*
X123147Y934390D01*
X126587Y936688D01*
X129512Y939613D01*
X131810Y943053D01*
X133393Y946874D01*
X133617Y948000D01*
D02*
G37*
G36*
X1534495Y938500D02*
X1532505D01*
X1530668Y937739D01*
X1529261Y936332D01*
X1528500Y934494D01*
Y932505D01*
X1529261Y930668D01*
X1529622Y930306D01*
X1530493Y929000D01*
X1529622Y927693D01*
X1529261Y927332D01*
X1528911Y926488D01*
X1527695Y925526D01*
X1526532Y925571D01*
X1525495Y926000D01*
X1523506D01*
X1521668Y925239D01*
X1521307Y924878D01*
X1520000Y924006D01*
X1518694Y924878D01*
X1518332Y925239D01*
X1516495Y926000D01*
X1514505D01*
X1512668Y925239D01*
X1511261Y923832D01*
X1511082Y923400D01*
X1508918D01*
X1508739Y923832D01*
X1507332Y925239D01*
X1505495Y926000D01*
X1503505D01*
X1501668Y925239D01*
X1501307Y924878D01*
X1500000Y924007D01*
X1498693Y924878D01*
X1498332Y925239D01*
X1496495Y926000D01*
X1494505D01*
X1492668Y925239D01*
X1491261Y923832D01*
X1490500Y921995D01*
Y920005D01*
X1491261Y918168D01*
X1492668Y916761D01*
X1494505Y916000D01*
X1496495D01*
X1498332Y916761D01*
X1498693Y917122D01*
X1500000Y917994D01*
X1501307Y917122D01*
X1501668Y916761D01*
X1503505Y916000D01*
X1505495D01*
X1507332Y916761D01*
X1508739Y918168D01*
X1508918Y918599D01*
X1511082D01*
X1511261Y918168D01*
X1512668Y916761D01*
X1514505Y916000D01*
X1516495D01*
X1518332Y916761D01*
X1518694Y917122D01*
X1520000Y917993D01*
X1521307Y917122D01*
X1521668Y916761D01*
X1523506Y916000D01*
X1525495D01*
X1527332Y916761D01*
X1528739Y918168D01*
X1529088Y919012D01*
X1530305Y919974D01*
X1531469Y919929D01*
X1532505Y919500D01*
X1534494D01*
X1536332Y920261D01*
X1537739Y921668D01*
X1538500Y923505D01*
Y925495D01*
X1537739Y927332D01*
X1537378Y927693D01*
X1536507Y929000D01*
X1537378Y930306D01*
X1537739Y930668D01*
X1538500Y932505D01*
Y934494D01*
X1537739Y936332D01*
X1536332Y937739D01*
X1534495Y938500D01*
D02*
G37*
G36*
X1855278Y931950D02*
X1851200D01*
Y922943D01*
X1852619Y924031D01*
X1854061Y925911D01*
X1854968Y928101D01*
X1855278Y930450D01*
Y931950D01*
D02*
G37*
G36*
X1754800Y931950D02*
X1750722D01*
Y930450D01*
X1751032Y928101D01*
X1751938Y925911D01*
X1753381Y924031D01*
X1754800Y922942D01*
Y931950D01*
D02*
G37*
G36*
X1723000Y980060D02*
X1722541Y980000D01*
X1722078D01*
X1721631Y979880D01*
X1721173Y979820D01*
X1720745Y979643D01*
X1720298Y979523D01*
X1719897Y979292D01*
X1719470Y979115D01*
X1719103Y978833D01*
X1718702Y978601D01*
X1718375Y978274D01*
X1718008Y977992D01*
X1717726Y977625D01*
X1717399Y977298D01*
X1717167Y976897D01*
X1716886Y976530D01*
X1716709Y976103D01*
X1716477Y975702D01*
X1716357Y975255D01*
X1716180Y974827D01*
X1716120Y974369D01*
X1716000Y973922D01*
Y973459D01*
X1715940Y973000D01*
X1716000Y972541D01*
Y972078D01*
X1716120Y971631D01*
X1716180Y971173D01*
X1716357Y970745D01*
X1716477Y970298D01*
X1716709Y969897D01*
X1716886Y969470D01*
X1717167Y969103D01*
X1717399Y968702D01*
X1717726Y968375D01*
X1718008Y968008D01*
X1736008Y950007D01*
X1737470Y948885D01*
X1739173Y948180D01*
X1741000Y947940D01*
X1750118D01*
X1751229Y946277D01*
X1751032Y945799D01*
X1750722Y943450D01*
Y941950D01*
X1759800D01*
Y936950D01*
X1764800D01*
Y922942D01*
X1766219Y924031D01*
X1767661Y925911D01*
X1768568Y928101D01*
X1768878Y930450D01*
Y936919D01*
X1770878Y937748D01*
X1771126Y937499D01*
X1773056Y936700D01*
X1775144D01*
X1777074Y937499D01*
X1778551Y938976D01*
X1779350Y940906D01*
Y942994D01*
X1778551Y944924D01*
X1777535Y945940D01*
X1778187Y947940D01*
X1800076D01*
X1813940Y934075D01*
Y879924D01*
X1803008Y868992D01*
X1801886Y867530D01*
X1801180Y865827D01*
X1800940Y864000D01*
X1801101Y862774D01*
X1799282Y861765D01*
X1733523Y927523D01*
X1732366Y928297D01*
X1731000Y928569D01*
X1681003D01*
X1680332Y929239D01*
X1678495Y930000D01*
X1676505D01*
X1674668Y929239D01*
X1673261Y927832D01*
X1672500Y925995D01*
Y924005D01*
X1673261Y922168D01*
X1674668Y920761D01*
X1676505Y920000D01*
X1678495D01*
X1680332Y920761D01*
X1681003Y921431D01*
X1729522D01*
X1796537Y854416D01*
X1795772Y852569D01*
X1783478D01*
X1761023Y875023D01*
X1759866Y875797D01*
X1758500Y876069D01*
X1681003D01*
X1680332Y876739D01*
X1678495Y877500D01*
X1676505D01*
X1674668Y876739D01*
X1673261Y875332D01*
X1672500Y873495D01*
Y871505D01*
X1673261Y869668D01*
X1674668Y868261D01*
X1676505Y867500D01*
X1678495D01*
X1680332Y868261D01*
X1681003Y868931D01*
X1757022D01*
X1779477Y846477D01*
X1780634Y845703D01*
X1782000Y845431D01*
X1820522D01*
X1857431Y808522D01*
Y676478D01*
X1842477Y661523D01*
X1841703Y660366D01*
X1841431Y659000D01*
Y627000D01*
X1841703Y625634D01*
X1842477Y624477D01*
X1850477Y616477D01*
X1851634Y615703D01*
X1853000Y615431D01*
X1871497D01*
X1872168Y614761D01*
X1874005Y614000D01*
X1875995D01*
X1877832Y614761D01*
X1879239Y616168D01*
X1880000Y618005D01*
Y619995D01*
X1879239Y621832D01*
X1877832Y623239D01*
X1875995Y624000D01*
X1874005D01*
X1872168Y623239D01*
X1871497Y622569D01*
X1854478D01*
X1848569Y628478D01*
Y657522D01*
X1863523Y672477D01*
X1864297Y673634D01*
X1864569Y675000D01*
Y810000D01*
X1864297Y811366D01*
X1863523Y812523D01*
X1826463Y849584D01*
X1827228Y851431D01*
X1831497D01*
X1832168Y850761D01*
X1834005Y850000D01*
X1835995D01*
X1837832Y850761D01*
X1839239Y852168D01*
X1840000Y854005D01*
Y855995D01*
X1839239Y857832D01*
X1837832Y859239D01*
X1835995Y860000D01*
X1834005D01*
X1832168Y859239D01*
X1831497Y858569D01*
X1815382D01*
X1814553Y860569D01*
X1825992Y872008D01*
X1827115Y873470D01*
X1827820Y875173D01*
X1828060Y877000D01*
Y935752D01*
X1830046Y937036D01*
X1830856Y936700D01*
X1832944D01*
X1834874Y937499D01*
X1835122Y937748D01*
X1837122Y936919D01*
Y930450D01*
X1837432Y928101D01*
X1838338Y925911D01*
X1839781Y924031D01*
X1841200Y922942D01*
Y936950D01*
Y950958D01*
X1839781Y949869D01*
X1838338Y947989D01*
X1837687Y946416D01*
X1836009Y945837D01*
X1835421Y945853D01*
X1834874Y946401D01*
X1832944Y947200D01*
X1830856D01*
X1828926Y946401D01*
X1827449Y944924D01*
X1826992Y943821D01*
X1824912Y943215D01*
X1824750Y943235D01*
X1807992Y959992D01*
X1806530Y961115D01*
X1804827Y961820D01*
X1803000Y962060D01*
X1743925D01*
X1727993Y977992D01*
X1727625Y978274D01*
X1727298Y978601D01*
X1726897Y978833D01*
X1726530Y979115D01*
X1726103Y979292D01*
X1725702Y979523D01*
X1725255Y979643D01*
X1724827Y979820D01*
X1724369Y979880D01*
X1723922Y980000D01*
X1723459D01*
X1723000Y980060D01*
D02*
G37*
G36*
X1579035Y907414D02*
X1577045D01*
X1575208Y906653D01*
X1573801Y905246D01*
X1573040Y903409D01*
Y901419D01*
X1573801Y899582D01*
X1575208Y898175D01*
X1577045Y897414D01*
X1579035D01*
X1580872Y898175D01*
X1582279Y899582D01*
X1583040Y901419D01*
Y903409D01*
X1582279Y905246D01*
X1580872Y906653D01*
X1579035Y907414D01*
D02*
G37*
G36*
X1432995Y899000D02*
X1431005D01*
X1429168Y898239D01*
X1427761Y896832D01*
X1427000Y894995D01*
Y893006D01*
X1427761Y891168D01*
X1428122Y890807D01*
X1428994Y889500D01*
X1428122Y888193D01*
X1427761Y887832D01*
X1427000Y885995D01*
Y884005D01*
X1427761Y882168D01*
X1429168Y880761D01*
X1430365Y880265D01*
X1431107Y879503D01*
X1431416Y878000D01*
X1431000Y876995D01*
Y875005D01*
X1431761Y873168D01*
X1433168Y871761D01*
X1435005Y871000D01*
X1436995D01*
X1438832Y871761D01*
X1439193Y872122D01*
X1440500Y872993D01*
X1441807Y872122D01*
X1442168Y871761D01*
X1444005Y871000D01*
X1445995D01*
X1447832Y871761D01*
X1449239Y873168D01*
X1450000Y875005D01*
Y876995D01*
X1449239Y878832D01*
X1447832Y880239D01*
X1445995Y881000D01*
X1444005D01*
X1442168Y880239D01*
X1441807Y879878D01*
X1440500Y879007D01*
X1439193Y879878D01*
X1438832Y880239D01*
X1437634Y880735D01*
X1436893Y881497D01*
X1436584Y883000D01*
X1437000Y884005D01*
Y885995D01*
X1436239Y887832D01*
X1435878Y888193D01*
X1435007Y889500D01*
X1435878Y890807D01*
X1436239Y891168D01*
X1437000Y893006D01*
Y894995D01*
X1436239Y896832D01*
X1434832Y898239D01*
X1432995Y899000D01*
D02*
G37*
G36*
X1426245Y958500D02*
X1424255D01*
X1422418Y957739D01*
X1421011Y956332D01*
X1420250Y954495D01*
Y953547D01*
X1412099Y945396D01*
X1411325Y944238D01*
X1411054Y942872D01*
Y871128D01*
X1411325Y869762D01*
X1412099Y868604D01*
X1419977Y860727D01*
X1421134Y859953D01*
X1422500Y859681D01*
X1534250D01*
X1535616Y859953D01*
X1536773Y860727D01*
X1543047Y867000D01*
X1543994D01*
X1545832Y867761D01*
X1547239Y869168D01*
X1548000Y871005D01*
Y872995D01*
X1547239Y874832D01*
X1545832Y876239D01*
X1543994Y877000D01*
X1542005D01*
X1540168Y876239D01*
X1538761Y874832D01*
X1538000Y872995D01*
Y872047D01*
X1532772Y866819D01*
X1423978D01*
X1418191Y872606D01*
Y941394D01*
X1425297Y948500D01*
X1426245D01*
X1428082Y949261D01*
X1429489Y950668D01*
X1430250Y952505D01*
Y954495D01*
X1429489Y956332D01*
X1428082Y957739D01*
X1426245Y958500D01*
D02*
G37*
G36*
X1408994Y858000D02*
X1407005D01*
X1405168Y857239D01*
X1404807Y856878D01*
X1403500Y856006D01*
X1402193Y856878D01*
X1401832Y857239D01*
X1399995Y858000D01*
X1398005D01*
X1396168Y857239D01*
X1394761Y855832D01*
X1394000Y853995D01*
Y852005D01*
X1394761Y850168D01*
X1395122Y849807D01*
X1395993Y848500D01*
X1395122Y847193D01*
X1394761Y846832D01*
X1394000Y844995D01*
Y843005D01*
X1394761Y841168D01*
X1395027Y840902D01*
X1394923Y840291D01*
X1394586Y839414D01*
X1393709Y839077D01*
X1393098Y838973D01*
X1392832Y839239D01*
X1390995Y840000D01*
X1389005D01*
X1387168Y839239D01*
X1385761Y837832D01*
X1385000Y835995D01*
Y834005D01*
X1385761Y832168D01*
X1386122Y831807D01*
X1386994Y830500D01*
X1386122Y829193D01*
X1385761Y828832D01*
X1385000Y826995D01*
Y825005D01*
X1385761Y823168D01*
X1387168Y821761D01*
X1389005Y821000D01*
X1390995D01*
X1392832Y821761D01*
X1393193Y822122D01*
X1394500Y822994D01*
X1395807Y822122D01*
X1396168Y821761D01*
X1398005Y821000D01*
X1399995D01*
X1401832Y821761D01*
X1402193Y822122D01*
X1403500Y822994D01*
X1404807Y822122D01*
X1405168Y821761D01*
X1407005Y821000D01*
X1408994D01*
X1410832Y821761D01*
X1412239Y823168D01*
X1413000Y825005D01*
Y826995D01*
X1412239Y828832D01*
X1411878Y829193D01*
X1411006Y830500D01*
X1411878Y831807D01*
X1412239Y832168D01*
X1413000Y834005D01*
Y835995D01*
X1412239Y837832D01*
X1411878Y838193D01*
X1411006Y839500D01*
X1411878Y840807D01*
X1412239Y841168D01*
X1413000Y843005D01*
Y844995D01*
X1412239Y846832D01*
X1411878Y847193D01*
X1411006Y848500D01*
X1411878Y849807D01*
X1412239Y850168D01*
X1413000Y852005D01*
Y853995D01*
X1412239Y855832D01*
X1410832Y857239D01*
X1408994Y858000D01*
D02*
G37*
G36*
X1864995Y853000D02*
X1863005D01*
X1861168Y852239D01*
X1860000Y851071D01*
X1858832Y852239D01*
X1856995Y853000D01*
X1855005D01*
X1853168Y852239D01*
X1851761Y850832D01*
X1851000Y848995D01*
Y847005D01*
X1851761Y845168D01*
X1852929Y844000D01*
X1851761Y842832D01*
X1851000Y840995D01*
Y839005D01*
X1851761Y837168D01*
X1853168Y835761D01*
X1855005Y835000D01*
X1856995D01*
X1858832Y835761D01*
X1860000Y836929D01*
X1861168Y835761D01*
X1863005Y835000D01*
X1864995D01*
X1866832Y835761D01*
X1868239Y837168D01*
X1869000Y839005D01*
Y840995D01*
X1868239Y842832D01*
X1867071Y844000D01*
X1868239Y845168D01*
X1869000Y847005D01*
Y848995D01*
X1868239Y850832D01*
X1866832Y852239D01*
X1864995Y853000D01*
D02*
G37*
G36*
X1812995Y843000D02*
X1811005D01*
X1809168Y842239D01*
X1808000Y841071D01*
X1806832Y842239D01*
X1804995Y843000D01*
X1803005D01*
X1801168Y842239D01*
X1799761Y840832D01*
X1799000Y838995D01*
Y837005D01*
X1799761Y835168D01*
X1801168Y833761D01*
X1803005Y833000D01*
X1803091D01*
Y828267D01*
X1800133Y825309D01*
X1688517D01*
X1688517Y825309D01*
X1687347Y825076D01*
X1686355Y824413D01*
X1670387Y808446D01*
X1669724Y807453D01*
X1669491Y806283D01*
X1669491Y806283D01*
Y715967D01*
X1669491Y715967D01*
X1669724Y714797D01*
X1670387Y713804D01*
X1682971Y701221D01*
X1682971Y701221D01*
X1687454Y696737D01*
X1687455Y696737D01*
X1688447Y696074D01*
X1689617Y695841D01*
X1689617Y695841D01*
X1709500D01*
Y695755D01*
X1710261Y693918D01*
X1711668Y692511D01*
X1713505Y691750D01*
X1715495D01*
X1717332Y692511D01*
X1718739Y693918D01*
X1719500Y695755D01*
Y697745D01*
X1718739Y699582D01*
X1717571Y700750D01*
X1718739Y701918D01*
X1719500Y703755D01*
Y705745D01*
X1718739Y707582D01*
X1717332Y708989D01*
X1715495Y709750D01*
X1713505D01*
X1711668Y708989D01*
X1710261Y707582D01*
X1709500Y705745D01*
Y705659D01*
X1692417D01*
X1679309Y718767D01*
Y803483D01*
X1691317Y815491D01*
X1802932D01*
X1802933Y815491D01*
X1804103Y815724D01*
X1805096Y816387D01*
X1812013Y823305D01*
X1812013Y823305D01*
X1812676Y824297D01*
X1812909Y825467D01*
X1812909Y825468D01*
Y833000D01*
X1812995D01*
X1814832Y833761D01*
X1816239Y835168D01*
X1817000Y837005D01*
Y838995D01*
X1816239Y840832D01*
X1814832Y842239D01*
X1812995Y843000D01*
D02*
G37*
G36*
X1235995Y851000D02*
X1234005D01*
X1232168Y850239D01*
X1230761Y848832D01*
X1230000Y846995D01*
Y845005D01*
X1230761Y843168D01*
X1232168Y841761D01*
X1234005Y841000D01*
X1235995D01*
X1237832Y841761D01*
X1239239Y843168D01*
X1240000Y845005D01*
Y846995D01*
X1239239Y848832D01*
X1237832Y850239D01*
X1235995Y851000D01*
D02*
G37*
G36*
X1215995D02*
X1214005D01*
X1212168Y850239D01*
X1210761Y848832D01*
X1210000Y846995D01*
Y845005D01*
X1210761Y843168D01*
X1212168Y841761D01*
X1214005Y841000D01*
X1215995D01*
X1217832Y841761D01*
X1219239Y843168D01*
X1220000Y845005D01*
Y846995D01*
X1219239Y848832D01*
X1217832Y850239D01*
X1215995Y851000D01*
D02*
G37*
G36*
X1195995D02*
X1194005D01*
X1192168Y850239D01*
X1190761Y848832D01*
X1190000Y846995D01*
Y845005D01*
X1190761Y843168D01*
X1192168Y841761D01*
X1194005Y841000D01*
X1195995D01*
X1197832Y841761D01*
X1199239Y843168D01*
X1200000Y845005D01*
Y846995D01*
X1199239Y848832D01*
X1197832Y850239D01*
X1195995Y851000D01*
D02*
G37*
G36*
X1175995D02*
X1174005D01*
X1172168Y850239D01*
X1170761Y848832D01*
X1170000Y846995D01*
Y845005D01*
X1170761Y843168D01*
X1172168Y841761D01*
X1174005Y841000D01*
X1175995D01*
X1177832Y841761D01*
X1179239Y843168D01*
X1180000Y845005D01*
Y846995D01*
X1179239Y848832D01*
X1177832Y850239D01*
X1175995Y851000D01*
D02*
G37*
G36*
X1155995D02*
X1154005D01*
X1152168Y850239D01*
X1150761Y848832D01*
X1150000Y846995D01*
Y845005D01*
X1150761Y843168D01*
X1152168Y841761D01*
X1154005Y841000D01*
X1155995D01*
X1157832Y841761D01*
X1159239Y843168D01*
X1160000Y845005D01*
Y846995D01*
X1159239Y848832D01*
X1157832Y850239D01*
X1155995Y851000D01*
D02*
G37*
G36*
X1225995Y841000D02*
X1224005D01*
X1222168Y840239D01*
X1220761Y838832D01*
X1220000Y836995D01*
Y835005D01*
X1220761Y833168D01*
X1222168Y831761D01*
X1224005Y831000D01*
X1225995D01*
X1227832Y831761D01*
X1229239Y833168D01*
X1230000Y835005D01*
Y836995D01*
X1229239Y838832D01*
X1227832Y840239D01*
X1225995Y841000D01*
D02*
G37*
G36*
X1205995D02*
X1204005D01*
X1202168Y840239D01*
X1200761Y838832D01*
X1200000Y836995D01*
Y835005D01*
X1200761Y833168D01*
X1202168Y831761D01*
X1204005Y831000D01*
X1205995D01*
X1207832Y831761D01*
X1209239Y833168D01*
X1210000Y835005D01*
Y836995D01*
X1209239Y838832D01*
X1207832Y840239D01*
X1205995Y841000D01*
D02*
G37*
G36*
X1185995D02*
X1184005D01*
X1182168Y840239D01*
X1180761Y838832D01*
X1180000Y836995D01*
Y835005D01*
X1180761Y833168D01*
X1182168Y831761D01*
X1184005Y831000D01*
X1185995D01*
X1187832Y831761D01*
X1189239Y833168D01*
X1190000Y835005D01*
Y836995D01*
X1189239Y838832D01*
X1187832Y840239D01*
X1185995Y841000D01*
D02*
G37*
G36*
X1165995D02*
X1164005D01*
X1162168Y840239D01*
X1160761Y838832D01*
X1160000Y836995D01*
Y835005D01*
X1160761Y833168D01*
X1162168Y831761D01*
X1164005Y831000D01*
X1165995D01*
X1167832Y831761D01*
X1169239Y833168D01*
X1170000Y835005D01*
Y836995D01*
X1169239Y838832D01*
X1167832Y840239D01*
X1165995Y841000D01*
D02*
G37*
G36*
X1145995D02*
X1144005D01*
X1142168Y840239D01*
X1140761Y838832D01*
X1140000Y836995D01*
Y835005D01*
X1140761Y833168D01*
X1142168Y831761D01*
X1144005Y831000D01*
X1145995D01*
X1147832Y831761D01*
X1149239Y833168D01*
X1150000Y835005D01*
Y836995D01*
X1149239Y838832D01*
X1147832Y840239D01*
X1145995Y841000D01*
D02*
G37*
G36*
X1235995Y831000D02*
X1234005D01*
X1232168Y830239D01*
X1230761Y828832D01*
X1230000Y826995D01*
Y825005D01*
X1230761Y823168D01*
X1232168Y821761D01*
X1234005Y821000D01*
X1235995D01*
X1237832Y821761D01*
X1239239Y823168D01*
X1240000Y825005D01*
Y826995D01*
X1239239Y828832D01*
X1237832Y830239D01*
X1235995Y831000D01*
D02*
G37*
G36*
X1215995D02*
X1214005D01*
X1212168Y830239D01*
X1210761Y828832D01*
X1210000Y826995D01*
Y825005D01*
X1210761Y823168D01*
X1212168Y821761D01*
X1214005Y821000D01*
X1215995D01*
X1217832Y821761D01*
X1219239Y823168D01*
X1220000Y825005D01*
Y826995D01*
X1219239Y828832D01*
X1217832Y830239D01*
X1215995Y831000D01*
D02*
G37*
G36*
X1195995D02*
X1194005D01*
X1192168Y830239D01*
X1190761Y828832D01*
X1190000Y826995D01*
Y825005D01*
X1190761Y823168D01*
X1192168Y821761D01*
X1194005Y821000D01*
X1195995D01*
X1197832Y821761D01*
X1199239Y823168D01*
X1200000Y825005D01*
Y826995D01*
X1199239Y828832D01*
X1197832Y830239D01*
X1195995Y831000D01*
D02*
G37*
G36*
X1175995D02*
X1174005D01*
X1172168Y830239D01*
X1170761Y828832D01*
X1170000Y826995D01*
Y825005D01*
X1170761Y823168D01*
X1172168Y821761D01*
X1174005Y821000D01*
X1175995D01*
X1177832Y821761D01*
X1179239Y823168D01*
X1180000Y825005D01*
Y826995D01*
X1179239Y828832D01*
X1177832Y830239D01*
X1175995Y831000D01*
D02*
G37*
G36*
X1155995D02*
X1154005D01*
X1152168Y830239D01*
X1150761Y828832D01*
X1150000Y826995D01*
Y825005D01*
X1150761Y823168D01*
X1152168Y821761D01*
X1154005Y821000D01*
X1155995D01*
X1157832Y821761D01*
X1159239Y823168D01*
X1160000Y825005D01*
Y826995D01*
X1159239Y828832D01*
X1157832Y830239D01*
X1155995Y831000D01*
D02*
G37*
G36*
X1225995Y821000D02*
X1224005D01*
X1222168Y820239D01*
X1220761Y818832D01*
X1220000Y816995D01*
Y815005D01*
X1220761Y813168D01*
X1222168Y811761D01*
X1224005Y811000D01*
X1225995D01*
X1227832Y811761D01*
X1229239Y813168D01*
X1230000Y815005D01*
Y816995D01*
X1229239Y818832D01*
X1227832Y820239D01*
X1225995Y821000D01*
D02*
G37*
G36*
X1205994D02*
X1204005D01*
X1202168Y820239D01*
X1200761Y818832D01*
X1200000Y816995D01*
Y815005D01*
X1200761Y813168D01*
X1202168Y811761D01*
X1204005Y811000D01*
X1205994D01*
X1207832Y811761D01*
X1209239Y813168D01*
X1210000Y815005D01*
Y816995D01*
X1209239Y818832D01*
X1207832Y820239D01*
X1205994Y821000D01*
D02*
G37*
G36*
X1185995D02*
X1184005D01*
X1182168Y820239D01*
X1180761Y818832D01*
X1180000Y816995D01*
Y815005D01*
X1180761Y813168D01*
X1182168Y811761D01*
X1184005Y811000D01*
X1185995D01*
X1187832Y811761D01*
X1189239Y813168D01*
X1190000Y815005D01*
Y816995D01*
X1189239Y818832D01*
X1187832Y820239D01*
X1185995Y821000D01*
D02*
G37*
G36*
X1165994D02*
X1164005D01*
X1162168Y820239D01*
X1160761Y818832D01*
X1160000Y816995D01*
Y815005D01*
X1160761Y813168D01*
X1162168Y811761D01*
X1164005Y811000D01*
X1165994D01*
X1167832Y811761D01*
X1169239Y813168D01*
X1170000Y815005D01*
Y816995D01*
X1169239Y818832D01*
X1167832Y820239D01*
X1165994Y821000D01*
D02*
G37*
G36*
X1145995D02*
X1144005D01*
X1142168Y820239D01*
X1140761Y818832D01*
X1140000Y816995D01*
Y815005D01*
X1140761Y813168D01*
X1142168Y811761D01*
X1144005Y811000D01*
X1145995D01*
X1147832Y811761D01*
X1149239Y813168D01*
X1150000Y815005D01*
Y816995D01*
X1149239Y818832D01*
X1147832Y820239D01*
X1145995Y821000D01*
D02*
G37*
G36*
X1235995Y811000D02*
X1234005D01*
X1232168Y810239D01*
X1230761Y808832D01*
X1230000Y806995D01*
Y805005D01*
X1230761Y803168D01*
X1232168Y801761D01*
X1234005Y801000D01*
X1235995D01*
X1237832Y801761D01*
X1239239Y803168D01*
X1240000Y805005D01*
Y806995D01*
X1239239Y808832D01*
X1237832Y810239D01*
X1235995Y811000D01*
D02*
G37*
G36*
X1215995D02*
X1214005D01*
X1212168Y810239D01*
X1210761Y808832D01*
X1210000Y806995D01*
Y805005D01*
X1210761Y803168D01*
X1212168Y801761D01*
X1214005Y801000D01*
X1215995D01*
X1217832Y801761D01*
X1219239Y803168D01*
X1220000Y805005D01*
Y806995D01*
X1219239Y808832D01*
X1217832Y810239D01*
X1215995Y811000D01*
D02*
G37*
G36*
X1195995D02*
X1194005D01*
X1192168Y810239D01*
X1190761Y808832D01*
X1190000Y806995D01*
Y805005D01*
X1190761Y803168D01*
X1192168Y801761D01*
X1194005Y801000D01*
X1195995D01*
X1197832Y801761D01*
X1199239Y803168D01*
X1200000Y805005D01*
Y806995D01*
X1199239Y808832D01*
X1197832Y810239D01*
X1195995Y811000D01*
D02*
G37*
G36*
X1175995D02*
X1174005D01*
X1172168Y810239D01*
X1170761Y808832D01*
X1170000Y806995D01*
Y805005D01*
X1170761Y803168D01*
X1172168Y801761D01*
X1174005Y801000D01*
X1175995D01*
X1177832Y801761D01*
X1179239Y803168D01*
X1180000Y805005D01*
Y806995D01*
X1179239Y808832D01*
X1177832Y810239D01*
X1175995Y811000D01*
D02*
G37*
G36*
X1155995D02*
X1154005D01*
X1152168Y810239D01*
X1150761Y808832D01*
X1150000Y806995D01*
Y805005D01*
X1150761Y803168D01*
X1152168Y801761D01*
X1154005Y801000D01*
X1155995D01*
X1157832Y801761D01*
X1159239Y803168D01*
X1160000Y805005D01*
Y806995D01*
X1159239Y808832D01*
X1157832Y810239D01*
X1155995Y811000D01*
D02*
G37*
G36*
X1323995Y845000D02*
X1322005D01*
X1320168Y844239D01*
X1318761Y842832D01*
X1318000Y840995D01*
Y839005D01*
X1318761Y837168D01*
X1319431Y836497D01*
Y826478D01*
X1315522Y822569D01*
X1281000D01*
X1279634Y822297D01*
X1278477Y821523D01*
X1270477Y813523D01*
X1269703Y812366D01*
X1269431Y811000D01*
Y800502D01*
X1268761Y799832D01*
X1268000Y797995D01*
Y796005D01*
X1268761Y794168D01*
X1270168Y792761D01*
X1272005Y792000D01*
X1273995D01*
X1275832Y792761D01*
X1277239Y794168D01*
X1278000Y796005D01*
Y797995D01*
X1277239Y799832D01*
X1276569Y800502D01*
Y809522D01*
X1282478Y815431D01*
X1317000D01*
X1318366Y815703D01*
X1319523Y816477D01*
X1325523Y822477D01*
X1326297Y823634D01*
X1326569Y825000D01*
Y836497D01*
X1327239Y837168D01*
X1328000Y839005D01*
Y840995D01*
X1327239Y842832D01*
X1325832Y844239D01*
X1323995Y845000D01*
D02*
G37*
G36*
X1820995Y798000D02*
X1819005D01*
X1817168Y797239D01*
X1816497Y796569D01*
X1739000D01*
X1737634Y796297D01*
X1736477Y795523D01*
X1727477Y786523D01*
X1726703Y785366D01*
X1726431Y784000D01*
Y547503D01*
X1725761Y546832D01*
X1725000Y544995D01*
Y543005D01*
X1725761Y541168D01*
X1727168Y539761D01*
X1729005Y539000D01*
X1730995D01*
X1732832Y539761D01*
X1734239Y541168D01*
X1735000Y543005D01*
Y544995D01*
X1734239Y546832D01*
X1733569Y547503D01*
Y782522D01*
X1740478Y789431D01*
X1816497D01*
X1817168Y788761D01*
X1819005Y788000D01*
X1820995D01*
X1822832Y788761D01*
X1824239Y790168D01*
X1825000Y792005D01*
Y793995D01*
X1824239Y795832D01*
X1822832Y797239D01*
X1820995Y798000D01*
D02*
G37*
G36*
X1048230Y731058D02*
X1047462Y730825D01*
X1044856Y729432D01*
X1042572Y727558D01*
X1040698Y725274D01*
X1039968Y723909D01*
X1037650Y723815D01*
X1036388Y725459D01*
X1033882Y727382D01*
X1030963Y728591D01*
X1027830Y729004D01*
X1024697Y728591D01*
X1021778Y727382D01*
X1019271Y725459D01*
X1017348Y722952D01*
X1016139Y720033D01*
X1015726Y716900D01*
Y706900D01*
X1016139Y703767D01*
X1017348Y700848D01*
X1019271Y698342D01*
X1021778Y696418D01*
X1024697Y695209D01*
X1027830Y694797D01*
X1030963Y695209D01*
X1033882Y696418D01*
X1036388Y698342D01*
X1037650Y699985D01*
X1039968Y699891D01*
X1040698Y698526D01*
X1042572Y696242D01*
X1044856Y694368D01*
X1047462Y692975D01*
X1048230Y692742D01*
Y711900D01*
Y731058D01*
D02*
G37*
G36*
X946630Y731058D02*
X945862Y730825D01*
X943256Y729432D01*
X940972Y727558D01*
X939098Y725274D01*
X938368Y723909D01*
X936050Y723815D01*
X934789Y725459D01*
X932282Y727382D01*
X929363Y728591D01*
X926230Y729004D01*
X923097Y728591D01*
X920178Y727382D01*
X917672Y725459D01*
X915748Y722952D01*
X914539Y720033D01*
X914127Y716900D01*
Y706900D01*
X914539Y703767D01*
X915748Y700848D01*
X917672Y698342D01*
X920178Y696418D01*
X923097Y695209D01*
X926230Y694797D01*
X929363Y695209D01*
X932282Y696418D01*
X934789Y698342D01*
X936050Y699985D01*
X938368Y699891D01*
X939098Y698526D01*
X940972Y696242D01*
X943256Y694368D01*
X945862Y692975D01*
X946630Y692742D01*
Y711900D01*
Y731058D01*
D02*
G37*
G36*
X844190Y731058D02*
X843422Y730825D01*
X840816Y729432D01*
X838532Y727558D01*
X836658Y725274D01*
X835928Y723909D01*
X833610Y723815D01*
X832349Y725459D01*
X829842Y727382D01*
X826923Y728591D01*
X823790Y729004D01*
X820657Y728591D01*
X817738Y727382D01*
X815231Y725459D01*
X813308Y722952D01*
X812099Y720033D01*
X811686Y716900D01*
Y706900D01*
X812099Y703767D01*
X813308Y700848D01*
X815231Y698342D01*
X817738Y696418D01*
X820657Y695209D01*
X823790Y694797D01*
X826923Y695209D01*
X829842Y696418D01*
X832349Y698342D01*
X833610Y699985D01*
X835928Y699891D01*
X836658Y698526D01*
X838532Y696242D01*
X840816Y694368D01*
X843422Y692975D01*
X844190Y692742D01*
Y711900D01*
Y731058D01*
D02*
G37*
G36*
X742190D02*
X741422Y730825D01*
X738816Y729432D01*
X736532Y727558D01*
X734658Y725274D01*
X733928Y723909D01*
X731610Y723815D01*
X730349Y725459D01*
X727842Y727382D01*
X724923Y728591D01*
X721790Y729004D01*
X718657Y728591D01*
X715738Y727382D01*
X713232Y725459D01*
X711308Y722952D01*
X710099Y720033D01*
X709687Y716900D01*
Y706900D01*
X710099Y703767D01*
X711308Y700848D01*
X713232Y698342D01*
X715738Y696418D01*
X718657Y695209D01*
X721790Y694797D01*
X724923Y695209D01*
X727842Y696418D01*
X730349Y698342D01*
X731610Y699985D01*
X733928Y699891D01*
X734658Y698526D01*
X736532Y696242D01*
X738816Y694368D01*
X741422Y692975D01*
X742190Y692742D01*
Y711900D01*
Y731058D01*
D02*
G37*
G36*
X641190Y731058D02*
X640422Y730825D01*
X637816Y729432D01*
X635532Y727558D01*
X633658Y725274D01*
X632928Y723909D01*
X630610Y723815D01*
X629349Y725459D01*
X626842Y727382D01*
X623923Y728591D01*
X620790Y729004D01*
X617657Y728591D01*
X614738Y727382D01*
X612231Y725459D01*
X610308Y722952D01*
X609099Y720033D01*
X608686Y716900D01*
Y706900D01*
X609099Y703767D01*
X610308Y700848D01*
X612231Y698342D01*
X614738Y696418D01*
X617657Y695209D01*
X620790Y694797D01*
X623923Y695209D01*
X626842Y696418D01*
X629349Y698342D01*
X630610Y699985D01*
X632928Y699891D01*
X633658Y698526D01*
X635532Y696242D01*
X637816Y694368D01*
X640422Y692975D01*
X641190Y692742D01*
Y711900D01*
Y731058D01*
D02*
G37*
G36*
X469250Y731058D02*
X468482Y730825D01*
X465876Y729432D01*
X463592Y727558D01*
X461718Y725274D01*
X460988Y723909D01*
X458670Y723815D01*
X457408Y725459D01*
X454902Y727382D01*
X451983Y728591D01*
X448850Y729004D01*
X445717Y728591D01*
X442798Y727382D01*
X440291Y725459D01*
X438368Y722952D01*
X437159Y720033D01*
X436746Y716900D01*
Y706900D01*
X437159Y703767D01*
X438368Y700848D01*
X440291Y698342D01*
X442798Y696418D01*
X445717Y695209D01*
X448850Y694797D01*
X451983Y695209D01*
X454902Y696418D01*
X457408Y698342D01*
X458670Y699985D01*
X460988Y699891D01*
X461718Y698526D01*
X463592Y696242D01*
X465876Y694368D01*
X468482Y692975D01*
X469250Y692742D01*
Y711900D01*
Y731058D01*
D02*
G37*
G36*
X367650Y731058D02*
X366882Y730825D01*
X364276Y729432D01*
X361992Y727558D01*
X360118Y725274D01*
X359388Y723909D01*
X357070Y723815D01*
X355808Y725459D01*
X353302Y727382D01*
X350383Y728591D01*
X347250Y729004D01*
X344117Y728591D01*
X341198Y727382D01*
X338691Y725459D01*
X336768Y722952D01*
X335559Y720033D01*
X335146Y716900D01*
Y706900D01*
X335559Y703767D01*
X336768Y700848D01*
X338691Y698342D01*
X341198Y696418D01*
X344117Y695209D01*
X347250Y694797D01*
X350383Y695209D01*
X353302Y696418D01*
X355808Y698342D01*
X357070Y699985D01*
X359388Y699891D01*
X360118Y698526D01*
X361992Y696242D01*
X364276Y694368D01*
X366882Y692975D01*
X367650Y692742D01*
Y711900D01*
Y731058D01*
D02*
G37*
G36*
X265210Y731058D02*
X264442Y730825D01*
X261836Y729432D01*
X259552Y727558D01*
X257678Y725274D01*
X256948Y723909D01*
X254630Y723815D01*
X253369Y725459D01*
X250862Y727382D01*
X247943Y728591D01*
X244810Y729004D01*
X241677Y728591D01*
X238758Y727382D01*
X236252Y725459D01*
X234328Y722952D01*
X233119Y720033D01*
X232707Y716900D01*
Y706900D01*
X233119Y703767D01*
X234328Y700848D01*
X236252Y698342D01*
X238758Y696418D01*
X241677Y695209D01*
X244810Y694797D01*
X247943Y695209D01*
X250862Y696418D01*
X253369Y698342D01*
X254630Y699985D01*
X256948Y699891D01*
X257678Y698526D01*
X259552Y696242D01*
X261836Y694368D01*
X264442Y692975D01*
X265210Y692742D01*
Y711900D01*
Y731058D01*
D02*
G37*
G36*
X163210D02*
X162442Y730825D01*
X159836Y729432D01*
X157552Y727558D01*
X155678Y725274D01*
X154948Y723909D01*
X152630Y723815D01*
X151369Y725459D01*
X148862Y727382D01*
X145943Y728591D01*
X142810Y729004D01*
X139677Y728591D01*
X136758Y727382D01*
X134251Y725459D01*
X132328Y722952D01*
X131119Y720033D01*
X130707Y716900D01*
Y706900D01*
X131119Y703767D01*
X132328Y700848D01*
X134251Y698342D01*
X136758Y696418D01*
X139677Y695209D01*
X142810Y694797D01*
X145943Y695209D01*
X148862Y696418D01*
X151369Y698342D01*
X152630Y699985D01*
X154948Y699891D01*
X155678Y698526D01*
X157552Y696242D01*
X159836Y694368D01*
X162442Y692975D01*
X163210Y692742D01*
Y711900D01*
Y731058D01*
D02*
G37*
G36*
X62210D02*
X61442Y730825D01*
X58836Y729432D01*
X56552Y727558D01*
X54678Y725274D01*
X53948Y723909D01*
X51630Y723815D01*
X50369Y725459D01*
X47862Y727382D01*
X44943Y728591D01*
X41810Y729004D01*
X38677Y728591D01*
X35758Y727382D01*
X33252Y725459D01*
X31328Y722952D01*
X30119Y720033D01*
X29706Y716900D01*
Y706900D01*
X30119Y703767D01*
X31328Y700848D01*
X33252Y698342D01*
X35758Y696418D01*
X38677Y695209D01*
X41810Y694797D01*
X44943Y695209D01*
X47862Y696418D01*
X50369Y698342D01*
X51630Y699985D01*
X53948Y699891D01*
X54678Y698526D01*
X56552Y696242D01*
X58836Y694368D01*
X61442Y692975D01*
X62210Y692742D01*
Y711900D01*
Y731058D01*
D02*
G37*
G36*
X1058230Y731058D02*
Y711900D01*
Y692742D01*
X1058998Y692975D01*
X1061604Y694368D01*
X1063888Y696242D01*
X1065762Y698526D01*
X1066492Y699891D01*
X1068810Y699985D01*
X1070071Y698342D01*
X1072578Y696418D01*
X1075497Y695209D01*
X1078630Y694797D01*
X1081763Y695209D01*
X1084682Y696418D01*
X1087188Y698342D01*
X1089112Y700848D01*
X1090321Y703767D01*
X1090734Y706900D01*
Y716900D01*
X1090321Y720033D01*
X1089112Y722952D01*
X1087188Y725459D01*
X1084682Y727382D01*
X1081763Y728591D01*
X1078630Y729004D01*
X1075497Y728591D01*
X1072578Y727382D01*
X1070071Y725459D01*
X1068810Y723815D01*
X1066492Y723909D01*
X1065762Y725274D01*
X1063888Y727558D01*
X1061604Y729432D01*
X1058998Y730825D01*
X1058230Y731058D01*
D02*
G37*
G36*
X956630D02*
Y711900D01*
Y692742D01*
X957398Y692975D01*
X960004Y694368D01*
X962288Y696242D01*
X964162Y698526D01*
X964892Y699891D01*
X967210Y699985D01*
X968472Y698342D01*
X970978Y696418D01*
X973897Y695209D01*
X977030Y694797D01*
X980163Y695209D01*
X983082Y696418D01*
X985589Y698342D01*
X987512Y700848D01*
X988721Y703767D01*
X989134Y706900D01*
Y716900D01*
X988721Y720033D01*
X987512Y722952D01*
X985589Y725459D01*
X983082Y727382D01*
X980163Y728591D01*
X977030Y729004D01*
X973897Y728591D01*
X970978Y727382D01*
X968472Y725459D01*
X967210Y723815D01*
X964892Y723909D01*
X964162Y725274D01*
X962288Y727558D01*
X960004Y729432D01*
X957398Y730825D01*
X956630Y731058D01*
D02*
G37*
G36*
X854190D02*
Y711900D01*
Y692742D01*
X854958Y692975D01*
X857564Y694368D01*
X859848Y696242D01*
X861722Y698526D01*
X862452Y699891D01*
X864770Y699985D01*
X866031Y698342D01*
X868538Y696418D01*
X871457Y695209D01*
X874590Y694797D01*
X877723Y695209D01*
X880642Y696418D01*
X883149Y698342D01*
X885072Y700848D01*
X886281Y703767D01*
X886694Y706900D01*
Y716900D01*
X886281Y720033D01*
X885072Y722952D01*
X883149Y725459D01*
X880642Y727382D01*
X877723Y728591D01*
X874590Y729004D01*
X871457Y728591D01*
X868538Y727382D01*
X866031Y725459D01*
X864770Y723815D01*
X862452Y723909D01*
X861722Y725274D01*
X859848Y727558D01*
X857564Y729432D01*
X854958Y730825D01*
X854190Y731058D01*
D02*
G37*
G36*
X752190D02*
Y711900D01*
Y692742D01*
X752958Y692975D01*
X755564Y694368D01*
X757848Y696242D01*
X759722Y698526D01*
X760452Y699891D01*
X762770Y699985D01*
X764032Y698342D01*
X766538Y696418D01*
X769457Y695209D01*
X772590Y694797D01*
X775723Y695209D01*
X778642Y696418D01*
X781149Y698342D01*
X783072Y700848D01*
X784281Y703767D01*
X784694Y706900D01*
Y716900D01*
X784281Y720033D01*
X783072Y722952D01*
X781149Y725459D01*
X778642Y727382D01*
X775723Y728591D01*
X772590Y729004D01*
X769457Y728591D01*
X766538Y727382D01*
X764032Y725459D01*
X762770Y723815D01*
X760452Y723909D01*
X759722Y725274D01*
X757848Y727558D01*
X755564Y729432D01*
X752958Y730825D01*
X752190Y731058D01*
D02*
G37*
G36*
X651190D02*
Y711900D01*
Y692742D01*
X651958Y692975D01*
X654564Y694368D01*
X656848Y696242D01*
X658722Y698526D01*
X659452Y699891D01*
X661770Y699985D01*
X663031Y698342D01*
X665538Y696418D01*
X668457Y695209D01*
X671590Y694797D01*
X674723Y695209D01*
X677642Y696418D01*
X680149Y698342D01*
X682072Y700848D01*
X683281Y703767D01*
X683694Y706900D01*
Y716900D01*
X683281Y720033D01*
X682072Y722952D01*
X680149Y725459D01*
X677642Y727382D01*
X674723Y728591D01*
X671590Y729004D01*
X668457Y728591D01*
X665538Y727382D01*
X663031Y725459D01*
X661770Y723815D01*
X659452Y723909D01*
X658722Y725274D01*
X656848Y727558D01*
X654564Y729432D01*
X651958Y730825D01*
X651190Y731058D01*
D02*
G37*
G36*
X479250D02*
Y711900D01*
Y692742D01*
X480018Y692975D01*
X482624Y694368D01*
X484908Y696242D01*
X486782Y698526D01*
X487512Y699891D01*
X489830Y699985D01*
X491091Y698342D01*
X493598Y696418D01*
X496517Y695209D01*
X499650Y694797D01*
X502783Y695209D01*
X505702Y696418D01*
X508209Y698342D01*
X510132Y700848D01*
X511341Y703767D01*
X511754Y706900D01*
Y716900D01*
X511341Y720033D01*
X510132Y722952D01*
X508209Y725459D01*
X505702Y727382D01*
X502783Y728591D01*
X499650Y729004D01*
X496517Y728591D01*
X493598Y727382D01*
X491091Y725459D01*
X489830Y723815D01*
X487512Y723909D01*
X486782Y725274D01*
X484908Y727558D01*
X482624Y729432D01*
X480018Y730825D01*
X479250Y731058D01*
D02*
G37*
G36*
X377650D02*
Y711900D01*
Y692742D01*
X378418Y692975D01*
X381024Y694368D01*
X383308Y696242D01*
X385182Y698526D01*
X385912Y699891D01*
X388230Y699985D01*
X389492Y698342D01*
X391998Y696418D01*
X394917Y695209D01*
X398050Y694797D01*
X401183Y695209D01*
X404102Y696418D01*
X406609Y698342D01*
X408532Y700848D01*
X409741Y703767D01*
X410154Y706900D01*
Y716900D01*
X409741Y720033D01*
X408532Y722952D01*
X406609Y725459D01*
X404102Y727382D01*
X401183Y728591D01*
X398050Y729004D01*
X394917Y728591D01*
X391998Y727382D01*
X389492Y725459D01*
X388230Y723815D01*
X385912Y723909D01*
X385182Y725274D01*
X383308Y727558D01*
X381024Y729432D01*
X378418Y730825D01*
X377650Y731058D01*
D02*
G37*
G36*
X275210D02*
Y711900D01*
Y692742D01*
X275978Y692975D01*
X278584Y694368D01*
X280868Y696242D01*
X282742Y698526D01*
X283472Y699891D01*
X285790Y699985D01*
X287052Y698342D01*
X289558Y696418D01*
X292477Y695209D01*
X295610Y694797D01*
X298743Y695209D01*
X301662Y696418D01*
X304169Y698342D01*
X306092Y700848D01*
X307301Y703767D01*
X307714Y706900D01*
Y716900D01*
X307301Y720033D01*
X306092Y722952D01*
X304169Y725459D01*
X301662Y727382D01*
X298743Y728591D01*
X295610Y729004D01*
X292477Y728591D01*
X289558Y727382D01*
X287052Y725459D01*
X285790Y723815D01*
X283472Y723909D01*
X282742Y725274D01*
X280868Y727558D01*
X278584Y729432D01*
X275978Y730825D01*
X275210Y731058D01*
D02*
G37*
G36*
X173210D02*
Y711900D01*
Y692742D01*
X173978Y692975D01*
X176584Y694368D01*
X178868Y696242D01*
X180742Y698526D01*
X181472Y699891D01*
X183790Y699985D01*
X185051Y698342D01*
X187558Y696418D01*
X190477Y695209D01*
X193610Y694797D01*
X196743Y695209D01*
X199662Y696418D01*
X202169Y698342D01*
X204092Y700848D01*
X205301Y703767D01*
X205714Y706900D01*
Y716900D01*
X205301Y720033D01*
X204092Y722952D01*
X202169Y725459D01*
X199662Y727382D01*
X196743Y728591D01*
X193610Y729004D01*
X190477Y728591D01*
X187558Y727382D01*
X185051Y725459D01*
X183790Y723815D01*
X181472Y723909D01*
X180742Y725274D01*
X178868Y727558D01*
X176584Y729432D01*
X173978Y730825D01*
X173210Y731058D01*
D02*
G37*
G36*
X72210D02*
Y711900D01*
Y692742D01*
X72978Y692975D01*
X75584Y694368D01*
X77868Y696242D01*
X79742Y698526D01*
X80472Y699891D01*
X82790Y699985D01*
X84052Y698342D01*
X86558Y696418D01*
X89477Y695209D01*
X92610Y694797D01*
X95743Y695209D01*
X98662Y696418D01*
X101169Y698342D01*
X103092Y700848D01*
X104301Y703767D01*
X104714Y706900D01*
Y716900D01*
X104301Y720033D01*
X103092Y722952D01*
X101169Y725459D01*
X98662Y727382D01*
X95743Y728591D01*
X92610Y729004D01*
X89477Y728591D01*
X86558Y727382D01*
X84052Y725459D01*
X82790Y723815D01*
X80472Y723909D01*
X79742Y725274D01*
X77868Y727558D01*
X75584Y729432D01*
X72978Y730825D01*
X72210Y731058D01*
D02*
G37*
G36*
X1815995Y592500D02*
X1814005D01*
X1812168Y591739D01*
X1810761Y590332D01*
X1810000Y588494D01*
Y586505D01*
X1810761Y584668D01*
X1812168Y583261D01*
X1814005Y582500D01*
X1815995D01*
X1817832Y583261D01*
X1819239Y584668D01*
X1820000Y586505D01*
Y588494D01*
X1819239Y590332D01*
X1817832Y591739D01*
X1815995Y592500D01*
D02*
G37*
G36*
X1813495Y557500D02*
X1811505D01*
X1809668Y556739D01*
X1808261Y555332D01*
X1807500Y553495D01*
Y551506D01*
X1808261Y549668D01*
X1809668Y548261D01*
X1811505Y547500D01*
X1813495D01*
X1815332Y548261D01*
X1816739Y549668D01*
X1817500Y551506D01*
Y553495D01*
X1816739Y555332D01*
X1815332Y556739D01*
X1813495Y557500D01*
D02*
G37*
G36*
X944214Y656800D02*
X942225D01*
X940388Y656039D01*
X938981Y654632D01*
X938220Y652795D01*
Y650805D01*
X938981Y648968D01*
X939651Y648298D01*
Y632530D01*
X939923Y631164D01*
X940697Y630007D01*
X1028477Y542227D01*
X1029634Y541453D01*
X1031000Y541181D01*
X1051497D01*
X1052168Y540511D01*
X1054005Y539750D01*
X1055995D01*
X1057832Y540511D01*
X1059239Y541918D01*
X1060000Y543755D01*
Y545745D01*
X1059239Y547582D01*
X1057832Y548989D01*
X1055995Y549750D01*
X1054005D01*
X1052168Y548989D01*
X1051497Y548319D01*
X1032478D01*
X946788Y634008D01*
Y648298D01*
X947459Y648968D01*
X948220Y650805D01*
Y652795D01*
X947459Y654632D01*
X946052Y656039D01*
X944214Y656800D01*
D02*
G37*
G36*
X739774Y656800D02*
X737785D01*
X735948Y656039D01*
X734541Y654632D01*
X733780Y652795D01*
Y650806D01*
X734541Y648968D01*
X735211Y648298D01*
Y621970D01*
X735483Y620604D01*
X736257Y619447D01*
X813477Y542227D01*
X814634Y541453D01*
X816000Y541181D01*
X836497D01*
X837168Y540511D01*
X839006Y539750D01*
X840995D01*
X842832Y540511D01*
X844239Y541918D01*
X845000Y543755D01*
Y545745D01*
X844239Y547582D01*
X842832Y548989D01*
X840995Y549750D01*
X839006D01*
X837168Y548989D01*
X836497Y548319D01*
X817478D01*
X742349Y623448D01*
Y648298D01*
X743019Y648968D01*
X743780Y650806D01*
Y652795D01*
X743019Y654632D01*
X741612Y656039D01*
X739774Y656800D01*
D02*
G37*
G36*
X466785Y656750D02*
X464795D01*
X462958Y655989D01*
X461551Y654582D01*
X460790Y652745D01*
Y650755D01*
X461551Y648918D01*
X462958Y647511D01*
X464795Y646750D01*
X465743D01*
X570267Y542227D01*
X571424Y541453D01*
X572790Y541181D01*
X601497D01*
X602168Y540511D01*
X604005Y539750D01*
X605994D01*
X607832Y540511D01*
X609239Y541918D01*
X610000Y543755D01*
Y545745D01*
X609239Y547582D01*
X607832Y548989D01*
X605994Y549750D01*
X604005D01*
X602168Y548989D01*
X601497Y548319D01*
X574268D01*
X470790Y651797D01*
Y652745D01*
X470029Y654582D01*
X468622Y655989D01*
X466785Y656750D01*
D02*
G37*
G36*
X262745D02*
X260755D01*
X258918Y655989D01*
X257511Y654582D01*
X256750Y652745D01*
Y650755D01*
X257511Y648918D01*
X258181Y648248D01*
Y624000D01*
X258453Y622634D01*
X259227Y621477D01*
X338477Y542227D01*
X339634Y541453D01*
X341000Y541181D01*
X361497D01*
X362168Y540511D01*
X364005Y539750D01*
X365995D01*
X367832Y540511D01*
X369239Y541918D01*
X370000Y543755D01*
Y545745D01*
X369239Y547582D01*
X367832Y548989D01*
X365995Y549750D01*
X364005D01*
X362168Y548989D01*
X361497Y548319D01*
X342478D01*
X265319Y625478D01*
Y648248D01*
X265989Y648918D01*
X266750Y650755D01*
Y652745D01*
X265989Y654582D01*
X264582Y655989D01*
X262745Y656750D01*
D02*
G37*
G36*
X59745D02*
X57755D01*
X55918Y655989D01*
X54511Y654582D01*
X53750Y652745D01*
Y650755D01*
X54511Y648918D01*
X55181Y648248D01*
Y627000D01*
X55453Y625634D01*
X56227Y624477D01*
X138477Y542227D01*
X139634Y541453D01*
X141000Y541181D01*
X161497D01*
X162168Y540511D01*
X164005Y539750D01*
X165995D01*
X167832Y540511D01*
X169239Y541918D01*
X170000Y543755D01*
Y545745D01*
X169239Y547582D01*
X167832Y548989D01*
X165995Y549750D01*
X164005D01*
X162168Y548989D01*
X161497Y548319D01*
X142478D01*
X62319Y628478D01*
Y648248D01*
X62989Y648918D01*
X63750Y650755D01*
Y652745D01*
X62989Y654582D01*
X61582Y655989D01*
X59745Y656750D01*
D02*
G37*
G36*
X1930995Y540000D02*
X1929005D01*
X1927168Y539239D01*
X1926000Y538071D01*
X1924832Y539239D01*
X1922995Y540000D01*
X1921005D01*
X1919168Y539239D01*
X1918000Y538071D01*
X1916832Y539239D01*
X1914995Y540000D01*
X1913005D01*
X1911168Y539239D01*
X1910000Y538071D01*
X1908832Y539239D01*
X1906994Y540000D01*
X1905005D01*
X1903168Y539239D01*
X1901761Y537832D01*
X1901000Y535995D01*
Y534005D01*
X1901761Y532168D01*
X1903168Y530761D01*
X1905005Y530000D01*
X1906994D01*
X1908832Y530761D01*
X1910000Y531929D01*
X1911168Y530761D01*
X1913005Y530000D01*
X1914995D01*
X1916832Y530761D01*
X1918000Y531929D01*
X1919168Y530761D01*
X1921005Y530000D01*
X1922995D01*
X1924832Y530761D01*
X1926000Y531929D01*
X1927168Y530761D01*
X1929005Y530000D01*
X1930995D01*
X1932832Y530761D01*
X1934239Y532168D01*
X1935000Y534005D01*
Y535995D01*
X1934239Y537832D01*
X1932832Y539239D01*
X1930995Y540000D01*
D02*
G37*
G36*
X1709495Y536000D02*
X1707505D01*
X1705668Y535239D01*
X1704261Y533832D01*
X1703500Y531995D01*
Y530005D01*
X1704261Y528168D01*
X1705668Y526761D01*
X1707505Y526000D01*
X1709495D01*
X1711332Y526761D01*
X1712739Y528168D01*
X1713500Y530005D01*
Y531995D01*
X1712739Y533832D01*
X1711332Y535239D01*
X1709495Y536000D01*
D02*
G37*
G36*
X1045815Y656800D02*
X1043825D01*
X1041988Y656039D01*
X1040581Y654632D01*
X1039820Y652795D01*
Y650805D01*
X1040581Y648968D01*
X1041988Y647561D01*
X1043825Y646800D01*
X1044773D01*
X1076681Y614892D01*
Y533503D01*
X1076011Y532832D01*
X1075250Y530995D01*
Y529005D01*
X1076011Y527168D01*
X1077418Y525761D01*
X1079255Y525000D01*
X1081245D01*
X1083082Y525761D01*
X1084489Y527168D01*
X1085250Y529005D01*
Y530995D01*
X1084489Y532832D01*
X1083819Y533503D01*
Y616370D01*
X1083547Y617735D01*
X1082773Y618893D01*
X1049820Y651847D01*
Y652795D01*
X1049059Y654632D01*
X1047652Y656039D01*
X1045815Y656800D01*
D02*
G37*
G36*
X841775D02*
X839785D01*
X837948Y656039D01*
X836541Y654632D01*
X835780Y652795D01*
Y650805D01*
X836541Y648968D01*
X837948Y647561D01*
X839785Y646800D01*
X840733D01*
X861682Y625852D01*
Y533503D01*
X861011Y532832D01*
X860250Y530995D01*
Y529005D01*
X861011Y527168D01*
X862418Y525761D01*
X864256Y525000D01*
X866245D01*
X868082Y525761D01*
X869489Y527168D01*
X870250Y529005D01*
Y530995D01*
X869489Y532832D01*
X868819Y533503D01*
Y627330D01*
X868547Y628696D01*
X867773Y629853D01*
X845780Y651847D01*
Y652795D01*
X845019Y654632D01*
X843612Y656039D01*
X841775Y656800D01*
D02*
G37*
G36*
X638774D02*
X636785D01*
X634948Y656039D01*
X633541Y654632D01*
X632780Y652795D01*
Y650805D01*
X633541Y648968D01*
X634211Y648298D01*
Y539820D01*
X629392Y535000D01*
X629255D01*
X627418Y534239D01*
X626011Y532832D01*
X625250Y530995D01*
Y529005D01*
X626011Y527168D01*
X627418Y525761D01*
X629255Y525000D01*
X631245D01*
X633082Y525761D01*
X634489Y527168D01*
X635250Y529005D01*
Y530765D01*
X640303Y535818D01*
X641077Y536976D01*
X641349Y538342D01*
Y648298D01*
X642019Y648968D01*
X642780Y650805D01*
Y652795D01*
X642019Y654632D01*
X640612Y656039D01*
X638774Y656800D01*
D02*
G37*
G36*
X365185Y656750D02*
X363195D01*
X361358Y655989D01*
X359951Y654582D01*
X359190Y652745D01*
Y650755D01*
X359951Y648918D01*
X361358Y647511D01*
X363195Y646750D01*
X364143D01*
X386681Y624212D01*
Y533503D01*
X386011Y532832D01*
X385250Y530995D01*
Y529005D01*
X386011Y527168D01*
X387418Y525761D01*
X389255Y525000D01*
X391245D01*
X393082Y525761D01*
X394489Y527168D01*
X395250Y529005D01*
Y530995D01*
X394489Y532832D01*
X393819Y533503D01*
Y625690D01*
X393547Y627056D01*
X392773Y628213D01*
X369190Y651797D01*
Y652745D01*
X368429Y654582D01*
X367022Y655989D01*
X365185Y656750D01*
D02*
G37*
G36*
X160745Y656750D02*
X158755D01*
X156918Y655989D01*
X155511Y654582D01*
X154750Y652745D01*
Y650755D01*
X155511Y648918D01*
X156918Y647511D01*
X158755Y646750D01*
X159703D01*
X186681Y619772D01*
Y533503D01*
X186011Y532832D01*
X185250Y530995D01*
Y529005D01*
X186011Y527168D01*
X187418Y525761D01*
X189256Y525000D01*
X191245D01*
X193082Y525761D01*
X194489Y527168D01*
X195250Y529005D01*
Y530995D01*
X194489Y532832D01*
X193819Y533503D01*
Y621250D01*
X193547Y622616D01*
X192773Y623773D01*
X164750Y651797D01*
Y652745D01*
X163989Y654582D01*
X162582Y655989D01*
X160745Y656750D01*
D02*
G37*
G36*
X1858194Y536000D02*
X1855806D01*
X1853601Y535087D01*
X1851913Y533399D01*
X1851000Y531194D01*
Y528806D01*
X1851913Y526601D01*
X1853601Y524913D01*
X1855806Y524000D01*
X1858194D01*
X1860399Y524913D01*
X1862086Y526601D01*
X1863000Y528806D01*
Y531194D01*
X1862086Y533399D01*
X1860399Y535087D01*
X1858194Y536000D01*
D02*
G37*
G36*
X1001193Y513500D02*
X998807D01*
X996601Y512587D01*
X995807Y511792D01*
X994500Y511113D01*
X993193Y511792D01*
X992399Y512587D01*
X990193Y513500D01*
X987806D01*
X985601Y512587D01*
X983913Y510899D01*
X983000Y508694D01*
Y506306D01*
X983913Y504101D01*
X985601Y502413D01*
X987806Y501500D01*
X990193D01*
X992399Y502413D01*
X993193Y503208D01*
X994500Y503887D01*
X995807Y503208D01*
X996601Y502413D01*
X998807Y501500D01*
X1001193D01*
X1003399Y502413D01*
X1005087Y504101D01*
X1006000Y506306D01*
Y508694D01*
X1005087Y510899D01*
X1003399Y512587D01*
X1001193Y513500D01*
D02*
G37*
G36*
X786193D02*
X783807D01*
X781601Y512587D01*
X780807Y511792D01*
X779500Y511113D01*
X778194Y511792D01*
X777399Y512587D01*
X775193Y513500D01*
X772807D01*
X770601Y512587D01*
X768913Y510899D01*
X768000Y508694D01*
Y506306D01*
X768913Y504101D01*
X770601Y502413D01*
X772807Y501500D01*
X775193D01*
X777399Y502413D01*
X778194Y503208D01*
X779500Y503887D01*
X780807Y503208D01*
X781601Y502413D01*
X783807Y501500D01*
X786193D01*
X788399Y502413D01*
X790087Y504101D01*
X791000Y506306D01*
Y508694D01*
X790087Y510899D01*
X788399Y512587D01*
X786193Y513500D01*
D02*
G37*
G36*
X551194D02*
X548806D01*
X546601Y512587D01*
X545807Y511792D01*
X544500Y511113D01*
X543193Y511792D01*
X542399Y512587D01*
X540193Y513500D01*
X537807D01*
X535601Y512587D01*
X533913Y510899D01*
X533000Y508694D01*
Y506306D01*
X533913Y504101D01*
X535601Y502413D01*
X537807Y501500D01*
X540193D01*
X542399Y502413D01*
X543193Y503208D01*
X544500Y503887D01*
X545807Y503208D01*
X546601Y502413D01*
X548806Y501500D01*
X551194D01*
X553399Y502413D01*
X555087Y504101D01*
X556000Y506306D01*
Y508694D01*
X555087Y510899D01*
X553399Y512587D01*
X551194Y513500D01*
D02*
G37*
G36*
X311194D02*
X308806D01*
X306601Y512587D01*
X305807Y511792D01*
X304500Y511113D01*
X303193Y511792D01*
X302399Y512587D01*
X300194Y513500D01*
X297806D01*
X295601Y512587D01*
X293913Y510899D01*
X293000Y508694D01*
Y506306D01*
X293913Y504101D01*
X295601Y502413D01*
X297806Y501500D01*
X300194D01*
X302399Y502413D01*
X303193Y503208D01*
X304500Y503887D01*
X305807Y503208D01*
X306601Y502413D01*
X308806Y501500D01*
X311194D01*
X313399Y502413D01*
X315087Y504101D01*
X316000Y506306D01*
Y508694D01*
X315087Y510899D01*
X313399Y512587D01*
X311194Y513500D01*
D02*
G37*
G36*
X111194D02*
X108806D01*
X106601Y512587D01*
X105807Y511792D01*
X104500Y511113D01*
X103193Y511792D01*
X102399Y512587D01*
X100194Y513500D01*
X97807D01*
X95601Y512587D01*
X93913Y510899D01*
X93000Y508694D01*
Y506306D01*
X93913Y504101D01*
X95601Y502413D01*
X97807Y501500D01*
X100194D01*
X102399Y502413D01*
X103193Y503208D01*
X104500Y503887D01*
X105807Y503208D01*
X106601Y502413D01*
X108806Y501500D01*
X111194D01*
X113399Y502413D01*
X115087Y504101D01*
X116000Y506306D01*
Y508694D01*
X115087Y510899D01*
X113399Y512587D01*
X111194Y513500D01*
D02*
G37*
G36*
X1675995Y502580D02*
X1674005D01*
X1672168Y501819D01*
X1670761Y500412D01*
X1670000Y498574D01*
Y496585D01*
X1670761Y494748D01*
X1672168Y493341D01*
X1674005Y492580D01*
X1675995D01*
X1677832Y493341D01*
X1679239Y494748D01*
X1680000Y496585D01*
Y498574D01*
X1679239Y500412D01*
X1677832Y501819D01*
X1675995Y502580D01*
D02*
G37*
G36*
X1772995Y594250D02*
X1771005D01*
X1769168Y593489D01*
X1767761Y592082D01*
X1767000Y590245D01*
Y588255D01*
X1767761Y586418D01*
X1769168Y585011D01*
X1771005Y584250D01*
X1772458D01*
X1778288Y578420D01*
Y500859D01*
X1777261Y499832D01*
X1776500Y497995D01*
Y496005D01*
X1777261Y494168D01*
X1778668Y492761D01*
X1780505Y492000D01*
X1782495D01*
X1784332Y492761D01*
X1785739Y494168D01*
X1786500Y496005D01*
Y497995D01*
X1785739Y499832D01*
X1784712Y500859D01*
Y579750D01*
X1784467Y580979D01*
X1783771Y582021D01*
X1777000Y588792D01*
Y590245D01*
X1776239Y592082D01*
X1774832Y593489D01*
X1772995Y594250D01*
D02*
G37*
G36*
X1675995Y485040D02*
X1674005D01*
X1672168Y484279D01*
X1670761Y482872D01*
X1670000Y481035D01*
Y479045D01*
X1670761Y477208D01*
X1672168Y475801D01*
X1674005Y475040D01*
X1675995D01*
X1677832Y475801D01*
X1679239Y477208D01*
X1680000Y479045D01*
Y481035D01*
X1679239Y482872D01*
X1677832Y484279D01*
X1675995Y485040D01*
D02*
G37*
G36*
Y467500D02*
X1674005D01*
X1672168Y466739D01*
X1670761Y465332D01*
X1670000Y463494D01*
Y461505D01*
X1670761Y459668D01*
X1672168Y458261D01*
X1674005Y457500D01*
X1675995D01*
X1677832Y458261D01*
X1679239Y459668D01*
X1680000Y461505D01*
Y463494D01*
X1679239Y465332D01*
X1677832Y466739D01*
X1675995Y467500D01*
D02*
G37*
G36*
X1793994Y455500D02*
X1792005D01*
X1790168Y454739D01*
X1789000Y453571D01*
X1787832Y454739D01*
X1785995Y455500D01*
X1784005D01*
X1782168Y454739D01*
X1780761Y453332D01*
X1780000Y451495D01*
Y449505D01*
X1780761Y447668D01*
X1782168Y446261D01*
X1784005Y445500D01*
X1784495D01*
Y360650D01*
X1784713Y359557D01*
X1785331Y358631D01*
X1793231Y350731D01*
X1794157Y350112D01*
X1795250Y349895D01*
X1816500D01*
Y349406D01*
X1817261Y347568D01*
X1818668Y346161D01*
X1820505Y345400D01*
X1822495D01*
X1824332Y346161D01*
X1825739Y347568D01*
X1826500Y349406D01*
Y351395D01*
X1825739Y353232D01*
X1824571Y354400D01*
X1825739Y355568D01*
X1826500Y357406D01*
Y359395D01*
X1825739Y361232D01*
X1824332Y362639D01*
X1822495Y363400D01*
X1820505D01*
X1818668Y362639D01*
X1817261Y361232D01*
X1816500Y359395D01*
Y358905D01*
X1797799D01*
X1793505Y363199D01*
Y445500D01*
X1793994D01*
X1795832Y446261D01*
X1797239Y447668D01*
X1798000Y449505D01*
Y451495D01*
X1797239Y453332D01*
X1795832Y454739D01*
X1793994Y455500D01*
D02*
G37*
G36*
X1675995Y449500D02*
X1674005D01*
X1672168Y448739D01*
X1670761Y447332D01*
X1670000Y445494D01*
Y443505D01*
X1670761Y441668D01*
X1672168Y440261D01*
X1674005Y439500D01*
X1675995D01*
X1677832Y440261D01*
X1679239Y441668D01*
X1680000Y443505D01*
Y445494D01*
X1679239Y447332D01*
X1677832Y448739D01*
X1675995Y449500D01*
D02*
G37*
G36*
X1834995Y427000D02*
X1833005D01*
X1831168Y426239D01*
X1829761Y424832D01*
X1829000Y422995D01*
Y421005D01*
X1829761Y419168D01*
X1831168Y417761D01*
X1833005Y417000D01*
X1834674D01*
X1850941Y400733D01*
Y389012D01*
X1849761Y387832D01*
X1849000Y385995D01*
Y384005D01*
X1849761Y382168D01*
X1851168Y380761D01*
X1853005Y380000D01*
X1854995D01*
X1856832Y380761D01*
X1858239Y382168D01*
X1859000Y384005D01*
Y385995D01*
X1858239Y387832D01*
X1857059Y389012D01*
Y402000D01*
X1857059Y402000D01*
X1856826Y403171D01*
X1856163Y404163D01*
X1856163Y404163D01*
X1839000Y421326D01*
Y422995D01*
X1838239Y424832D01*
X1836832Y426239D01*
X1834995Y427000D01*
D02*
G37*
G36*
X1740995Y356500D02*
X1739005D01*
X1737168Y355739D01*
X1735761Y354332D01*
X1735000Y352495D01*
Y350505D01*
X1735761Y348668D01*
X1737168Y347261D01*
X1739005Y346500D01*
X1740995D01*
X1742832Y347261D01*
X1744239Y348668D01*
X1745000Y350505D01*
Y352495D01*
X1744239Y354332D01*
X1742832Y355739D01*
X1740995Y356500D01*
D02*
G37*
G36*
X1775535Y356500D02*
X1773546D01*
X1771708Y355739D01*
X1770301Y354332D01*
X1769540Y352495D01*
Y350505D01*
X1770301Y348668D01*
X1771708Y347261D01*
X1773546Y346500D01*
X1775535D01*
X1777372Y347261D01*
X1778779Y348668D01*
X1779540Y350505D01*
Y352495D01*
X1778779Y354332D01*
X1777372Y355739D01*
X1775535Y356500D01*
D02*
G37*
G36*
X1068995Y460250D02*
X1067005D01*
X1065168Y459489D01*
X1063761Y458082D01*
X1063000Y456245D01*
Y454255D01*
X1063761Y452418D01*
X1065168Y451011D01*
X1067005Y450250D01*
X1067953D01*
X1098841Y419362D01*
Y351702D01*
X1098171Y351032D01*
X1097410Y349195D01*
Y347206D01*
X1098171Y345368D01*
X1099578Y343961D01*
X1101415Y343200D01*
X1103405D01*
X1105242Y343961D01*
X1106649Y345368D01*
X1107410Y347206D01*
Y349195D01*
X1106649Y351032D01*
X1105979Y351702D01*
Y420840D01*
X1105707Y422206D01*
X1104933Y423363D01*
X1073000Y455297D01*
Y456245D01*
X1072239Y458082D01*
X1070832Y459489D01*
X1068995Y460250D01*
D02*
G37*
G36*
X853995D02*
X852005D01*
X850168Y459489D01*
X848761Y458082D01*
X848000Y456245D01*
Y454255D01*
X848761Y452418D01*
X850168Y451011D01*
X852005Y450250D01*
X852953D01*
X895842Y407362D01*
Y351702D01*
X895171Y351032D01*
X894410Y349195D01*
Y347206D01*
X895171Y345368D01*
X896578Y343961D01*
X898416Y343200D01*
X900405D01*
X902242Y343961D01*
X903649Y345368D01*
X904410Y347206D01*
Y349195D01*
X903649Y351032D01*
X902979Y351702D01*
Y408840D01*
X902707Y410206D01*
X901933Y411363D01*
X858000Y455297D01*
Y456245D01*
X857239Y458082D01*
X855832Y459489D01*
X853995Y460250D01*
D02*
G37*
G36*
X834495D02*
X832505D01*
X830668Y459489D01*
X829261Y458082D01*
X828500Y456245D01*
Y455297D01*
X794447Y421243D01*
X793673Y420086D01*
X793401Y418720D01*
Y351702D01*
X792731Y351032D01*
X791970Y349195D01*
Y347206D01*
X792731Y345368D01*
X794138Y343961D01*
X795975Y343200D01*
X797965D01*
X799802Y343961D01*
X801209Y345368D01*
X801970Y347206D01*
Y349195D01*
X801209Y351032D01*
X800539Y351702D01*
Y417242D01*
X833547Y450250D01*
X834495D01*
X836332Y451011D01*
X837739Y452418D01*
X838500Y454255D01*
Y456245D01*
X837739Y458082D01*
X836332Y459489D01*
X834495Y460250D01*
D02*
G37*
G36*
X618995D02*
X617005D01*
X615168Y459489D01*
X613761Y458082D01*
X613000Y456245D01*
Y454255D01*
X613761Y452418D01*
X615168Y451011D01*
X617005Y450250D01*
X617953D01*
X691802Y376402D01*
Y351702D01*
X691131Y351032D01*
X690370Y349195D01*
Y347206D01*
X691131Y345368D01*
X692538Y343961D01*
X694376Y343200D01*
X696365D01*
X698202Y343961D01*
X699609Y345368D01*
X700370Y347206D01*
Y349195D01*
X699609Y351032D01*
X698939Y351702D01*
Y377880D01*
X698667Y379245D01*
X697894Y380403D01*
X623000Y455297D01*
Y456245D01*
X622239Y458082D01*
X620832Y459489D01*
X618995Y460250D01*
D02*
G37*
G36*
X1049494D02*
X1047505D01*
X1045668Y459489D01*
X1044261Y458082D01*
X1043500Y456245D01*
Y455297D01*
X998887Y410683D01*
X998113Y409526D01*
X997841Y408160D01*
Y351702D01*
X997171Y351032D01*
X996410Y349195D01*
Y347205D01*
X997171Y345368D01*
X998578Y343961D01*
X1000415Y343200D01*
X1002405D01*
X1004242Y343961D01*
X1005649Y345368D01*
X1006410Y347205D01*
Y349195D01*
X1005649Y351032D01*
X1004979Y351702D01*
Y406682D01*
X1048547Y450250D01*
X1049494D01*
X1051332Y451011D01*
X1052739Y452418D01*
X1053500Y454255D01*
Y456245D01*
X1052739Y458082D01*
X1051332Y459489D01*
X1049494Y460250D01*
D02*
G37*
G36*
X599495D02*
X597505D01*
X595668Y459489D01*
X594261Y458082D01*
X593500Y456245D01*
Y455297D01*
X519877Y381674D01*
X519103Y380516D01*
X518831Y379150D01*
Y351702D01*
X518161Y351032D01*
X517400Y349195D01*
Y347205D01*
X518161Y345368D01*
X519568Y343961D01*
X521405Y343200D01*
X523395D01*
X525232Y343961D01*
X526639Y345368D01*
X527400Y347205D01*
Y349195D01*
X526639Y351032D01*
X525969Y351702D01*
Y377672D01*
X598547Y450250D01*
X599495D01*
X601332Y451011D01*
X602739Y452418D01*
X603500Y454255D01*
Y456245D01*
X602739Y458082D01*
X601332Y459489D01*
X599495Y460250D01*
D02*
G37*
G36*
X359495D02*
X357505D01*
X355668Y459489D01*
X354261Y458082D01*
X353500Y456245D01*
Y455297D01*
X316877Y418673D01*
X316103Y417516D01*
X315832Y416150D01*
Y351702D01*
X315161Y351032D01*
X314400Y349195D01*
Y347205D01*
X315161Y345368D01*
X316568Y343961D01*
X318405Y343200D01*
X320395D01*
X322232Y343961D01*
X323639Y345368D01*
X324400Y347205D01*
Y349195D01*
X323639Y351032D01*
X322969Y351702D01*
Y414672D01*
X358547Y450250D01*
X359495D01*
X361332Y451011D01*
X362739Y452418D01*
X363500Y454255D01*
Y456245D01*
X362739Y458082D01*
X361332Y459489D01*
X359495Y460250D01*
D02*
G37*
G36*
X178995D02*
X177006D01*
X175168Y459489D01*
X173761Y458082D01*
X173000Y456245D01*
Y454255D01*
X173761Y452418D01*
X175168Y451011D01*
X177006Y450250D01*
X177953D01*
X213391Y414812D01*
Y351702D01*
X212721Y351032D01*
X211960Y349195D01*
Y347205D01*
X212721Y345368D01*
X214128Y343961D01*
X215965Y343200D01*
X217955D01*
X219792Y343961D01*
X221199Y345368D01*
X221960Y347205D01*
Y349195D01*
X221199Y351032D01*
X220529Y351702D01*
Y416290D01*
X220257Y417656D01*
X219484Y418813D01*
X183000Y455297D01*
Y456245D01*
X182239Y458082D01*
X180832Y459489D01*
X178995Y460250D01*
D02*
G37*
G36*
X159495D02*
X157505D01*
X155668Y459489D01*
X154261Y458082D01*
X153500Y456245D01*
Y455297D01*
X112837Y414633D01*
X112063Y413476D01*
X111791Y412110D01*
Y351702D01*
X111121Y351032D01*
X110360Y349195D01*
Y347205D01*
X111121Y345368D01*
X112528Y343961D01*
X114366Y343200D01*
X116355D01*
X118192Y343961D01*
X119599Y345368D01*
X120360Y347205D01*
Y349195D01*
X119599Y351032D01*
X118929Y351702D01*
Y410632D01*
X158547Y450250D01*
X159495D01*
X161332Y451011D01*
X162739Y452418D01*
X163500Y454255D01*
Y456245D01*
X162739Y458082D01*
X161332Y459489D01*
X159495Y460250D01*
D02*
G37*
G36*
X378995D02*
X377006D01*
X375168Y459489D01*
X373761Y458082D01*
X373000Y456245D01*
Y454255D01*
X373761Y452418D01*
X375168Y451011D01*
X377006Y450250D01*
X377953D01*
X417831Y410372D01*
Y351702D01*
X417161Y351032D01*
X416400Y349194D01*
Y347205D01*
X417161Y345368D01*
X418568Y343961D01*
X420406Y343200D01*
X422395D01*
X424232Y343961D01*
X425639Y345368D01*
X426400Y347205D01*
Y349194D01*
X425639Y351032D01*
X424969Y351702D01*
Y411850D01*
X424697Y413216D01*
X423923Y414373D01*
X383000Y455297D01*
Y456245D01*
X382239Y458082D01*
X380832Y459489D01*
X378995Y460250D01*
D02*
G37*
G36*
X1836995Y313000D02*
X1835005D01*
X1833168Y312239D01*
X1831784Y310855D01*
X1814086D01*
X1813593Y311593D01*
X1812518Y312311D01*
X1811250Y312564D01*
X1807750D01*
X1806482Y312311D01*
X1805407Y311593D01*
X1804914Y310855D01*
X1786676D01*
X1785292Y312239D01*
X1783454Y313000D01*
X1781465D01*
X1779628Y312239D01*
X1778221Y310832D01*
X1777460Y308995D01*
Y307005D01*
X1778221Y305168D01*
X1779628Y303761D01*
X1781465Y303000D01*
X1783454D01*
X1785292Y303761D01*
X1786676Y305145D01*
X1804914D01*
X1805407Y304407D01*
X1806482Y303689D01*
X1806645Y303656D01*
Y282500D01*
X1806862Y281408D01*
X1807481Y280481D01*
X1821731Y266231D01*
X1822657Y265613D01*
X1823750Y265395D01*
X1860318D01*
X1868895Y256817D01*
Y157683D01*
X1853817Y142605D01*
X1815932D01*
X1812205Y146333D01*
Y151430D01*
X1813017Y151647D01*
X1815183Y152898D01*
X1816952Y154667D01*
X1818203Y156833D01*
X1818850Y159249D01*
Y161751D01*
X1818203Y164167D01*
X1816952Y166333D01*
X1815183Y168102D01*
X1813017Y169352D01*
X1810601Y170000D01*
X1808099D01*
X1805683Y169352D01*
X1803517Y168102D01*
X1801748Y166333D01*
X1800497Y164167D01*
X1799850Y161751D01*
Y159249D01*
X1800497Y156833D01*
X1801748Y154667D01*
X1803517Y152898D01*
X1805683Y151647D01*
X1806495Y151430D01*
Y145150D01*
X1806712Y144058D01*
X1807331Y143131D01*
X1812731Y137731D01*
X1813658Y137113D01*
X1814750Y136895D01*
X1855000D01*
X1856093Y137113D01*
X1857019Y137731D01*
X1873769Y154481D01*
X1874388Y155407D01*
X1874605Y156500D01*
Y258000D01*
X1874388Y259093D01*
X1873769Y260019D01*
X1863519Y270269D01*
X1862592Y270888D01*
X1861500Y271105D01*
X1824933D01*
X1812355Y283682D01*
Y303656D01*
X1812518Y303689D01*
X1813593Y304407D01*
X1814086Y305145D01*
X1831784D01*
X1833168Y303761D01*
X1835005Y303000D01*
X1836995D01*
X1838832Y303761D01*
X1840239Y305168D01*
X1841000Y307005D01*
Y308995D01*
X1840239Y310832D01*
X1838832Y312239D01*
X1836995Y313000D01*
D02*
G37*
G36*
X1089000Y307258D02*
X1088232Y307025D01*
X1085626Y305632D01*
X1083342Y303758D01*
X1081468Y301474D01*
X1080738Y300110D01*
X1078420Y300015D01*
X1077159Y301658D01*
X1074652Y303582D01*
X1071733Y304791D01*
X1068600Y305204D01*
X1065467Y304791D01*
X1062548Y303582D01*
X1060042Y301658D01*
X1058118Y299152D01*
X1056909Y296233D01*
X1056496Y293100D01*
Y283100D01*
X1056909Y279967D01*
X1058118Y277048D01*
X1060042Y274541D01*
X1062548Y272618D01*
X1065467Y271409D01*
X1068600Y270996D01*
X1071733Y271409D01*
X1074652Y272618D01*
X1077159Y274541D01*
X1078420Y276185D01*
X1080738Y276091D01*
X1081468Y274726D01*
X1083342Y272442D01*
X1085626Y270568D01*
X1088232Y269175D01*
X1089000Y268942D01*
Y288100D01*
Y307258D01*
D02*
G37*
G36*
X988000D02*
X987232Y307025D01*
X984626Y305632D01*
X982342Y303758D01*
X980468Y301474D01*
X979738Y300110D01*
X977420Y300015D01*
X976159Y301658D01*
X973652Y303582D01*
X970733Y304791D01*
X967600Y305204D01*
X964467Y304791D01*
X961548Y303582D01*
X959042Y301658D01*
X957118Y299152D01*
X955909Y296233D01*
X955496Y293100D01*
Y283100D01*
X955909Y279967D01*
X957118Y277048D01*
X959042Y274541D01*
X961548Y272618D01*
X964467Y271409D01*
X967600Y270996D01*
X970733Y271409D01*
X973652Y272618D01*
X976159Y274541D01*
X977420Y276185D01*
X979738Y276091D01*
X980468Y274726D01*
X982342Y272442D01*
X984626Y270568D01*
X987232Y269175D01*
X988000Y268942D01*
Y288100D01*
Y307258D01*
D02*
G37*
G36*
X886000D02*
X885232Y307025D01*
X882626Y305632D01*
X880342Y303758D01*
X878468Y301474D01*
X877738Y300110D01*
X875420Y300015D01*
X874158Y301658D01*
X871652Y303582D01*
X868733Y304791D01*
X865600Y305204D01*
X862467Y304791D01*
X859548Y303582D01*
X857041Y301658D01*
X855118Y299152D01*
X853909Y296233D01*
X853496Y293100D01*
Y283100D01*
X853909Y279967D01*
X855118Y277048D01*
X857041Y274541D01*
X859548Y272618D01*
X862467Y271409D01*
X865600Y270996D01*
X868733Y271409D01*
X871652Y272618D01*
X874158Y274541D01*
X875420Y276185D01*
X877738Y276091D01*
X878468Y274726D01*
X880342Y272442D01*
X882626Y270568D01*
X885232Y269175D01*
X886000Y268942D01*
Y288100D01*
Y307258D01*
D02*
G37*
G36*
X783560Y307258D02*
X782792Y307025D01*
X780186Y305632D01*
X777902Y303758D01*
X776028Y301474D01*
X775298Y300110D01*
X772980Y300015D01*
X771719Y301658D01*
X769212Y303582D01*
X766293Y304791D01*
X763160Y305204D01*
X760027Y304791D01*
X757108Y303582D01*
X754602Y301658D01*
X752678Y299152D01*
X751469Y296233D01*
X751057Y293100D01*
Y283100D01*
X751469Y279967D01*
X752678Y277048D01*
X754602Y274541D01*
X757108Y272618D01*
X760027Y271409D01*
X763160Y270996D01*
X766293Y271409D01*
X769212Y272618D01*
X771719Y274541D01*
X772980Y276185D01*
X775298Y276091D01*
X776028Y274726D01*
X777902Y272442D01*
X780186Y270568D01*
X782792Y269175D01*
X783560Y268942D01*
Y288100D01*
Y307258D01*
D02*
G37*
G36*
X681960D02*
X681192Y307025D01*
X678586Y305632D01*
X676302Y303758D01*
X674428Y301474D01*
X673698Y300110D01*
X671380Y300015D01*
X670118Y301658D01*
X667612Y303582D01*
X664693Y304791D01*
X661560Y305204D01*
X658427Y304791D01*
X655508Y303582D01*
X653001Y301658D01*
X651078Y299152D01*
X649869Y296233D01*
X649456Y293100D01*
Y283100D01*
X649869Y279967D01*
X651078Y277048D01*
X653001Y274541D01*
X655508Y272618D01*
X658427Y271409D01*
X661560Y270996D01*
X664693Y271409D01*
X667612Y272618D01*
X670118Y274541D01*
X671380Y276185D01*
X673698Y276091D01*
X674428Y274726D01*
X676302Y272442D01*
X678586Y270568D01*
X681192Y269175D01*
X681960Y268942D01*
Y288100D01*
Y307258D01*
D02*
G37*
G36*
X508990D02*
X508222Y307025D01*
X505616Y305632D01*
X503332Y303758D01*
X501458Y301474D01*
X500728Y300110D01*
X498410Y300015D01*
X497149Y301658D01*
X494642Y303582D01*
X491723Y304791D01*
X488590Y305204D01*
X485457Y304791D01*
X482538Y303582D01*
X480032Y301658D01*
X478108Y299152D01*
X476899Y296233D01*
X476486Y293100D01*
Y283100D01*
X476899Y279967D01*
X478108Y277048D01*
X480032Y274541D01*
X482538Y272618D01*
X485457Y271409D01*
X488590Y270996D01*
X491723Y271409D01*
X494642Y272618D01*
X497149Y274541D01*
X498410Y276185D01*
X500728Y276091D01*
X501458Y274726D01*
X503332Y272442D01*
X505616Y270568D01*
X508222Y269175D01*
X508990Y268942D01*
Y288100D01*
Y307258D01*
D02*
G37*
G36*
X407990Y307258D02*
X407222Y307025D01*
X404616Y305632D01*
X402332Y303758D01*
X400458Y301474D01*
X399728Y300110D01*
X397410Y300015D01*
X396148Y301658D01*
X393642Y303582D01*
X390723Y304791D01*
X387590Y305204D01*
X384457Y304791D01*
X381538Y303582D01*
X379031Y301658D01*
X377108Y299152D01*
X375899Y296233D01*
X375486Y293100D01*
Y283100D01*
X375899Y279967D01*
X377108Y277048D01*
X379031Y274541D01*
X381538Y272618D01*
X384457Y271409D01*
X387590Y270996D01*
X390723Y271409D01*
X393642Y272618D01*
X396148Y274541D01*
X397410Y276185D01*
X399728Y276091D01*
X400458Y274726D01*
X402332Y272442D01*
X404616Y270568D01*
X407222Y269175D01*
X407990Y268942D01*
Y288100D01*
Y307258D01*
D02*
G37*
G36*
X305990D02*
X305222Y307025D01*
X302616Y305632D01*
X300332Y303758D01*
X298458Y301474D01*
X297728Y300110D01*
X295410Y300015D01*
X294149Y301658D01*
X291642Y303582D01*
X288723Y304791D01*
X285590Y305204D01*
X282457Y304791D01*
X279538Y303582D01*
X277031Y301658D01*
X275108Y299152D01*
X273899Y296233D01*
X273486Y293100D01*
Y283100D01*
X273899Y279967D01*
X275108Y277048D01*
X277031Y274541D01*
X279538Y272618D01*
X282457Y271409D01*
X285590Y270996D01*
X288723Y271409D01*
X291642Y272618D01*
X294149Y274541D01*
X295410Y276185D01*
X297728Y276091D01*
X298458Y274726D01*
X300332Y272442D01*
X302616Y270568D01*
X305222Y269175D01*
X305990Y268942D01*
Y288100D01*
Y307258D01*
D02*
G37*
G36*
X203550Y307258D02*
X202782Y307025D01*
X200176Y305632D01*
X197892Y303758D01*
X196018Y301474D01*
X195288Y300110D01*
X192970Y300015D01*
X191709Y301658D01*
X189202Y303582D01*
X186283Y304791D01*
X183150Y305204D01*
X180017Y304791D01*
X177098Y303582D01*
X174592Y301658D01*
X172668Y299152D01*
X171459Y296233D01*
X171047Y293100D01*
Y283100D01*
X171459Y279967D01*
X172668Y277048D01*
X174592Y274541D01*
X177098Y272618D01*
X180017Y271409D01*
X183150Y270996D01*
X186283Y271409D01*
X189202Y272618D01*
X191709Y274541D01*
X192970Y276185D01*
X195288Y276091D01*
X196018Y274726D01*
X197892Y272442D01*
X200176Y270568D01*
X202782Y269175D01*
X203550Y268942D01*
Y288100D01*
Y307258D01*
D02*
G37*
G36*
X101950Y307258D02*
X101182Y307025D01*
X98576Y305632D01*
X96292Y303758D01*
X94418Y301474D01*
X93688Y300110D01*
X91370Y300015D01*
X90109Y301658D01*
X87602Y303582D01*
X84683Y304791D01*
X81550Y305204D01*
X78417Y304791D01*
X75498Y303582D01*
X72991Y301658D01*
X71068Y299152D01*
X69859Y296233D01*
X69447Y293100D01*
Y283100D01*
X69859Y279967D01*
X71068Y277048D01*
X72991Y274541D01*
X75498Y272618D01*
X78417Y271409D01*
X81550Y270996D01*
X84683Y271409D01*
X87602Y272618D01*
X90109Y274541D01*
X91370Y276185D01*
X93688Y276091D01*
X94418Y274726D01*
X96292Y272442D01*
X98576Y270568D01*
X101182Y269175D01*
X101950Y268942D01*
Y288100D01*
Y307258D01*
D02*
G37*
G36*
X1235995Y305000D02*
X1234005D01*
X1232168Y304239D01*
X1230761Y302832D01*
X1230000Y300995D01*
Y299006D01*
X1230761Y297168D01*
X1232168Y295761D01*
X1234005Y295000D01*
X1235995D01*
X1237832Y295761D01*
X1239239Y297168D01*
X1240000Y299006D01*
Y300995D01*
X1239239Y302832D01*
X1237832Y304239D01*
X1235995Y305000D01*
D02*
G37*
G36*
X1215995D02*
X1214005D01*
X1212168Y304239D01*
X1210761Y302832D01*
X1210000Y300995D01*
Y299006D01*
X1210761Y297168D01*
X1212168Y295761D01*
X1214005Y295000D01*
X1215995D01*
X1217832Y295761D01*
X1219239Y297168D01*
X1220000Y299006D01*
Y300995D01*
X1219239Y302832D01*
X1217832Y304239D01*
X1215995Y305000D01*
D02*
G37*
G36*
X1195995D02*
X1194005D01*
X1192168Y304239D01*
X1190761Y302832D01*
X1190000Y300995D01*
Y299006D01*
X1190761Y297168D01*
X1192168Y295761D01*
X1194005Y295000D01*
X1195995D01*
X1197832Y295761D01*
X1199239Y297168D01*
X1200000Y299006D01*
Y300995D01*
X1199239Y302832D01*
X1197832Y304239D01*
X1195995Y305000D01*
D02*
G37*
G36*
X1175995D02*
X1174005D01*
X1172168Y304239D01*
X1170761Y302832D01*
X1170000Y300995D01*
Y299006D01*
X1170761Y297168D01*
X1172168Y295761D01*
X1174005Y295000D01*
X1175995D01*
X1177832Y295761D01*
X1179239Y297168D01*
X1180000Y299006D01*
Y300995D01*
X1179239Y302832D01*
X1177832Y304239D01*
X1175995Y305000D01*
D02*
G37*
G36*
X1155995D02*
X1154005D01*
X1152168Y304239D01*
X1150761Y302832D01*
X1150000Y300995D01*
Y299006D01*
X1150761Y297168D01*
X1152168Y295761D01*
X1154005Y295000D01*
X1155995D01*
X1157832Y295761D01*
X1159239Y297168D01*
X1160000Y299006D01*
Y300995D01*
X1159239Y302832D01*
X1157832Y304239D01*
X1155995Y305000D01*
D02*
G37*
G36*
X1225995Y295000D02*
X1224005D01*
X1222168Y294239D01*
X1220761Y292832D01*
X1220000Y290995D01*
Y289006D01*
X1220761Y287168D01*
X1222168Y285761D01*
X1224005Y285000D01*
X1225995D01*
X1227832Y285761D01*
X1229239Y287168D01*
X1230000Y289006D01*
Y290995D01*
X1229239Y292832D01*
X1227832Y294239D01*
X1225995Y295000D01*
D02*
G37*
G36*
X1205995D02*
X1204005D01*
X1202168Y294239D01*
X1200761Y292832D01*
X1200000Y290995D01*
Y289006D01*
X1200761Y287168D01*
X1202168Y285761D01*
X1204005Y285000D01*
X1205995D01*
X1207832Y285761D01*
X1209239Y287168D01*
X1210000Y289006D01*
Y290995D01*
X1209239Y292832D01*
X1207832Y294239D01*
X1205995Y295000D01*
D02*
G37*
G36*
X1185995D02*
X1184005D01*
X1182168Y294239D01*
X1180761Y292832D01*
X1180000Y290995D01*
Y289006D01*
X1180761Y287168D01*
X1182168Y285761D01*
X1184005Y285000D01*
X1185995D01*
X1187832Y285761D01*
X1189239Y287168D01*
X1190000Y289006D01*
Y290995D01*
X1189239Y292832D01*
X1187832Y294239D01*
X1185995Y295000D01*
D02*
G37*
G36*
X1165995D02*
X1164005D01*
X1162168Y294239D01*
X1160761Y292832D01*
X1160000Y290995D01*
Y289006D01*
X1160761Y287168D01*
X1162168Y285761D01*
X1164005Y285000D01*
X1165995D01*
X1167832Y285761D01*
X1169239Y287168D01*
X1170000Y289006D01*
Y290995D01*
X1169239Y292832D01*
X1167832Y294239D01*
X1165995Y295000D01*
D02*
G37*
G36*
X1145995D02*
X1144005D01*
X1142168Y294239D01*
X1140761Y292832D01*
X1140000Y290995D01*
Y289006D01*
X1140761Y287168D01*
X1142168Y285761D01*
X1144005Y285000D01*
X1145995D01*
X1147832Y285761D01*
X1149239Y287168D01*
X1150000Y289006D01*
Y290995D01*
X1149239Y292832D01*
X1147832Y294239D01*
X1145995Y295000D01*
D02*
G37*
G36*
X1235995Y285000D02*
X1234005D01*
X1232168Y284239D01*
X1230761Y282832D01*
X1230000Y280995D01*
Y279006D01*
X1230761Y277168D01*
X1232168Y275761D01*
X1234005Y275000D01*
X1235995D01*
X1237832Y275761D01*
X1239239Y277168D01*
X1240000Y279006D01*
Y280995D01*
X1239239Y282832D01*
X1237832Y284239D01*
X1235995Y285000D01*
D02*
G37*
G36*
X1215995D02*
X1214005D01*
X1212168Y284239D01*
X1210761Y282832D01*
X1210000Y280995D01*
Y279006D01*
X1210761Y277168D01*
X1212168Y275761D01*
X1214005Y275000D01*
X1215995D01*
X1217832Y275761D01*
X1219239Y277168D01*
X1220000Y279006D01*
Y280995D01*
X1219239Y282832D01*
X1217832Y284239D01*
X1215995Y285000D01*
D02*
G37*
G36*
X1195995D02*
X1194005D01*
X1192168Y284239D01*
X1190761Y282832D01*
X1190000Y280995D01*
Y279006D01*
X1190761Y277168D01*
X1192168Y275761D01*
X1194005Y275000D01*
X1195995D01*
X1197832Y275761D01*
X1199239Y277168D01*
X1200000Y279006D01*
Y280995D01*
X1199239Y282832D01*
X1197832Y284239D01*
X1195995Y285000D01*
D02*
G37*
G36*
X1175995D02*
X1174005D01*
X1172168Y284239D01*
X1170761Y282832D01*
X1170000Y280995D01*
Y279006D01*
X1170761Y277168D01*
X1172168Y275761D01*
X1174005Y275000D01*
X1175995D01*
X1177832Y275761D01*
X1179239Y277168D01*
X1180000Y279006D01*
Y280995D01*
X1179239Y282832D01*
X1177832Y284239D01*
X1175995Y285000D01*
D02*
G37*
G36*
X1155995D02*
X1154005D01*
X1152168Y284239D01*
X1150761Y282832D01*
X1150000Y280995D01*
Y279006D01*
X1150761Y277168D01*
X1152168Y275761D01*
X1154005Y275000D01*
X1155995D01*
X1157832Y275761D01*
X1159239Y277168D01*
X1160000Y279006D01*
Y280995D01*
X1159239Y282832D01*
X1157832Y284239D01*
X1155995Y285000D01*
D02*
G37*
G36*
X1099000Y307258D02*
Y288100D01*
Y268942D01*
X1099768Y269175D01*
X1102374Y270568D01*
X1104658Y272442D01*
X1106532Y274726D01*
X1107262Y276091D01*
X1109580Y276185D01*
X1110842Y274541D01*
X1113348Y272618D01*
X1116267Y271409D01*
X1119400Y270996D01*
X1122533Y271409D01*
X1125452Y272618D01*
X1127959Y274541D01*
X1129882Y277048D01*
X1131091Y279967D01*
X1131504Y283100D01*
Y293100D01*
X1131091Y296233D01*
X1129882Y299152D01*
X1127959Y301658D01*
X1125452Y303582D01*
X1122533Y304791D01*
X1119400Y305204D01*
X1116267Y304791D01*
X1113348Y303582D01*
X1110842Y301658D01*
X1109580Y300015D01*
X1107262Y300110D01*
X1106532Y301474D01*
X1104658Y303758D01*
X1102374Y305632D01*
X1099768Y307025D01*
X1099000Y307258D01*
D02*
G37*
G36*
X998000Y307258D02*
Y288100D01*
Y268942D01*
X998768Y269175D01*
X1001374Y270568D01*
X1003658Y272442D01*
X1005532Y274726D01*
X1006262Y276091D01*
X1008580Y276185D01*
X1009842Y274541D01*
X1012348Y272618D01*
X1015267Y271409D01*
X1018400Y270996D01*
X1021533Y271409D01*
X1024452Y272618D01*
X1026958Y274541D01*
X1028882Y277048D01*
X1030091Y279967D01*
X1030504Y283100D01*
Y293100D01*
X1030091Y296233D01*
X1028882Y299152D01*
X1026958Y301658D01*
X1024452Y303582D01*
X1021533Y304791D01*
X1018400Y305204D01*
X1015267Y304791D01*
X1012348Y303582D01*
X1009842Y301658D01*
X1008580Y300015D01*
X1006262Y300110D01*
X1005532Y301474D01*
X1003658Y303758D01*
X1001374Y305632D01*
X998768Y307025D01*
X998000Y307258D01*
D02*
G37*
G36*
X896000D02*
Y288100D01*
Y268942D01*
X896768Y269175D01*
X899374Y270568D01*
X901658Y272442D01*
X903532Y274726D01*
X904262Y276091D01*
X906580Y276185D01*
X907841Y274541D01*
X910348Y272618D01*
X913267Y271409D01*
X916400Y270996D01*
X919533Y271409D01*
X922452Y272618D01*
X924958Y274541D01*
X926882Y277048D01*
X928091Y279967D01*
X928504Y283100D01*
Y293100D01*
X928091Y296233D01*
X926882Y299152D01*
X924958Y301658D01*
X922452Y303582D01*
X919533Y304791D01*
X916400Y305204D01*
X913267Y304791D01*
X910348Y303582D01*
X907841Y301658D01*
X906580Y300015D01*
X904262Y300110D01*
X903532Y301474D01*
X901658Y303758D01*
X899374Y305632D01*
X896768Y307025D01*
X896000Y307258D01*
D02*
G37*
G36*
X793560D02*
Y288100D01*
Y268942D01*
X794328Y269175D01*
X796934Y270568D01*
X799218Y272442D01*
X801092Y274726D01*
X801822Y276091D01*
X804140Y276185D01*
X805402Y274541D01*
X807908Y272618D01*
X810827Y271409D01*
X813960Y270996D01*
X817093Y271409D01*
X820012Y272618D01*
X822518Y274541D01*
X824442Y277048D01*
X825651Y279967D01*
X826064Y283100D01*
Y293100D01*
X825651Y296233D01*
X824442Y299152D01*
X822518Y301658D01*
X820012Y303582D01*
X817093Y304791D01*
X813960Y305204D01*
X810827Y304791D01*
X807908Y303582D01*
X805402Y301658D01*
X804140Y300015D01*
X801822Y300110D01*
X801092Y301474D01*
X799218Y303758D01*
X796934Y305632D01*
X794328Y307025D01*
X793560Y307258D01*
D02*
G37*
G36*
X691960D02*
Y288100D01*
Y268942D01*
X692728Y269175D01*
X695334Y270568D01*
X697618Y272442D01*
X699492Y274726D01*
X700222Y276091D01*
X702540Y276185D01*
X703801Y274541D01*
X706308Y272618D01*
X709227Y271409D01*
X712360Y270996D01*
X715493Y271409D01*
X718412Y272618D01*
X720919Y274541D01*
X722842Y277048D01*
X724051Y279967D01*
X724464Y283100D01*
Y293100D01*
X724051Y296233D01*
X722842Y299152D01*
X720919Y301658D01*
X718412Y303582D01*
X715493Y304791D01*
X712360Y305204D01*
X709227Y304791D01*
X706308Y303582D01*
X703801Y301658D01*
X702540Y300015D01*
X700222Y300110D01*
X699492Y301474D01*
X697618Y303758D01*
X695334Y305632D01*
X692728Y307025D01*
X691960Y307258D01*
D02*
G37*
G36*
X518990D02*
Y288100D01*
Y268942D01*
X519758Y269175D01*
X522364Y270568D01*
X524648Y272442D01*
X526522Y274726D01*
X527252Y276091D01*
X529570Y276185D01*
X530831Y274541D01*
X533338Y272618D01*
X536257Y271409D01*
X539390Y270996D01*
X542523Y271409D01*
X545442Y272618D01*
X547948Y274541D01*
X549872Y277048D01*
X551081Y279967D01*
X551494Y283100D01*
Y293100D01*
X551081Y296233D01*
X549872Y299152D01*
X547948Y301658D01*
X545442Y303582D01*
X542523Y304791D01*
X539390Y305204D01*
X536257Y304791D01*
X533338Y303582D01*
X530831Y301658D01*
X529570Y300015D01*
X527252Y300110D01*
X526522Y301474D01*
X524648Y303758D01*
X522364Y305632D01*
X519758Y307025D01*
X518990Y307258D01*
D02*
G37*
G36*
X417990Y307258D02*
Y288100D01*
Y268942D01*
X418758Y269175D01*
X421364Y270568D01*
X423648Y272442D01*
X425522Y274726D01*
X426252Y276091D01*
X428570Y276185D01*
X429832Y274541D01*
X432338Y272618D01*
X435257Y271409D01*
X438390Y270996D01*
X441523Y271409D01*
X444442Y272618D01*
X446949Y274541D01*
X448872Y277048D01*
X450081Y279967D01*
X450494Y283100D01*
Y293100D01*
X450081Y296233D01*
X448872Y299152D01*
X446949Y301658D01*
X444442Y303582D01*
X441523Y304791D01*
X438390Y305204D01*
X435257Y304791D01*
X432338Y303582D01*
X429832Y301658D01*
X428570Y300015D01*
X426252Y300110D01*
X425522Y301474D01*
X423648Y303758D01*
X421364Y305632D01*
X418758Y307025D01*
X417990Y307258D01*
D02*
G37*
G36*
X315990D02*
Y288100D01*
Y268942D01*
X316758Y269175D01*
X319364Y270568D01*
X321648Y272442D01*
X323522Y274726D01*
X324252Y276091D01*
X326570Y276185D01*
X327831Y274541D01*
X330338Y272618D01*
X333257Y271409D01*
X336390Y270996D01*
X339523Y271409D01*
X342442Y272618D01*
X344949Y274541D01*
X346872Y277048D01*
X348081Y279967D01*
X348494Y283100D01*
Y293100D01*
X348081Y296233D01*
X346872Y299152D01*
X344949Y301658D01*
X342442Y303582D01*
X339523Y304791D01*
X336390Y305204D01*
X333257Y304791D01*
X330338Y303582D01*
X327831Y301658D01*
X326570Y300015D01*
X324252Y300110D01*
X323522Y301474D01*
X321648Y303758D01*
X319364Y305632D01*
X316758Y307025D01*
X315990Y307258D01*
D02*
G37*
G36*
X213550Y307258D02*
Y288100D01*
Y268942D01*
X214318Y269175D01*
X216924Y270568D01*
X219208Y272442D01*
X221082Y274726D01*
X221812Y276091D01*
X224130Y276185D01*
X225392Y274541D01*
X227898Y272618D01*
X230817Y271409D01*
X233950Y270996D01*
X237083Y271409D01*
X240002Y272618D01*
X242509Y274541D01*
X244432Y277048D01*
X245641Y279967D01*
X246054Y283100D01*
Y293100D01*
X245641Y296233D01*
X244432Y299152D01*
X242509Y301658D01*
X240002Y303582D01*
X237083Y304791D01*
X233950Y305204D01*
X230817Y304791D01*
X227898Y303582D01*
X225392Y301658D01*
X224130Y300015D01*
X221812Y300110D01*
X221082Y301474D01*
X219208Y303758D01*
X216924Y305632D01*
X214318Y307025D01*
X213550Y307258D01*
D02*
G37*
G36*
X111950D02*
Y288100D01*
Y268942D01*
X112718Y269175D01*
X115324Y270568D01*
X117608Y272442D01*
X119482Y274726D01*
X120212Y276091D01*
X122530Y276185D01*
X123792Y274541D01*
X126298Y272618D01*
X129217Y271409D01*
X132350Y270996D01*
X135483Y271409D01*
X138402Y272618D01*
X140909Y274541D01*
X142832Y277048D01*
X144041Y279967D01*
X144454Y283100D01*
Y293100D01*
X144041Y296233D01*
X142832Y299152D01*
X140909Y301658D01*
X138402Y303582D01*
X135483Y304791D01*
X132350Y305204D01*
X129217Y304791D01*
X126298Y303582D01*
X123792Y301658D01*
X122530Y300015D01*
X120212Y300110D01*
X119482Y301474D01*
X117608Y303758D01*
X115324Y305632D01*
X112718Y307025D01*
X111950Y307258D01*
D02*
G37*
G36*
X1225995Y275000D02*
X1224005D01*
X1222168Y274239D01*
X1220761Y272832D01*
X1220000Y270995D01*
Y269006D01*
X1220761Y267168D01*
X1222168Y265761D01*
X1224005Y265000D01*
X1225995D01*
X1227832Y265761D01*
X1229239Y267168D01*
X1230000Y269006D01*
Y270995D01*
X1229239Y272832D01*
X1227832Y274239D01*
X1225995Y275000D01*
D02*
G37*
G36*
X1205995D02*
X1204005D01*
X1202168Y274239D01*
X1200761Y272832D01*
X1200000Y270995D01*
Y269006D01*
X1200761Y267168D01*
X1202168Y265761D01*
X1204005Y265000D01*
X1205995D01*
X1207832Y265761D01*
X1209239Y267168D01*
X1210000Y269006D01*
Y270995D01*
X1209239Y272832D01*
X1207832Y274239D01*
X1205995Y275000D01*
D02*
G37*
G36*
X1185995D02*
X1184005D01*
X1182168Y274239D01*
X1180761Y272832D01*
X1180000Y270995D01*
Y269006D01*
X1180761Y267168D01*
X1182168Y265761D01*
X1184005Y265000D01*
X1185995D01*
X1187832Y265761D01*
X1189239Y267168D01*
X1190000Y269006D01*
Y270995D01*
X1189239Y272832D01*
X1187832Y274239D01*
X1185995Y275000D01*
D02*
G37*
G36*
X1165995D02*
X1164005D01*
X1162168Y274239D01*
X1160761Y272832D01*
X1160000Y270995D01*
Y269006D01*
X1160761Y267168D01*
X1162168Y265761D01*
X1164005Y265000D01*
X1165995D01*
X1167832Y265761D01*
X1169239Y267168D01*
X1170000Y269006D01*
Y270995D01*
X1169239Y272832D01*
X1167832Y274239D01*
X1165995Y275000D01*
D02*
G37*
G36*
X1145995D02*
X1144005D01*
X1142168Y274239D01*
X1140761Y272832D01*
X1140000Y270995D01*
Y269006D01*
X1140761Y267168D01*
X1142168Y265761D01*
X1144005Y265000D01*
X1145995D01*
X1147832Y265761D01*
X1149239Y267168D01*
X1150000Y269006D01*
Y270995D01*
X1149239Y272832D01*
X1147832Y274239D01*
X1145995Y275000D01*
D02*
G37*
G36*
X1235995Y265000D02*
X1234005D01*
X1232168Y264239D01*
X1230761Y262832D01*
X1230000Y260995D01*
Y259006D01*
X1230761Y257168D01*
X1232168Y255761D01*
X1234005Y255000D01*
X1235995D01*
X1237832Y255761D01*
X1239239Y257168D01*
X1240000Y259006D01*
Y260995D01*
X1239239Y262832D01*
X1237832Y264239D01*
X1235995Y265000D01*
D02*
G37*
G36*
X1215995D02*
X1214005D01*
X1212168Y264239D01*
X1210761Y262832D01*
X1210000Y260995D01*
Y259006D01*
X1210761Y257168D01*
X1212168Y255761D01*
X1214005Y255000D01*
X1215995D01*
X1217832Y255761D01*
X1219239Y257168D01*
X1220000Y259006D01*
Y260995D01*
X1219239Y262832D01*
X1217832Y264239D01*
X1215995Y265000D01*
D02*
G37*
G36*
X1195995D02*
X1194005D01*
X1192168Y264239D01*
X1190761Y262832D01*
X1190000Y260995D01*
Y259006D01*
X1190761Y257168D01*
X1192168Y255761D01*
X1194005Y255000D01*
X1195995D01*
X1197832Y255761D01*
X1199239Y257168D01*
X1200000Y259006D01*
Y260995D01*
X1199239Y262832D01*
X1197832Y264239D01*
X1195995Y265000D01*
D02*
G37*
G36*
X1175995D02*
X1174005D01*
X1172168Y264239D01*
X1170761Y262832D01*
X1170000Y260995D01*
Y259006D01*
X1170761Y257168D01*
X1172168Y255761D01*
X1174005Y255000D01*
X1175995D01*
X1177832Y255761D01*
X1179239Y257168D01*
X1180000Y259006D01*
Y260995D01*
X1179239Y262832D01*
X1177832Y264239D01*
X1175995Y265000D01*
D02*
G37*
G36*
X1155995D02*
X1154005D01*
X1152168Y264239D01*
X1150761Y262832D01*
X1150000Y260995D01*
Y259006D01*
X1150761Y257168D01*
X1152168Y255761D01*
X1154005Y255000D01*
X1155995D01*
X1157832Y255761D01*
X1159239Y257168D01*
X1160000Y259006D01*
Y260995D01*
X1159239Y262832D01*
X1157832Y264239D01*
X1155995Y265000D01*
D02*
G37*
G36*
X1321994Y343450D02*
X1320005D01*
X1318168Y342689D01*
X1316761Y341282D01*
X1316000Y339445D01*
Y337455D01*
X1316761Y335618D01*
X1316922Y335457D01*
Y261443D01*
X1316761Y261282D01*
X1316000Y259445D01*
Y257455D01*
X1316761Y255618D01*
X1318168Y254211D01*
X1320005Y253450D01*
X1321995D01*
X1323832Y254211D01*
X1325239Y255618D01*
X1326000Y257455D01*
Y259445D01*
X1325239Y261282D01*
X1325078Y261443D01*
Y335457D01*
X1325239Y335618D01*
X1326000Y337455D01*
Y339445D01*
X1325239Y341282D01*
X1323832Y342689D01*
X1321994Y343450D01*
D02*
G37*
G36*
X1225995Y255000D02*
X1224005D01*
X1222168Y254239D01*
X1220761Y252832D01*
X1220000Y250995D01*
Y249006D01*
X1220761Y247168D01*
X1222168Y245761D01*
X1224005Y245000D01*
X1225995D01*
X1227832Y245761D01*
X1229239Y247168D01*
X1230000Y249006D01*
Y250995D01*
X1229239Y252832D01*
X1227832Y254239D01*
X1225995Y255000D01*
D02*
G37*
G36*
X1205995D02*
X1204005D01*
X1202168Y254239D01*
X1200761Y252832D01*
X1200000Y250995D01*
Y249006D01*
X1200761Y247168D01*
X1202168Y245761D01*
X1204005Y245000D01*
X1205995D01*
X1207832Y245761D01*
X1209239Y247168D01*
X1210000Y249006D01*
Y250995D01*
X1209239Y252832D01*
X1207832Y254239D01*
X1205995Y255000D01*
D02*
G37*
G36*
X1185995D02*
X1184005D01*
X1182168Y254239D01*
X1180761Y252832D01*
X1180000Y250995D01*
Y249006D01*
X1180761Y247168D01*
X1182168Y245761D01*
X1184005Y245000D01*
X1185995D01*
X1187832Y245761D01*
X1189239Y247168D01*
X1190000Y249006D01*
Y250995D01*
X1189239Y252832D01*
X1187832Y254239D01*
X1185995Y255000D01*
D02*
G37*
G36*
X1165995D02*
X1164005D01*
X1162168Y254239D01*
X1160761Y252832D01*
X1160000Y250995D01*
Y249006D01*
X1160761Y247168D01*
X1162168Y245761D01*
X1164005Y245000D01*
X1165995D01*
X1167832Y245761D01*
X1169239Y247168D01*
X1170000Y249006D01*
Y250995D01*
X1169239Y252832D01*
X1167832Y254239D01*
X1165995Y255000D01*
D02*
G37*
G36*
X1145995D02*
X1144005D01*
X1142168Y254239D01*
X1140761Y252832D01*
X1140000Y250995D01*
Y249006D01*
X1140761Y247168D01*
X1142168Y245761D01*
X1144005Y245000D01*
X1145995D01*
X1147832Y245761D01*
X1149239Y247168D01*
X1150000Y249006D01*
Y250995D01*
X1149239Y252832D01*
X1147832Y254239D01*
X1145995Y255000D01*
D02*
G37*
G36*
X1782500Y237314D02*
X1780000D01*
X1778732Y237062D01*
X1777657Y236343D01*
X1777361Y235900D01*
X1777225Y235853D01*
X1775275D01*
X1775139Y235900D01*
X1774843Y236343D01*
X1773768Y237062D01*
X1772500Y237314D01*
X1770000D01*
X1768732Y237062D01*
X1767657Y236343D01*
X1766939Y235268D01*
X1766686Y234000D01*
Y230500D01*
X1766939Y229232D01*
X1767657Y228157D01*
X1768395Y227664D01*
Y220836D01*
X1767657Y220343D01*
X1766939Y219268D01*
X1766686Y218000D01*
Y214500D01*
X1766939Y213232D01*
X1767657Y212157D01*
X1768395Y211664D01*
Y194970D01*
X1767583Y194753D01*
X1765417Y193502D01*
X1763648Y191733D01*
X1762397Y189567D01*
X1761750Y187151D01*
Y184649D01*
X1762397Y182233D01*
X1763648Y180067D01*
X1765417Y178298D01*
X1767583Y177047D01*
X1769999Y176400D01*
X1772501D01*
X1774917Y177047D01*
X1777083Y178298D01*
X1778852Y180067D01*
X1780103Y182233D01*
X1780750Y184649D01*
Y187151D01*
X1780103Y189567D01*
X1778852Y191733D01*
X1777083Y193502D01*
X1774917Y194753D01*
X1774105Y194970D01*
Y211664D01*
X1774843Y212157D01*
X1775561Y213232D01*
X1775814Y214500D01*
Y218000D01*
X1775561Y219268D01*
X1774843Y220343D01*
X1774105Y220836D01*
Y227664D01*
X1774843Y228157D01*
X1775139Y228599D01*
X1775275Y228647D01*
X1777225D01*
X1777361Y228599D01*
X1777657Y228157D01*
X1778732Y227439D01*
X1780000Y227186D01*
X1782500D01*
X1783768Y227439D01*
X1784843Y228157D01*
X1784853Y228172D01*
X1786757D01*
X1786918Y228011D01*
X1788755Y227250D01*
X1790745D01*
X1792582Y228011D01*
X1793989Y229418D01*
X1794750Y231255D01*
Y233245D01*
X1793989Y235082D01*
X1792582Y236489D01*
X1790745Y237250D01*
X1788755D01*
X1786918Y236489D01*
X1786757Y236328D01*
X1784853D01*
X1784843Y236343D01*
X1783768Y237062D01*
X1782500Y237314D01*
D02*
G37*
G36*
X1235995Y245000D02*
X1234005D01*
X1232168Y244239D01*
X1230761Y242832D01*
X1230000Y240995D01*
Y239006D01*
X1230761Y237168D01*
X1232168Y235761D01*
X1234005Y235000D01*
X1235995D01*
X1237832Y235761D01*
X1239239Y237168D01*
X1240000Y239006D01*
Y240995D01*
X1239239Y242832D01*
X1237832Y244239D01*
X1235995Y245000D01*
D02*
G37*
G36*
X1215995D02*
X1214005D01*
X1212168Y244239D01*
X1210761Y242832D01*
X1210000Y240995D01*
Y239006D01*
X1210761Y237168D01*
X1212168Y235761D01*
X1214005Y235000D01*
X1215995D01*
X1217832Y235761D01*
X1219239Y237168D01*
X1220000Y239006D01*
Y240995D01*
X1219239Y242832D01*
X1217832Y244239D01*
X1215995Y245000D01*
D02*
G37*
G36*
X1195995D02*
X1194005D01*
X1192168Y244239D01*
X1190761Y242832D01*
X1190000Y240995D01*
Y239006D01*
X1190761Y237168D01*
X1192168Y235761D01*
X1194005Y235000D01*
X1195995D01*
X1197832Y235761D01*
X1199239Y237168D01*
X1200000Y239006D01*
Y240995D01*
X1199239Y242832D01*
X1197832Y244239D01*
X1195995Y245000D01*
D02*
G37*
G36*
X1175995D02*
X1174005D01*
X1172168Y244239D01*
X1170761Y242832D01*
X1170000Y240995D01*
Y239006D01*
X1170761Y237168D01*
X1172168Y235761D01*
X1174005Y235000D01*
X1175995D01*
X1177832Y235761D01*
X1179239Y237168D01*
X1180000Y239006D01*
Y240995D01*
X1179239Y242832D01*
X1177832Y244239D01*
X1175995Y245000D01*
D02*
G37*
G36*
X1155995D02*
X1154005D01*
X1152168Y244239D01*
X1150761Y242832D01*
X1150000Y240995D01*
Y239006D01*
X1150761Y237168D01*
X1152168Y235761D01*
X1154005Y235000D01*
X1155995D01*
X1157832Y235761D01*
X1159239Y237168D01*
X1160000Y239006D01*
Y240995D01*
X1159239Y242832D01*
X1157832Y244239D01*
X1155995Y245000D01*
D02*
G37*
G36*
X1225995Y235000D02*
X1224005D01*
X1222168Y234239D01*
X1220761Y232832D01*
X1220000Y230995D01*
Y229006D01*
X1220761Y227168D01*
X1222168Y225761D01*
X1224005Y225000D01*
X1225995D01*
X1227832Y225761D01*
X1229239Y227168D01*
X1230000Y229006D01*
Y230995D01*
X1229239Y232832D01*
X1227832Y234239D01*
X1225995Y235000D01*
D02*
G37*
G36*
X1205995D02*
X1204005D01*
X1202168Y234239D01*
X1200761Y232832D01*
X1200000Y230995D01*
Y229006D01*
X1200761Y227168D01*
X1202168Y225761D01*
X1204005Y225000D01*
X1205995D01*
X1207832Y225761D01*
X1209239Y227168D01*
X1210000Y229006D01*
Y230995D01*
X1209239Y232832D01*
X1207832Y234239D01*
X1205995Y235000D01*
D02*
G37*
G36*
X1185995D02*
X1184005D01*
X1182168Y234239D01*
X1180761Y232832D01*
X1180000Y230995D01*
Y229006D01*
X1180761Y227168D01*
X1182168Y225761D01*
X1184005Y225000D01*
X1185995D01*
X1187832Y225761D01*
X1189239Y227168D01*
X1190000Y229006D01*
Y230995D01*
X1189239Y232832D01*
X1187832Y234239D01*
X1185995Y235000D01*
D02*
G37*
G36*
X1165995D02*
X1164005D01*
X1162168Y234239D01*
X1160761Y232832D01*
X1160000Y230995D01*
Y229006D01*
X1160761Y227168D01*
X1162168Y225761D01*
X1164005Y225000D01*
X1165995D01*
X1167832Y225761D01*
X1169239Y227168D01*
X1170000Y229006D01*
Y230995D01*
X1169239Y232832D01*
X1167832Y234239D01*
X1165995Y235000D01*
D02*
G37*
G36*
X1145995D02*
X1144005D01*
X1142168Y234239D01*
X1140761Y232832D01*
X1140000Y230995D01*
Y229006D01*
X1140761Y227168D01*
X1142168Y225761D01*
X1144005Y225000D01*
X1145995D01*
X1147832Y225761D01*
X1149239Y227168D01*
X1150000Y229006D01*
Y230995D01*
X1149239Y232832D01*
X1147832Y234239D01*
X1145995Y235000D01*
D02*
G37*
G36*
X1235995Y225000D02*
X1234005D01*
X1232168Y224239D01*
X1230761Y222832D01*
X1230000Y220995D01*
Y219006D01*
X1230761Y217168D01*
X1232168Y215761D01*
X1234005Y215000D01*
X1235995D01*
X1237832Y215761D01*
X1239239Y217168D01*
X1240000Y219006D01*
Y220995D01*
X1239239Y222832D01*
X1237832Y224239D01*
X1235995Y225000D01*
D02*
G37*
G36*
X1215995D02*
X1214005D01*
X1212168Y224239D01*
X1210761Y222832D01*
X1210000Y220995D01*
Y219006D01*
X1210761Y217168D01*
X1212168Y215761D01*
X1214005Y215000D01*
X1215995D01*
X1217832Y215761D01*
X1219239Y217168D01*
X1220000Y219006D01*
Y220995D01*
X1219239Y222832D01*
X1217832Y224239D01*
X1215995Y225000D01*
D02*
G37*
G36*
X1195995D02*
X1194005D01*
X1192168Y224239D01*
X1190761Y222832D01*
X1190000Y220995D01*
Y219006D01*
X1190761Y217168D01*
X1192168Y215761D01*
X1194005Y215000D01*
X1195995D01*
X1197832Y215761D01*
X1199239Y217168D01*
X1200000Y219006D01*
Y220995D01*
X1199239Y222832D01*
X1197832Y224239D01*
X1195995Y225000D01*
D02*
G37*
G36*
X1175995D02*
X1174005D01*
X1172168Y224239D01*
X1170761Y222832D01*
X1170000Y220995D01*
Y219006D01*
X1170761Y217168D01*
X1172168Y215761D01*
X1174005Y215000D01*
X1175995D01*
X1177832Y215761D01*
X1179239Y217168D01*
X1180000Y219006D01*
Y220995D01*
X1179239Y222832D01*
X1177832Y224239D01*
X1175995Y225000D01*
D02*
G37*
G36*
X1155995D02*
X1154005D01*
X1152168Y224239D01*
X1150761Y222832D01*
X1150000Y220995D01*
Y219006D01*
X1150761Y217168D01*
X1152168Y215761D01*
X1154005Y215000D01*
X1155995D01*
X1157832Y215761D01*
X1159239Y217168D01*
X1160000Y219006D01*
Y220995D01*
X1159239Y222832D01*
X1157832Y224239D01*
X1155995Y225000D01*
D02*
G37*
G36*
X1225995Y215000D02*
X1224005D01*
X1222168Y214239D01*
X1220761Y212832D01*
X1220000Y210995D01*
Y209005D01*
X1220761Y207168D01*
X1222168Y205761D01*
X1224005Y205000D01*
X1225995D01*
X1227832Y205761D01*
X1229239Y207168D01*
X1230000Y209005D01*
Y210995D01*
X1229239Y212832D01*
X1227832Y214239D01*
X1225995Y215000D01*
D02*
G37*
G36*
X1205995D02*
X1204005D01*
X1202168Y214239D01*
X1200761Y212832D01*
X1200000Y210995D01*
Y209005D01*
X1200761Y207168D01*
X1202168Y205761D01*
X1204005Y205000D01*
X1205995D01*
X1207832Y205761D01*
X1209239Y207168D01*
X1210000Y209005D01*
Y210995D01*
X1209239Y212832D01*
X1207832Y214239D01*
X1205995Y215000D01*
D02*
G37*
G36*
X1185995D02*
X1184005D01*
X1182168Y214239D01*
X1180761Y212832D01*
X1180000Y210995D01*
Y209005D01*
X1180761Y207168D01*
X1182168Y205761D01*
X1184005Y205000D01*
X1185995D01*
X1187832Y205761D01*
X1189239Y207168D01*
X1190000Y209005D01*
Y210995D01*
X1189239Y212832D01*
X1187832Y214239D01*
X1185995Y215000D01*
D02*
G37*
G36*
X1165995D02*
X1164005D01*
X1162168Y214239D01*
X1160761Y212832D01*
X1160000Y210995D01*
Y209005D01*
X1160761Y207168D01*
X1162168Y205761D01*
X1164005Y205000D01*
X1165995D01*
X1167832Y205761D01*
X1169239Y207168D01*
X1170000Y209005D01*
Y210995D01*
X1169239Y212832D01*
X1167832Y214239D01*
X1165995Y215000D01*
D02*
G37*
G36*
X1145995D02*
X1144005D01*
X1142168Y214239D01*
X1140761Y212832D01*
X1140000Y210995D01*
Y209005D01*
X1140761Y207168D01*
X1142168Y205761D01*
X1144005Y205000D01*
X1145995D01*
X1147832Y205761D01*
X1149239Y207168D01*
X1150000Y209005D01*
Y210995D01*
X1149239Y212832D01*
X1147832Y214239D01*
X1145995Y215000D01*
D02*
G37*
G36*
X1235995Y205000D02*
X1234005D01*
X1232168Y204239D01*
X1230761Y202832D01*
X1230000Y200995D01*
Y199005D01*
X1230761Y197168D01*
X1232168Y195761D01*
X1234005Y195000D01*
X1235995D01*
X1237832Y195761D01*
X1239239Y197168D01*
X1240000Y199005D01*
Y200995D01*
X1239239Y202832D01*
X1237832Y204239D01*
X1235995Y205000D01*
D02*
G37*
G36*
X1215995D02*
X1214005D01*
X1212168Y204239D01*
X1210761Y202832D01*
X1210000Y200995D01*
Y199005D01*
X1210761Y197168D01*
X1212168Y195761D01*
X1214005Y195000D01*
X1215995D01*
X1217832Y195761D01*
X1219239Y197168D01*
X1220000Y199005D01*
Y200995D01*
X1219239Y202832D01*
X1217832Y204239D01*
X1215995Y205000D01*
D02*
G37*
G36*
X1195995D02*
X1194005D01*
X1192168Y204239D01*
X1190761Y202832D01*
X1190000Y200995D01*
Y199005D01*
X1190761Y197168D01*
X1192168Y195761D01*
X1194005Y195000D01*
X1195995D01*
X1197832Y195761D01*
X1199239Y197168D01*
X1200000Y199005D01*
Y200995D01*
X1199239Y202832D01*
X1197832Y204239D01*
X1195995Y205000D01*
D02*
G37*
G36*
X1175995D02*
X1174005D01*
X1172168Y204239D01*
X1170761Y202832D01*
X1170000Y200995D01*
Y199005D01*
X1170761Y197168D01*
X1172168Y195761D01*
X1174005Y195000D01*
X1175995D01*
X1177832Y195761D01*
X1179239Y197168D01*
X1180000Y199005D01*
Y200995D01*
X1179239Y202832D01*
X1177832Y204239D01*
X1175995Y205000D01*
D02*
G37*
G36*
X1155995D02*
X1154005D01*
X1152168Y204239D01*
X1150761Y202832D01*
X1150000Y200995D01*
Y199005D01*
X1150761Y197168D01*
X1152168Y195761D01*
X1154005Y195000D01*
X1155995D01*
X1157832Y195761D01*
X1159239Y197168D01*
X1160000Y199005D01*
Y200995D01*
X1159239Y202832D01*
X1157832Y204239D01*
X1155995Y205000D01*
D02*
G37*
G36*
X1852450Y197447D02*
Y190900D01*
X1858997D01*
X1857453Y193575D01*
X1855125Y195903D01*
X1852450Y197447D01*
D02*
G37*
G36*
X1842450Y197447D02*
X1839775Y195903D01*
X1837448Y193575D01*
X1835903Y190900D01*
X1842450D01*
Y197447D01*
D02*
G37*
G36*
X1823301Y195400D02*
X1820799D01*
X1818383Y194753D01*
X1816217Y193502D01*
X1814448Y191733D01*
X1813197Y189567D01*
X1812550Y187151D01*
Y184649D01*
X1813197Y182233D01*
X1814448Y180067D01*
X1816217Y178298D01*
X1818383Y177047D01*
X1820799Y176400D01*
X1823301D01*
X1825717Y177047D01*
X1827883Y178298D01*
X1829652Y180067D01*
X1830903Y182233D01*
X1831550Y184649D01*
Y187151D01*
X1830903Y189567D01*
X1829652Y191733D01*
X1827883Y193502D01*
X1825717Y194753D01*
X1823301Y195400D01*
D02*
G37*
G36*
X1797901D02*
X1795399D01*
X1792983Y194753D01*
X1790817Y193502D01*
X1789048Y191733D01*
X1787797Y189567D01*
X1787150Y187151D01*
Y184649D01*
X1787797Y182233D01*
X1789048Y180067D01*
X1790817Y178298D01*
X1792983Y177047D01*
X1795399Y176400D01*
X1797901D01*
X1800317Y177047D01*
X1802483Y178298D01*
X1804252Y180067D01*
X1805503Y182233D01*
X1806150Y184649D01*
Y187151D01*
X1805503Y189567D01*
X1804252Y191733D01*
X1802483Y193502D01*
X1800317Y194753D01*
X1797901Y195400D01*
D02*
G37*
G36*
X1858997Y180900D02*
X1852450D01*
Y174353D01*
X1855125Y175898D01*
X1857453Y178225D01*
X1858997Y180900D01*
D02*
G37*
G36*
X1842450D02*
X1835903D01*
X1837448Y178225D01*
X1839775Y175898D01*
X1842450Y174353D01*
Y180900D01*
D02*
G37*
G36*
X1314200Y187717D02*
Y172300D01*
X1329617D01*
X1329393Y173425D01*
X1327810Y177247D01*
X1325512Y180687D01*
X1322587Y183612D01*
X1319147Y185910D01*
X1315325Y187493D01*
X1314200Y187717D01*
D02*
G37*
G36*
X1304200D02*
X1303074Y187493D01*
X1299253Y185910D01*
X1295813Y183612D01*
X1292888Y180687D01*
X1290590Y177247D01*
X1289007Y173425D01*
X1288783Y172300D01*
X1304200D01*
Y187717D01*
D02*
G37*
G36*
X1836001Y170000D02*
X1833499D01*
X1831083Y169352D01*
X1828917Y168102D01*
X1827148Y166333D01*
X1825897Y164167D01*
X1825250Y161751D01*
Y159249D01*
X1825897Y156833D01*
X1827148Y154667D01*
X1828917Y152898D01*
X1831083Y151647D01*
X1833499Y151000D01*
X1836001D01*
X1838417Y151647D01*
X1840583Y152898D01*
X1842352Y154667D01*
X1843603Y156833D01*
X1844250Y159249D01*
Y161751D01*
X1843603Y164167D01*
X1842352Y166333D01*
X1840583Y168102D01*
X1838417Y169352D01*
X1836001Y170000D01*
D02*
G37*
G36*
X1785201D02*
X1782699D01*
X1780283Y169352D01*
X1778117Y168102D01*
X1776348Y166333D01*
X1775097Y164167D01*
X1774450Y161751D01*
Y159249D01*
X1775097Y156833D01*
X1776348Y154667D01*
X1778117Y152898D01*
X1780283Y151647D01*
X1782699Y151000D01*
X1785201D01*
X1787617Y151647D01*
X1789783Y152898D01*
X1791552Y154667D01*
X1792803Y156833D01*
X1793450Y159249D01*
Y161751D01*
X1792803Y164167D01*
X1791552Y166333D01*
X1789783Y168102D01*
X1787617Y169352D01*
X1785201Y170000D01*
D02*
G37*
G36*
X1759801D02*
X1757299D01*
X1754883Y169352D01*
X1752717Y168102D01*
X1750948Y166333D01*
X1749697Y164167D01*
X1749050Y161751D01*
Y159249D01*
X1749697Y156833D01*
X1750948Y154667D01*
X1752717Y152898D01*
X1754883Y151647D01*
X1757299Y151000D01*
X1759801D01*
X1762217Y151647D01*
X1764383Y152898D01*
X1766152Y154667D01*
X1767403Y156833D01*
X1768050Y159249D01*
Y161751D01*
X1767403Y164167D01*
X1766152Y166333D01*
X1764383Y168102D01*
X1762217Y169352D01*
X1759801Y170000D01*
D02*
G37*
G36*
X1329617Y162300D02*
X1314200D01*
Y146883D01*
X1315325Y147107D01*
X1319147Y148690D01*
X1322587Y150988D01*
X1325512Y153913D01*
X1327810Y157353D01*
X1329393Y161175D01*
X1329617Y162300D01*
D02*
G37*
G36*
X1304200D02*
X1288783D01*
X1289007Y161175D01*
X1290590Y157353D01*
X1292888Y153913D01*
X1295813Y150988D01*
X1299253Y148690D01*
X1303074Y147107D01*
X1304200Y146883D01*
Y162300D01*
D02*
G37*
G36*
X1927995Y140000D02*
X1926005D01*
X1924168Y139239D01*
X1922761Y137832D01*
X1922000Y135995D01*
Y134005D01*
X1922761Y132168D01*
X1924168Y130761D01*
X1926005Y130000D01*
X1927995D01*
X1929832Y130761D01*
X1931239Y132168D01*
X1932000Y134005D01*
Y135995D01*
X1931239Y137832D01*
X1929832Y139239D01*
X1927995Y140000D01*
D02*
G37*
G36*
X1679995D02*
X1678005D01*
X1676168Y139239D01*
X1674761Y137832D01*
X1674000Y135995D01*
Y134005D01*
X1674761Y132168D01*
X1676168Y130761D01*
X1678005Y130000D01*
X1679995D01*
X1681832Y130761D01*
X1683239Y132168D01*
X1684000Y134005D01*
Y135995D01*
X1683239Y137832D01*
X1681832Y139239D01*
X1679995Y140000D01*
D02*
G37*
G36*
X1882293Y141500D02*
X1878607D01*
X1875046Y140546D01*
X1871854Y138703D01*
X1869247Y136096D01*
X1867404Y132904D01*
X1866912Y131068D01*
X1850000D01*
X1848634Y130797D01*
X1847477Y130023D01*
X1833022Y115569D01*
X1812930D01*
X1812724Y116603D01*
X1811674Y118174D01*
X1810103Y119224D01*
X1808250Y119593D01*
X1797750D01*
X1795897Y119224D01*
X1794326Y118174D01*
X1793276Y116603D01*
X1793070Y115569D01*
X1772978D01*
X1758523Y130023D01*
X1757366Y130797D01*
X1756000Y131068D01*
X1739088D01*
X1738596Y132904D01*
X1736753Y136096D01*
X1734146Y138703D01*
X1730954Y140546D01*
X1727393Y141500D01*
X1723707D01*
X1720146Y140546D01*
X1716954Y138703D01*
X1714347Y136096D01*
X1712504Y132904D01*
X1711550Y129343D01*
Y125657D01*
X1712504Y122096D01*
X1714347Y118904D01*
X1716954Y116297D01*
X1720146Y114454D01*
X1723707Y113500D01*
X1727393D01*
X1730954Y114454D01*
X1734146Y116297D01*
X1736753Y118904D01*
X1738596Y122096D01*
X1739088Y123931D01*
X1754522D01*
X1768977Y109477D01*
X1770134Y108703D01*
X1771500Y108431D01*
X1793070D01*
X1793276Y107397D01*
X1794326Y105826D01*
X1795897Y104776D01*
X1797750Y104407D01*
X1808250D01*
X1810103Y104776D01*
X1811674Y105826D01*
X1812724Y107397D01*
X1812930Y108431D01*
X1834500D01*
X1835866Y108703D01*
X1837023Y109477D01*
X1851478Y123931D01*
X1866912D01*
X1867404Y122096D01*
X1869247Y118904D01*
X1871854Y116297D01*
X1875046Y114454D01*
X1878607Y113500D01*
X1882293D01*
X1885854Y114454D01*
X1889046Y116297D01*
X1891653Y118904D01*
X1893496Y122096D01*
X1894450Y125657D01*
Y129343D01*
X1893496Y132904D01*
X1891653Y136096D01*
X1889046Y138703D01*
X1885854Y140546D01*
X1882293Y141500D01*
D02*
G37*
G36*
X1861947Y115250D02*
X1858353D01*
X1854827Y114549D01*
X1851505Y113173D01*
X1848516Y111176D01*
X1845974Y108634D01*
X1843977Y105645D01*
X1842601Y102323D01*
X1841900Y98798D01*
Y95203D01*
X1842601Y91677D01*
X1843977Y88355D01*
X1845974Y85366D01*
X1848516Y82824D01*
X1851505Y80827D01*
X1854827Y79451D01*
X1858353Y78750D01*
X1861947D01*
X1865473Y79451D01*
X1868795Y80827D01*
X1871784Y82824D01*
X1874326Y85366D01*
X1876323Y88355D01*
X1877699Y91677D01*
X1878400Y95203D01*
Y98798D01*
X1877699Y102323D01*
X1876323Y105645D01*
X1874326Y108634D01*
X1871784Y111176D01*
X1868795Y113173D01*
X1865473Y114549D01*
X1861947Y115250D01*
D02*
G37*
G36*
X1747648D02*
X1744052D01*
X1740527Y114549D01*
X1737205Y113173D01*
X1734216Y111176D01*
X1731674Y108634D01*
X1729677Y105645D01*
X1728301Y102323D01*
X1727600Y98798D01*
Y95203D01*
X1728301Y91677D01*
X1729677Y88355D01*
X1731674Y85366D01*
X1734216Y82824D01*
X1737205Y80827D01*
X1740527Y79451D01*
X1744052Y78750D01*
X1747648D01*
X1751173Y79451D01*
X1754495Y80827D01*
X1757484Y82824D01*
X1760026Y85366D01*
X1762023Y88355D01*
X1763399Y91677D01*
X1764100Y95203D01*
Y98798D01*
X1763399Y102323D01*
X1762023Y105645D01*
X1760026Y108634D01*
X1757484Y111176D01*
X1754495Y113173D01*
X1751173Y114549D01*
X1747648Y115250D01*
D02*
G37*
G36*
X1314200Y86117D02*
Y70700D01*
X1329617D01*
X1329393Y71825D01*
X1327810Y75647D01*
X1325512Y79087D01*
X1322587Y82012D01*
X1319147Y84310D01*
X1315325Y85893D01*
X1314200Y86117D01*
D02*
G37*
G36*
X1304200D02*
X1303074Y85893D01*
X1299253Y84310D01*
X1295813Y82012D01*
X1292888Y79087D01*
X1290590Y75647D01*
X1289007Y71825D01*
X1288783Y70700D01*
X1304200D01*
Y86117D01*
D02*
G37*
G36*
X1824995Y810000D02*
X1823005D01*
X1821168Y809239D01*
X1819761Y807832D01*
X1819000Y805995D01*
Y804005D01*
X1819761Y802168D01*
X1821168Y800761D01*
X1823005Y800000D01*
X1823953D01*
X1831431Y792522D01*
Y541478D01*
X1824953Y535000D01*
X1824005D01*
X1822168Y534239D01*
X1820761Y532832D01*
X1820000Y530995D01*
Y529005D01*
X1820761Y527168D01*
X1821431Y526497D01*
Y512478D01*
X1790522Y481569D01*
X1703000D01*
X1701634Y481297D01*
X1700477Y480523D01*
X1688477Y468523D01*
X1687703Y467366D01*
X1687431Y466000D01*
Y90000D01*
X1687703Y88634D01*
X1688477Y87477D01*
X1707477Y68477D01*
X1708634Y67703D01*
X1710000Y67431D01*
X1733268D01*
X1733531Y65431D01*
X1732987Y65286D01*
X1730763Y64002D01*
X1728948Y62187D01*
X1727664Y59963D01*
X1727000Y57484D01*
Y54916D01*
X1727664Y52437D01*
X1728948Y50213D01*
X1730763Y48398D01*
X1732987Y47115D01*
X1735466Y46450D01*
X1738034D01*
X1740513Y47115D01*
X1742737Y48398D01*
X1744552Y50213D01*
X1745836Y52437D01*
X1746500Y54916D01*
Y57484D01*
X1745836Y59963D01*
X1744552Y62187D01*
X1742737Y64002D01*
X1740513Y65286D01*
X1739969Y65431D01*
X1740232Y67431D01*
X1745872D01*
X1753165Y60138D01*
X1753065Y59963D01*
X1752400Y57484D01*
Y54916D01*
X1753065Y52437D01*
X1754348Y50213D01*
X1756163Y48398D01*
X1758387Y47115D01*
X1760866Y46450D01*
X1763434D01*
X1765913Y47115D01*
X1768137Y48398D01*
X1769952Y50213D01*
X1771236Y52437D01*
X1771900Y54916D01*
Y57484D01*
X1771236Y59963D01*
X1769952Y62187D01*
X1768137Y64002D01*
X1765913Y65286D01*
X1763434Y65950D01*
X1760866D01*
X1758387Y65286D01*
X1758212Y65185D01*
X1749873Y73523D01*
X1748716Y74297D01*
X1747350Y74569D01*
X1711478D01*
X1694569Y91478D01*
Y464522D01*
X1704478Y474431D01*
X1792000D01*
X1793366Y474703D01*
X1794523Y475477D01*
X1810000Y490953D01*
X1812000Y490125D01*
Y489005D01*
X1812761Y487168D01*
X1814168Y485761D01*
X1816005Y485000D01*
X1817995D01*
X1819832Y485761D01*
X1820502Y486431D01*
X1848522D01*
X1870431Y464522D01*
Y326000D01*
X1870703Y324634D01*
X1871477Y323477D01*
X1901431Y293522D01*
Y93428D01*
X1873188Y65185D01*
X1873013Y65286D01*
X1870534Y65950D01*
X1867966D01*
X1865487Y65286D01*
X1863263Y64002D01*
X1861448Y62187D01*
X1860164Y59963D01*
X1859500Y57484D01*
Y54916D01*
X1860164Y52437D01*
X1861448Y50213D01*
X1863263Y48398D01*
X1865487Y47115D01*
X1867966Y46450D01*
X1870534D01*
X1873013Y47115D01*
X1875237Y48398D01*
X1877052Y50213D01*
X1878336Y52437D01*
X1879000Y54916D01*
Y57484D01*
X1878336Y59963D01*
X1878235Y60138D01*
X1907523Y89427D01*
X1908297Y90584D01*
X1908569Y91950D01*
Y295000D01*
X1908297Y296366D01*
X1907523Y297523D01*
X1877569Y327478D01*
Y466000D01*
X1877297Y467366D01*
X1876523Y468523D01*
X1852523Y492523D01*
X1851366Y493297D01*
X1850000Y493569D01*
X1820502D01*
X1819832Y494239D01*
X1817995Y495000D01*
X1816875D01*
X1816047Y497000D01*
X1827523Y508477D01*
X1828297Y509634D01*
X1828569Y511000D01*
Y526497D01*
X1829239Y527168D01*
X1830000Y529005D01*
Y529953D01*
X1837523Y537477D01*
X1838297Y538634D01*
X1838569Y540000D01*
Y794000D01*
X1838297Y795366D01*
X1837523Y796523D01*
X1829000Y805047D01*
Y805995D01*
X1828239Y807832D01*
X1826832Y809239D01*
X1824995Y810000D01*
D02*
G37*
G36*
X361200Y70417D02*
X360075Y70193D01*
X356253Y68610D01*
X352813Y66312D01*
X349888Y63387D01*
X347590Y59947D01*
X346007Y56125D01*
X345783Y55000D01*
X361200D01*
Y70417D01*
D02*
G37*
G36*
X462800D02*
X461675Y70193D01*
X457853Y68610D01*
X454413Y66312D01*
X451488Y63387D01*
X449190Y59947D01*
X447607Y56125D01*
X447383Y55000D01*
X462800D01*
Y70417D01*
D02*
G37*
G36*
X259600D02*
X258475Y70193D01*
X254653Y68610D01*
X251213Y66312D01*
X248288Y63387D01*
X245990Y59947D01*
X244407Y56125D01*
X244183Y55000D01*
X259600D01*
Y70417D01*
D02*
G37*
G36*
X158000D02*
X156875Y70193D01*
X153053Y68610D01*
X149613Y66312D01*
X146688Y63387D01*
X144390Y59947D01*
X142807Y56125D01*
X142583Y55000D01*
X158000D01*
Y70417D01*
D02*
G37*
G36*
X56400D02*
X55275Y70193D01*
X51453Y68610D01*
X48013Y66312D01*
X45088Y63387D01*
X42790Y59947D01*
X41207Y56125D01*
X40983Y55000D01*
X56400D01*
Y70417D01*
D02*
G37*
G36*
X839600Y67417D02*
X838475Y67193D01*
X834653Y65610D01*
X831213Y63312D01*
X828288Y60387D01*
X825990Y56947D01*
X824407Y53125D01*
X824183Y52000D01*
X839600D01*
Y67417D01*
D02*
G37*
G36*
X941200D02*
X940075Y67193D01*
X936253Y65610D01*
X932813Y63312D01*
X929888Y60387D01*
X927590Y56947D01*
X926007Y53125D01*
X925783Y52000D01*
X941200D01*
Y67417D01*
D02*
G37*
G36*
X738000D02*
X736875Y67193D01*
X733053Y65610D01*
X729613Y63312D01*
X726688Y60387D01*
X724390Y56947D01*
X722807Y53125D01*
X722583Y52000D01*
X738000D01*
Y67417D01*
D02*
G37*
G36*
X1042800D02*
X1041675Y67193D01*
X1037853Y65610D01*
X1034413Y63312D01*
X1031488Y60387D01*
X1029190Y56947D01*
X1027607Y53125D01*
X1027383Y52000D01*
X1042800D01*
Y67417D01*
D02*
G37*
G36*
X636400D02*
X635275Y67193D01*
X631453Y65610D01*
X628013Y63312D01*
X625088Y60387D01*
X622790Y56947D01*
X621207Y53125D01*
X620983Y52000D01*
X636400D01*
Y67417D01*
D02*
G37*
G36*
X1845134Y65950D02*
X1842566D01*
X1840087Y65286D01*
X1837863Y64002D01*
X1836048Y62187D01*
X1834765Y59963D01*
X1834100Y57484D01*
Y54916D01*
X1834765Y52437D01*
X1836048Y50213D01*
X1837863Y48398D01*
X1840087Y47115D01*
X1842566Y46450D01*
X1845134D01*
X1847613Y47115D01*
X1849837Y48398D01*
X1851652Y50213D01*
X1852935Y52437D01*
X1853600Y54916D01*
Y57484D01*
X1852935Y59963D01*
X1851652Y62187D01*
X1849837Y64002D01*
X1847613Y65286D01*
X1845134Y65950D01*
D02*
G37*
G36*
X1329617Y60700D02*
X1314200D01*
Y45283D01*
X1315325Y45507D01*
X1319147Y47090D01*
X1322587Y49388D01*
X1325512Y52313D01*
X1327810Y55753D01*
X1329393Y59574D01*
X1329617Y60700D01*
D02*
G37*
G36*
X1304200D02*
X1288783D01*
X1289007Y59574D01*
X1290590Y55753D01*
X1292888Y52313D01*
X1295813Y49388D01*
X1299253Y47090D01*
X1303074Y45507D01*
X1304200Y45283D01*
Y60700D01*
D02*
G37*
G36*
X462800Y45000D02*
X447383D01*
X447607Y43875D01*
X449190Y40053D01*
X451488Y36613D01*
X454413Y33688D01*
X457853Y31390D01*
X461675Y29807D01*
X462800Y29583D01*
Y45000D01*
D02*
G37*
G36*
X361200D02*
X345783D01*
X346007Y43875D01*
X347590Y40053D01*
X349888Y36613D01*
X352813Y33688D01*
X356253Y31390D01*
X360075Y29807D01*
X361200Y29583D01*
Y45000D01*
D02*
G37*
G36*
X259600D02*
X244183D01*
X244407Y43875D01*
X245990Y40053D01*
X248288Y36613D01*
X251213Y33688D01*
X254653Y31390D01*
X258475Y29807D01*
X259600Y29583D01*
Y45000D01*
D02*
G37*
G36*
X158000D02*
X142583D01*
X142807Y43875D01*
X144390Y40053D01*
X146688Y36613D01*
X149613Y33688D01*
X153053Y31390D01*
X156875Y29807D01*
X158000Y29583D01*
Y45000D01*
D02*
G37*
G36*
X56400D02*
X40983D01*
X41207Y43875D01*
X42790Y40053D01*
X45088Y36613D01*
X48013Y33688D01*
X51453Y31390D01*
X55275Y29807D01*
X56400Y29583D01*
Y45000D01*
D02*
G37*
G36*
X1042800Y42000D02*
X1027383D01*
X1027607Y40875D01*
X1029190Y37053D01*
X1031488Y33613D01*
X1034413Y30688D01*
X1037853Y28390D01*
X1041675Y26807D01*
X1042800Y26583D01*
Y42000D01*
D02*
G37*
G36*
X941200D02*
X925783D01*
X926007Y40875D01*
X927590Y37053D01*
X929888Y33613D01*
X932813Y30688D01*
X936253Y28390D01*
X940075Y26807D01*
X941200Y26583D01*
Y42000D01*
D02*
G37*
G36*
X839600D02*
X824183D01*
X824407Y40875D01*
X825990Y37053D01*
X828288Y33613D01*
X831213Y30688D01*
X834653Y28390D01*
X838475Y26807D01*
X839600Y26583D01*
Y42000D01*
D02*
G37*
G36*
X738000D02*
X722583D01*
X722807Y40875D01*
X724390Y37053D01*
X726688Y33613D01*
X729613Y30688D01*
X733053Y28390D01*
X736875Y26807D01*
X738000Y26583D01*
Y42000D01*
D02*
G37*
G36*
X636400D02*
X620983D01*
X621207Y40875D01*
X622790Y37053D01*
X625088Y33613D01*
X628013Y30688D01*
X631453Y28390D01*
X635275Y26807D01*
X636400Y26583D01*
Y42000D01*
D02*
G37*
G36*
X1415800Y187717D02*
Y172300D01*
X1431217D01*
X1430993Y173425D01*
X1429410Y177247D01*
X1427112Y180687D01*
X1424187Y183612D01*
X1420747Y185910D01*
X1416926Y187493D01*
X1415800Y187717D01*
D02*
G37*
G36*
X1405800D02*
X1404675Y187493D01*
X1400853Y185910D01*
X1397413Y183612D01*
X1394488Y180687D01*
X1392190Y177247D01*
X1390607Y173425D01*
X1390383Y172300D01*
X1405800D01*
Y187717D01*
D02*
G37*
G36*
X1431217Y162300D02*
X1415800D01*
Y146883D01*
X1416926Y147107D01*
X1420747Y148690D01*
X1424187Y150988D01*
X1427112Y153913D01*
X1429410Y157353D01*
X1430993Y161175D01*
X1431217Y162300D01*
D02*
G37*
G36*
X1405800D02*
X1390383D01*
X1390607Y161175D01*
X1392190Y157353D01*
X1394488Y153913D01*
X1397413Y150988D01*
X1400853Y148690D01*
X1404675Y147107D01*
X1405800Y146883D01*
Y162300D01*
D02*
G37*
G36*
X1415800Y86117D02*
Y70700D01*
X1431217D01*
X1430993Y71825D01*
X1429410Y75647D01*
X1427112Y79087D01*
X1424187Y82012D01*
X1420747Y84310D01*
X1416926Y85893D01*
X1415800Y86117D01*
D02*
G37*
G36*
X1405800D02*
X1404675Y85893D01*
X1400853Y84310D01*
X1397413Y82012D01*
X1394488Y79087D01*
X1392190Y75647D01*
X1390607Y71825D01*
X1390383Y70700D01*
X1405800D01*
Y86117D01*
D02*
G37*
G36*
X1431217Y60700D02*
X1415800D01*
Y45283D01*
X1416926Y45507D01*
X1420747Y47090D01*
X1424187Y49388D01*
X1427112Y52313D01*
X1429410Y55753D01*
X1430993Y59574D01*
X1431217Y60700D01*
D02*
G37*
G36*
X1405800D02*
X1390383D01*
X1390607Y59574D01*
X1392190Y55753D01*
X1394488Y52313D01*
X1397413Y49388D01*
X1400853Y47090D01*
X1404675Y45507D01*
X1405800Y45283D01*
Y60700D01*
D02*
G37*
%LPD*%
D11*
X1321000Y258450D02*
X1321000Y258450D01*
X1321000Y258450D02*
Y338450D01*
X1321000Y338450D02*
X1321000Y338450D01*
X1809500Y318000D02*
X1820000D01*
X1781250Y216250D02*
X1789750D01*
X1781250Y232250D02*
X1789750D01*
D12*
X1802933Y818550D02*
X1809850Y825467D01*
Y834828D01*
X1784933Y818550D02*
X1802933D01*
X1809850Y834828D02*
X1812000Y836978D01*
Y838000D01*
X1688517Y822250D02*
X1801400D01*
X1806150Y827000D01*
X1804000Y836978D02*
X1806150Y834828D01*
X1804000Y836978D02*
Y838000D01*
X1806150Y827000D02*
Y834828D01*
X1690050Y818550D02*
X1784933D01*
X1672550Y806283D02*
X1688517Y822250D01*
X1676250Y804750D02*
X1690050Y818550D01*
X1713478Y696750D02*
X1714500D01*
X1689617Y698900D02*
X1711328D01*
X1713478Y696750D01*
X1672550Y715967D02*
X1685134Y703384D01*
X1689617Y698900D01*
X1672550Y715967D02*
Y806283D01*
X1711328Y702600D02*
X1713478Y704750D01*
X1691150Y702600D02*
X1711328D01*
X1713478Y704750D02*
X1714500D01*
X1676250Y717500D02*
Y804750D01*
Y717500D02*
X1691150Y702600D01*
X1854000Y385000D02*
Y402000D01*
X1834000Y422000D02*
X1854000Y402000D01*
D13*
X1677500Y925000D02*
X1731000D01*
X1801000Y855000D01*
X1758500Y872500D02*
X1782000Y849000D01*
X1677500Y872500D02*
X1758500D01*
X261750Y624000D02*
X341000Y544750D01*
X261750Y624000D02*
Y651750D01*
X899410Y348200D02*
Y408840D01*
X853000Y455250D02*
X899410Y408840D01*
X796970Y348200D02*
Y418720D01*
X833500Y455250D01*
X695370Y348200D02*
Y377880D01*
X618000Y455250D02*
X695370Y377880D01*
X522400Y379150D02*
X598500Y455250D01*
X522400Y348200D02*
Y379150D01*
X378000Y455250D02*
X421400Y411850D01*
Y348200D02*
Y411850D01*
X319400Y348200D02*
Y416150D01*
X358500Y455250D01*
X216960Y348200D02*
Y416290D01*
X178000Y455250D02*
X216960Y416290D01*
X115360Y412110D02*
X158500Y455250D01*
X115360Y348200D02*
Y412110D01*
X58750Y627000D02*
X141000Y544750D01*
X58750Y627000D02*
Y651750D01*
X190250Y530000D02*
Y621250D01*
X159750Y651750D02*
X190250Y621250D01*
X364190Y651750D02*
X390250Y625690D01*
Y530000D02*
Y625690D01*
X465790Y651750D02*
X572790Y544750D01*
X605000D01*
X637780Y538342D02*
Y651800D01*
X630250Y530812D02*
X637780Y538342D01*
X630250Y530000D02*
Y530812D01*
X738780Y621970D02*
Y651800D01*
Y621970D02*
X816000Y544750D01*
X865250Y530000D02*
Y627330D01*
X840780Y651800D02*
X865250Y627330D01*
X1281000Y819000D02*
X1317000D01*
X1273000Y811000D02*
X1281000Y819000D01*
X1317000D02*
X1323000Y825000D01*
X1273000Y797000D02*
Y811000D01*
X1323000Y825000D02*
Y840000D01*
X1422500Y863250D02*
X1534250D01*
X1414622Y871128D02*
Y942872D01*
Y871128D02*
X1422500Y863250D01*
X1534250D02*
X1543000Y872000D01*
X1414622Y942872D02*
X1425250Y953500D01*
X141000Y544750D02*
X165000D01*
X341000D02*
X365000D01*
X816000D02*
X840000D01*
X1001410Y348200D02*
Y408160D01*
X1048500Y455250D01*
X1102410Y348200D02*
Y420840D01*
X1068000Y455250D02*
X1102410Y420840D01*
X1031000Y544750D02*
X1055000D01*
X943220Y632530D02*
Y651800D01*
Y632530D02*
X1031000Y544750D01*
X1044820Y651800D02*
X1080250Y616370D01*
Y530000D02*
Y616370D01*
X1845000Y627000D02*
Y659000D01*
X1861000Y675000D01*
Y810000D01*
X1845000Y627000D02*
X1853000Y619000D01*
X1875000D01*
X1822000Y849000D02*
X1861000Y810000D01*
X1782000Y849000D02*
X1822000D01*
X1801000Y855000D02*
X1835000D01*
X1824000Y805000D02*
X1835000Y794000D01*
Y540000D02*
Y794000D01*
X1825000Y530000D02*
X1835000Y540000D01*
X1730000Y784000D02*
X1739000Y793000D01*
X1820000D01*
X1691000Y90000D02*
X1710000Y71000D01*
X1691000Y466000D02*
X1703000Y478000D01*
X1691000Y90000D02*
Y466000D01*
X1710000Y71000D02*
X1747350D01*
X1730000Y544000D02*
Y784000D01*
X1825000Y511000D02*
Y530000D01*
X1747350Y71000D02*
X1762150Y56200D01*
X1703000Y478000D02*
X1792000D01*
X1825000Y511000D01*
X1850000Y490000D02*
X1874000Y466000D01*
X1817000Y490000D02*
X1850000D01*
X1874000Y326000D02*
X1905000Y295000D01*
X1874000Y326000D02*
Y466000D01*
X1905000Y91950D02*
Y295000D01*
X1869250Y56200D02*
X1905000Y91950D01*
X1725550Y127500D02*
X1756000D01*
X1771500Y112000D01*
X1803000D01*
X1834500D01*
X1850000Y127500D01*
X1880450D01*
D41*
X1809500Y308000D02*
D03*
Y318000D02*
D03*
D42*
X1771250Y232250D02*
D03*
X1781250D02*
D03*
X1781250Y216250D02*
D03*
X1771250D02*
D03*
D45*
X1745850Y97000D02*
D03*
X1860150D02*
D03*
D46*
X1834750Y160500D02*
D03*
X1809350D02*
D03*
X1783950D02*
D03*
X1758550D02*
D03*
X1771250Y185900D02*
D03*
X1796650D02*
D03*
X1822050D02*
D03*
X1847450D02*
D03*
D47*
X1880450Y127500D02*
D03*
X1725550D02*
D03*
D48*
X1869250Y56200D02*
D03*
X1736750D02*
D03*
X1843850D02*
D03*
X1762150D02*
D03*
D49*
X1759800Y936950D02*
D03*
X1846200D02*
D03*
D50*
Y978750D02*
D03*
X1759800D02*
D03*
D51*
X1774100Y941950D02*
D03*
X1831900D02*
D03*
D52*
X641400Y47000D02*
D03*
X692200D02*
D03*
X743000D02*
D03*
X793800D02*
D03*
X844600D02*
D03*
X895400D02*
D03*
X946200D02*
D03*
X997000D02*
D03*
X1047800D02*
D03*
X1098600D02*
D03*
X61400Y50000D02*
D03*
X112200D02*
D03*
X163000D02*
D03*
X213800D02*
D03*
X264600D02*
D03*
X315400D02*
D03*
X366200D02*
D03*
X417000D02*
D03*
X467800D02*
D03*
X518600D02*
D03*
X519600Y953000D02*
D03*
X468800D02*
D03*
X418000D02*
D03*
X367200D02*
D03*
X316400D02*
D03*
X265600D02*
D03*
X214800D02*
D03*
X164000D02*
D03*
X113200D02*
D03*
X62400D02*
D03*
X1098600D02*
D03*
X1047800D02*
D03*
X997000D02*
D03*
X946200D02*
D03*
X895400D02*
D03*
X844600D02*
D03*
X793800D02*
D03*
X743000D02*
D03*
X692200D02*
D03*
X641400D02*
D03*
X1410800Y65700D02*
D03*
X1309200D02*
D03*
Y167300D02*
D03*
X1410800D02*
D03*
D53*
X580000Y50000D02*
D03*
Y950000D02*
D03*
X1640000Y50000D02*
D03*
X1928000Y953000D02*
D03*
D54*
X1068600Y211900D02*
D03*
X1094000D02*
D03*
X1119400D02*
D03*
X1068600Y288100D02*
D03*
X1094000D02*
D03*
X1119400D02*
D03*
X967600Y211900D02*
D03*
X993000D02*
D03*
X1018400D02*
D03*
X967600Y288100D02*
D03*
X993000D02*
D03*
X1018400D02*
D03*
X865600Y211900D02*
D03*
X891000D02*
D03*
X916400D02*
D03*
X865600Y288100D02*
D03*
X891000D02*
D03*
X916400D02*
D03*
X763160Y211900D02*
D03*
X788560D02*
D03*
X813960D02*
D03*
X763160Y288100D02*
D03*
X788560D02*
D03*
X813960D02*
D03*
X661560Y211900D02*
D03*
X686960D02*
D03*
X712360D02*
D03*
X661560Y288100D02*
D03*
X686960D02*
D03*
X712360D02*
D03*
X488590Y211900D02*
D03*
X513990D02*
D03*
X539390D02*
D03*
X488590Y288100D02*
D03*
X513990D02*
D03*
X539390D02*
D03*
X387590Y211900D02*
D03*
X412990D02*
D03*
X438390D02*
D03*
X387590Y288100D02*
D03*
X412990D02*
D03*
X438390D02*
D03*
X285590Y211900D02*
D03*
X310990D02*
D03*
X336390D02*
D03*
X285590Y288100D02*
D03*
X310990D02*
D03*
X336390D02*
D03*
X183150Y211900D02*
D03*
X208550D02*
D03*
X233950D02*
D03*
X183150Y288100D02*
D03*
X208550D02*
D03*
X233950D02*
D03*
X81550Y211900D02*
D03*
X106950D02*
D03*
X132350D02*
D03*
X81550Y288100D02*
D03*
X106950D02*
D03*
X132350D02*
D03*
X92610Y788100D02*
D03*
X67210D02*
D03*
X41810D02*
D03*
X92610Y711900D02*
D03*
X67210D02*
D03*
X41810D02*
D03*
X193610Y788100D02*
D03*
X168210D02*
D03*
X142810D02*
D03*
X193610Y711900D02*
D03*
X168210D02*
D03*
X142810D02*
D03*
X295610Y788100D02*
D03*
X270210D02*
D03*
X244810D02*
D03*
X295610Y711900D02*
D03*
X270210D02*
D03*
X244810D02*
D03*
X398050Y788100D02*
D03*
X372650D02*
D03*
X347250D02*
D03*
X398050Y711900D02*
D03*
X372650D02*
D03*
X347250D02*
D03*
X499650Y788100D02*
D03*
X474250D02*
D03*
X448850D02*
D03*
X499650Y711900D02*
D03*
X474250D02*
D03*
X448850D02*
D03*
X671590Y788100D02*
D03*
X646190D02*
D03*
X620790D02*
D03*
X671590Y711900D02*
D03*
X646190D02*
D03*
X620790D02*
D03*
X772590Y788100D02*
D03*
X747190D02*
D03*
X721790D02*
D03*
X772590Y711900D02*
D03*
X747190D02*
D03*
X721790D02*
D03*
X874590Y788100D02*
D03*
X849190D02*
D03*
X823790D02*
D03*
X874590Y711900D02*
D03*
X849190D02*
D03*
X823790D02*
D03*
X977030Y788100D02*
D03*
X951630D02*
D03*
X926230D02*
D03*
X977030Y711900D02*
D03*
X951630D02*
D03*
X926230D02*
D03*
X1078630Y788100D02*
D03*
X1053230D02*
D03*
X1027830D02*
D03*
X1078630Y711900D02*
D03*
X1053230D02*
D03*
X1027830D02*
D03*
D58*
X1781500Y497000D02*
Y579750D01*
X1772000Y589250D02*
X1781500Y579750D01*
D59*
X1803000Y65750D02*
Y82000D01*
D60*
X1741000Y955000D02*
X1803000D01*
X1723000Y973000D02*
X1741000Y955000D01*
X1803000D02*
X1821000Y937000D01*
X1808000Y864000D02*
X1821000Y877000D01*
Y937000D01*
D63*
X1809350Y160500D02*
X1810163Y161313D01*
X1795250Y352750D02*
X1818363D01*
X1796617Y356050D02*
X1818363D01*
X1787350Y360650D02*
X1795250Y352750D01*
X1787350Y360650D02*
Y447363D01*
X1790650Y362017D02*
Y447363D01*
Y362017D02*
X1796617Y356050D01*
X1814750Y139750D02*
X1855000D01*
X1871750Y156500D01*
Y258000D01*
X1771250Y185900D02*
Y232250D01*
X1823750Y268250D02*
X1861500D01*
X1871750Y258000D01*
X1809500Y282500D02*
Y308000D01*
Y282500D02*
X1823750Y268250D01*
X1809350Y145150D02*
X1814750Y139750D01*
X1809350Y145150D02*
Y160500D01*
X1809500Y308000D02*
X1836000D01*
X1782460D02*
X1809500D01*
X1820713Y350400D02*
X1821500D01*
X1785000Y449713D02*
Y450500D01*
Y449713D02*
X1787350Y447363D01*
X1818363Y352750D02*
X1820713Y350400D01*
X1818363Y356050D02*
X1820713Y358400D01*
X1821500D01*
X1793000Y449713D02*
Y450500D01*
X1790650Y447363D02*
X1793000Y449713D01*
D64*
X748000Y644000D02*
D03*
X646000Y641000D02*
D03*
X1094000Y530000D02*
D03*
X431000Y357000D02*
D03*
X329000D02*
D03*
X226000D02*
D03*
X124000D02*
D03*
X361000Y641000D02*
D03*
X463000Y642000D02*
D03*
X1038000Y641000D02*
D03*
X834000Y640000D02*
D03*
X951000Y643000D02*
D03*
X643000Y529000D02*
D03*
X879000Y530000D02*
D03*
X845000Y555000D02*
D03*
X202000Y529000D02*
D03*
X164000Y555000D02*
D03*
X159000Y444000D02*
D03*
X188000Y459000D02*
D03*
X388000D02*
D03*
X364000Y555000D02*
D03*
X403000Y530000D02*
D03*
X627000Y540000D02*
D03*
X604000Y555000D02*
D03*
X599000Y444000D02*
D03*
X629000Y460000D02*
D03*
X834000Y442000D02*
D03*
X863000Y458000D02*
D03*
X1051000Y442000D02*
D03*
X1079000Y458000D02*
D03*
X856000Y434000D02*
D03*
X597000Y423000D02*
D03*
X157000D02*
D03*
X357000D02*
D03*
X1625000Y857000D02*
D03*
X1520000Y777000D02*
D03*
X1596000Y778000D02*
D03*
X1586000Y688000D02*
D03*
X1646000Y671000D02*
D03*
X1365000Y623000D02*
D03*
X1606000Y557000D02*
D03*
X1643000Y619000D02*
D03*
X1585000Y612000D02*
D03*
X1518750Y625000D02*
D03*
X1494000Y662250D02*
D03*
X1467000Y662000D02*
D03*
X1482000Y683500D02*
D03*
X1454750Y683250D02*
D03*
X1430000Y720500D02*
D03*
X1227750Y758000D02*
D03*
X1203000Y720750D02*
D03*
X1175750Y721000D02*
D03*
X1190750Y699500D02*
D03*
X1163750Y699750D02*
D03*
X1139000Y662500D02*
D03*
X1921000Y896000D02*
D03*
X1896000Y846000D02*
D03*
X1921000Y796000D02*
D03*
Y596000D02*
D03*
X1896000Y546000D02*
D03*
Y346000D02*
D03*
X1921000Y296000D02*
D03*
X1896000Y246000D02*
D03*
X1921000Y196000D02*
D03*
X1896000Y146000D02*
D03*
X1921000Y96000D02*
D03*
X1896000Y46000D02*
D03*
X1846000Y746000D02*
D03*
X1871000Y696000D02*
D03*
Y596000D02*
D03*
X1846000Y546000D02*
D03*
X1871000Y296000D02*
D03*
X1846000Y246000D02*
D03*
Y146000D02*
D03*
X1796000Y746000D02*
D03*
Y646000D02*
D03*
Y346000D02*
D03*
Y146000D02*
D03*
X1821000Y96000D02*
D03*
X1796000Y46000D02*
D03*
X1771000Y896000D02*
D03*
Y696000D02*
D03*
X1746000Y546000D02*
D03*
X1771000Y496000D02*
D03*
Y296000D02*
D03*
Y96000D02*
D03*
X1746000Y46000D02*
D03*
X1696000Y946000D02*
D03*
X1721000Y896000D02*
D03*
Y596000D02*
D03*
X1696000Y546000D02*
D03*
X1721000Y396000D02*
D03*
Y296000D02*
D03*
Y196000D02*
D03*
Y96000D02*
D03*
X1696000Y46000D02*
D03*
X1671000Y896000D02*
D03*
X1646000Y546000D02*
D03*
Y446000D02*
D03*
X1671000Y396000D02*
D03*
X1646000Y346000D02*
D03*
X1671000Y296000D02*
D03*
X1646000Y246000D02*
D03*
X1671000Y196000D02*
D03*
X1646000Y146000D02*
D03*
X1671000Y96000D02*
D03*
X1621000Y696000D02*
D03*
X1596000Y646000D02*
D03*
X1621000Y496000D02*
D03*
X1596000Y446000D02*
D03*
X1621000Y396000D02*
D03*
Y296000D02*
D03*
Y196000D02*
D03*
Y96000D02*
D03*
X1546000Y746000D02*
D03*
Y646000D02*
D03*
Y446000D02*
D03*
X1521000Y896000D02*
D03*
X1446000Y846000D02*
D03*
Y646000D02*
D03*
X1346000Y946000D02*
D03*
Y746000D02*
D03*
Y146000D02*
D03*
Y46000D02*
D03*
X1296000Y946000D02*
D03*
Y746000D02*
D03*
Y246000D02*
D03*
X1321000Y196000D02*
D03*
X1296000Y146000D02*
D03*
X1321000Y96000D02*
D03*
X1271000Y696000D02*
D03*
Y96000D02*
D03*
X1246000Y46000D02*
D03*
X1221000Y96000D02*
D03*
X1196000Y46000D02*
D03*
X1096000Y846000D02*
D03*
X1121000Y796000D02*
D03*
Y496000D02*
D03*
X1046000Y746000D02*
D03*
X1071000Y496000D02*
D03*
X1046000Y246000D02*
D03*
X996000Y846000D02*
D03*
Y746000D02*
D03*
Y546000D02*
D03*
X1021000Y496000D02*
D03*
X996000Y446000D02*
D03*
X946000Y546000D02*
D03*
X971000Y496000D02*
D03*
X946000Y446000D02*
D03*
Y246000D02*
D03*
X896000Y846000D02*
D03*
Y746000D02*
D03*
Y546000D02*
D03*
X921000Y496000D02*
D03*
X896000Y446000D02*
D03*
X921000Y96000D02*
D03*
X871000Y496000D02*
D03*
X846000Y246000D02*
D03*
X796000Y846000D02*
D03*
Y746000D02*
D03*
Y646000D02*
D03*
Y546000D02*
D03*
X821000Y496000D02*
D03*
X796000Y446000D02*
D03*
X821000Y96000D02*
D03*
X746000Y546000D02*
D03*
Y446000D02*
D03*
Y246000D02*
D03*
X696000Y846000D02*
D03*
Y746000D02*
D03*
Y646000D02*
D03*
Y546000D02*
D03*
X721000Y496000D02*
D03*
X696000Y446000D02*
D03*
X721000Y96000D02*
D03*
X646000Y546000D02*
D03*
X671000Y496000D02*
D03*
X646000Y446000D02*
D03*
Y246000D02*
D03*
X596000Y846000D02*
D03*
Y746000D02*
D03*
Y646000D02*
D03*
X621000Y496000D02*
D03*
X596000Y346000D02*
D03*
X621000Y296000D02*
D03*
X596000Y246000D02*
D03*
X621000Y196000D02*
D03*
X596000Y146000D02*
D03*
X621000Y96000D02*
D03*
X571000Y896000D02*
D03*
X546000Y846000D02*
D03*
X571000Y796000D02*
D03*
X546000Y746000D02*
D03*
X571000Y696000D02*
D03*
X546000Y646000D02*
D03*
X571000Y596000D02*
D03*
X546000Y546000D02*
D03*
X571000Y496000D02*
D03*
X546000Y446000D02*
D03*
Y346000D02*
D03*
X571000Y296000D02*
D03*
X546000Y246000D02*
D03*
X571000Y196000D02*
D03*
X546000Y146000D02*
D03*
X571000Y96000D02*
D03*
X521000Y796000D02*
D03*
X496000Y546000D02*
D03*
X521000Y496000D02*
D03*
X496000Y446000D02*
D03*
Y246000D02*
D03*
X446000Y746000D02*
D03*
Y646000D02*
D03*
X471000Y596000D02*
D03*
X446000Y546000D02*
D03*
X471000Y496000D02*
D03*
X446000Y446000D02*
D03*
Y346000D02*
D03*
Y246000D02*
D03*
X471000Y196000D02*
D03*
Y96000D02*
D03*
X421000Y796000D02*
D03*
Y596000D02*
D03*
Y496000D02*
D03*
X396000Y246000D02*
D03*
X346000Y746000D02*
D03*
Y646000D02*
D03*
X371000Y596000D02*
D03*
Y496000D02*
D03*
X346000Y346000D02*
D03*
Y246000D02*
D03*
X371000Y196000D02*
D03*
Y96000D02*
D03*
X321000Y796000D02*
D03*
Y596000D02*
D03*
X296000Y546000D02*
D03*
Y446000D02*
D03*
Y246000D02*
D03*
X246000Y746000D02*
D03*
Y646000D02*
D03*
X271000Y596000D02*
D03*
X246000Y546000D02*
D03*
X271000Y496000D02*
D03*
X246000Y446000D02*
D03*
X271000Y396000D02*
D03*
X246000Y346000D02*
D03*
Y246000D02*
D03*
X271000Y196000D02*
D03*
Y96000D02*
D03*
X221000Y796000D02*
D03*
Y696000D02*
D03*
Y596000D02*
D03*
Y496000D02*
D03*
X146000Y746000D02*
D03*
Y646000D02*
D03*
X171000Y496000D02*
D03*
X146000Y346000D02*
D03*
Y246000D02*
D03*
X171000Y196000D02*
D03*
Y96000D02*
D03*
X121000Y796000D02*
D03*
Y696000D02*
D03*
Y596000D02*
D03*
X96000Y546000D02*
D03*
Y446000D02*
D03*
X46000Y746000D02*
D03*
Y646000D02*
D03*
X71000Y596000D02*
D03*
X46000Y546000D02*
D03*
X71000Y496000D02*
D03*
X46000Y446000D02*
D03*
X71000Y396000D02*
D03*
X46000Y346000D02*
D03*
Y246000D02*
D03*
X71000Y196000D02*
D03*
Y96000D02*
D03*
X1677500Y925000D02*
D03*
Y872500D02*
D03*
X1314500Y866750D02*
D03*
X1323500D02*
D03*
X1332500D02*
D03*
X1828500Y345900D02*
D03*
X1829000Y354400D02*
D03*
X1828500Y362900D02*
D03*
X1780500Y457500D02*
D03*
X1789000Y458000D02*
D03*
X1832000Y525000D02*
D03*
X1846000Y530000D02*
D03*
X1815000Y597000D02*
D03*
X1797500Y457500D02*
D03*
X1782000Y488000D02*
D03*
X1767000Y582000D02*
D03*
X1210000Y60000D02*
D03*
X1290000Y220000D02*
D03*
X1210000Y100000D02*
D03*
X1230000Y80000D02*
D03*
X1170000Y100000D02*
D03*
X1150000Y80000D02*
D03*
X1170000Y60000D02*
D03*
X1150000Y40000D02*
D03*
X1230000D02*
D03*
X1190000D02*
D03*
X1210000Y20000D02*
D03*
X1170000D02*
D03*
X1270000Y200000D02*
D03*
Y160000D02*
D03*
X1250000Y100000D02*
D03*
Y60000D02*
D03*
Y20000D02*
D03*
X1270000Y120000D02*
D03*
Y80000D02*
D03*
Y40000D02*
D03*
X1310000Y120000D02*
D03*
Y200000D02*
D03*
Y40000D02*
D03*
X1290000Y20000D02*
D03*
X1330000D02*
D03*
X1290000Y100000D02*
D03*
X1330000D02*
D03*
X1290000Y140000D02*
D03*
X1330000D02*
D03*
X1390000D02*
D03*
X1430000D02*
D03*
X1390000Y100000D02*
D03*
X1430000D02*
D03*
X1390000Y20000D02*
D03*
X1430000D02*
D03*
X1410000Y40000D02*
D03*
Y200000D02*
D03*
Y120000D02*
D03*
X1490000Y40000D02*
D03*
X1530000D02*
D03*
X1570000D02*
D03*
X1450000D02*
D03*
X1490000Y80000D02*
D03*
X1530000D02*
D03*
X1570000D02*
D03*
X1450000D02*
D03*
X1490000Y120000D02*
D03*
X1530000D02*
D03*
X1570000D02*
D03*
X1450000D02*
D03*
X1470000Y20000D02*
D03*
X1550000D02*
D03*
X1510000D02*
D03*
X1470000Y60000D02*
D03*
X1550000D02*
D03*
X1510000D02*
D03*
X1550000Y100000D02*
D03*
X1510000D02*
D03*
X1550000Y140000D02*
D03*
X1510000D02*
D03*
X1450000Y160000D02*
D03*
X1570000D02*
D03*
X1530000D02*
D03*
X1490000D02*
D03*
Y200000D02*
D03*
Y240000D02*
D03*
X1530000Y200000D02*
D03*
Y240000D02*
D03*
X1570000D02*
D03*
Y200000D02*
D03*
X1510000Y180000D02*
D03*
X1550000D02*
D03*
Y220000D02*
D03*
X1510000D02*
D03*
X1550000Y260000D02*
D03*
X1510000D02*
D03*
X1450000Y200000D02*
D03*
X1460000Y390000D02*
D03*
X1450000Y310000D02*
D03*
X1470000Y290000D02*
D03*
X1490000Y390000D02*
D03*
X1530000D02*
D03*
X1570000D02*
D03*
X1510000Y370000D02*
D03*
X1550000D02*
D03*
X1510000Y330000D02*
D03*
X1550000D02*
D03*
Y290000D02*
D03*
X1510000D02*
D03*
X1400000Y310000D02*
D03*
Y350000D02*
D03*
X1570000Y310000D02*
D03*
Y350000D02*
D03*
X1530000D02*
D03*
Y310000D02*
D03*
X1490000Y350000D02*
D03*
Y310000D02*
D03*
X1430000Y290000D02*
D03*
X1377500Y257500D02*
D03*
X1360000D02*
D03*
X1342500D02*
D03*
X1400000Y270000D02*
D03*
X1410000Y290000D02*
D03*
X1420000Y310000D02*
D03*
X1350000Y330000D02*
D03*
X1370000D02*
D03*
X1390000D02*
D03*
X1410000D02*
D03*
X1420000Y350000D02*
D03*
X1410000Y370000D02*
D03*
X1400000Y390000D02*
D03*
X1420000D02*
D03*
X1890000Y791000D02*
D03*
Y619000D02*
D03*
X1164000Y943000D02*
D03*
X1144000D02*
D03*
X1154000Y953000D02*
D03*
X1174000D02*
D03*
X1164000Y963000D02*
D03*
X1144000D02*
D03*
Y983000D02*
D03*
X1164000D02*
D03*
X1174000Y973000D02*
D03*
X1154000D02*
D03*
X1230000D02*
D03*
X1210000D02*
D03*
X1220000Y983000D02*
D03*
X1240000D02*
D03*
Y963000D02*
D03*
X1220000D02*
D03*
X1210000Y953000D02*
D03*
X1230000D02*
D03*
X1240000Y943000D02*
D03*
X1220000D02*
D03*
X1399000Y844000D02*
D03*
Y853000D02*
D03*
X1355000Y893000D02*
D03*
Y879000D02*
D03*
Y866000D02*
D03*
X1360000Y847000D02*
D03*
X1288500Y852500D02*
D03*
X1297500D02*
D03*
X1273000Y840000D02*
D03*
X1268500Y847000D02*
D03*
X1277500D02*
D03*
X1313000Y797000D02*
D03*
X1705000Y691500D02*
D03*
Y710000D02*
D03*
X1795000Y842000D02*
D03*
X1817000Y829000D02*
D03*
X1685000Y775000D02*
D03*
X1665000D02*
D03*
X1675000Y700000D02*
D03*
X627170Y132000D02*
D03*
Y121000D02*
D03*
Y110000D02*
D03*
X638170D02*
D03*
X649170D02*
D03*
X728770Y132000D02*
D03*
Y121000D02*
D03*
Y110000D02*
D03*
X739770D02*
D03*
X750770D02*
D03*
X831210Y132000D02*
D03*
Y121000D02*
D03*
Y110000D02*
D03*
X842210D02*
D03*
X853210D02*
D03*
X933210Y132000D02*
D03*
Y121000D02*
D03*
Y110000D02*
D03*
X944210D02*
D03*
X955210D02*
D03*
X1034210Y132000D02*
D03*
Y121000D02*
D03*
Y110000D02*
D03*
X1045210D02*
D03*
X1056210D02*
D03*
X476150Y109950D02*
D03*
X465150D02*
D03*
X454150D02*
D03*
Y120950D02*
D03*
Y131950D02*
D03*
X375150Y109950D02*
D03*
X364150D02*
D03*
X353150D02*
D03*
Y120950D02*
D03*
Y131950D02*
D03*
X273150Y109950D02*
D03*
X262150D02*
D03*
X251150D02*
D03*
Y120950D02*
D03*
Y131950D02*
D03*
X170710Y109950D02*
D03*
X159710D02*
D03*
X148710D02*
D03*
Y120950D02*
D03*
Y131950D02*
D03*
X69110Y109950D02*
D03*
X58110D02*
D03*
X47110D02*
D03*
Y120950D02*
D03*
Y131950D02*
D03*
X1091020Y890000D02*
D03*
X1102020D02*
D03*
X1113020D02*
D03*
Y879000D02*
D03*
Y868000D02*
D03*
X989470Y890050D02*
D03*
X1000470D02*
D03*
X1011470D02*
D03*
Y879050D02*
D03*
Y868050D02*
D03*
X886980Y890000D02*
D03*
X897980D02*
D03*
X908980D02*
D03*
Y879000D02*
D03*
Y868000D02*
D03*
X784980Y890000D02*
D03*
X795980D02*
D03*
X806980D02*
D03*
Y879000D02*
D03*
Y868000D02*
D03*
X683980Y890000D02*
D03*
X694980D02*
D03*
X705980D02*
D03*
Y879000D02*
D03*
Y868000D02*
D03*
X512040Y890000D02*
D03*
X523040D02*
D03*
X534040D02*
D03*
Y879000D02*
D03*
Y868000D02*
D03*
X410440Y890000D02*
D03*
X421440D02*
D03*
X432440D02*
D03*
Y879000D02*
D03*
Y868000D02*
D03*
X308000Y890000D02*
D03*
X319000D02*
D03*
X330000D02*
D03*
Y879000D02*
D03*
Y868000D02*
D03*
X206000Y890000D02*
D03*
X217000D02*
D03*
X228000D02*
D03*
Y879000D02*
D03*
Y868000D02*
D03*
X127000D02*
D03*
Y879000D02*
D03*
Y890000D02*
D03*
X116000D02*
D03*
X105000D02*
D03*
X1543000Y872000D02*
D03*
X1425250Y953500D02*
D03*
X1533500Y924500D02*
D03*
X1533500Y933500D02*
D03*
X1515500Y921000D02*
D03*
X1524500Y921000D02*
D03*
X1504500Y921000D02*
D03*
X1495500D02*
D03*
X1533500Y948500D02*
D03*
X1533500Y957500D02*
D03*
X1483000Y967000D02*
D03*
X1474000D02*
D03*
X1515500Y961000D02*
D03*
X1524500D02*
D03*
X1504500Y967000D02*
D03*
X1495500D02*
D03*
X1486000Y957000D02*
D03*
X1470500Y915000D02*
D03*
Y905000D02*
D03*
X1463000Y876000D02*
D03*
X1476000Y885000D02*
D03*
X1472000Y876000D02*
D03*
X1476000Y894000D02*
D03*
X1432000Y894000D02*
D03*
X1436000Y876000D02*
D03*
X1432000Y885000D02*
D03*
X1445000Y876000D02*
D03*
X1459000Y936000D02*
D03*
Y952000D02*
D03*
Y944000D02*
D03*
X1408000Y853000D02*
D03*
Y844000D02*
D03*
X91030Y311750D02*
D03*
X192030D02*
D03*
X294030D02*
D03*
X396030D02*
D03*
X498030D02*
D03*
X670010D02*
D03*
X771010D02*
D03*
X873010D02*
D03*
X975010D02*
D03*
X1077010D02*
D03*
X1069230Y688250D02*
D03*
X967230D02*
D03*
X865230D02*
D03*
X763230D02*
D03*
X662230D02*
D03*
X490250D02*
D03*
X388250D02*
D03*
X286250D02*
D03*
X184250D02*
D03*
X83250D02*
D03*
X522400Y348200D02*
D03*
X421400Y348200D02*
D03*
X319400Y348200D02*
D03*
X216960D02*
D03*
X115360D02*
D03*
X1102410Y348200D02*
D03*
X1001410Y348200D02*
D03*
X899410Y348200D02*
D03*
X796970D02*
D03*
X695370D02*
D03*
X637780Y651800D02*
D03*
X738780Y651800D02*
D03*
X840780Y651800D02*
D03*
X943220D02*
D03*
X1044820D02*
D03*
X465790Y651750D02*
D03*
X364190D02*
D03*
X261750D02*
D03*
X159750Y651750D02*
D03*
X58750Y651750D02*
D03*
X165000Y544750D02*
D03*
X190250Y530000D02*
D03*
X156750Y516750D02*
D03*
X158500Y455250D02*
D03*
X178000D02*
D03*
X169750Y483250D02*
D03*
X365000Y544750D02*
D03*
X390250Y530000D02*
D03*
X356750Y516750D02*
D03*
X358500Y455250D02*
D03*
X378000D02*
D03*
X369750Y483250D02*
D03*
X605000Y544750D02*
D03*
X630250Y530000D02*
D03*
X596750Y516750D02*
D03*
X598500Y455250D02*
D03*
X618000D02*
D03*
X609750Y483250D02*
D03*
X840000Y544750D02*
D03*
X865250Y530000D02*
D03*
X831750Y516750D02*
D03*
X833500Y455250D02*
D03*
X853000D02*
D03*
X844750Y483250D02*
D03*
X1059750D02*
D03*
X1068000Y455250D02*
D03*
X1048500D02*
D03*
X1046750Y516750D02*
D03*
X1080250Y530000D02*
D03*
X1055000Y544750D02*
D03*
X1408000Y826000D02*
D03*
X1399000D02*
D03*
X1390000D02*
D03*
X1408000Y835000D02*
D03*
X1399000D02*
D03*
X1390000D02*
D03*
X1273000Y797000D02*
D03*
X1323000Y840000D02*
D03*
X1155000Y806000D02*
D03*
X1175000D02*
D03*
X1195000D02*
D03*
X1215000D02*
D03*
X1235000D02*
D03*
X1225000Y816000D02*
D03*
X1205000D02*
D03*
X1185000D02*
D03*
X1165000D02*
D03*
X1145000D02*
D03*
X1155000Y826000D02*
D03*
X1175000D02*
D03*
X1195000D02*
D03*
X1215000D02*
D03*
X1235000D02*
D03*
Y846000D02*
D03*
X1215000D02*
D03*
X1195000D02*
D03*
X1175000D02*
D03*
X1155000D02*
D03*
X1165000Y836000D02*
D03*
X1185000D02*
D03*
X1205000D02*
D03*
X1225000D02*
D03*
X1145000D02*
D03*
X1949000Y485000D02*
D03*
X1835000Y855000D02*
D03*
X1812000Y838000D02*
D03*
X1804000D02*
D03*
X1824000Y805000D02*
D03*
X1624000Y946000D02*
D03*
X1623000Y894000D02*
D03*
X1578040Y954414D02*
D03*
X1557000Y957250D02*
D03*
X1557000Y905250D02*
D03*
X1578040Y902414D02*
D03*
X1165000Y290000D02*
D03*
X1185000D02*
D03*
X1205000D02*
D03*
X1225000D02*
D03*
X1145000D02*
D03*
X1165000Y270000D02*
D03*
X1185000D02*
D03*
X1205000D02*
D03*
X1225000D02*
D03*
X1145000D02*
D03*
X1165000Y250000D02*
D03*
X1185000D02*
D03*
X1205000D02*
D03*
X1225000D02*
D03*
X1145000D02*
D03*
X1165000Y230000D02*
D03*
X1185000D02*
D03*
X1205000D02*
D03*
X1225000D02*
D03*
X1145000D02*
D03*
Y210000D02*
D03*
X1155000Y300000D02*
D03*
X1175000D02*
D03*
X1195000D02*
D03*
X1215000D02*
D03*
X1235000D02*
D03*
X1155000Y280000D02*
D03*
X1175000D02*
D03*
X1195000D02*
D03*
X1215000D02*
D03*
X1235000D02*
D03*
X1155000Y260000D02*
D03*
X1175000D02*
D03*
X1195000D02*
D03*
X1215000D02*
D03*
X1235000D02*
D03*
X1155000Y240000D02*
D03*
X1175000D02*
D03*
X1195000D02*
D03*
X1215000D02*
D03*
X1235000D02*
D03*
Y220000D02*
D03*
X1215000D02*
D03*
X1195000D02*
D03*
X1175000D02*
D03*
X1155000D02*
D03*
X1225000Y210000D02*
D03*
X1205000D02*
D03*
X1185000D02*
D03*
X1165000D02*
D03*
X1155000Y200000D02*
D03*
X1175000D02*
D03*
X1195000D02*
D03*
X1215000D02*
D03*
X1235000D02*
D03*
X1321000Y338450D02*
D03*
X1321000Y258450D02*
D03*
X1253000Y322000D02*
D03*
X1888000Y808000D02*
D03*
X1887000Y840000D02*
D03*
X1879000D02*
D03*
X1888000Y816000D02*
D03*
X1856000Y840000D02*
D03*
Y848000D02*
D03*
X1864000D02*
D03*
X1875000Y619000D02*
D03*
X1820000Y793000D02*
D03*
X1679000Y135000D02*
D03*
X1927000D02*
D03*
X1708500Y531000D02*
D03*
X1894000Y530080D02*
D03*
X1820000Y318000D02*
D03*
X1873000Y901000D02*
D03*
X1730000Y901000D02*
D03*
X1815000Y587500D02*
D03*
X1854000Y344000D02*
D03*
X1864000Y840000D02*
D03*
X1789750Y232250D02*
D03*
X1789750Y216250D02*
D03*
X1888000Y800000D02*
D03*
X1893000Y568330D02*
D03*
X1812500Y552500D02*
D03*
X1827500D02*
D03*
X1896000Y512540D02*
D03*
X1953500Y524000D02*
D03*
X1916000Y435000D02*
D03*
X1894000Y433000D02*
D03*
Y453000D02*
D03*
X1894000Y478000D02*
D03*
X1781478Y371045D02*
D03*
X1802000Y371000D02*
D03*
X1819750Y371000D02*
D03*
X1767000Y915000D02*
D03*
X1839000D02*
D03*
X1714500Y704750D02*
D03*
Y696750D02*
D03*
X1808000Y864000D02*
D03*
Y910000D02*
D03*
X1803000Y442000D02*
D03*
X1675000Y497580D02*
D03*
Y480040D02*
D03*
Y462500D02*
D03*
Y444500D02*
D03*
X1740000Y351500D02*
D03*
X1774540Y351500D02*
D03*
X1906000Y535000D02*
D03*
X1914000D02*
D03*
X1922000D02*
D03*
X1930000D02*
D03*
X1793320Y721510D02*
D03*
Y705010D02*
D03*
Y688510D02*
D03*
X1819990Y678320D02*
D03*
X1820010Y731680D02*
D03*
X1846680Y688490D02*
D03*
Y704990D02*
D03*
Y721490D02*
D03*
X1811608Y713128D02*
D03*
X1828372D02*
D03*
X1811608Y696872D02*
D03*
X1828372D02*
D03*
X1739690Y775110D02*
D03*
Y635110D02*
D03*
X1879610Y785310D02*
D03*
X1854110Y645310D02*
D03*
X1862610D02*
D03*
X1879690Y645610D02*
D03*
Y654110D02*
D03*
Y662610D02*
D03*
Y671110D02*
D03*
Y679610D02*
D03*
Y688110D02*
D03*
Y696610D02*
D03*
Y705110D02*
D03*
Y713610D02*
D03*
Y722110D02*
D03*
Y730610D02*
D03*
Y739110D02*
D03*
Y747610D02*
D03*
Y756110D02*
D03*
Y764610D02*
D03*
X1870890Y764690D02*
D03*
X1817000Y490000D02*
D03*
X1825000Y530000D02*
D03*
X1854000Y385000D02*
D03*
X1834000Y422000D02*
D03*
X1816000Y448000D02*
D03*
X1730000Y544000D02*
D03*
X1803000Y65750D02*
D03*
X1741500Y241000D02*
D03*
X1782460Y308000D02*
D03*
X1836000D02*
D03*
X1772000Y589250D02*
D03*
X1781500Y497000D02*
D03*
X1885000Y496000D02*
D03*
X1785000Y450500D02*
D03*
X1793000D02*
D03*
X1821500Y358400D02*
D03*
Y350400D02*
D03*
X1809500Y241000D02*
D03*
X1765000Y442500D02*
D03*
X1801500Y499000D02*
D03*
X1823000Y472500D02*
D03*
Y457500D02*
D03*
X1776500Y441000D02*
D03*
D65*
X1626000Y973000D02*
D03*
X1723000D02*
D03*
D66*
X110000Y507500D02*
D03*
X99000D02*
D03*
Y492500D02*
D03*
X110000D02*
D03*
X310000Y507500D02*
D03*
X299000D02*
D03*
Y492500D02*
D03*
X310000D02*
D03*
X550000Y507500D02*
D03*
X539000D02*
D03*
Y492500D02*
D03*
X550000D02*
D03*
X785000Y507500D02*
D03*
X774000D02*
D03*
Y492500D02*
D03*
X785000D02*
D03*
X1000000D02*
D03*
X989000D02*
D03*
Y507500D02*
D03*
X1000000D02*
D03*
X1857000Y530000D02*
D03*
D67*
X1803000Y82000D02*
D03*
Y112000D02*
D03*
M02*
