G04*
G04 #@! TF.GenerationSoftware,Altium Limited,Altium Designer,25.4.2 (15)*
G04*
G04 Layer_Color=32896*
%FSLAX44Y44*%
%MOMM*%
G71*
G04*
G04 #@! TF.SameCoordinates,BB2F4313-EE7A-43B8-A872-F110206310C3*
G04*
G04*
G04 #@! TF.FilePolarity,Positive*
G04*
G01*
G75*
%ADD12C,0.2000*%
%ADD14C,0.1667*%
G36*
X1430551Y727157D02*
X1431264D01*
Y727068D01*
X1431621Y727068D01*
Y726979D01*
X1431977Y726979D01*
X1431977Y726889D01*
X1432245D01*
Y726800D01*
X1432423Y726800D01*
Y726711D01*
X1432690D01*
Y726622D01*
X1432868D01*
Y726533D01*
X1433047D01*
Y726444D01*
X1433225D01*
X1433225Y726355D01*
X1433403D01*
Y726266D01*
X1433492D01*
Y726177D01*
X1433671Y726177D01*
X1433671Y726087D01*
X1433760D01*
Y725998D01*
X1433938Y725998D01*
Y725909D01*
X1434027D01*
Y725820D01*
X1434116D01*
X1434116Y725731D01*
X1434294D01*
X1434294Y725642D01*
X1434383D01*
Y725553D01*
X1434473Y725553D01*
Y725464D01*
X1434562Y725464D01*
X1434562Y725375D01*
X1434651Y725375D01*
Y725285D01*
X1434740D01*
Y725196D01*
X1434829Y725196D01*
X1434829Y725107D01*
X1434918D01*
Y725018D01*
X1435007D01*
Y724929D01*
X1435096Y724929D01*
Y724751D01*
X1435185D01*
Y724662D01*
X1435275Y724662D01*
Y724573D01*
X1435364D01*
Y724394D01*
X1435453D01*
Y724305D01*
X1435542D01*
Y724127D01*
X1435631Y724127D01*
X1435631Y724038D01*
X1450869D01*
Y723949D01*
X1452295D01*
Y723860D01*
X1453008D01*
Y723770D01*
X1453632D01*
Y723681D01*
X1454078Y723681D01*
Y723592D01*
X1454523D01*
Y723503D01*
X1454969Y723503D01*
Y723414D01*
X1455325Y723414D01*
Y723325D01*
X1455592Y723325D01*
Y723236D01*
X1455949D01*
Y723147D01*
X1456216D01*
Y723058D01*
X1456573Y723057D01*
X1456573Y722968D01*
X1456840D01*
X1456840Y722879D01*
X1457018D01*
Y722790D01*
X1457286D01*
Y722701D01*
X1457553Y722701D01*
Y722612D01*
X1457731D01*
X1457731Y722523D01*
X1457999D01*
Y722434D01*
X1458177D01*
Y722345D01*
X1458355D01*
X1458355Y722255D01*
X1458622D01*
Y722166D01*
X1458801Y722166D01*
X1458801Y722077D01*
X1458979D01*
Y721988D01*
X1459157Y721988D01*
Y721899D01*
X1459335Y721899D01*
Y721810D01*
X1459514Y721810D01*
Y721721D01*
X1459692D01*
Y721632D01*
X1459870Y721632D01*
Y721543D01*
X1460048D01*
X1460048Y721453D01*
X1460226D01*
X1460226Y721364D01*
X1460316D01*
Y721275D01*
X1460494D01*
Y721186D01*
X1460672Y721186D01*
Y721097D01*
X1460761D01*
Y721008D01*
X1460939D01*
Y720919D01*
X1461118D01*
Y720830D01*
X1461207D01*
X1461207Y720741D01*
X1461385D01*
Y720651D01*
X1461474D01*
Y720562D01*
X1461652D01*
Y720473D01*
X1461741D01*
Y720384D01*
X1461920Y720384D01*
Y720295D01*
X1462009Y720295D01*
X1462009Y720206D01*
X1462187D01*
X1462187Y720117D01*
X1462276D01*
X1462276Y720028D01*
X1462365Y720028D01*
X1462365Y719939D01*
X1462543D01*
Y719849D01*
X1462632D01*
Y719760D01*
X1462722D01*
Y719671D01*
X1462900Y719671D01*
Y719582D01*
X1462989D01*
Y719493D01*
X1463078D01*
Y719404D01*
X1463167D01*
Y719315D01*
X1463345D01*
X1463345Y719226D01*
X1463434D01*
X1463434Y719137D01*
X1463524D01*
Y719047D01*
X1463613D01*
Y718958D01*
X1463702D01*
Y718869D01*
X1463880D01*
X1463880Y718780D01*
X1463969D01*
X1463969Y718691D01*
X1464058D01*
X1464058Y718602D01*
X1464147D01*
Y718513D01*
X1464236Y718513D01*
Y718424D01*
X1464326D01*
Y718335D01*
X1464415Y718335D01*
Y718245D01*
X1464504D01*
Y718156D01*
X1464593D01*
Y718067D01*
X1464682Y718067D01*
Y717978D01*
X1464771Y717978D01*
Y717889D01*
X1464860D01*
Y717800D01*
X1464949D01*
Y717711D01*
X1465038D01*
X1465038Y717622D01*
X1465128D01*
X1465128Y717533D01*
X1465217D01*
Y717443D01*
X1465306D01*
Y717354D01*
X1465395D01*
Y717265D01*
X1465484D01*
X1465484Y717176D01*
X1465573D01*
X1465573Y716998D01*
X1465662D01*
X1465662Y716909D01*
X1465751D01*
Y716820D01*
X1465841D01*
Y716730D01*
X1465930Y716730D01*
X1465930Y716641D01*
X1466019D01*
Y716552D01*
X1466108D01*
Y716374D01*
X1466197Y716374D01*
Y716285D01*
X1466286D01*
Y716196D01*
X1466375Y716196D01*
Y716018D01*
X1466464D01*
Y715928D01*
X1466553D01*
Y715839D01*
X1466643D01*
Y715661D01*
X1466732Y715661D01*
X1466732Y715572D01*
X1466821D01*
Y715483D01*
X1466910D01*
Y715305D01*
X1466999Y715305D01*
X1466999Y715216D01*
X1467088Y715216D01*
Y715037D01*
X1467177Y715037D01*
Y714859D01*
X1467266Y714859D01*
Y714770D01*
X1467355Y714770D01*
Y714592D01*
X1467445Y714592D01*
Y714503D01*
X1467534D01*
Y714324D01*
X1467623D01*
Y714146D01*
X1467712D01*
X1467712Y713968D01*
X1467801D01*
Y713879D01*
X1467890D01*
Y713701D01*
X1467979D01*
Y713522D01*
X1468068D01*
Y713344D01*
X1468158D01*
Y713166D01*
X1468247Y713166D01*
Y712988D01*
X1468336Y712988D01*
Y712810D01*
X1468425D01*
X1468425Y712631D01*
X1468514D01*
Y712364D01*
X1468603D01*
X1468603Y712186D01*
X1468692Y712186D01*
Y712007D01*
X1468781D01*
Y711740D01*
X1468870Y711740D01*
Y711562D01*
X1468960D01*
Y711294D01*
X1469049D01*
X1469049Y711116D01*
X1469138D01*
Y710849D01*
X1469227D01*
X1469227Y710582D01*
X1469316D01*
X1469316Y710314D01*
X1469405D01*
Y710047D01*
X1469494D01*
Y709690D01*
X1469583Y709690D01*
Y709423D01*
X1469672D01*
Y709067D01*
X1469762D01*
X1469762Y708710D01*
X1469851D01*
Y708354D01*
X1469940D01*
Y707908D01*
X1470029D01*
Y707463D01*
X1470118D01*
Y707017D01*
X1470207D01*
X1470207Y706482D01*
X1470296D01*
Y705948D01*
X1470385D01*
Y705324D01*
X1470475D01*
Y704611D01*
X1470564Y704611D01*
Y703720D01*
X1470653D01*
Y702561D01*
X1470742D01*
Y700957D01*
X1470831Y700957D01*
X1470831Y695343D01*
X1470920D01*
X1470920Y680907D01*
X1470831D01*
Y667094D01*
X1470920D01*
X1470920Y667005D01*
X1471009D01*
Y666916D01*
X1471098Y666916D01*
Y666827D01*
X1471187D01*
Y666738D01*
X1471366Y666738D01*
Y666649D01*
X1471455D01*
Y666559D01*
X1471544Y666559D01*
Y666381D01*
X1471633Y666381D01*
Y666292D01*
X1471722D01*
Y666203D01*
X1471811Y666203D01*
Y666114D01*
X1471900D01*
Y666025D01*
X1471989D01*
X1471989Y665846D01*
X1472079D01*
Y665757D01*
X1472168D01*
X1472168Y665668D01*
X1472257D01*
X1472257Y665490D01*
X1472346D01*
Y665312D01*
X1472435D01*
X1472435Y665223D01*
X1472524D01*
Y665044D01*
X1472613D01*
X1472613Y664866D01*
X1472702Y664866D01*
Y664688D01*
X1472791Y664688D01*
X1472791Y664421D01*
X1472881D01*
Y664242D01*
X1472970D01*
Y663975D01*
X1473059D01*
X1473059Y663619D01*
X1473148D01*
Y663173D01*
X1473237Y663173D01*
Y661034D01*
X1473148D01*
Y660589D01*
X1473059D01*
Y660232D01*
X1472970D01*
Y659965D01*
X1472881D01*
Y659698D01*
X1472791Y659698D01*
Y659520D01*
X1472702Y659520D01*
X1472702Y659341D01*
X1472613Y659341D01*
Y659163D01*
X1472524D01*
Y658985D01*
X1472435D01*
Y658807D01*
X1472346D01*
Y658628D01*
X1472257D01*
X1472257Y658539D01*
X1472168D01*
X1472168Y658361D01*
X1472079D01*
Y658272D01*
X1471989D01*
Y658183D01*
X1471900Y658183D01*
X1471900Y658005D01*
X1471811D01*
Y657915D01*
X1471722Y657915D01*
Y657826D01*
X1471633D01*
Y657737D01*
X1471544D01*
Y657648D01*
X1471455D01*
Y657559D01*
X1471366D01*
Y657470D01*
X1471277Y657470D01*
Y657381D01*
X1471187Y657381D01*
X1471187Y657292D01*
X1471098Y657292D01*
X1471098Y657203D01*
X1471009D01*
Y657113D01*
X1470920D01*
X1470920Y657024D01*
X1470742D01*
X1470742Y656935D01*
X1470653D01*
Y656846D01*
X1470564D01*
Y656757D01*
X1470385D01*
Y656668D01*
X1470207D01*
Y656579D01*
X1470118Y656579D01*
X1470118Y656490D01*
X1469940Y656490D01*
Y656401D01*
X1469762D01*
Y656311D01*
X1469583D01*
Y656222D01*
X1469405Y656222D01*
Y656133D01*
X1469138Y656133D01*
Y656044D01*
X1468870Y656044D01*
Y655955D01*
X1468603D01*
X1468603Y655866D01*
X1468247D01*
Y655777D01*
X1467712D01*
Y655688D01*
X1466108D01*
Y655777D01*
X1465573D01*
X1465573Y655866D01*
X1465217D01*
Y655955D01*
X1464860Y655955D01*
Y656044D01*
X1464593D01*
Y656133D01*
X1464415D01*
Y656222D01*
X1464236Y656222D01*
Y656311D01*
X1464058Y656311D01*
X1464058Y656401D01*
X1463880D01*
Y656490D01*
X1463702Y656490D01*
X1463702Y656579D01*
X1463524D01*
X1463524Y656668D01*
X1463434D01*
Y656757D01*
X1463256D01*
Y656846D01*
X1463167D01*
Y656935D01*
X1462989Y656935D01*
Y657024D01*
X1462900D01*
Y657113D01*
X1462811D01*
Y657203D01*
X1462722D01*
Y657292D01*
X1462543Y657292D01*
Y657381D01*
X1462454D01*
X1462454Y657470D01*
X1462365D01*
X1462365Y657559D01*
X1462276D01*
Y657648D01*
X1462187Y657648D01*
Y657826D01*
X1462098D01*
X1462098Y657915D01*
X1462009D01*
X1462009Y658005D01*
X1461920Y658005D01*
Y658094D01*
X1461830D01*
X1461830Y658183D01*
X1461741Y658183D01*
Y658361D01*
X1461652D01*
Y658450D01*
X1461563Y658450D01*
Y658628D01*
X1461474D01*
Y658717D01*
X1461385D01*
Y658896D01*
X1461296D01*
X1461296Y659074D01*
X1461207D01*
Y659252D01*
X1461118Y659252D01*
Y659430D01*
X1461028D01*
Y659609D01*
X1460939D01*
Y659876D01*
X1460850D01*
Y660143D01*
X1460761D01*
X1460761Y660411D01*
X1460672D01*
Y660856D01*
X1460583D01*
X1460583Y661480D01*
X1460494D01*
Y662638D01*
X1460583D01*
Y663351D01*
X1460672D01*
Y663708D01*
X1460761D01*
Y664064D01*
X1460850D01*
X1460850Y664242D01*
X1460939D01*
Y664510D01*
X1461028D01*
Y664688D01*
X1461118D01*
Y664866D01*
X1461207Y664866D01*
X1461207Y665044D01*
X1461296Y665044D01*
Y665223D01*
X1461385D01*
Y665401D01*
X1461474D01*
Y665579D01*
X1461563D01*
Y665668D01*
X1461652D01*
X1461652Y665757D01*
X1461741D01*
X1461741Y665936D01*
X1461830D01*
Y666025D01*
X1461920D01*
Y666114D01*
X1462009D01*
X1462009Y666292D01*
X1462098D01*
X1462098Y666381D01*
X1462187D01*
Y666470D01*
X1462276D01*
Y666559D01*
X1462365D01*
Y666649D01*
X1462454Y666649D01*
X1462454Y666738D01*
X1462543D01*
Y666827D01*
X1462632D01*
Y666916D01*
X1462722Y666916D01*
X1462722Y667005D01*
X1462900D01*
Y667094D01*
X1462989D01*
Y667183D01*
X1463078D01*
Y667272D01*
X1463256Y667272D01*
X1463256Y667362D01*
X1463345D01*
Y667451D01*
X1463524D01*
Y667540D01*
X1463613D01*
Y667629D01*
X1463791D01*
X1463791Y691422D01*
X1463702D01*
X1463702Y697393D01*
X1443027Y697393D01*
Y704344D01*
X1463613D01*
Y705146D01*
X1463524D01*
X1463524Y705770D01*
X1463434D01*
Y706215D01*
X1463345D01*
X1463345Y706661D01*
X1463256D01*
Y707017D01*
X1463167D01*
X1463167Y707284D01*
X1463078D01*
Y707641D01*
X1462989D01*
Y707908D01*
X1462900D01*
Y708086D01*
X1462811Y708086D01*
Y708354D01*
X1462722D01*
Y708621D01*
X1462632D01*
Y708799D01*
X1462543D01*
Y708978D01*
X1462454D01*
X1462454Y709245D01*
X1462365D01*
X1462365Y709423D01*
X1462276D01*
X1462276Y709601D01*
X1462187D01*
Y709780D01*
X1462098D01*
X1462098Y709958D01*
X1462009D01*
X1462009Y710047D01*
X1461920Y710047D01*
X1461920Y710225D01*
X1461830D01*
Y710403D01*
X1461741D01*
Y710492D01*
X1461652D01*
X1461652Y710671D01*
X1461563D01*
Y710849D01*
X1461474D01*
Y710938D01*
X1461385D01*
Y711116D01*
X1461296D01*
X1461296Y711205D01*
X1461207D01*
Y711384D01*
X1461118Y711384D01*
Y711473D01*
X1461028D01*
Y711562D01*
X1460939D01*
Y711740D01*
X1460850Y711740D01*
Y711829D01*
X1460761D01*
X1460761Y711918D01*
X1460672D01*
Y712007D01*
X1460583D01*
X1460583Y712186D01*
X1460494D01*
Y712275D01*
X1460405D01*
Y712364D01*
X1460316D01*
Y712453D01*
X1460226D01*
Y712542D01*
X1460137D01*
X1460137Y712631D01*
X1460048D01*
X1460048Y712720D01*
X1459959D01*
Y712810D01*
X1459870D01*
Y712899D01*
X1459781D01*
Y712988D01*
X1459692Y712988D01*
Y713077D01*
X1459603Y713077D01*
Y713166D01*
X1459514D01*
Y713255D01*
X1459424D01*
Y713344D01*
X1459335D01*
Y713433D01*
X1459246D01*
Y713522D01*
X1459157D01*
Y713612D01*
X1459068D01*
Y713701D01*
X1458979Y713701D01*
Y713790D01*
X1458890Y713790D01*
X1458890Y713879D01*
X1458712D01*
Y713968D01*
X1458622D01*
Y714057D01*
X1458533D01*
Y714146D01*
X1458444D01*
X1458444Y714235D01*
X1458266D01*
X1458266Y714324D01*
X1458177D01*
Y714414D01*
X1457999D01*
Y714503D01*
X1457909D01*
Y714592D01*
X1457820D01*
Y714681D01*
X1457642Y714681D01*
Y714770D01*
X1457553D01*
Y714859D01*
X1457375D01*
Y714948D01*
X1457197Y714948D01*
Y715037D01*
X1457107D01*
X1457107Y715126D01*
X1456929D01*
Y715216D01*
X1456751Y715216D01*
X1456751Y715305D01*
X1456573D01*
X1456573Y715394D01*
X1456484D01*
Y715483D01*
X1456305D01*
Y715572D01*
X1456127D01*
Y715661D01*
X1455860D01*
X1455860Y715750D01*
X1455682D01*
Y715839D01*
X1455503D01*
Y715928D01*
X1455236D01*
Y716018D01*
X1455058D01*
Y716107D01*
X1454790D01*
X1454790Y716196D01*
X1454523Y716196D01*
Y716285D01*
X1454256D01*
Y716374D01*
X1453988D01*
Y716463D01*
X1453632D01*
X1453632Y716552D01*
X1453275D01*
Y716641D01*
X1452919Y716641D01*
Y716730D01*
X1452384D01*
Y716820D01*
X1451761D01*
Y716909D01*
X1450424D01*
Y716998D01*
X1435542D01*
Y716909D01*
X1435453Y716909D01*
Y716820D01*
X1435364Y716820D01*
Y716641D01*
X1435275D01*
Y716552D01*
X1435185Y716552D01*
Y716463D01*
X1435096Y716463D01*
Y716285D01*
X1435007D01*
Y716196D01*
X1434918D01*
Y716107D01*
X1434829D01*
Y716018D01*
X1434740D01*
Y715928D01*
X1434651D01*
Y715839D01*
X1434562D01*
X1434562Y715750D01*
X1434473D01*
X1434473Y715661D01*
X1434383D01*
Y715572D01*
X1434294D01*
Y715483D01*
X1434116D01*
Y715394D01*
X1434027D01*
X1434027Y715305D01*
X1433938Y715305D01*
X1433938Y715216D01*
X1433760D01*
Y715126D01*
X1433671D01*
Y715037D01*
X1433492D01*
Y714948D01*
X1433403D01*
Y714859D01*
X1433225D01*
Y714770D01*
X1433047Y714770D01*
Y714681D01*
X1432868D01*
X1432868Y714592D01*
X1432690D01*
Y714503D01*
X1432512D01*
Y714414D01*
X1432245D01*
Y714324D01*
X1431977D01*
X1431977Y714235D01*
X1431710D01*
X1431710Y714146D01*
X1431264Y714146D01*
Y714057D01*
X1430641D01*
Y713968D01*
X1429304D01*
Y714057D01*
X1428680D01*
X1428680Y714146D01*
X1428324D01*
Y714235D01*
X1427967D01*
Y714324D01*
X1427700D01*
Y714414D01*
X1427522D01*
Y714503D01*
X1427254D01*
Y714592D01*
X1427076Y714592D01*
Y714681D01*
X1426898Y714681D01*
Y714770D01*
X1426720Y714770D01*
Y714859D01*
X1426631Y714859D01*
Y714948D01*
X1426452Y714948D01*
Y715037D01*
X1426274D01*
Y715126D01*
X1426185D01*
Y715216D01*
X1426096Y715216D01*
Y715305D01*
X1425918Y715305D01*
Y715394D01*
X1425829D01*
Y715483D01*
X1425739D01*
Y715572D01*
X1425650D01*
Y715661D01*
X1425472D01*
X1425472Y715750D01*
X1425383D01*
Y715839D01*
X1425294D01*
Y715928D01*
X1425205D01*
Y716018D01*
X1425116D01*
Y716107D01*
X1425027Y716107D01*
Y716285D01*
X1424937D01*
Y716374D01*
X1424848Y716374D01*
Y716463D01*
X1424759Y716463D01*
Y716552D01*
X1424670D01*
Y716730D01*
X1424581Y716730D01*
Y716820D01*
X1424492D01*
Y716998D01*
X1424403D01*
Y717087D01*
X1424314D01*
X1424314Y717265D01*
X1424225D01*
X1424225Y717443D01*
X1424135D01*
Y717533D01*
X1424046D01*
Y717711D01*
X1423957D01*
X1423957Y717978D01*
X1423868Y717978D01*
Y718156D01*
X1423779D01*
Y718424D01*
X1423690Y718424D01*
X1423690Y718691D01*
X1423601Y718691D01*
Y718958D01*
X1423512D01*
Y719404D01*
X1423423D01*
Y720295D01*
X1423333D01*
X1423333Y720919D01*
X1423423D01*
Y721810D01*
X1423512D01*
X1423512Y722166D01*
X1423601Y722166D01*
X1423601Y722523D01*
X1423690Y722523D01*
Y722790D01*
X1423779D01*
X1423779Y723057D01*
X1423868D01*
X1423868Y723236D01*
X1423957D01*
Y723414D01*
X1424046Y723414D01*
Y723592D01*
X1424135Y723592D01*
X1424135Y723770D01*
X1424225Y723770D01*
Y723949D01*
X1424314D01*
Y724127D01*
X1424403Y724127D01*
X1424403Y724216D01*
X1424492D01*
Y724394D01*
X1424581D01*
Y724483D01*
X1424670D01*
X1424670Y724662D01*
X1424759Y724662D01*
X1424759Y724751D01*
X1424848D01*
Y724840D01*
X1424937D01*
Y724929D01*
X1425027D01*
Y725018D01*
X1425116Y725018D01*
Y725196D01*
X1425205Y725196D01*
Y725285D01*
X1425294Y725285D01*
X1425294Y725375D01*
X1425383Y725375D01*
Y725464D01*
X1425561Y725464D01*
X1425561Y725553D01*
X1425650Y725553D01*
Y725642D01*
X1425739D01*
X1425739Y725731D01*
X1425829D01*
X1425829Y725820D01*
X1425918D01*
Y725909D01*
X1426096D01*
Y725998D01*
X1426185Y725998D01*
X1426185Y726087D01*
X1426363D01*
X1426363Y726177D01*
X1426452D01*
Y726266D01*
X1426631D01*
Y726355D01*
X1426809D01*
X1426809Y726444D01*
X1426898D01*
Y726533D01*
X1427076Y726533D01*
Y726622D01*
X1427343D01*
Y726711D01*
X1427522D01*
Y726800D01*
X1427789D01*
X1427789Y726889D01*
X1428056D01*
Y726979D01*
X1428324D01*
Y727068D01*
X1428769D01*
Y727157D01*
X1429482D01*
X1429482Y727246D01*
X1430552D01*
X1430551Y727157D01*
D02*
G37*
G36*
X1525368Y695165D02*
X1525279D01*
Y694363D01*
X1525190D01*
Y693739D01*
X1525101D01*
Y693204D01*
X1525012D01*
Y692759D01*
X1524923Y692759D01*
Y692313D01*
X1524834Y692313D01*
Y691957D01*
X1524745D01*
Y691600D01*
X1524656D01*
X1524656Y691244D01*
X1524566D01*
Y690977D01*
X1524477D01*
Y690709D01*
X1524388D01*
Y690442D01*
X1524299D01*
X1524299Y690175D01*
X1524210D01*
X1524210Y689907D01*
X1524121D01*
Y689640D01*
X1524032D01*
X1524032Y689462D01*
X1523943D01*
Y689194D01*
X1523854Y689194D01*
X1523854Y689016D01*
X1523764D01*
X1523764Y688838D01*
X1523675D01*
Y688570D01*
X1523586D01*
Y688392D01*
X1523497D01*
X1523497Y688214D01*
X1523408D01*
Y688036D01*
X1523319Y688036D01*
Y687858D01*
X1523230D01*
Y687679D01*
X1523141D01*
X1523141Y687501D01*
X1523051D01*
Y687323D01*
X1522962D01*
Y687145D01*
X1522873D01*
Y686966D01*
X1522784D01*
X1522784Y686877D01*
X1522695Y686877D01*
Y686699D01*
X1522606D01*
X1522606Y686521D01*
X1522517D01*
Y686343D01*
X1522428D01*
Y686254D01*
X1522339D01*
Y686075D01*
X1522249Y686075D01*
Y685986D01*
X1522160D01*
Y685808D01*
X1522071D01*
Y685719D01*
X1521982Y685719D01*
Y685541D01*
X1521893Y685541D01*
Y685452D01*
X1521804Y685452D01*
Y685273D01*
X1521715D01*
Y685184D01*
X1521626D01*
Y685006D01*
X1521537D01*
Y684917D01*
X1521447D01*
Y684828D01*
X1521358D01*
Y684650D01*
X1521269D01*
Y684560D01*
X1521180D01*
X1521180Y684471D01*
X1521091D01*
Y684293D01*
X1521002D01*
X1521002Y684204D01*
X1520913D01*
X1520913Y684115D01*
X1520824Y684115D01*
Y684026D01*
X1520735D01*
Y683848D01*
X1520645D01*
X1520645Y683758D01*
X1520556D01*
X1520556Y683669D01*
X1520467D01*
X1520467Y683580D01*
X1520378D01*
Y683491D01*
X1520289Y683491D01*
Y683402D01*
X1520200D01*
Y683224D01*
X1520111D01*
X1520111Y683135D01*
X1520022D01*
X1520022Y683046D01*
X1519933D01*
X1519933Y682956D01*
X1519843D01*
Y682867D01*
X1519754D01*
Y682778D01*
X1519665D01*
X1519665Y682689D01*
X1519576D01*
X1519576Y682600D01*
X1519487Y682600D01*
X1519487Y682511D01*
X1519398D01*
Y682422D01*
X1519309D01*
X1519309Y682333D01*
X1519220D01*
X1519220Y682243D01*
X1519131Y682243D01*
Y682154D01*
X1519041Y682154D01*
Y682065D01*
X1518952Y682065D01*
Y681976D01*
X1518863Y681976D01*
Y681887D01*
X1518774D01*
Y681798D01*
X1518685D01*
Y681709D01*
X1518507D01*
Y681620D01*
X1518418D01*
X1518418Y681531D01*
X1518329D01*
Y681441D01*
X1518239D01*
Y681352D01*
X1518150D01*
Y681263D01*
X1518061D01*
X1518061Y681174D01*
X1517883D01*
Y681085D01*
X1517794D01*
Y680996D01*
X1517705D01*
Y680907D01*
X1517616D01*
X1517616Y680818D01*
X1517437D01*
X1517437Y680729D01*
X1517348D01*
Y680639D01*
X1517259Y680639D01*
Y680550D01*
X1517081D01*
Y680461D01*
X1516992Y680461D01*
X1516992Y680372D01*
X1516903Y680372D01*
Y680283D01*
X1516725Y680283D01*
Y680194D01*
X1516635D01*
Y680105D01*
X1516457D01*
X1516457Y680016D01*
X1516368D01*
Y679927D01*
X1516190D01*
Y679837D01*
X1516101D01*
Y679748D01*
X1515922Y679748D01*
X1515923Y679659D01*
X1515833D01*
X1515833Y679570D01*
X1515655D01*
X1515655Y679481D01*
X1515477D01*
Y679392D01*
X1515388D01*
X1515388Y679303D01*
X1515210D01*
X1515210Y679214D01*
X1515031Y679214D01*
X1515031Y679125D01*
X1514853D01*
Y679035D01*
X1514764D01*
Y678946D01*
X1514586D01*
Y678857D01*
X1514408Y678857D01*
Y678768D01*
X1514229Y678768D01*
Y678679D01*
X1514051D01*
Y678590D01*
X1513873D01*
X1513873Y678501D01*
X1513695Y678501D01*
Y678411D01*
X1513516Y678412D01*
X1513516Y678323D01*
X1513249D01*
Y678233D01*
X1513071Y678233D01*
Y678144D01*
X1512893Y678144D01*
Y678055D01*
X1512625Y678055D01*
Y677966D01*
X1512447D01*
Y677877D01*
X1512180D01*
X1512180Y677788D01*
X1512001D01*
X1512001Y677699D01*
X1511734D01*
X1511734Y677610D01*
X1511467D01*
X1511467Y677520D01*
X1511199D01*
Y677431D01*
X1510843D01*
X1510843Y677342D01*
X1510576D01*
X1510576Y677253D01*
X1510219D01*
X1510219Y677164D01*
X1509863D01*
Y677075D01*
X1509506D01*
Y676986D01*
X1509061D01*
Y676897D01*
X1508615Y676897D01*
Y676807D01*
X1508080D01*
Y676718D01*
X1507368D01*
X1507368Y676629D01*
X1506387D01*
Y676540D01*
X1498813D01*
X1498813Y697304D01*
X1498723Y697304D01*
Y697393D01*
X1477960D01*
Y705413D01*
X1478049Y705413D01*
X1478049Y706215D01*
X1478138Y706215D01*
Y706839D01*
X1478227Y706839D01*
Y707374D01*
X1478316D01*
Y707819D01*
X1478406D01*
Y708265D01*
X1478495Y708265D01*
Y708621D01*
X1478584D01*
Y708978D01*
X1478673D01*
Y709245D01*
X1478762D01*
X1478762Y709601D01*
X1478851D01*
X1478851Y709869D01*
X1478940Y709869D01*
Y710136D01*
X1479029D01*
X1479029Y710403D01*
X1479118D01*
Y710671D01*
X1479208D01*
Y710849D01*
X1479297D01*
Y711116D01*
X1479386D01*
Y711294D01*
X1479475D01*
X1479475Y711562D01*
X1479564D01*
Y711740D01*
X1479653D01*
X1479653Y711918D01*
X1479742D01*
Y712186D01*
X1479831D01*
Y712364D01*
X1479921D01*
Y712542D01*
X1480010D01*
X1480010Y712720D01*
X1480099Y712720D01*
Y712899D01*
X1480188D01*
Y713077D01*
X1480277D01*
Y713255D01*
X1480366D01*
Y713433D01*
X1480455D01*
X1480455Y713522D01*
X1480544D01*
Y713701D01*
X1480633Y713701D01*
X1480633Y713879D01*
X1480723D01*
Y714057D01*
X1480812D01*
X1480812Y714146D01*
X1480901D01*
Y714324D01*
X1480990D01*
Y714503D01*
X1481079D01*
Y714592D01*
X1481168Y714592D01*
X1481168Y714770D01*
X1481257D01*
Y714859D01*
X1481346D01*
Y715037D01*
X1481435D01*
Y715126D01*
X1481525D01*
X1481525Y715305D01*
X1481614Y715305D01*
Y715394D01*
X1481703D01*
Y715483D01*
X1481792D01*
Y715661D01*
X1481881D01*
Y715750D01*
X1481970D01*
X1481970Y715928D01*
X1482059D01*
Y716018D01*
X1482148D01*
Y716107D01*
X1482238D01*
X1482237Y716196D01*
X1482327D01*
X1482327Y716374D01*
X1482416Y716374D01*
X1482416Y716463D01*
X1482505D01*
Y716552D01*
X1482594D01*
Y716641D01*
X1482683D01*
Y716820D01*
X1482772Y716820D01*
Y716909D01*
X1482861Y716909D01*
Y716998D01*
X1482950D01*
Y717087D01*
X1483040D01*
Y717176D01*
X1483129Y717176D01*
X1483129Y717265D01*
X1483218Y717265D01*
Y717354D01*
X1483307D01*
Y717443D01*
X1483396D01*
Y717622D01*
X1483485D01*
X1483485Y717711D01*
X1483574D01*
X1483574Y717800D01*
X1483663D01*
Y717889D01*
X1483752D01*
Y717978D01*
X1483842D01*
Y718067D01*
X1483931Y718067D01*
X1483931Y718156D01*
X1484020Y718156D01*
X1484020Y718245D01*
X1484109Y718245D01*
Y718335D01*
X1484198Y718335D01*
Y718424D01*
X1484287Y718424D01*
X1484287Y718513D01*
X1484376Y718513D01*
Y718602D01*
X1484554D01*
Y718691D01*
X1484644Y718691D01*
X1484644Y718780D01*
X1484733Y718780D01*
Y718869D01*
X1484822D01*
Y718958D01*
X1484911D01*
Y719047D01*
X1485000D01*
X1485000Y719137D01*
X1485089D01*
X1485089Y719226D01*
X1485267D01*
Y719315D01*
X1485356D01*
Y719404D01*
X1485446D01*
X1485446Y719493D01*
X1485535D01*
X1485535Y719582D01*
X1485624Y719582D01*
Y719671D01*
X1485802D01*
X1485802Y719760D01*
X1485891D01*
Y719849D01*
X1485980D01*
Y719939D01*
X1486158Y719939D01*
Y720028D01*
X1486248Y720028D01*
Y720117D01*
X1486337Y720117D01*
Y720206D01*
X1486515Y720206D01*
X1486515Y720295D01*
X1486604Y720295D01*
Y720384D01*
X1486782D01*
Y720473D01*
X1486871D01*
Y720562D01*
X1487050D01*
Y720651D01*
X1487139Y720651D01*
Y720741D01*
X1487317D01*
X1487317Y720830D01*
X1487406D01*
Y720919D01*
X1487584D01*
Y721008D01*
X1487763D01*
Y721097D01*
X1487852D01*
X1487852Y721186D01*
X1488030D01*
Y721275D01*
X1488208D01*
Y721364D01*
X1488297D01*
Y721453D01*
X1488475D01*
X1488475Y721543D01*
X1488654Y721543D01*
Y721632D01*
X1488832Y721632D01*
Y721721D01*
X1489010D01*
X1489010Y721810D01*
X1489188D01*
X1489188Y721899D01*
X1489367D01*
Y721988D01*
X1489545D01*
Y722077D01*
X1489723D01*
Y722166D01*
X1489901Y722166D01*
Y722255D01*
X1490079Y722255D01*
Y722345D01*
X1490347D01*
Y722434D01*
X1490525D01*
X1490525Y722523D01*
X1490703D01*
Y722612D01*
X1490971D01*
Y722701D01*
X1491238D01*
Y722790D01*
X1491416D01*
Y722879D01*
X1491684D01*
Y722968D01*
X1491951D01*
X1491951Y723058D01*
X1492218Y723057D01*
Y723147D01*
X1492575D01*
Y723236D01*
X1492842D01*
Y723325D01*
X1493199D01*
Y723414D01*
X1493555D01*
X1493555Y723503D01*
X1493911Y723503D01*
Y723592D01*
X1494357D01*
X1494357Y723681D01*
X1494892D01*
X1494892Y723770D01*
X1495426Y723770D01*
Y723860D01*
X1496228Y723860D01*
Y723949D01*
X1497565D01*
Y724038D01*
X1525368D01*
X1525368Y695165D01*
D02*
G37*
G36*
X1482238Y689996D02*
X1482237Y689907D01*
X1483040D01*
X1483040Y689818D01*
X1483485D01*
Y689729D01*
X1483842D01*
X1483842Y689640D01*
X1484109D01*
X1484109Y689551D01*
X1484287Y689551D01*
Y689462D01*
X1484465D01*
Y689373D01*
X1484733D01*
Y689284D01*
X1484911D01*
Y689194D01*
X1485000Y689194D01*
Y689105D01*
X1485178Y689105D01*
Y689016D01*
X1485356D01*
Y688927D01*
X1485446D01*
Y688838D01*
X1485624Y688838D01*
Y688749D01*
X1485713Y688749D01*
Y688660D01*
X1485802D01*
X1485802Y688570D01*
X1485980D01*
X1485980Y688481D01*
X1486069D01*
X1486069Y688392D01*
X1486158D01*
X1486158Y688303D01*
X1486248D01*
Y688214D01*
X1486337D01*
X1486337Y688125D01*
X1486426D01*
X1486426Y688036D01*
X1486515D01*
X1486515Y687947D01*
X1486604D01*
Y687858D01*
X1486693D01*
Y687768D01*
X1486782D01*
Y687679D01*
X1486871Y687679D01*
Y687501D01*
X1486960D01*
Y687412D01*
X1487050Y687412D01*
Y687323D01*
X1487139Y687323D01*
Y687145D01*
X1487228D01*
Y687056D01*
X1487317Y687056D01*
X1487317Y686877D01*
X1487406Y686877D01*
Y686788D01*
X1487495D01*
X1487495Y686610D01*
X1487584D01*
Y686432D01*
X1487673D01*
Y686254D01*
X1487762D01*
Y685986D01*
X1487852D01*
Y685808D01*
X1487941Y685808D01*
Y685541D01*
X1488030D01*
Y685184D01*
X1488119D01*
Y684828D01*
X1488208D01*
X1488208Y684115D01*
X1488297D01*
Y683046D01*
X1488208D01*
Y682333D01*
X1488119D01*
Y681976D01*
X1488030Y681976D01*
Y681620D01*
X1487941D01*
X1487941Y681352D01*
X1487852D01*
X1487852Y681174D01*
X1487763D01*
X1487762Y680907D01*
X1487673D01*
X1487673Y680729D01*
X1487584D01*
Y680550D01*
X1487495D01*
Y680461D01*
X1487406Y680461D01*
Y680283D01*
X1487317Y680283D01*
Y680105D01*
X1487228Y680105D01*
Y680016D01*
X1487139D01*
Y679837D01*
X1487050D01*
Y679748D01*
X1486960D01*
X1486960Y679659D01*
X1486871Y679659D01*
Y679481D01*
X1486782D01*
Y679392D01*
X1486693D01*
Y679303D01*
X1486604D01*
X1486604Y679214D01*
X1486515Y679214D01*
X1486515Y679125D01*
X1486426Y679125D01*
Y679035D01*
X1486337D01*
Y678946D01*
X1486248Y678946D01*
Y678857D01*
X1486158Y678857D01*
Y678768D01*
X1486069Y678768D01*
Y678679D01*
X1485980Y678679D01*
Y678590D01*
X1485802Y678590D01*
Y678501D01*
X1485713Y678501D01*
Y678412D01*
X1485624D01*
Y678323D01*
X1485446D01*
Y678233D01*
X1485356D01*
Y678144D01*
X1485178Y678144D01*
Y678055D01*
X1485000Y678055D01*
Y651945D01*
X1485089Y651945D01*
X1485089Y648291D01*
X1505764D01*
X1505764Y641251D01*
X1485178D01*
Y640449D01*
X1485267D01*
Y639825D01*
X1485356D01*
Y639380D01*
X1485446D01*
Y639023D01*
X1485535Y639023D01*
Y638667D01*
X1485624Y638667D01*
Y638310D01*
X1485713D01*
Y638043D01*
X1485802D01*
Y637776D01*
X1485891Y637776D01*
X1485891Y637508D01*
X1485980D01*
Y637241D01*
X1486069D01*
Y637063D01*
X1486158Y637063D01*
Y636796D01*
X1486248D01*
Y636617D01*
X1486337D01*
X1486337Y636439D01*
X1486426D01*
Y636261D01*
X1486515D01*
X1486515Y636083D01*
X1486604D01*
Y635904D01*
X1486693D01*
Y635726D01*
X1486782D01*
Y635548D01*
X1486871D01*
Y635370D01*
X1486960Y635370D01*
Y635281D01*
X1487050Y635280D01*
Y635102D01*
X1487139Y635102D01*
Y634924D01*
X1487228D01*
Y634835D01*
X1487317D01*
X1487317Y634657D01*
X1487406Y634657D01*
Y634568D01*
X1487495D01*
X1487495Y634389D01*
X1487584D01*
X1487584Y634300D01*
X1487673D01*
X1487673Y634211D01*
X1487763D01*
X1487762Y634033D01*
X1487852D01*
Y633944D01*
X1487941Y633944D01*
X1487941Y633855D01*
X1488030Y633855D01*
Y633676D01*
X1488119D01*
X1488119Y633587D01*
X1488208Y633587D01*
Y633498D01*
X1488297D01*
Y633409D01*
X1488386D01*
Y633320D01*
X1488475D01*
Y633231D01*
X1488564Y633231D01*
X1488564Y633053D01*
X1488654D01*
Y632964D01*
X1488743D01*
Y632874D01*
X1488832Y632874D01*
X1488832Y632785D01*
X1488921D01*
X1488921Y632696D01*
X1489010Y632696D01*
X1489010Y632607D01*
X1489099D01*
Y632518D01*
X1489188D01*
X1489188Y632429D01*
X1489277D01*
X1489277Y632340D01*
X1489367Y632340D01*
X1489367Y632251D01*
X1489456Y632251D01*
X1489456Y632162D01*
X1489634D01*
Y632072D01*
X1489723D01*
Y631983D01*
X1489812Y631983D01*
Y631894D01*
X1489901D01*
Y631805D01*
X1489990D01*
Y631716D01*
X1490079Y631716D01*
X1490079Y631627D01*
X1490258Y631627D01*
Y631538D01*
X1490347D01*
Y631449D01*
X1490436D01*
X1490436Y631359D01*
X1490614D01*
Y631270D01*
X1490703D01*
Y631181D01*
X1490792D01*
X1490792Y631092D01*
X1490971D01*
Y631003D01*
X1491060D01*
Y630914D01*
X1491238D01*
Y630825D01*
X1491327Y630825D01*
Y630736D01*
X1491505Y630736D01*
X1491505Y630647D01*
X1491684D01*
Y630558D01*
X1491773D01*
Y630468D01*
X1491951Y630468D01*
Y630379D01*
X1492129Y630379D01*
Y630290D01*
X1492307Y630290D01*
Y630201D01*
X1492486Y630201D01*
Y630112D01*
X1492664D01*
X1492664Y630023D01*
X1492842Y630023D01*
Y629934D01*
X1493020D01*
Y629845D01*
X1493199D01*
X1493199Y629756D01*
X1493466Y629756D01*
X1493466Y629666D01*
X1493644D01*
Y629577D01*
X1493911D01*
Y629488D01*
X1494179D01*
Y629399D01*
X1494446D01*
X1494446Y629310D01*
X1494713D01*
X1494713Y629221D01*
X1494981D01*
X1494981Y629132D01*
X1495337D01*
Y629043D01*
X1495783D01*
X1495783Y628954D01*
X1496228D01*
X1496228Y628864D01*
X1496763Y628864D01*
X1496763Y628775D01*
X1497654D01*
X1497654Y628686D01*
X1513249D01*
Y628775D01*
X1513338D01*
X1513338Y628864D01*
X1513427Y628864D01*
Y629043D01*
X1513516D01*
Y629132D01*
X1513605D01*
Y629221D01*
X1513695D01*
X1513695Y629310D01*
X1513784D01*
Y629488D01*
X1513873D01*
Y629577D01*
X1513962D01*
X1513962Y629666D01*
X1514051D01*
X1514051Y629756D01*
X1514140Y629756D01*
X1514140Y629845D01*
X1514229Y629845D01*
Y629934D01*
X1514318D01*
Y630023D01*
X1514497D01*
Y630112D01*
X1514586Y630112D01*
Y630201D01*
X1514675D01*
Y630290D01*
X1514764Y630290D01*
Y630379D01*
X1514942Y630379D01*
X1514942Y630468D01*
X1515031Y630468D01*
Y630558D01*
X1515210Y630558D01*
Y630647D01*
X1515299D01*
X1515299Y630736D01*
X1515477Y630736D01*
Y630825D01*
X1515655D01*
X1515655Y630914D01*
X1515744D01*
X1515744Y631003D01*
X1516012D01*
Y631092D01*
X1516190D01*
X1516190Y631181D01*
X1516368D01*
Y631270D01*
X1516635D01*
Y631359D01*
X1516903D01*
X1516903Y631449D01*
X1517259D01*
Y631538D01*
X1517705D01*
Y631627D01*
X1519933D01*
Y631538D01*
X1520378D01*
Y631449D01*
X1520735D01*
Y631360D01*
X1521002D01*
X1521002Y631270D01*
X1521180D01*
X1521180Y631181D01*
X1521447D01*
Y631092D01*
X1521626D01*
Y631003D01*
X1521804D01*
Y630914D01*
X1521982Y630914D01*
X1521982Y630825D01*
X1522160D01*
X1522160Y630736D01*
X1522249D01*
X1522249Y630647D01*
X1522428D01*
Y630558D01*
X1522517Y630558D01*
X1522517Y630468D01*
X1522695Y630468D01*
Y630379D01*
X1522784D01*
Y630290D01*
X1522962Y630290D01*
X1522962Y630201D01*
X1523051Y630201D01*
X1523051Y630112D01*
X1523141Y630112D01*
Y630023D01*
X1523230Y630023D01*
Y629934D01*
X1523319D01*
Y629845D01*
X1523408Y629845D01*
X1523408Y629756D01*
X1523497D01*
X1523497Y629666D01*
X1523586D01*
Y629577D01*
X1523675D01*
Y629488D01*
X1523764D01*
X1523764Y629399D01*
X1523854D01*
X1523854Y629310D01*
X1523943Y629310D01*
Y629221D01*
X1524032Y629221D01*
X1524032Y629043D01*
X1524121D01*
Y628954D01*
X1524210D01*
X1524210Y628775D01*
X1524299Y628775D01*
Y628686D01*
X1524388Y628686D01*
Y628508D01*
X1524477D01*
Y628419D01*
X1524566Y628419D01*
Y628241D01*
X1524656Y628241D01*
Y628062D01*
X1524745D01*
Y627884D01*
X1524834D01*
Y627706D01*
X1524923D01*
Y627439D01*
X1525012D01*
X1525012Y627260D01*
X1525101D01*
Y626993D01*
X1525190D01*
Y626637D01*
X1525279D01*
Y626191D01*
X1525368D01*
Y623963D01*
X1525279D01*
Y623517D01*
X1525190D01*
Y623161D01*
X1525101D01*
Y622894D01*
X1525012Y622894D01*
Y622626D01*
X1524923D01*
Y622448D01*
X1524834Y622448D01*
Y622181D01*
X1524745D01*
Y622003D01*
X1524656D01*
X1524656Y621824D01*
X1524566D01*
Y621735D01*
X1524477D01*
X1524477Y621557D01*
X1524388Y621557D01*
X1524388Y621379D01*
X1524299D01*
X1524299Y621290D01*
X1524210D01*
X1524210Y621111D01*
X1524121D01*
Y621022D01*
X1524032D01*
X1524032Y620933D01*
X1523943D01*
X1523943Y620844D01*
X1523854D01*
X1523854Y620666D01*
X1523764D01*
Y620577D01*
X1523675D01*
Y620488D01*
X1523586D01*
Y620399D01*
X1523497D01*
X1523497Y620309D01*
X1523408D01*
Y620220D01*
X1523319D01*
Y620131D01*
X1523230D01*
Y620042D01*
X1523141Y620042D01*
Y619953D01*
X1522962D01*
Y619864D01*
X1522873D01*
Y619775D01*
X1522784D01*
X1522784Y619686D01*
X1522606Y619686D01*
Y619597D01*
X1522517Y619596D01*
Y619507D01*
X1522339D01*
Y619418D01*
X1522249D01*
X1522249Y619329D01*
X1522071D01*
Y619240D01*
X1521893D01*
Y619151D01*
X1521715D01*
Y619062D01*
X1521537D01*
X1521537Y618973D01*
X1521358D01*
Y618884D01*
X1521091D01*
X1521091Y618795D01*
X1520824D01*
Y618705D01*
X1520556D01*
Y618616D01*
X1520200D01*
Y618527D01*
X1519665Y618527D01*
Y618438D01*
X1517972D01*
Y618527D01*
X1517437Y618527D01*
X1517437Y618616D01*
X1516992D01*
X1516992Y618705D01*
X1516725D01*
Y618795D01*
X1516457D01*
X1516457Y618884D01*
X1516279D01*
Y618973D01*
X1516012D01*
Y619062D01*
X1515833D01*
Y619151D01*
X1515655D01*
Y619240D01*
X1515566D01*
X1515566Y619329D01*
X1515388D01*
Y619418D01*
X1515210D01*
Y619507D01*
X1515120D01*
Y619596D01*
X1514942D01*
Y619686D01*
X1514853D01*
Y619775D01*
X1514675Y619775D01*
Y619864D01*
X1514586Y619864D01*
Y619953D01*
X1514497Y619953D01*
Y620042D01*
X1514408D01*
Y620131D01*
X1514318D01*
X1514318Y620220D01*
X1514229D01*
Y620309D01*
X1514140D01*
Y620399D01*
X1514051Y620399D01*
X1514051Y620488D01*
X1513962D01*
X1513962Y620577D01*
X1513873D01*
Y620666D01*
X1513784D01*
Y620755D01*
X1513695D01*
X1513695Y620844D01*
X1513605D01*
X1513605Y620933D01*
X1513516D01*
X1513516Y621111D01*
X1513427D01*
Y621201D01*
X1513338D01*
X1513338Y621379D01*
X1513249D01*
Y621468D01*
X1513160D01*
Y621646D01*
X1497209Y621646D01*
Y621735D01*
X1496228Y621735D01*
Y621824D01*
X1495515D01*
Y621913D01*
X1494981Y621913D01*
X1494981Y622003D01*
X1494535D01*
Y622092D01*
X1494090D01*
Y622181D01*
X1493733D01*
Y622270D01*
X1493377D01*
X1493377Y622359D01*
X1493020D01*
X1493020Y622448D01*
X1492753D01*
X1492753Y622537D01*
X1492396D01*
Y622626D01*
X1492129D01*
Y622715D01*
X1491862D01*
X1491862Y622805D01*
X1491684D01*
X1491684Y622894D01*
X1491416Y622894D01*
Y622983D01*
X1491149D01*
Y623072D01*
X1490971Y623072D01*
Y623161D01*
X1490703D01*
Y623250D01*
X1490525Y623250D01*
Y623339D01*
X1490347D01*
Y623428D01*
X1490079D01*
Y623517D01*
X1489901D01*
Y623607D01*
X1489723D01*
Y623696D01*
X1489545D01*
Y623785D01*
X1489367D01*
X1489367Y623874D01*
X1489188D01*
X1489188Y623963D01*
X1489010D01*
X1489010Y624052D01*
X1488832D01*
Y624141D01*
X1488743D01*
Y624230D01*
X1488564D01*
X1488564Y624320D01*
X1488386D01*
X1488386Y624409D01*
X1488208Y624409D01*
Y624498D01*
X1488119D01*
Y624587D01*
X1487941D01*
X1487941Y624676D01*
X1487763D01*
X1487762Y624765D01*
X1487673Y624765D01*
Y624854D01*
X1487495Y624854D01*
X1487495Y624943D01*
X1487406Y624943D01*
Y625033D01*
X1487228Y625033D01*
Y625122D01*
X1487139D01*
Y625211D01*
X1486960D01*
Y625300D01*
X1486871D01*
Y625389D01*
X1486693Y625389D01*
Y625478D01*
X1486604Y625478D01*
Y625567D01*
X1486426D01*
Y625656D01*
X1486337D01*
Y625745D01*
X1486248D01*
X1486248Y625835D01*
X1486069D01*
X1486069Y625924D01*
X1485980D01*
Y626013D01*
X1485891D01*
Y626102D01*
X1485802D01*
X1485802Y626191D01*
X1485624D01*
Y626280D01*
X1485535Y626280D01*
X1485535Y626369D01*
X1485446Y626369D01*
Y626458D01*
X1485356D01*
Y626547D01*
X1485178Y626547D01*
Y626637D01*
X1485089Y626637D01*
Y626726D01*
X1485000D01*
Y626815D01*
X1484911Y626815D01*
Y626904D01*
X1484822D01*
X1484822Y626993D01*
X1484733D01*
Y627082D01*
X1484644D01*
Y627171D01*
X1484554D01*
Y627260D01*
X1484465D01*
X1484465Y627349D01*
X1484376D01*
X1484376Y627439D01*
X1484198D01*
X1484198Y627528D01*
X1484109D01*
Y627617D01*
X1484020D01*
X1484020Y627706D01*
X1483931Y627706D01*
X1483931Y627795D01*
X1483842D01*
X1483842Y627973D01*
X1483752D01*
Y628062D01*
X1483663D01*
Y628152D01*
X1483574Y628152D01*
Y628241D01*
X1483485D01*
Y628330D01*
X1483396Y628330D01*
Y628419D01*
X1483307D01*
Y628508D01*
X1483218D01*
Y628597D01*
X1483129Y628597D01*
Y628686D01*
X1483040Y628686D01*
Y628775D01*
X1482950Y628775D01*
Y628954D01*
X1482861D01*
X1482861Y629043D01*
X1482772D01*
Y629132D01*
X1482683D01*
X1482683Y629221D01*
X1482594D01*
Y629399D01*
X1482505D01*
Y629488D01*
X1482416D01*
Y629577D01*
X1482327D01*
X1482327Y629666D01*
X1482237D01*
Y629845D01*
X1482148D01*
Y629934D01*
X1482059D01*
Y630112D01*
X1481970D01*
Y630201D01*
X1481881Y630201D01*
Y630290D01*
X1481792D01*
Y630468D01*
X1481703D01*
Y630647D01*
X1481614D01*
Y630736D01*
X1481525Y630736D01*
Y630914D01*
X1481435D01*
Y631003D01*
X1481346D01*
X1481346Y631181D01*
X1481257D01*
Y631359D01*
X1481168Y631360D01*
Y631449D01*
X1481079D01*
Y631627D01*
X1480990D01*
Y631805D01*
X1480901D01*
Y631983D01*
X1480812Y631983D01*
X1480812Y632162D01*
X1480723Y632162D01*
Y632340D01*
X1480633D01*
X1480633Y632518D01*
X1480544D01*
X1480544Y632696D01*
X1480455Y632696D01*
Y632874D01*
X1480366Y632874D01*
Y633053D01*
X1480277D01*
Y633231D01*
X1480188D01*
Y633409D01*
X1480099D01*
Y633676D01*
X1480010Y633676D01*
Y633855D01*
X1479921Y633855D01*
Y634122D01*
X1479831D01*
Y634300D01*
X1479742D01*
X1479742Y634568D01*
X1479653D01*
Y634835D01*
X1479564D01*
X1479564Y635102D01*
X1479475D01*
Y635370D01*
X1479386D01*
Y635637D01*
X1479297D01*
Y635904D01*
X1479208D01*
Y636261D01*
X1479118D01*
X1479118Y636528D01*
X1479029D01*
Y636885D01*
X1478940Y636885D01*
X1478940Y637330D01*
X1478851D01*
X1478851Y637687D01*
X1478762D01*
Y638132D01*
X1478673D01*
Y638578D01*
X1478584Y638578D01*
Y639112D01*
X1478495D01*
Y639647D01*
X1478406Y639647D01*
Y640271D01*
X1478316D01*
Y640984D01*
X1478227D01*
Y641875D01*
X1478138D01*
Y642944D01*
X1478049D01*
Y644548D01*
X1477960Y644548D01*
Y648915D01*
X1477871D01*
Y665668D01*
X1477960D01*
Y678590D01*
X1477871D01*
X1477871Y678679D01*
X1477693D01*
Y678768D01*
X1477604Y678768D01*
X1477603Y678857D01*
X1477514Y678857D01*
Y678946D01*
X1477425Y678946D01*
Y679035D01*
X1477336D01*
X1477336Y679125D01*
X1477247D01*
X1477247Y679214D01*
X1477158D01*
X1477158Y679303D01*
X1477069Y679303D01*
Y679392D01*
X1476980D01*
X1476980Y679570D01*
X1476891D01*
Y679659D01*
X1476801D01*
Y679748D01*
X1476712D01*
Y679927D01*
X1476623D01*
Y680016D01*
X1476534D01*
Y680194D01*
X1476445D01*
Y680283D01*
X1476356D01*
Y680461D01*
X1476267D01*
Y680639D01*
X1476178D01*
X1476178Y680818D01*
X1476089D01*
X1476089Y680996D01*
X1475999D01*
Y681174D01*
X1475910D01*
X1475910Y681441D01*
X1475821D01*
Y681709D01*
X1475732D01*
Y682065D01*
X1475643D01*
Y682511D01*
X1475554D01*
Y684650D01*
X1475643D01*
Y685095D01*
X1475732Y685095D01*
Y685452D01*
X1475821Y685452D01*
X1475821Y685719D01*
X1475910Y685719D01*
Y685986D01*
X1475999D01*
Y686164D01*
X1476089D01*
X1476089Y686343D01*
X1476178D01*
X1476178Y686521D01*
X1476267Y686521D01*
Y686699D01*
X1476356D01*
Y686877D01*
X1476445D01*
Y686966D01*
X1476534Y686966D01*
Y687145D01*
X1476623Y687145D01*
Y687234D01*
X1476712Y687234D01*
Y687412D01*
X1476801D01*
Y687501D01*
X1476891D01*
Y687590D01*
X1476980D01*
X1476980Y687768D01*
X1477069D01*
Y687858D01*
X1477158D01*
Y687947D01*
X1477247D01*
Y688036D01*
X1477336D01*
X1477336Y688125D01*
X1477425D01*
X1477425Y688214D01*
X1477514D01*
Y688303D01*
X1477604D01*
Y688392D01*
X1477693D01*
Y688481D01*
X1477871D01*
X1477871Y688570D01*
X1477960D01*
Y688660D01*
X1478049D01*
Y688749D01*
X1478138Y688749D01*
Y688838D01*
X1478316Y688838D01*
Y688927D01*
X1478406D01*
Y689016D01*
X1478584D01*
Y689105D01*
X1478762Y689105D01*
X1478762Y689194D01*
X1478940Y689194D01*
Y689284D01*
X1479118Y689284D01*
Y689373D01*
X1479297D01*
Y689462D01*
X1479475D01*
X1479475Y689551D01*
X1479742D01*
X1479742Y689640D01*
X1480010D01*
X1480010Y689729D01*
X1480277D01*
Y689818D01*
X1480723D01*
X1480723Y689907D01*
X1481525D01*
X1481525Y689996D01*
X1482238Y689996D01*
D02*
G37*
G36*
X1439908Y704344D02*
Y700868D01*
X1439819D01*
Y697393D01*
X1430462D01*
X1430462Y697304D01*
X1430373D01*
Y697036D01*
X1430462D01*
Y696234D01*
X1430551D01*
X1430552Y695700D01*
X1430641D01*
X1430641Y695343D01*
X1430730D01*
X1430730Y694987D01*
X1430819D01*
X1430819Y694630D01*
X1430908D01*
Y694363D01*
X1430997Y694363D01*
Y694096D01*
X1431086D01*
X1431086Y693828D01*
X1431175Y693828D01*
Y693650D01*
X1431264D01*
Y693472D01*
X1431354Y693472D01*
Y693204D01*
X1431443D01*
Y693026D01*
X1431532D01*
Y692848D01*
X1431621D01*
Y692670D01*
X1431710D01*
Y692581D01*
X1431799Y692581D01*
Y692402D01*
X1431888D01*
Y692224D01*
X1431977D01*
X1431977Y692135D01*
X1432066D01*
Y691957D01*
X1432156Y691957D01*
Y691868D01*
X1432245D01*
X1432245Y691690D01*
X1432334D01*
Y691600D01*
X1432423D01*
X1432423Y691511D01*
X1432512D01*
X1432512Y691333D01*
X1432601D01*
Y691244D01*
X1432690D01*
X1432690Y691155D01*
X1432779D01*
X1432779Y691066D01*
X1432868Y691066D01*
Y690977D01*
X1432958D01*
Y690798D01*
X1433047D01*
Y690709D01*
X1433136Y690709D01*
Y690620D01*
X1433225Y690620D01*
Y690531D01*
X1433314Y690531D01*
Y690442D01*
X1433403D01*
Y690353D01*
X1433492D01*
Y690264D01*
X1433581D01*
Y690175D01*
X1433671D01*
Y690086D01*
X1433849Y690086D01*
X1433849Y689996D01*
X1433938D01*
X1433938Y689907D01*
X1434027Y689907D01*
X1434027Y689818D01*
X1434116D01*
Y689729D01*
X1434205D01*
X1434205Y689640D01*
X1434384D01*
X1434383Y689551D01*
X1434473D01*
X1434473Y689462D01*
X1434562D01*
Y689373D01*
X1434740D01*
Y689284D01*
X1434829Y689284D01*
Y689194D01*
X1435007D01*
Y689105D01*
X1435096Y689105D01*
Y689016D01*
X1435275D01*
Y688927D01*
X1435364D01*
Y688838D01*
X1435542Y688838D01*
Y688749D01*
X1435720D01*
Y688660D01*
X1435809D01*
Y688570D01*
X1435988D01*
X1435988Y688481D01*
X1436166D01*
X1436166Y688392D01*
X1436344D01*
X1436344Y688303D01*
X1436522D01*
Y688214D01*
X1436700D01*
X1436700Y688125D01*
X1436968D01*
X1436968Y688036D01*
X1437146D01*
X1437146Y687947D01*
X1437413D01*
Y687858D01*
X1437592D01*
Y687768D01*
X1437859D01*
X1437859Y687679D01*
X1438126Y687679D01*
X1438126Y687590D01*
X1438394D01*
Y687501D01*
X1438750D01*
Y687412D01*
X1439017Y687412D01*
Y687323D01*
X1439374D01*
Y687234D01*
X1439819D01*
Y687145D01*
X1440265D01*
Y687056D01*
X1440710D01*
Y686966D01*
X1441423D01*
X1441423Y686877D01*
X1442314D01*
Y686788D01*
X1449176D01*
Y686877D01*
X1449265D01*
X1449265Y686966D01*
X1449355Y686966D01*
Y687145D01*
X1449444Y687145D01*
X1449444Y687234D01*
X1449533D01*
Y687412D01*
X1449622D01*
Y687501D01*
X1449711D01*
Y687590D01*
X1449800Y687590D01*
Y687679D01*
X1449889Y687679D01*
Y687768D01*
X1449978D01*
Y687858D01*
X1450067D01*
Y687947D01*
X1450157D01*
X1450157Y688036D01*
X1450246D01*
X1450246Y688125D01*
X1450335D01*
Y688214D01*
X1450424D01*
Y688303D01*
X1450513D01*
Y688392D01*
X1450602Y688392D01*
Y688481D01*
X1450691D01*
Y688570D01*
X1450869Y688571D01*
Y688660D01*
X1450959D01*
Y688749D01*
X1451137Y688749D01*
Y688838D01*
X1451226Y688838D01*
Y688927D01*
X1451404D01*
Y689016D01*
X1451582D01*
Y689105D01*
X1451671Y689105D01*
Y689194D01*
X1451850D01*
Y689284D01*
X1452028D01*
Y689373D01*
X1452295D01*
Y689462D01*
X1452473D01*
Y689551D01*
X1452741D01*
X1452741Y689640D01*
X1453097D01*
X1453097Y689729D01*
X1453454D01*
Y689818D01*
X1453988D01*
X1453988Y689907D01*
X1455592D01*
Y689818D01*
X1456127D01*
Y689729D01*
X1456573D01*
X1456573Y689640D01*
X1456840D01*
X1456840Y689551D01*
X1457107D01*
X1457107Y689462D01*
X1457286D01*
Y689373D01*
X1457553D01*
Y689284D01*
X1457731D01*
Y689194D01*
X1457910Y689194D01*
X1457909Y689105D01*
X1458088Y689105D01*
Y689016D01*
X1458177D01*
Y688927D01*
X1458355Y688927D01*
X1458355Y688838D01*
X1458533Y688838D01*
Y688749D01*
X1458622Y688749D01*
Y688660D01*
X1458712D01*
X1458712Y688570D01*
X1458890D01*
X1458890Y688482D01*
X1458979Y688481D01*
X1458979Y688392D01*
X1459068Y688392D01*
Y688303D01*
X1459157D01*
Y688214D01*
X1459335D01*
X1459335Y688125D01*
X1459424D01*
X1459424Y688036D01*
X1459514Y688036D01*
Y687947D01*
X1459603D01*
Y687858D01*
X1459692D01*
X1459692Y687679D01*
X1459781Y687679D01*
X1459781Y687590D01*
X1459870D01*
Y687501D01*
X1459959D01*
Y687412D01*
X1460048D01*
Y687323D01*
X1460137Y687323D01*
Y687145D01*
X1460226D01*
X1460226Y687056D01*
X1460316Y687056D01*
X1460316Y686877D01*
X1460405D01*
X1460405Y686788D01*
X1460494D01*
Y686610D01*
X1460583Y686610D01*
Y686432D01*
X1460672D01*
Y686254D01*
X1460761D01*
X1460761Y686075D01*
X1460850Y686075D01*
Y685897D01*
X1460939D01*
Y685719D01*
X1461028D01*
Y685452D01*
X1461118D01*
Y685184D01*
X1461207D01*
Y684828D01*
X1461296D01*
Y684293D01*
X1461385D01*
Y682511D01*
Y682422D01*
Y682243D01*
X1461296Y682243D01*
Y681798D01*
X1461207D01*
Y681441D01*
X1461118D01*
Y681174D01*
X1461028D01*
Y680907D01*
X1460939D01*
Y680639D01*
X1460850Y680639D01*
Y680461D01*
X1460761Y680461D01*
Y680283D01*
X1460672Y680283D01*
Y680105D01*
X1460583D01*
Y679927D01*
X1460494D01*
Y679837D01*
X1460405D01*
X1460405Y679659D01*
X1460316D01*
X1460316Y679570D01*
X1460226D01*
Y679392D01*
X1460137D01*
X1460137Y679303D01*
X1460048D01*
X1460048Y679214D01*
X1459959D01*
Y679035D01*
X1459870D01*
Y678946D01*
X1459781D01*
X1459781Y678857D01*
X1459692Y678857D01*
Y678768D01*
X1459603Y678768D01*
Y678679D01*
X1459514D01*
Y678590D01*
X1459424Y678590D01*
Y678501D01*
X1459335D01*
Y678411D01*
X1459246Y678412D01*
Y678323D01*
X1459157D01*
Y678233D01*
X1459068D01*
Y678144D01*
X1458979Y678144D01*
X1458979Y678055D01*
X1458801D01*
X1458801Y677966D01*
X1458712D01*
Y677877D01*
X1458533D01*
Y677788D01*
X1458444D01*
X1458444Y677699D01*
X1458266D01*
Y677610D01*
X1458177Y677609D01*
Y677520D01*
X1457999D01*
Y677431D01*
X1457820D01*
X1457820Y677342D01*
X1457642D01*
Y677253D01*
X1457464Y677253D01*
Y677164D01*
X1457197Y677164D01*
Y677075D01*
X1457018D01*
X1457018Y676986D01*
X1456751D01*
Y676897D01*
X1456395Y676897D01*
X1456395Y676807D01*
X1455949Y676807D01*
Y676718D01*
X1455147D01*
Y676629D01*
X1454434Y676629D01*
Y676718D01*
X1453632Y676718D01*
X1453632Y676807D01*
X1453186D01*
X1453186Y676897D01*
X1452830Y676897D01*
X1452830Y676986D01*
X1452563Y676986D01*
Y677075D01*
X1452384Y677075D01*
Y677164D01*
X1452117Y677164D01*
X1452117Y677253D01*
X1451939D01*
Y677342D01*
X1451761D01*
Y677431D01*
X1451582D01*
Y677520D01*
X1451404D01*
X1451404Y677610D01*
X1451315D01*
Y677699D01*
X1451137D01*
X1451137Y677788D01*
X1451048D01*
Y677877D01*
X1450869D01*
Y677966D01*
X1450780D01*
Y678055D01*
X1450691D01*
Y678144D01*
X1450513Y678144D01*
Y678233D01*
X1450424D01*
Y678323D01*
X1450335D01*
Y678412D01*
X1450246D01*
Y678501D01*
X1450157D01*
X1450157Y678590D01*
X1450067Y678590D01*
Y678679D01*
X1449978Y678679D01*
Y678768D01*
X1449889D01*
X1449889Y678857D01*
X1449800D01*
Y678946D01*
X1449711Y678946D01*
Y679035D01*
X1449622D01*
X1449622Y679214D01*
X1449533D01*
X1449533Y679303D01*
X1449444D01*
X1449444Y679392D01*
X1449355D01*
X1449355Y679570D01*
X1449265D01*
X1449265Y679659D01*
X1449176D01*
Y679748D01*
X1442760D01*
X1442760Y679837D01*
X1441334D01*
Y679927D01*
X1440532D01*
Y680016D01*
X1439908Y680016D01*
Y680105D01*
X1439374Y680105D01*
Y680194D01*
X1438839D01*
Y680283D01*
X1438394D01*
Y680372D01*
X1438037D01*
Y680461D01*
X1437681D01*
Y680550D01*
X1437324D01*
X1437324Y680639D01*
X1436968Y680639D01*
Y680729D01*
X1436700D01*
X1436700Y680818D01*
X1436344D01*
Y680907D01*
X1436077D01*
Y680996D01*
X1435809D01*
X1435809Y681085D01*
X1435542Y681085D01*
X1435542Y681174D01*
X1435364D01*
Y681263D01*
X1435096D01*
Y681352D01*
X1434829D01*
Y681441D01*
X1434651D01*
X1434651Y681531D01*
X1434473D01*
X1434473Y681620D01*
X1434205D01*
X1434205Y681709D01*
X1434027D01*
Y681798D01*
X1433849D01*
X1433849Y681887D01*
X1433671Y681887D01*
Y681976D01*
X1433492Y681976D01*
Y682065D01*
X1433314D01*
Y682154D01*
X1433136D01*
Y682243D01*
X1432958Y682243D01*
X1432958Y682333D01*
X1432779Y682333D01*
Y682422D01*
X1432601D01*
Y682511D01*
X1432423D01*
Y682600D01*
X1432245D01*
X1432245Y682689D01*
X1432156Y682689D01*
Y682778D01*
X1431977D01*
Y682867D01*
X1431799D01*
Y682956D01*
X1431710D01*
X1431710Y683046D01*
X1431532D01*
Y683135D01*
X1431354D01*
X1431354Y683224D01*
X1431264D01*
Y683313D01*
X1431086D01*
Y683402D01*
X1430997D01*
X1430997Y683491D01*
X1430819Y683491D01*
Y683580D01*
X1430730Y683580D01*
Y683669D01*
X1430641D01*
Y683758D01*
X1430462D01*
X1430462Y683848D01*
X1430373D01*
X1430373Y683937D01*
X1430195D01*
Y684026D01*
X1430106D01*
Y684115D01*
X1430017Y684115D01*
Y684204D01*
X1429928D01*
Y684293D01*
X1429749D01*
Y684382D01*
X1429660D01*
Y684471D01*
X1429571D01*
Y684560D01*
X1429482D01*
X1429482Y684650D01*
X1429304D01*
X1429304Y684739D01*
X1429215D01*
Y684828D01*
X1429126D01*
Y684917D01*
X1429037D01*
X1429037Y685006D01*
X1428947D01*
Y685095D01*
X1428858Y685095D01*
Y685184D01*
X1428769D01*
Y685273D01*
X1428680D01*
X1428680Y685362D01*
X1428591D01*
Y685452D01*
X1428502Y685452D01*
Y685541D01*
X1428413D01*
Y685630D01*
X1428324D01*
Y685719D01*
X1428235Y685719D01*
Y685808D01*
X1428145Y685808D01*
Y685897D01*
X1428056D01*
Y685986D01*
X1427967D01*
Y686075D01*
X1427878D01*
X1427878Y686164D01*
X1427789D01*
X1427789Y686254D01*
X1427700D01*
Y686343D01*
X1427611D01*
Y686432D01*
X1427522D01*
X1427522Y686521D01*
X1427433D01*
X1427433Y686699D01*
X1427343D01*
Y686788D01*
X1427254D01*
X1427254Y686877D01*
X1427165D01*
Y686966D01*
X1427076Y686966D01*
Y687056D01*
X1426987D01*
X1426987Y687234D01*
X1426898D01*
Y687323D01*
X1426809Y687323D01*
Y687412D01*
X1426720Y687412D01*
X1426720Y687590D01*
X1426631Y687590D01*
X1426631Y687679D01*
X1426541D01*
Y687768D01*
X1426452D01*
Y687947D01*
X1426363D01*
X1426363Y688036D01*
X1426274D01*
X1426274Y688214D01*
X1426185D01*
Y688303D01*
X1426096D01*
Y688481D01*
X1426007D01*
X1426007Y688660D01*
X1425918D01*
Y688749D01*
X1425829Y688749D01*
Y688927D01*
X1425739Y688927D01*
Y689105D01*
X1425650D01*
Y689194D01*
X1425561Y689194D01*
X1425561Y689373D01*
X1425472D01*
Y689551D01*
X1425383D01*
X1425383Y689729D01*
X1425294D01*
X1425294Y689907D01*
X1425205Y689907D01*
Y690086D01*
X1425116Y690086D01*
X1425116Y690264D01*
X1425027D01*
Y690442D01*
X1424937D01*
Y690620D01*
X1424848D01*
Y690798D01*
X1424759D01*
Y691066D01*
X1424670D01*
Y691244D01*
X1424581D01*
Y691511D01*
X1424492D01*
Y691690D01*
X1424403D01*
X1424403Y691957D01*
X1424314Y691957D01*
Y692224D01*
X1424225Y692224D01*
Y692492D01*
X1424135Y692492D01*
Y692848D01*
X1424046D01*
Y693115D01*
X1423957D01*
X1423957Y693472D01*
X1423868D01*
X1423868Y693828D01*
X1423779D01*
Y694274D01*
X1423690Y694274D01*
Y694719D01*
X1423601D01*
X1423601Y695343D01*
X1423512D01*
X1423512Y696056D01*
X1423423D01*
Y697571D01*
X1423333D01*
Y704344D01*
X1439908Y704344D01*
D02*
G37*
G36*
X1449978Y648380D02*
X1450067D01*
Y648291D01*
X1470831D01*
Y640360D01*
X1470742Y640360D01*
Y639469D01*
X1470653D01*
Y638845D01*
X1470564Y638845D01*
Y638310D01*
X1470475D01*
Y637865D01*
X1470385D01*
Y637419D01*
X1470296D01*
X1470296Y637063D01*
X1470207Y637063D01*
X1470207Y636706D01*
X1470118Y636706D01*
Y636350D01*
X1470029D01*
Y636083D01*
X1469940D01*
Y635815D01*
X1469851D01*
Y635548D01*
X1469762Y635548D01*
Y635281D01*
X1469672Y635280D01*
Y635013D01*
X1469583D01*
Y634746D01*
X1469494Y634746D01*
Y634568D01*
X1469405D01*
Y634300D01*
X1469316Y634300D01*
Y634122D01*
X1469227D01*
Y633944D01*
X1469138Y633944D01*
X1469138Y633676D01*
X1469049D01*
X1469049Y633498D01*
X1468960D01*
Y633320D01*
X1468870D01*
Y633142D01*
X1468781D01*
X1468781Y632964D01*
X1468692D01*
Y632785D01*
X1468603D01*
X1468603Y632607D01*
X1468514D01*
Y632429D01*
X1468425Y632429D01*
Y632251D01*
X1468336D01*
Y632072D01*
X1468247Y632072D01*
Y631983D01*
X1468158D01*
Y631805D01*
X1468068D01*
Y631716D01*
X1468068Y631627D01*
X1467979D01*
Y631449D01*
X1467890D01*
Y631359D01*
X1467801D01*
Y631181D01*
X1467712Y631181D01*
Y631092D01*
X1467623D01*
Y630914D01*
X1467534D01*
X1467534Y630825D01*
X1467445D01*
Y630647D01*
X1467355D01*
Y630558D01*
X1467266Y630558D01*
Y630379D01*
X1467177D01*
Y630290D01*
X1467088D01*
Y630112D01*
X1466999Y630112D01*
Y630023D01*
X1466910D01*
Y629934D01*
X1466821D01*
Y629756D01*
X1466732D01*
Y629666D01*
X1466643D01*
X1466643Y629577D01*
X1466553D01*
X1466553Y629399D01*
X1466464D01*
Y629310D01*
X1466375D01*
Y629221D01*
X1466286Y629221D01*
Y629132D01*
X1466197D01*
X1466197Y628954D01*
X1466108D01*
Y628864D01*
X1466019D01*
Y628775D01*
X1465930D01*
X1465930Y628686D01*
X1465841D01*
Y628597D01*
X1465751D01*
Y628508D01*
X1465662Y628508D01*
Y628330D01*
X1465573D01*
X1465573Y628241D01*
X1465484D01*
X1465484Y628152D01*
X1465395D01*
Y628062D01*
X1465306D01*
Y627973D01*
X1465217D01*
X1465217Y627884D01*
X1465128D01*
Y627795D01*
X1465038D01*
X1465038Y627706D01*
X1464949D01*
Y627617D01*
X1464860D01*
Y627528D01*
X1464771D01*
Y627439D01*
X1464682Y627439D01*
X1464682Y627349D01*
X1464593Y627349D01*
Y627260D01*
X1464504D01*
Y627171D01*
X1464415D01*
Y627082D01*
X1464326Y627082D01*
Y626993D01*
X1464236D01*
Y626904D01*
X1464147Y626904D01*
Y626815D01*
X1463969Y626815D01*
Y626726D01*
X1463880Y626726D01*
X1463880Y626637D01*
X1463791Y626637D01*
Y626547D01*
X1463702Y626547D01*
Y626458D01*
X1463613D01*
Y626369D01*
X1463524Y626369D01*
Y626280D01*
X1463345D01*
X1463345Y626191D01*
X1463256D01*
X1463256Y626102D01*
X1463167D01*
Y626013D01*
X1463078D01*
Y625924D01*
X1462900D01*
Y625835D01*
X1462811D01*
X1462811Y625745D01*
X1462722D01*
Y625656D01*
X1462543D01*
Y625567D01*
X1462454D01*
X1462454Y625478D01*
X1462365D01*
X1462365Y625389D01*
X1462187Y625389D01*
Y625300D01*
X1462098D01*
Y625211D01*
X1461920Y625211D01*
Y625122D01*
X1461830Y625122D01*
X1461830Y625033D01*
X1461652D01*
X1461652Y624943D01*
X1461563D01*
Y624854D01*
X1461385Y624854D01*
Y624765D01*
X1461296Y624765D01*
Y624676D01*
X1461118Y624676D01*
Y624587D01*
X1460939D01*
Y624498D01*
X1460850D01*
X1460850Y624409D01*
X1460672D01*
Y624320D01*
X1460494D01*
X1460494Y624230D01*
X1460316D01*
Y624141D01*
X1460226D01*
Y624052D01*
X1460048D01*
X1460048Y623963D01*
X1459870D01*
Y623874D01*
X1459692Y623874D01*
Y623785D01*
X1459514D01*
Y623696D01*
X1459335D01*
Y623607D01*
X1459157Y623607D01*
Y623517D01*
X1458979Y623517D01*
Y623428D01*
X1458712Y623428D01*
X1458712Y623339D01*
X1458533D01*
Y623250D01*
X1458355D01*
X1458355Y623161D01*
X1458088D01*
X1458088Y623072D01*
X1457909D01*
Y622983D01*
X1457642D01*
Y622894D01*
X1457464Y622894D01*
X1457464Y622805D01*
X1457197D01*
Y622715D01*
X1456929D01*
Y622626D01*
X1456662D01*
Y622537D01*
X1456395D01*
X1456395Y622448D01*
X1456038D01*
Y622359D01*
X1455682D01*
Y622270D01*
X1455325D01*
Y622181D01*
X1454969D01*
Y622092D01*
X1454523D01*
Y622003D01*
X1454078D01*
Y621913D01*
X1453543D01*
X1453543Y621824D01*
X1452830D01*
Y621735D01*
X1451850D01*
Y621646D01*
X1423423D01*
Y650519D01*
X1423512D01*
X1423512Y651321D01*
X1423601D01*
X1423601Y651945D01*
X1423690D01*
X1423690Y652479D01*
X1423779Y652479D01*
Y652925D01*
X1423868D01*
Y653371D01*
X1423957D01*
Y653727D01*
X1424046D01*
Y654084D01*
X1424135D01*
Y654440D01*
X1424225Y654440D01*
Y654707D01*
X1424314Y654707D01*
Y654975D01*
X1424403Y654975D01*
X1424403Y655242D01*
X1424492D01*
Y655509D01*
X1424581D01*
Y655777D01*
X1424670Y655777D01*
Y655955D01*
X1424759D01*
Y656222D01*
X1424848D01*
Y656490D01*
X1424937Y656490D01*
Y656668D01*
X1425027D01*
Y656846D01*
X1425116D01*
X1425116Y657024D01*
X1425205D01*
Y657292D01*
X1425294D01*
Y657470D01*
X1425383D01*
Y657648D01*
X1425472Y657648D01*
Y657826D01*
X1425561Y657826D01*
Y658005D01*
X1425650Y658005D01*
Y658183D01*
X1425739Y658183D01*
Y658361D01*
X1425829D01*
X1425829Y658539D01*
X1425918D01*
X1425918Y658628D01*
X1426007D01*
Y658807D01*
X1426096D01*
Y658985D01*
X1426185Y658985D01*
Y659163D01*
X1426274D01*
X1426274Y659252D01*
X1426363Y659252D01*
Y659430D01*
X1426452Y659430D01*
Y659609D01*
X1426541D01*
Y659698D01*
X1426631Y659698D01*
Y659876D01*
X1426720D01*
X1426720Y659965D01*
X1426809Y659965D01*
Y660143D01*
X1426898D01*
Y660232D01*
X1426987D01*
Y660411D01*
X1427076Y660411D01*
X1427076Y660500D01*
X1427165D01*
X1427165Y660589D01*
X1427254D01*
X1427254Y660767D01*
X1427343D01*
X1427343Y660856D01*
X1427433D01*
X1427433Y661034D01*
X1427522D01*
Y661124D01*
X1427611D01*
X1427611Y661213D01*
X1427700Y661213D01*
X1427700Y661302D01*
X1427789Y661302D01*
Y661480D01*
X1427878D01*
Y661569D01*
X1427967Y661569D01*
Y661658D01*
X1428056D01*
Y661747D01*
X1428145D01*
X1428145Y661926D01*
X1428235D01*
X1428235Y662015D01*
X1428324D01*
Y662104D01*
X1428413D01*
Y662193D01*
X1428502D01*
Y662282D01*
X1428591D01*
X1428591Y662371D01*
X1428680D01*
X1428680Y662460D01*
X1428769Y662460D01*
Y662638D01*
X1428858D01*
Y662728D01*
X1428947D01*
X1428947Y662817D01*
X1429037Y662817D01*
Y662906D01*
X1429126D01*
Y662995D01*
X1429215D01*
Y663084D01*
X1429304Y663084D01*
Y663173D01*
X1429393D01*
Y663262D01*
X1429482D01*
Y663351D01*
X1429571D01*
Y663440D01*
X1429660D01*
X1429660Y663530D01*
X1429749Y663530D01*
X1429749Y663619D01*
X1429839D01*
Y663708D01*
X1430017D01*
Y663797D01*
X1430106D01*
X1430106Y663886D01*
X1430195D01*
X1430195Y663975D01*
X1430284Y663975D01*
Y664064D01*
X1430373D01*
Y664153D01*
X1430462D01*
X1430462Y664242D01*
X1430552D01*
X1430551Y664332D01*
X1430730Y664332D01*
Y664421D01*
X1430819D01*
Y664510D01*
X1430908D01*
Y664599D01*
X1430997Y664599D01*
Y664688D01*
X1431086D01*
X1431086Y664777D01*
X1431264D01*
Y664866D01*
X1431354D01*
Y664955D01*
X1431443D01*
Y665044D01*
X1431621Y665044D01*
Y665134D01*
X1431710Y665134D01*
Y665223D01*
X1431799D01*
Y665312D01*
X1431977D01*
X1431977Y665401D01*
X1432066Y665401D01*
X1432066Y665490D01*
X1432245D01*
X1432245Y665579D01*
X1432334D01*
Y665668D01*
X1432512D01*
Y665757D01*
X1432601D01*
X1432601Y665846D01*
X1432779Y665847D01*
Y665936D01*
X1432868D01*
Y666025D01*
X1433047D01*
Y666114D01*
X1433225D01*
X1433225Y666203D01*
X1433314D01*
Y666292D01*
X1433492D01*
Y666381D01*
X1433671D01*
Y666470D01*
X1433760Y666470D01*
Y666559D01*
X1433938Y666559D01*
Y666649D01*
X1434116D01*
Y666738D01*
X1434294D01*
Y666827D01*
X1434473D01*
X1434473Y666916D01*
X1434651D01*
Y667005D01*
X1434829D01*
X1434829Y667094D01*
X1435007D01*
Y667183D01*
X1435185D01*
Y667272D01*
X1435364Y667272D01*
Y667362D01*
X1435542Y667362D01*
Y667451D01*
X1435809D01*
Y667540D01*
X1435988D01*
Y667629D01*
X1436166D01*
X1436166Y667718D01*
X1436433D01*
X1436433Y667807D01*
X1436700Y667807D01*
Y667896D01*
X1436879D01*
Y667985D01*
X1437146Y667985D01*
Y668074D01*
X1437413D01*
Y668164D01*
X1437681D01*
Y668253D01*
X1438037D01*
Y668342D01*
X1438304Y668342D01*
Y668431D01*
X1438661Y668431D01*
Y668520D01*
X1439017Y668520D01*
Y668609D01*
X1439374D01*
Y668698D01*
X1439819D01*
X1439819Y668787D01*
X1440354D01*
Y668876D01*
X1440889D01*
X1440889Y668966D01*
X1441691D01*
Y669055D01*
X1443027D01*
Y669144D01*
X1449978D01*
Y648380D01*
D02*
G37*
G36*
X1494981Y668876D02*
X1495426D01*
X1495426Y668787D01*
X1495783Y668787D01*
X1495783Y668698D01*
X1496139D01*
Y668609D01*
X1496317D01*
Y668520D01*
X1496585D01*
Y668431D01*
X1496763D01*
Y668342D01*
X1496941D01*
Y668253D01*
X1497119D01*
Y668164D01*
X1497298Y668164D01*
Y668074D01*
X1497476Y668074D01*
Y667985D01*
X1497565D01*
Y667896D01*
X1497743D01*
Y667807D01*
X1497832Y667807D01*
Y667718D01*
X1498011D01*
Y667629D01*
X1498100D01*
Y667540D01*
X1498189D01*
Y667451D01*
X1498278D01*
Y667362D01*
X1498367D01*
X1498367Y667272D01*
X1498545D01*
X1498545Y667183D01*
X1498634D01*
Y667094D01*
X1498723D01*
Y667005D01*
X1498813Y667005D01*
X1498813Y666916D01*
X1498902Y666916D01*
Y666738D01*
X1498991D01*
Y666649D01*
X1499080D01*
Y666559D01*
X1499169Y666559D01*
Y666470D01*
X1499258Y666470D01*
Y666381D01*
X1499347Y666381D01*
Y666203D01*
X1499436Y666203D01*
Y666114D01*
X1499525D01*
Y665936D01*
X1500595D01*
Y665846D01*
X1507100D01*
X1507100Y665757D01*
X1507991D01*
Y665668D01*
X1508704D01*
Y665579D01*
X1509239D01*
X1509239Y665490D01*
X1509774D01*
Y665401D01*
X1510219D01*
X1510219Y665312D01*
X1510665D01*
X1510665Y665223D01*
X1511021D01*
Y665134D01*
X1511378D01*
Y665044D01*
X1511734D01*
X1511734Y664955D01*
X1512001D01*
Y664866D01*
X1512269Y664866D01*
X1512269Y664777D01*
X1512625D01*
X1512625Y664688D01*
X1512893D01*
Y664599D01*
X1513160Y664599D01*
Y664510D01*
X1513338D01*
Y664421D01*
X1513605D01*
X1513605Y664332D01*
X1513873D01*
X1513873Y664242D01*
X1514051D01*
Y664153D01*
X1514318D01*
Y664064D01*
X1514497D01*
Y663975D01*
X1514675D01*
X1514675Y663886D01*
X1514853D01*
Y663797D01*
X1515120D01*
X1515120Y663708D01*
X1515299D01*
Y663619D01*
X1515477D01*
X1515477Y663530D01*
X1515655D01*
X1515655Y663440D01*
X1515833D01*
X1515833Y663351D01*
X1516012D01*
Y663262D01*
X1516101D01*
Y663173D01*
X1516279Y663173D01*
Y663084D01*
X1516457Y663084D01*
Y662995D01*
X1516635D01*
Y662906D01*
X1516725D01*
Y662817D01*
X1516903Y662817D01*
X1516903Y662728D01*
X1517081D01*
Y662638D01*
X1517170D01*
Y662549D01*
X1517348D01*
Y662460D01*
X1517527D01*
X1517527Y662371D01*
X1517616Y662371D01*
X1517616Y662282D01*
X1517794D01*
Y662193D01*
X1517883D01*
Y662104D01*
X1518061D01*
X1518061Y662015D01*
X1518150D01*
X1518150Y661926D01*
X1518239Y661926D01*
Y661836D01*
X1518418D01*
X1518418Y661747D01*
X1518507D01*
Y661658D01*
X1518596Y661658D01*
X1518596Y661569D01*
X1518774D01*
X1518774Y661480D01*
X1518863Y661480D01*
X1518863Y661391D01*
X1518952D01*
Y661302D01*
X1519041D01*
Y661213D01*
X1519220D01*
Y661124D01*
X1519309Y661124D01*
Y661034D01*
X1519398D01*
Y660945D01*
X1519487Y660945D01*
X1519487Y660856D01*
X1519576Y660856D01*
X1519576Y660767D01*
X1519754D01*
Y660678D01*
X1519843D01*
Y660589D01*
X1519933D01*
X1519933Y660500D01*
X1520022D01*
X1520022Y660411D01*
X1520111Y660411D01*
X1520111Y660322D01*
X1520200D01*
Y660232D01*
X1520289D01*
Y660143D01*
X1520378D01*
X1520378Y660054D01*
X1520467Y660054D01*
X1520467Y659965D01*
X1520556D01*
Y659876D01*
X1520645D01*
Y659787D01*
X1520735D01*
Y659698D01*
X1520824Y659698D01*
Y659609D01*
X1520913Y659609D01*
Y659520D01*
X1521002D01*
Y659430D01*
X1521091Y659430D01*
X1521091Y659341D01*
X1521180Y659341D01*
X1521180Y659163D01*
X1521269D01*
Y659074D01*
X1521358D01*
Y658985D01*
X1521447Y658985D01*
X1521447Y658896D01*
X1521537D01*
X1521537Y658807D01*
X1521626D01*
X1521626Y658628D01*
X1521715D01*
Y658539D01*
X1521804D01*
Y658450D01*
X1521893Y658450D01*
Y658361D01*
X1521982D01*
Y658183D01*
X1522071Y658183D01*
Y658094D01*
X1522160D01*
Y657915D01*
X1522249D01*
Y657826D01*
X1522339Y657826D01*
Y657737D01*
X1522428D01*
X1522428Y657559D01*
X1522517D01*
Y657470D01*
X1522606Y657470D01*
Y657292D01*
X1522695Y657292D01*
Y657203D01*
X1522784D01*
Y657024D01*
X1522873D01*
Y656846D01*
X1522962D01*
Y656757D01*
X1523051D01*
X1523051Y656579D01*
X1523141D01*
X1523141Y656401D01*
X1523230D01*
Y656222D01*
X1523319D01*
Y656133D01*
X1523408Y656133D01*
Y655955D01*
X1523497D01*
Y655777D01*
X1523586Y655777D01*
Y655599D01*
X1523675D01*
Y655420D01*
X1523764D01*
Y655242D01*
X1523854D01*
Y654975D01*
X1523943Y654975D01*
Y654797D01*
X1524032D01*
X1524032Y654618D01*
X1524121D01*
Y654351D01*
X1524210Y654351D01*
X1524210Y654173D01*
X1524299Y654173D01*
X1524299Y653905D01*
X1524388D01*
Y653638D01*
X1524477D01*
Y653371D01*
X1524566D01*
X1524566Y653103D01*
X1524656D01*
X1524656Y652836D01*
X1524745D01*
Y652479D01*
X1524834D01*
Y652123D01*
X1524923D01*
Y651767D01*
X1525012D01*
Y651321D01*
X1525101D01*
Y650875D01*
X1525190D01*
Y650252D01*
X1525279D01*
Y649539D01*
X1525368Y649539D01*
Y641251D01*
X1519754Y641251D01*
Y641340D01*
X1508882D01*
Y646063D01*
X1508972Y646063D01*
Y648291D01*
X1518418D01*
X1518418Y648559D01*
X1518329D01*
Y649361D01*
X1518239D01*
Y649895D01*
X1518150D01*
Y650341D01*
X1518061D01*
Y650697D01*
X1517972D01*
Y650965D01*
X1517883D01*
Y651232D01*
X1517794D01*
Y651499D01*
X1517705D01*
X1517705Y651767D01*
X1517616D01*
X1517616Y652034D01*
X1517527D01*
Y652212D01*
X1517437D01*
Y652390D01*
X1517348D01*
X1517348Y652569D01*
X1517259D01*
Y652747D01*
X1517170D01*
X1517170Y652925D01*
X1517081D01*
Y653103D01*
X1516992Y653103D01*
Y653281D01*
X1516903D01*
Y653371D01*
X1516814D01*
X1516814Y653549D01*
X1516725D01*
Y653638D01*
X1516635D01*
Y653816D01*
X1516546D01*
X1516546Y653905D01*
X1516457D01*
X1516457Y654084D01*
X1516368D01*
Y654173D01*
X1516279D01*
Y654262D01*
X1516190Y654262D01*
Y654440D01*
X1516101Y654440D01*
Y654529D01*
X1516012Y654529D01*
Y654618D01*
X1515923D01*
Y654707D01*
X1515833D01*
Y654797D01*
X1515744D01*
Y654886D01*
X1515655D01*
X1515655Y654975D01*
X1515566D01*
X1515566Y655064D01*
X1515477D01*
X1515477Y655153D01*
X1515388D01*
Y655242D01*
X1515299D01*
Y655331D01*
X1515210D01*
X1515210Y655420D01*
X1515120D01*
Y655509D01*
X1515031Y655509D01*
Y655599D01*
X1514942D01*
Y655688D01*
X1514853D01*
Y655777D01*
X1514764D01*
Y655866D01*
X1514586Y655866D01*
Y655955D01*
X1514497Y655955D01*
Y656044D01*
X1514408D01*
Y656133D01*
X1514318D01*
Y656222D01*
X1514140D01*
X1514140Y656311D01*
X1514051D01*
X1514051Y656401D01*
X1513873D01*
Y656490D01*
X1513784Y656490D01*
X1513784Y656579D01*
X1513605D01*
Y656668D01*
X1513516D01*
Y656757D01*
X1513338D01*
Y656846D01*
X1513160D01*
Y656935D01*
X1513071Y656935D01*
X1513071Y657024D01*
X1512893D01*
Y657113D01*
X1512714D01*
Y657203D01*
X1512536D01*
Y657292D01*
X1512358D01*
X1512358Y657381D01*
X1512180D01*
X1512180Y657470D01*
X1512001D01*
X1512001Y657559D01*
X1511734D01*
Y657648D01*
X1511556D01*
Y657737D01*
X1511288Y657737D01*
Y657826D01*
X1511110Y657826D01*
Y657915D01*
X1510843Y657915D01*
Y658005D01*
X1510576D01*
Y658094D01*
X1510308D01*
X1510308Y658183D01*
X1509952D01*
Y658272D01*
X1509595D01*
Y658361D01*
X1509239D01*
X1509239Y658450D01*
X1508882Y658450D01*
X1508882Y658539D01*
X1508348D01*
X1508348Y658628D01*
X1507813D01*
Y658717D01*
X1507100D01*
Y658807D01*
X1505942D01*
Y658896D01*
X1499615D01*
X1499615Y658807D01*
X1499525Y658807D01*
Y658628D01*
X1499436D01*
Y658539D01*
X1499347Y658539D01*
Y658361D01*
X1499258D01*
Y658272D01*
X1499169D01*
Y658183D01*
X1499080Y658183D01*
Y658094D01*
X1498991D01*
Y657915D01*
X1498902Y657915D01*
Y657826D01*
X1498813D01*
Y657737D01*
X1498723Y657737D01*
Y657648D01*
X1498634D01*
Y657559D01*
X1498545D01*
X1498545Y657470D01*
X1498456D01*
X1498456Y657381D01*
X1498278Y657381D01*
X1498278Y657292D01*
X1498189D01*
Y657203D01*
X1498100D01*
Y657113D01*
X1498011D01*
Y657024D01*
X1497832D01*
Y656935D01*
X1497743Y656935D01*
Y656846D01*
X1497565D01*
Y656757D01*
X1497476D01*
Y656668D01*
X1497298D01*
Y656579D01*
X1497119Y656579D01*
Y656490D01*
X1496941Y656490D01*
Y656401D01*
X1496763D01*
Y656311D01*
X1496585D01*
Y656222D01*
X1496407D01*
X1496407Y656133D01*
X1496139D01*
X1496139Y656044D01*
X1495872Y656044D01*
Y655955D01*
X1495515Y655955D01*
Y655866D01*
X1494981Y655866D01*
X1494981Y655777D01*
X1493020D01*
Y655866D01*
X1492486Y655866D01*
Y655955D01*
X1492129D01*
Y656044D01*
X1491862D01*
Y656133D01*
X1491594D01*
Y656222D01*
X1491416D01*
Y656311D01*
X1491238Y656311D01*
Y656401D01*
X1490971D01*
Y656490D01*
X1490882D01*
X1490882Y656579D01*
X1490703Y656579D01*
Y656668D01*
X1490525D01*
Y656757D01*
X1490347D01*
Y656846D01*
X1490258D01*
Y656935D01*
X1490079D01*
X1490079Y657024D01*
X1489990Y657024D01*
X1489990Y657113D01*
X1489901D01*
Y657203D01*
X1489812D01*
X1489812Y657292D01*
X1489634D01*
X1489634Y657381D01*
X1489545D01*
X1489545Y657470D01*
X1489456D01*
X1489456Y657559D01*
X1489367D01*
Y657648D01*
X1489277Y657648D01*
X1489277Y657737D01*
X1489188D01*
X1489188Y657826D01*
X1489099D01*
Y657915D01*
X1489010D01*
Y658005D01*
X1488921D01*
Y658094D01*
X1488832D01*
Y658272D01*
X1488743D01*
Y658361D01*
X1488654D01*
Y658450D01*
X1488564Y658450D01*
Y658628D01*
X1488475D01*
Y658717D01*
X1488386D01*
X1488386Y658896D01*
X1488297D01*
Y659074D01*
X1488208D01*
Y659163D01*
X1488119D01*
X1488119Y659341D01*
X1488030Y659341D01*
Y659520D01*
X1487941Y659520D01*
Y659787D01*
X1487852D01*
Y659965D01*
X1487762Y659965D01*
Y660232D01*
X1487673D01*
X1487673Y660500D01*
X1487584D01*
X1487584Y660856D01*
X1487495D01*
X1487495Y661302D01*
X1487406D01*
X1487406Y663440D01*
X1487495Y663440D01*
X1487495Y663886D01*
X1487584D01*
X1487584Y664242D01*
X1487673D01*
X1487673Y664510D01*
X1487762D01*
Y664777D01*
X1487852Y664777D01*
Y664955D01*
X1487941D01*
Y665223D01*
X1488030D01*
X1488030Y665401D01*
X1488119D01*
X1488119Y665579D01*
X1488208D01*
Y665668D01*
X1488297D01*
Y665846D01*
X1488386D01*
X1488386Y666025D01*
X1488475D01*
Y666114D01*
X1488564D01*
Y666292D01*
X1488654Y666292D01*
Y666381D01*
X1488743D01*
Y666470D01*
X1488832D01*
Y666559D01*
X1488921D01*
Y666738D01*
X1489010Y666738D01*
X1489010Y666827D01*
X1489099D01*
Y666916D01*
X1489188D01*
X1489188Y667005D01*
X1489277D01*
X1489277Y667094D01*
X1489367D01*
Y667183D01*
X1489456D01*
X1489456Y667272D01*
X1489545D01*
X1489545Y667362D01*
X1489634D01*
Y667451D01*
X1489812D01*
Y667540D01*
X1489901D01*
Y667629D01*
X1489990D01*
X1489990Y667718D01*
X1490169D01*
Y667807D01*
X1490258D01*
Y667896D01*
X1490436D01*
Y667985D01*
X1490525Y667985D01*
Y668074D01*
X1490703Y668074D01*
Y668164D01*
X1490882Y668164D01*
Y668253D01*
X1491060D01*
Y668342D01*
X1491238D01*
Y668431D01*
X1491416Y668431D01*
Y668520D01*
X1491594Y668520D01*
Y668609D01*
X1491862D01*
Y668698D01*
X1492129D01*
Y668787D01*
X1492486D01*
Y668876D01*
X1493020D01*
X1493020Y668966D01*
X1494981D01*
X1494981Y668876D01*
D02*
G37*
G36*
X1542575Y594347D02*
Y563960D01*
X1534376D01*
Y574475D01*
Y574564D01*
Y575010D01*
X1532327D01*
X1532327Y574921D01*
X1532238Y574921D01*
Y574831D01*
X1532148D01*
Y574653D01*
X1532059D01*
Y574475D01*
X1531970Y574475D01*
Y574297D01*
X1531881D01*
Y574208D01*
X1531792D01*
X1531792Y574029D01*
X1531703D01*
Y573851D01*
X1531614D01*
X1531614Y573762D01*
X1531525D01*
X1531525Y573584D01*
X1531435D01*
Y573406D01*
X1531346D01*
Y573227D01*
X1531257D01*
Y573138D01*
X1531168Y573138D01*
X1531168Y572960D01*
X1531079Y572960D01*
X1531079Y572782D01*
X1530990D01*
Y572693D01*
X1530901D01*
Y572514D01*
X1530812D01*
Y572336D01*
X1530723D01*
X1530723Y572158D01*
X1530633D01*
Y572069D01*
X1530544D01*
Y571891D01*
X1530455D01*
Y571712D01*
X1530366Y571712D01*
X1530366Y571623D01*
X1530277Y571623D01*
Y571445D01*
X1530188Y571445D01*
Y571267D01*
X1530099D01*
Y571089D01*
X1530010Y571089D01*
Y570999D01*
X1529921D01*
Y570821D01*
X1529831D01*
Y570643D01*
X1529742D01*
Y570554D01*
X1529653D01*
Y570376D01*
X1529564Y570376D01*
Y570197D01*
X1529475D01*
X1529475Y570019D01*
X1529386D01*
Y569930D01*
X1529297D01*
X1529297Y569752D01*
X1529208D01*
Y569574D01*
X1529118D01*
Y569395D01*
X1529029D01*
Y569306D01*
X1528940D01*
Y569128D01*
X1528851D01*
X1528851Y568950D01*
X1528762Y568950D01*
X1528762Y568861D01*
X1528673D01*
Y568683D01*
X1528584D01*
Y568504D01*
X1528495D01*
X1528495Y568326D01*
X1528406D01*
Y568237D01*
X1528316Y568237D01*
Y568059D01*
X1528227D01*
X1528227Y567881D01*
X1528138D01*
Y567791D01*
X1528049D01*
Y567613D01*
X1527960Y567613D01*
X1527960Y567435D01*
X1527871D01*
X1527871Y567257D01*
X1527782Y567257D01*
Y567168D01*
X1527693D01*
Y566989D01*
X1527603D01*
X1527603Y566811D01*
X1527514D01*
X1527514Y566722D01*
X1527425D01*
Y566544D01*
X1527336D01*
X1527336Y566366D01*
X1527247Y566366D01*
X1527247Y566187D01*
X1527158D01*
Y566098D01*
X1527069D01*
Y565920D01*
X1526980D01*
Y565742D01*
X1526891D01*
Y565653D01*
X1526801Y565653D01*
Y565475D01*
X1526712D01*
X1526712Y565296D01*
X1526623D01*
Y565118D01*
X1526534Y565118D01*
Y565029D01*
X1526445D01*
Y564851D01*
X1526356D01*
X1526356Y564672D01*
X1526267Y564673D01*
Y564583D01*
X1526178Y564583D01*
Y564405D01*
X1526089Y564405D01*
Y564227D01*
X1525999Y564227D01*
Y564049D01*
X1525910Y564049D01*
X1525910Y563960D01*
X1516643D01*
Y564138D01*
X1516732D01*
Y564227D01*
X1516821D01*
Y564405D01*
X1516910D01*
Y564494D01*
X1516999Y564494D01*
X1516999Y564672D01*
X1517088Y564673D01*
Y564762D01*
X1517177D01*
Y564940D01*
X1517266D01*
X1517266Y565029D01*
X1517355Y565029D01*
X1517355Y565207D01*
X1517445D01*
Y565296D01*
X1517534D01*
Y565475D01*
X1517623D01*
X1517623Y565564D01*
X1517712D01*
Y565742D01*
X1517801Y565742D01*
Y565831D01*
X1517890Y565831D01*
Y566009D01*
X1517979Y566009D01*
Y566098D01*
X1518068Y566098D01*
Y566277D01*
X1518158D01*
Y566366D01*
X1518247D01*
X1518247Y566544D01*
X1518336D01*
Y566633D01*
X1518425D01*
Y566811D01*
X1518514D01*
X1518514Y566900D01*
X1518603D01*
Y567079D01*
X1518692D01*
Y567168D01*
X1518781D01*
Y567346D01*
X1518870Y567346D01*
Y567435D01*
X1518960Y567435D01*
Y567613D01*
X1519049Y567613D01*
X1519049Y567702D01*
X1519138D01*
Y567881D01*
X1519227Y567881D01*
Y567970D01*
X1519316D01*
Y568148D01*
X1519405D01*
Y568237D01*
X1519494Y568237D01*
Y568415D01*
X1519583D01*
Y568504D01*
X1519672D01*
Y568683D01*
X1519762D01*
X1519762Y568772D01*
X1519851D01*
Y568950D01*
X1519940D01*
X1519940Y569039D01*
X1520029D01*
X1520029Y569217D01*
X1520118D01*
Y569306D01*
X1520207Y569306D01*
Y569485D01*
X1520296Y569485D01*
Y569574D01*
X1520385Y569574D01*
X1520385Y569752D01*
X1520475Y569752D01*
X1520475Y569841D01*
X1520564D01*
Y570019D01*
X1520653D01*
X1520653Y570108D01*
X1520742D01*
X1520742Y570287D01*
X1520831Y570287D01*
Y570376D01*
X1520920Y570376D01*
Y570554D01*
X1521009D01*
X1521009Y570643D01*
X1521098D01*
Y570821D01*
X1521187Y570821D01*
Y570910D01*
X1521277Y570910D01*
Y571089D01*
X1521366Y571089D01*
Y571178D01*
X1521455D01*
Y571356D01*
X1521544Y571356D01*
X1521544Y571445D01*
X1521633Y571445D01*
X1521633Y571623D01*
X1521722D01*
Y571712D01*
X1521811D01*
X1521811Y571891D01*
X1521900D01*
X1521900Y571980D01*
X1521989D01*
Y572158D01*
X1522079D01*
Y572247D01*
X1522168D01*
Y572425D01*
X1522257D01*
X1522257Y572514D01*
X1522346D01*
Y572693D01*
X1522435Y572693D01*
Y572782D01*
X1522524Y572782D01*
Y572960D01*
X1522613Y572960D01*
X1522613Y573049D01*
X1522702D01*
Y573227D01*
X1522791D01*
Y573316D01*
X1522881Y573316D01*
Y573495D01*
X1522970D01*
Y573584D01*
X1523059Y573584D01*
Y573762D01*
X1523148D01*
X1523148Y573851D01*
X1523237D01*
Y574029D01*
X1523326D01*
X1523326Y574118D01*
X1523415Y574118D01*
Y574297D01*
X1523504Y574297D01*
Y574386D01*
X1523593D01*
Y574564D01*
X1523683D01*
Y574653D01*
X1523772D01*
Y574831D01*
X1523861Y574831D01*
Y574921D01*
X1523950Y574921D01*
X1523950Y575099D01*
X1524039D01*
Y575188D01*
X1524128D01*
Y575366D01*
X1524217D01*
X1524217Y575455D01*
X1524306Y575455D01*
Y575633D01*
X1524395D01*
Y575723D01*
X1524485D01*
X1524485Y575901D01*
X1524574D01*
X1524574Y575990D01*
X1524663D01*
Y576168D01*
X1524752Y576168D01*
Y576257D01*
X1524841D01*
Y576436D01*
X1524930Y576435D01*
Y576525D01*
X1525019Y576525D01*
Y576703D01*
X1525108D01*
Y576792D01*
X1525197D01*
Y576970D01*
X1525287D01*
X1525287Y577059D01*
X1525376Y577059D01*
X1525376Y577238D01*
X1525197D01*
X1525197Y577327D01*
X1525019D01*
X1525019Y577416D01*
X1524930Y577416D01*
Y577505D01*
X1524752D01*
Y577594D01*
X1524663D01*
Y577683D01*
X1524485D01*
Y577772D01*
X1524395D01*
Y577861D01*
X1524217D01*
X1524217Y577950D01*
X1524128Y577950D01*
X1524128Y578040D01*
X1523950D01*
Y578129D01*
X1523861D01*
X1523861Y578218D01*
X1523772Y578218D01*
Y578307D01*
X1523593D01*
X1523593Y578396D01*
X1523504Y578396D01*
Y578485D01*
X1523415D01*
X1523415Y578574D01*
X1523326Y578574D01*
Y578663D01*
X1523237D01*
X1523237Y578752D01*
X1523059D01*
Y578842D01*
X1522970D01*
Y578931D01*
X1522881Y578931D01*
X1522881Y579020D01*
X1522791D01*
Y579109D01*
X1522702D01*
Y579198D01*
X1522613D01*
Y579287D01*
X1522524D01*
X1522524Y579376D01*
X1522435D01*
Y579554D01*
X1522346D01*
X1522346Y579644D01*
X1522257Y579644D01*
Y579733D01*
X1522168D01*
Y579822D01*
X1522079D01*
Y579911D01*
X1521989Y579911D01*
X1521989Y580089D01*
X1521900Y580089D01*
X1521900Y580178D01*
X1521811Y580178D01*
Y580267D01*
X1521722D01*
X1521722Y580446D01*
X1521633D01*
Y580535D01*
X1521544Y580535D01*
X1521544Y580713D01*
X1521455D01*
Y580891D01*
X1521366Y580891D01*
X1521366Y580980D01*
X1521277D01*
Y581158D01*
X1521187Y581158D01*
Y581337D01*
X1521098D01*
Y581515D01*
X1521009D01*
Y581693D01*
X1520920Y581693D01*
Y581960D01*
X1520831D01*
Y582139D01*
X1520742D01*
Y582406D01*
X1520653D01*
Y582673D01*
X1520564D01*
Y583030D01*
X1520475Y583030D01*
Y583386D01*
X1520385Y583386D01*
X1520385Y583921D01*
X1520296Y583921D01*
Y585079D01*
X1520207D01*
Y585703D01*
X1520296D01*
Y586862D01*
X1520385Y586862D01*
Y587486D01*
X1520475D01*
X1520475Y587842D01*
X1520564D01*
Y588198D01*
X1520653D01*
Y588466D01*
X1520742Y588466D01*
Y588733D01*
X1520831D01*
X1520831Y589001D01*
X1520920D01*
Y589179D01*
X1521009D01*
X1521009Y589357D01*
X1521098D01*
Y589535D01*
X1521187Y589535D01*
Y589713D01*
X1521277Y589713D01*
Y589892D01*
X1521366Y589892D01*
Y590070D01*
X1521455D01*
Y590159D01*
X1521544Y590159D01*
Y590337D01*
X1521633Y590337D01*
X1521633Y590426D01*
X1521722D01*
Y590605D01*
X1521811Y590605D01*
Y590694D01*
X1521900D01*
X1521900Y590783D01*
X1521989D01*
X1521989Y590872D01*
X1522079D01*
Y591050D01*
X1522168D01*
Y591139D01*
X1522257D01*
Y591228D01*
X1522346Y591228D01*
X1522346Y591317D01*
X1522435D01*
X1522435Y591407D01*
X1522524D01*
Y591496D01*
X1522613D01*
Y591585D01*
X1522702D01*
Y591674D01*
X1522881D01*
X1522881Y591763D01*
X1522970Y591763D01*
Y591852D01*
X1523059Y591852D01*
Y591941D01*
X1523148D01*
Y592030D01*
X1523326Y592030D01*
Y592119D01*
X1523415Y592119D01*
Y592209D01*
X1523593Y592209D01*
X1523593Y592298D01*
X1523683D01*
Y592387D01*
X1523861Y592387D01*
X1523861Y592476D01*
X1523950D01*
X1523950Y592565D01*
X1524128D01*
Y592654D01*
X1524306Y592654D01*
Y592743D01*
X1524485D01*
X1524485Y592832D01*
X1524663D01*
Y592921D01*
X1524841D01*
X1524841Y593011D01*
X1525019D01*
X1525019Y593100D01*
X1525197D01*
X1525197Y593189D01*
X1525465D01*
X1525465Y593278D01*
X1525643D01*
Y593367D01*
X1525910Y593367D01*
X1525910Y593456D01*
X1526178Y593456D01*
Y593545D01*
X1526445D01*
Y593634D01*
X1526801Y593634D01*
Y593723D01*
X1527158D01*
Y593813D01*
X1527514D01*
X1527514Y593902D01*
X1527960Y593902D01*
Y593991D01*
X1528495D01*
Y594080D01*
X1529118Y594080D01*
X1529118Y594169D01*
X1529921D01*
Y594258D01*
X1531168D01*
X1531168Y594347D01*
X1542575Y594347D01*
D02*
G37*
G36*
X1565566Y563960D02*
X1557546D01*
Y575366D01*
X1548456D01*
Y581871D01*
X1551842Y581871D01*
X1551932Y581871D01*
X1557457Y581871D01*
Y581960D01*
X1557546Y581960D01*
Y587753D01*
X1547654D01*
X1547654Y594347D01*
X1565566D01*
X1565566Y563960D01*
D02*
G37*
G36*
X1418528Y574475D02*
X1418439D01*
Y573495D01*
X1418350D01*
Y572871D01*
X1418261D01*
Y572425D01*
X1418172D01*
Y571980D01*
X1418083D01*
Y571623D01*
X1417994D01*
Y571267D01*
X1417905D01*
Y570999D01*
X1417816Y570999D01*
Y570732D01*
X1417726D01*
Y570465D01*
X1417637D01*
Y570287D01*
X1417548D01*
Y570019D01*
X1417459D01*
Y569841D01*
X1417370Y569841D01*
Y569663D01*
X1417281D01*
Y569485D01*
X1417192Y569485D01*
Y569306D01*
X1417103Y569306D01*
X1417103Y569128D01*
X1417013Y569128D01*
X1417014Y568950D01*
X1416924D01*
Y568772D01*
X1416835D01*
Y568683D01*
X1416746D01*
Y568504D01*
X1416657D01*
X1416657Y568326D01*
X1416568D01*
Y568237D01*
X1416479D01*
X1416479Y568059D01*
X1416390D01*
X1416390Y567970D01*
X1416301Y567970D01*
X1416301Y567881D01*
X1416212Y567881D01*
Y567702D01*
X1416122D01*
Y567613D01*
X1416033Y567613D01*
Y567524D01*
X1415944D01*
Y567435D01*
X1415855D01*
X1415855Y567257D01*
X1415766Y567257D01*
X1415766Y567168D01*
X1415677D01*
Y567079D01*
X1415588D01*
Y566989D01*
X1415499Y566989D01*
Y566900D01*
X1415409D01*
X1415409Y566811D01*
X1415320D01*
X1415320Y566722D01*
X1415231D01*
X1415231Y566633D01*
X1415142D01*
X1415142Y566544D01*
X1415053D01*
Y566455D01*
X1414964D01*
Y566366D01*
X1414786Y566366D01*
X1414786Y566277D01*
X1414697Y566277D01*
X1414697Y566187D01*
X1414607D01*
Y566098D01*
X1414518D01*
X1414518Y566009D01*
X1414340Y566009D01*
Y565920D01*
X1414251D01*
Y565831D01*
X1414162Y565831D01*
Y565742D01*
X1413984Y565742D01*
X1413984Y565653D01*
X1413895Y565653D01*
X1413895Y565564D01*
X1413716D01*
Y565475D01*
X1413627Y565475D01*
Y565385D01*
X1413449D01*
Y565296D01*
X1413271D01*
X1413271Y565207D01*
X1413182D01*
X1413182Y565118D01*
X1413003D01*
X1413003Y565029D01*
X1412825D01*
X1412825Y564940D01*
X1412647D01*
X1412647Y564851D01*
X1412469D01*
Y564762D01*
X1412290D01*
Y564673D01*
X1412023D01*
Y564583D01*
X1411845Y564583D01*
X1411845Y564494D01*
X1411577D01*
Y564405D01*
X1411399D01*
Y564316D01*
X1411132D01*
X1411132Y564227D01*
X1410865Y564227D01*
Y564138D01*
X1410508Y564138D01*
Y564049D01*
X1410152D01*
Y563960D01*
X1409795Y563960D01*
Y563870D01*
X1409350Y563870D01*
X1409350Y563781D01*
X1408815Y563781D01*
Y563692D01*
X1408191D01*
X1408191Y563603D01*
X1407300D01*
X1407300Y563514D01*
X1403914D01*
X1403914Y563603D01*
X1403023D01*
Y563692D01*
X1402399D01*
Y563781D01*
X1401864Y563781D01*
Y563870D01*
X1401419D01*
Y563960D01*
X1401062Y563960D01*
Y564049D01*
X1400706Y564049D01*
Y564138D01*
X1400438D01*
Y564227D01*
X1400082Y564227D01*
Y564316D01*
X1399814D01*
X1399814Y564405D01*
X1399636Y564405D01*
Y564494D01*
X1399369Y564494D01*
Y564583D01*
X1399191D01*
Y564673D01*
X1398923Y564672D01*
Y564762D01*
X1398745D01*
Y564851D01*
X1398567D01*
Y564940D01*
X1398389D01*
X1398389Y565029D01*
X1398210D01*
X1398210Y565118D01*
X1398032D01*
X1398032Y565207D01*
X1397854D01*
X1397854Y565296D01*
X1397765D01*
Y565385D01*
X1397587D01*
X1397587Y565475D01*
X1397408D01*
X1397408Y565564D01*
X1397319D01*
Y565653D01*
X1397141Y565653D01*
Y565742D01*
X1397052Y565742D01*
Y565831D01*
X1396963D01*
Y565920D01*
X1396785D01*
Y566009D01*
X1396696Y566009D01*
Y566098D01*
X1396606Y566098D01*
Y566187D01*
X1396428D01*
Y566277D01*
X1396339D01*
X1396339Y566366D01*
X1396250D01*
X1396250Y566455D01*
X1396161Y566455D01*
Y566544D01*
X1396072D01*
X1396072Y566633D01*
X1395983D01*
X1395983Y566722D01*
X1395894D01*
X1395894Y566811D01*
X1395804D01*
Y566900D01*
X1395715D01*
X1395715Y566989D01*
X1395626D01*
X1395626Y567079D01*
X1395537D01*
X1395537Y567168D01*
X1395448D01*
Y567257D01*
X1395359Y567257D01*
Y567346D01*
X1395270Y567346D01*
Y567435D01*
X1395181D01*
Y567524D01*
X1395092Y567524D01*
Y567702D01*
X1395002D01*
Y567791D01*
X1394913D01*
Y567881D01*
X1394824D01*
Y567970D01*
X1394735Y567970D01*
Y568148D01*
X1394646Y568148D01*
X1394646Y568237D01*
X1394557D01*
X1394557Y568415D01*
X1394468D01*
X1394468Y568504D01*
X1394379D01*
Y568683D01*
X1394290D01*
Y568772D01*
X1394200D01*
Y568950D01*
X1394111D01*
Y569128D01*
X1394022Y569128D01*
Y569306D01*
X1393933Y569306D01*
Y569485D01*
X1393844Y569485D01*
Y569663D01*
X1393755D01*
Y569841D01*
X1393666Y569841D01*
X1393666Y570019D01*
X1393577D01*
Y570197D01*
X1393488Y570197D01*
Y570465D01*
X1393398Y570465D01*
Y570643D01*
X1393309D01*
Y570910D01*
X1393220D01*
Y571178D01*
X1393131D01*
Y571534D01*
X1393042D01*
Y571801D01*
X1392953Y571801D01*
X1392953Y572158D01*
X1392864D01*
Y572604D01*
X1392775D01*
Y573049D01*
X1392686D01*
Y573673D01*
X1392596D01*
Y574653D01*
X1392507Y574653D01*
X1392507Y594347D01*
X1400706D01*
X1400706Y590337D01*
X1400706Y590248D01*
Y575188D01*
X1400795D01*
Y574475D01*
X1400884Y574475D01*
Y573940D01*
X1400973D01*
X1400973Y573584D01*
X1401062D01*
Y573227D01*
X1401151D01*
Y572960D01*
X1401240Y572960D01*
X1401240Y572782D01*
X1401329Y572782D01*
X1401329Y572514D01*
X1401419D01*
Y572336D01*
X1401508D01*
Y572247D01*
X1401597D01*
Y572069D01*
X1401686D01*
X1401686Y571891D01*
X1401775D01*
X1401775Y571801D01*
X1401864D01*
X1401864Y571712D01*
X1401953D01*
Y571623D01*
X1402042Y571623D01*
Y571534D01*
X1402132D01*
Y571445D01*
X1402221Y571445D01*
X1402221Y571356D01*
X1402310D01*
Y571267D01*
X1402399D01*
Y571178D01*
X1402488Y571178D01*
Y571089D01*
X1402666Y571089D01*
Y570999D01*
X1402755D01*
Y570910D01*
X1402934Y570910D01*
Y570821D01*
X1403112D01*
Y570732D01*
X1403290D01*
Y570643D01*
X1403557D01*
X1403557Y570554D01*
X1403914D01*
X1403914Y570465D01*
X1404270D01*
Y570376D01*
X1404983D01*
Y570287D01*
X1406053D01*
X1406053Y570376D01*
X1406676D01*
Y570465D01*
X1407033Y570465D01*
Y570554D01*
X1407300D01*
Y570643D01*
X1407567D01*
X1407567Y570732D01*
X1407746D01*
Y570821D01*
X1407924D01*
Y570910D01*
X1408102Y570910D01*
Y570999D01*
X1408280D01*
X1408280Y571089D01*
X1408369D01*
X1408369Y571178D01*
X1408459Y571178D01*
Y571267D01*
X1408637D01*
Y571356D01*
X1408726D01*
Y571445D01*
X1408815Y571445D01*
X1408815Y571534D01*
X1408904D01*
Y571623D01*
X1408993Y571623D01*
Y571712D01*
X1409082Y571712D01*
Y571891D01*
X1409171D01*
X1409171Y571980D01*
X1409261D01*
X1409261Y572069D01*
X1409350Y572069D01*
X1409350Y572247D01*
X1409439D01*
Y572425D01*
X1409528D01*
X1409528Y572514D01*
X1409617D01*
Y572782D01*
X1409706D01*
Y572960D01*
X1409795Y572960D01*
Y573227D01*
X1409884Y573227D01*
Y573495D01*
X1409973D01*
Y573851D01*
X1410063D01*
Y574208D01*
X1410152Y574208D01*
X1410152Y574742D01*
X1410241Y574742D01*
Y575812D01*
X1410330Y575812D01*
Y594347D01*
X1418528D01*
X1418528Y574475D01*
D02*
G37*
G36*
X1513880Y584367D02*
X1513880Y584277D01*
Y574297D01*
X1513791D01*
Y573406D01*
X1513702D01*
Y572782D01*
X1513613D01*
Y572336D01*
X1513524Y572336D01*
X1513524Y571891D01*
X1513434D01*
X1513434Y571534D01*
X1513345D01*
Y571267D01*
X1513256D01*
Y570999D01*
X1513167Y570999D01*
Y570732D01*
X1513078D01*
Y570465D01*
X1512989D01*
Y570197D01*
X1512900Y570197D01*
Y570019D01*
X1512811D01*
X1512811Y569841D01*
X1512722D01*
Y569574D01*
X1512632Y569574D01*
Y569395D01*
X1512543D01*
Y569217D01*
X1512454D01*
Y569128D01*
X1512365Y569128D01*
Y568950D01*
X1512276Y568950D01*
Y568772D01*
X1512187D01*
X1512187Y568593D01*
X1512098D01*
Y568504D01*
X1512009D01*
X1512009Y568326D01*
X1511920D01*
X1511920Y568237D01*
X1511830D01*
Y568059D01*
X1511741Y568059D01*
Y567970D01*
X1511652D01*
Y567791D01*
X1511563D01*
Y567702D01*
X1511474Y567702D01*
Y567613D01*
X1511385Y567613D01*
X1511385Y567524D01*
X1511296D01*
Y567346D01*
X1511207D01*
Y567257D01*
X1511118Y567257D01*
Y567168D01*
X1511028D01*
X1511028Y567079D01*
X1510939D01*
Y566989D01*
X1510850Y566989D01*
Y566900D01*
X1510761D01*
Y566811D01*
X1510672D01*
X1510672Y566722D01*
X1510583D01*
X1510583Y566633D01*
X1510494D01*
Y566544D01*
X1510405D01*
X1510405Y566455D01*
X1510316D01*
Y566366D01*
X1510226D01*
X1510226Y566277D01*
X1510048D01*
Y566187D01*
X1509959D01*
Y566098D01*
X1509870Y566098D01*
Y566009D01*
X1509781D01*
Y565920D01*
X1509603D01*
X1509603Y565831D01*
X1509514D01*
Y565742D01*
X1509335D01*
Y565653D01*
X1509246Y565653D01*
Y565564D01*
X1509068D01*
Y565475D01*
X1508979D01*
Y565385D01*
X1508801Y565385D01*
Y565296D01*
X1508711D01*
X1508712Y565207D01*
X1508533D01*
X1508533Y565118D01*
X1508355D01*
Y565029D01*
X1508177D01*
X1508177Y564940D01*
X1507999D01*
Y564851D01*
X1507820D01*
Y564762D01*
X1507642D01*
Y564672D01*
X1507375Y564673D01*
Y564583D01*
X1507197Y564583D01*
Y564494D01*
X1506929Y564494D01*
Y564405D01*
X1506751D01*
Y564316D01*
X1506484D01*
Y564227D01*
X1506216D01*
Y564138D01*
X1505860Y564138D01*
Y564049D01*
X1505503Y564049D01*
Y563960D01*
X1505147Y563960D01*
Y563870D01*
X1504701D01*
Y563781D01*
X1504256D01*
X1504256Y563692D01*
X1503632D01*
Y563603D01*
X1502652Y563603D01*
X1502652Y563514D01*
X1499265D01*
X1499265Y563603D01*
X1498374D01*
X1498374Y563692D01*
X1497751D01*
X1497751Y563781D01*
X1497216D01*
X1497216Y563870D01*
X1496770D01*
Y563960D01*
X1496414D01*
Y564049D01*
X1496057D01*
Y564138D01*
X1495790Y564138D01*
Y564227D01*
X1495434Y564227D01*
Y564316D01*
X1495166D01*
Y564405D01*
X1494988Y564405D01*
Y564494D01*
X1494721Y564494D01*
Y564583D01*
X1494542Y564583D01*
Y564673D01*
X1494275D01*
X1494275Y564762D01*
X1494097Y564762D01*
Y564851D01*
X1493919Y564851D01*
Y564940D01*
X1493740D01*
Y565029D01*
X1493562D01*
Y565118D01*
X1493384D01*
X1493384Y565207D01*
X1493295D01*
X1493295Y565296D01*
X1493117D01*
X1493117Y565385D01*
X1492938Y565385D01*
Y565475D01*
X1492849D01*
X1492849Y565564D01*
X1492671D01*
X1492671Y565653D01*
X1492582D01*
Y565742D01*
X1492404Y565742D01*
Y565831D01*
X1492314Y565831D01*
Y565920D01*
X1492136D01*
Y566009D01*
X1492047Y566009D01*
Y566098D01*
X1491958D01*
Y566187D01*
X1491869D01*
Y566277D01*
X1491691Y566277D01*
Y566366D01*
X1491602D01*
Y566455D01*
X1491512Y566455D01*
Y566544D01*
X1491423D01*
Y566633D01*
X1491334D01*
X1491334Y566722D01*
X1491245D01*
X1491245Y566811D01*
X1491156D01*
X1491156Y566900D01*
X1491067D01*
Y566989D01*
X1490978D01*
Y567079D01*
X1490889D01*
X1490889Y567168D01*
X1490800D01*
X1490800Y567257D01*
X1490710Y567257D01*
X1490710Y567346D01*
X1490621D01*
X1490621Y567435D01*
X1490532D01*
Y567613D01*
X1490443D01*
Y567702D01*
X1490354D01*
Y567791D01*
X1490265D01*
Y567881D01*
X1490176Y567881D01*
X1490176Y568059D01*
X1490087D01*
Y568148D01*
X1489998Y568148D01*
Y568237D01*
X1489908Y568237D01*
Y568415D01*
X1489819D01*
X1489819Y568504D01*
X1489730Y568504D01*
X1489730Y568683D01*
X1489641D01*
Y568861D01*
X1489552Y568861D01*
Y568950D01*
X1489463D01*
Y569128D01*
X1489374D01*
Y569306D01*
X1489285Y569306D01*
Y569485D01*
X1489196Y569485D01*
Y569663D01*
X1489106D01*
Y569841D01*
X1489017D01*
Y570019D01*
X1488928D01*
Y570287D01*
X1488839D01*
Y570465D01*
X1488750D01*
Y570732D01*
X1488661D01*
X1488661Y570999D01*
X1488572Y570999D01*
Y571267D01*
X1488483D01*
Y571534D01*
X1488394D01*
Y571891D01*
X1488304D01*
X1488304Y572247D01*
X1488215Y572247D01*
Y572693D01*
X1488126Y572693D01*
Y573138D01*
X1488037Y573138D01*
Y573762D01*
X1487948D01*
X1487948Y574831D01*
X1487859Y574831D01*
Y594347D01*
X1496057D01*
Y575277D01*
X1496146D01*
X1496147Y574475D01*
X1496236D01*
Y574029D01*
X1496325D01*
Y573584D01*
X1496414D01*
X1496414Y573316D01*
X1496503Y573316D01*
Y573049D01*
X1496592D01*
Y572782D01*
X1496681Y572782D01*
Y572603D01*
X1496770Y572604D01*
Y572425D01*
X1496859D01*
Y572247D01*
X1496948D01*
Y572069D01*
X1497038Y572069D01*
Y571980D01*
X1497127D01*
Y571801D01*
X1497216D01*
Y571712D01*
X1497305Y571712D01*
Y571623D01*
X1497394D01*
X1497394Y571534D01*
X1497483D01*
X1497483Y571445D01*
X1497572D01*
Y571356D01*
X1497661Y571356D01*
X1497661Y571267D01*
X1497751D01*
Y571178D01*
X1497840Y571178D01*
Y571089D01*
X1498018D01*
X1498018Y570999D01*
X1498107Y570999D01*
X1498107Y570910D01*
X1498285D01*
Y570821D01*
X1498463D01*
Y570732D01*
X1498731D01*
Y570643D01*
X1498909D01*
Y570554D01*
X1499265D01*
X1499265Y570465D01*
X1499622D01*
X1499622Y570376D01*
X1500335D01*
Y570287D01*
X1501404D01*
Y570376D01*
X1502028Y570376D01*
Y570465D01*
X1502384Y570465D01*
Y570554D01*
X1502652Y570554D01*
X1502652Y570643D01*
X1502919D01*
Y570732D01*
X1503186Y570732D01*
Y570821D01*
X1503275D01*
Y570910D01*
X1503454Y570910D01*
Y570999D01*
X1503632D01*
Y571089D01*
X1503721Y571089D01*
Y571178D01*
X1503899Y571178D01*
Y571267D01*
X1503988D01*
Y571356D01*
X1504077D01*
Y571445D01*
X1504167Y571445D01*
Y571534D01*
X1504256D01*
X1504256Y571623D01*
X1504345D01*
Y571712D01*
X1504434D01*
Y571801D01*
X1504523D01*
Y571980D01*
X1504612D01*
X1504612Y572069D01*
X1504701Y572069D01*
X1504701Y572247D01*
X1504790D01*
Y572336D01*
X1504880D01*
Y572514D01*
X1504969D01*
Y572693D01*
X1505058Y572693D01*
X1505058Y572960D01*
X1505147D01*
Y573138D01*
X1505236Y573138D01*
Y573406D01*
X1505325D01*
Y573762D01*
X1505414Y573762D01*
X1505414Y574118D01*
X1505503D01*
Y574653D01*
X1505592Y574653D01*
Y575633D01*
X1505682D01*
Y594347D01*
X1513880D01*
Y584367D01*
D02*
G37*
G36*
X1481443Y591763D02*
X1481443Y591674D01*
Y563960D01*
X1473244Y563960D01*
Y594347D01*
X1481443D01*
Y591763D01*
D02*
G37*
G36*
X1468788Y587664D02*
X1461392D01*
Y563960D01*
X1453194Y563960D01*
X1453194Y587664D01*
X1445797D01*
Y594347D01*
X1468788Y594347D01*
X1468788Y587664D01*
D02*
G37*
G36*
X1441342Y563960D02*
X1433321D01*
X1433321Y569930D01*
X1433321Y570019D01*
X1433321Y575366D01*
X1424143D01*
X1424143Y581871D01*
X1433232Y581871D01*
Y581960D01*
X1433321D01*
X1433321Y587753D01*
X1423430D01*
Y594347D01*
X1441342D01*
Y563960D01*
D02*
G37*
G36*
X1386091D02*
X1366130D01*
Y570554D01*
X1377893D01*
Y572514D01*
Y572604D01*
Y594347D01*
X1386091Y594347D01*
Y563960D01*
D02*
G37*
G36*
X1374952Y556385D02*
X1375754D01*
Y556296D01*
X1376288D01*
Y556207D01*
X1376645D01*
Y556118D01*
X1377001D01*
Y556028D01*
X1377358Y556028D01*
Y555939D01*
X1377625D01*
Y555850D01*
X1377803D01*
Y555761D01*
X1378071Y555761D01*
X1378071Y555672D01*
X1378249D01*
Y555583D01*
X1378427D01*
Y555494D01*
X1378605D01*
Y555405D01*
X1378784D01*
Y555316D01*
X1378962D01*
X1378962Y555226D01*
X1379051D01*
X1379051Y555137D01*
X1379229D01*
Y555048D01*
X1379408Y555048D01*
Y554959D01*
X1379497D01*
Y554870D01*
X1379586D01*
Y554781D01*
X1379764D01*
Y554692D01*
X1379853D01*
X1379853Y554603D01*
X1379942D01*
X1379942Y554514D01*
X1380031D01*
Y554424D01*
X1380210Y554424D01*
X1380210Y554335D01*
X1380299Y554335D01*
X1380299Y554246D01*
X1380388D01*
Y554157D01*
X1380477D01*
Y554068D01*
X1380566Y554068D01*
X1380566Y553890D01*
X1380655Y553890D01*
X1380655Y553801D01*
X1380744D01*
X1380744Y553712D01*
X1380833D01*
Y553622D01*
X1380922D01*
Y553444D01*
X1381012D01*
Y553355D01*
X1381101D01*
Y553266D01*
X1381190D01*
X1381190Y553088D01*
X1381279D01*
Y552909D01*
X1381368Y552909D01*
Y552820D01*
X1381457Y552820D01*
X1381457Y552642D01*
X1381546D01*
Y552464D01*
X1381635D01*
Y552197D01*
X1381725Y552197D01*
Y552018D01*
X1381814Y552018D01*
X1381814Y551751D01*
X1381903D01*
Y551484D01*
X1381992D01*
Y551127D01*
X1382081D01*
Y550592D01*
X1382170Y550592D01*
Y549523D01*
X1382259D01*
X1382259Y548988D01*
X1382170Y548988D01*
X1382170Y548008D01*
X1382081D01*
X1382081Y547473D01*
X1381992D01*
Y547117D01*
X1381903D01*
Y546850D01*
X1381814D01*
Y546671D01*
X1381724D01*
X1381725Y546404D01*
X1381635D01*
Y546226D01*
X1381546D01*
X1381546Y546048D01*
X1381457D01*
X1381457Y545869D01*
X1381368D01*
Y545780D01*
X1381279D01*
Y545602D01*
X1381190Y545602D01*
Y545424D01*
X1381101Y545424D01*
Y545335D01*
X1381012Y545335D01*
Y545157D01*
X1380922D01*
Y545067D01*
X1380833D01*
Y544978D01*
X1380744D01*
Y544800D01*
X1380655D01*
Y544711D01*
X1380566Y544711D01*
X1380566Y544622D01*
X1380477D01*
Y544533D01*
X1380388D01*
Y544444D01*
X1380299D01*
X1380299Y544355D01*
X1380210D01*
X1380210Y544265D01*
X1380120D01*
X1380120Y544176D01*
X1380031D01*
Y544087D01*
X1379942D01*
Y543998D01*
X1379853D01*
X1379853Y543909D01*
X1379764D01*
Y543820D01*
X1379675Y543820D01*
Y543731D01*
X1379586Y543731D01*
Y543642D01*
X1379497D01*
Y543553D01*
X1379318D01*
Y543463D01*
X1379229Y543463D01*
Y543374D01*
X1379140D01*
X1379140Y543285D01*
X1378962D01*
X1378962Y543196D01*
X1378873D01*
Y543107D01*
X1378695D01*
Y543018D01*
X1378605D01*
X1378605Y542929D01*
X1378427D01*
X1378427Y542840D01*
X1378338D01*
X1378338Y542751D01*
X1378160D01*
Y542661D01*
X1377982D01*
X1377982Y542572D01*
X1377803D01*
Y542483D01*
X1377714Y542483D01*
X1377714Y542394D01*
X1377536Y542394D01*
Y542305D01*
X1377358D01*
Y542216D01*
X1377180D01*
Y542127D01*
X1377001D01*
Y542038D01*
X1376823D01*
Y541949D01*
X1376645Y541948D01*
Y541859D01*
X1376467D01*
Y541770D01*
X1376288Y541770D01*
Y541681D01*
X1376110Y541681D01*
Y541592D01*
X1375932D01*
X1375932Y541503D01*
X1375754D01*
Y541414D01*
X1375576D01*
Y541325D01*
X1375397Y541325D01*
Y541236D01*
X1375219D01*
X1375219Y541146D01*
X1375041D01*
Y541057D01*
X1374863D01*
X1374863Y540968D01*
X1374684D01*
X1374684Y540879D01*
X1374506D01*
X1374506Y540790D01*
X1374328D01*
Y540701D01*
X1374150D01*
Y540612D01*
X1373972D01*
X1373972Y540523D01*
X1373793D01*
Y540434D01*
X1373615Y540434D01*
X1373615Y540344D01*
X1373437Y540344D01*
Y540255D01*
X1373348D01*
Y540166D01*
X1373170D01*
Y540077D01*
X1372991Y540077D01*
Y539988D01*
X1372902Y539988D01*
Y539899D01*
X1372724D01*
Y539810D01*
X1372635Y539810D01*
Y539721D01*
X1372546Y539721D01*
Y539632D01*
X1372368Y539632D01*
Y539542D01*
X1372278D01*
Y539453D01*
X1372189D01*
X1372189Y539364D01*
X1372100D01*
Y539275D01*
X1372011D01*
Y539186D01*
X1371922D01*
Y539097D01*
X1371833D01*
X1371833Y539008D01*
X1371744Y539008D01*
X1371744Y538919D01*
X1371655D01*
Y538740D01*
X1371566D01*
Y538651D01*
X1371476D01*
X1371476Y538473D01*
X1371387Y538473D01*
Y538206D01*
X1371298D01*
Y537938D01*
X1371209Y537938D01*
X1371209Y536958D01*
X1371298D01*
Y536602D01*
X1371387Y536602D01*
Y536334D01*
X1371476D01*
X1371476Y536156D01*
X1371566D01*
Y536067D01*
X1371655D01*
Y535889D01*
X1371744D01*
X1371744Y535800D01*
X1371833D01*
Y535710D01*
X1371922D01*
Y535621D01*
X1372011D01*
X1372011Y535532D01*
X1372100D01*
X1372100Y535443D01*
X1372278D01*
X1372278Y535354D01*
X1372368Y535354D01*
X1372368Y535265D01*
X1372546D01*
Y535176D01*
X1372724D01*
Y535087D01*
X1372991D01*
X1372991Y534998D01*
X1373259D01*
Y534908D01*
X1373704Y534908D01*
X1373704Y534819D01*
X1374417D01*
Y534730D01*
X1375486D01*
Y534819D01*
X1376378D01*
Y534908D01*
X1376912D01*
Y534998D01*
X1377358D01*
Y535087D01*
X1377714D01*
Y535176D01*
X1378071D01*
Y535265D01*
X1378427D01*
Y535354D01*
X1378695Y535354D01*
Y535443D01*
X1379051D01*
X1379051Y535532D01*
X1379318Y535532D01*
Y535621D01*
X1379586D01*
Y535710D01*
X1379853D01*
Y535800D01*
X1380031D01*
X1380031Y535889D01*
X1380299D01*
X1380299Y535978D01*
X1380566D01*
X1380566Y536067D01*
X1380744D01*
X1380744Y536156D01*
X1381012D01*
Y536245D01*
X1381190D01*
Y536334D01*
X1381457Y536334D01*
Y536423D01*
X1381635D01*
Y536512D01*
X1381814D01*
Y536602D01*
X1382081D01*
Y536691D01*
X1382259D01*
Y536780D01*
X1382437D01*
Y536869D01*
X1382527D01*
Y531879D01*
X1382437D01*
Y531790D01*
X1382259D01*
X1382259Y531700D01*
X1382081D01*
X1382081Y531611D01*
X1381903D01*
X1381903Y531522D01*
X1381725D01*
Y531433D01*
X1381457Y531433D01*
Y531344D01*
X1381190D01*
Y531255D01*
X1381012D01*
Y531166D01*
X1380744D01*
X1380744Y531077D01*
X1380388D01*
Y530988D01*
X1380120D01*
X1380120Y530898D01*
X1379764D01*
Y530809D01*
X1379408D01*
Y530720D01*
X1378962D01*
X1378962Y530631D01*
X1378516D01*
Y530542D01*
X1377893D01*
Y530453D01*
X1377090D01*
X1377091Y530364D01*
X1373704D01*
X1373704Y530453D01*
X1372902D01*
Y530542D01*
X1372368D01*
X1372368Y530631D01*
X1371922D01*
Y530720D01*
X1371566D01*
Y530809D01*
X1371298D01*
Y530898D01*
X1371031Y530898D01*
Y530988D01*
X1370764D01*
Y531077D01*
X1370496D01*
X1370496Y531166D01*
X1370318D01*
Y531255D01*
X1370051D01*
Y531344D01*
X1369872D01*
Y531433D01*
X1369694D01*
X1369694Y531522D01*
X1369516D01*
Y531611D01*
X1369338D01*
Y531700D01*
X1369249D01*
Y531790D01*
X1369070Y531790D01*
Y531879D01*
X1368981Y531879D01*
Y531968D01*
X1368803Y531968D01*
Y532057D01*
X1368714D01*
X1368714Y532146D01*
X1368536D01*
X1368536Y532235D01*
X1368447D01*
Y532324D01*
X1368357D01*
X1368357Y532413D01*
X1368268D01*
X1368268Y532502D01*
X1368090D01*
Y532592D01*
X1368001D01*
X1368001Y532681D01*
X1367912D01*
Y532770D01*
X1367823D01*
Y532859D01*
X1367734Y532859D01*
Y532948D01*
X1367645Y532948D01*
Y533037D01*
X1367555D01*
Y533126D01*
X1367466Y533126D01*
Y533304D01*
X1367377Y533304D01*
Y533394D01*
X1367288Y533394D01*
Y533483D01*
X1367199Y533483D01*
Y533661D01*
X1367110D01*
X1367110Y533750D01*
X1367021D01*
Y533928D01*
X1366932D01*
X1366932Y534017D01*
X1366842D01*
Y534196D01*
X1366753D01*
X1366753Y534374D01*
X1366664D01*
Y534552D01*
X1366575D01*
Y534730D01*
X1366486Y534730D01*
X1366486Y534908D01*
X1366397D01*
X1366397Y535176D01*
X1366308Y535176D01*
Y535443D01*
X1366219D01*
X1366219Y535800D01*
X1366130D01*
X1366130Y536156D01*
X1366040D01*
X1366040Y536780D01*
X1365951Y536780D01*
Y538651D01*
X1366040Y538651D01*
X1366040Y539275D01*
X1366130D01*
Y539721D01*
X1366219D01*
X1366219Y539988D01*
X1366308D01*
X1366308Y540255D01*
X1366397Y540255D01*
Y540523D01*
X1366486Y540523D01*
X1366486Y540701D01*
X1366575D01*
Y540879D01*
X1366664D01*
Y540968D01*
Y541057D01*
X1366753D01*
Y541236D01*
X1366842Y541236D01*
Y541414D01*
X1366932D01*
X1366932Y541503D01*
X1367021Y541503D01*
X1367021Y541681D01*
X1367110D01*
Y541770D01*
X1367199D01*
Y541948D01*
X1367288Y541948D01*
Y542038D01*
X1367377Y542038D01*
Y542127D01*
X1367466Y542127D01*
Y542216D01*
X1367555Y542216D01*
Y542394D01*
X1367645D01*
Y542483D01*
X1367734D01*
Y542572D01*
X1367823D01*
Y542661D01*
X1367912D01*
X1367912Y542751D01*
X1368090D01*
X1368090Y542840D01*
X1368179D01*
Y542929D01*
X1368268D01*
X1368268Y543018D01*
X1368357D01*
X1368357Y543107D01*
X1368447Y543107D01*
Y543196D01*
X1368536D01*
X1368536Y543285D01*
X1368714D01*
X1368714Y543374D01*
X1368803D01*
Y543463D01*
X1368892Y543463D01*
Y543553D01*
X1369070D01*
Y543642D01*
X1369159D01*
Y543731D01*
X1369338D01*
Y543820D01*
X1369427Y543820D01*
Y543909D01*
X1369605D01*
Y543998D01*
X1369694D01*
Y544087D01*
X1369872Y544087D01*
Y544176D01*
X1370051D01*
Y544265D01*
X1370140D01*
Y544355D01*
X1370318Y544355D01*
Y544444D01*
X1370496D01*
X1370496Y544533D01*
X1370585D01*
Y544622D01*
X1370764Y544622D01*
Y544711D01*
X1370942D01*
X1370942Y544800D01*
X1371120D01*
Y544889D01*
X1371298Y544889D01*
Y544978D01*
X1371476Y544978D01*
X1371476Y545067D01*
X1371655D01*
Y545157D01*
X1371833D01*
X1371833Y545246D01*
X1372011Y545246D01*
X1372011Y545335D01*
X1372189D01*
X1372189Y545424D01*
X1372368D01*
Y545513D01*
X1372546Y545513D01*
Y545602D01*
X1372724D01*
X1372724Y545691D01*
X1372902Y545691D01*
Y545780D01*
X1373080D01*
X1373080Y545869D01*
X1373259D01*
X1373259Y545959D01*
X1373437Y545959D01*
Y546048D01*
X1373615D01*
Y546137D01*
X1373793Y546137D01*
Y546226D01*
X1373972D01*
X1373972Y546315D01*
X1374150D01*
Y546404D01*
X1374328D01*
X1374328Y546493D01*
X1374506D01*
Y546582D01*
X1374684Y546582D01*
X1374684Y546671D01*
X1374863D01*
Y546761D01*
X1375041Y546761D01*
Y546850D01*
X1375130D01*
Y546939D01*
X1375308D01*
X1375308Y547028D01*
X1375486D01*
Y547117D01*
X1375576D01*
X1375576Y547206D01*
X1375754Y547206D01*
Y547295D01*
X1375843Y547295D01*
Y547384D01*
X1375932D01*
Y547473D01*
X1376021D01*
Y547563D01*
X1376110D01*
Y547652D01*
X1376199D01*
X1376199Y547741D01*
X1376288D01*
Y547830D01*
X1376378Y547830D01*
X1376378Y547919D01*
X1376467D01*
Y548008D01*
X1376556D01*
Y548097D01*
X1376645D01*
Y548275D01*
X1376734D01*
Y548454D01*
X1376823D01*
X1376823Y548721D01*
X1376912Y548721D01*
Y549077D01*
X1377001D01*
Y549790D01*
X1376912D01*
Y550147D01*
X1376823D01*
Y550414D01*
X1376734Y550414D01*
Y550592D01*
X1376645D01*
Y550771D01*
X1376556D01*
X1376556Y550860D01*
X1376467D01*
Y551038D01*
X1376378Y551038D01*
Y551127D01*
X1376288D01*
Y551216D01*
X1376199D01*
Y551305D01*
X1376110D01*
Y551395D01*
X1375932D01*
X1375932Y551484D01*
X1375843D01*
Y551573D01*
X1375665D01*
Y551662D01*
X1375486Y551662D01*
X1375486Y551751D01*
X1375308D01*
X1375308Y551840D01*
X1375041D01*
Y551929D01*
X1374595Y551929D01*
Y552018D01*
X1372724Y552018D01*
Y551929D01*
X1372100D01*
X1372100Y551840D01*
X1371655Y551840D01*
Y551751D01*
X1371209D01*
Y551662D01*
X1370853D01*
Y551573D01*
X1370585D01*
Y551484D01*
X1370318D01*
X1370318Y551395D01*
X1370051D01*
Y551305D01*
X1369783D01*
X1369783Y551216D01*
X1369516D01*
X1369516Y551127D01*
X1369249D01*
X1369249Y551038D01*
X1368981D01*
X1368981Y550949D01*
X1368803D01*
Y550860D01*
X1368536D01*
X1368536Y550771D01*
X1368268Y550771D01*
Y550682D01*
X1368090D01*
Y550592D01*
X1367734D01*
Y550771D01*
X1367645D01*
X1367645Y551038D01*
X1367555D01*
Y551216D01*
X1367466D01*
Y551395D01*
X1367377D01*
X1367377Y551662D01*
X1367288D01*
Y551840D01*
X1367199Y551840D01*
Y552107D01*
X1367110D01*
Y552286D01*
X1367021Y552286D01*
Y552464D01*
X1366932D01*
X1366932Y552731D01*
X1366842D01*
Y552909D01*
X1366753D01*
X1366753Y553177D01*
X1366664Y553177D01*
Y553355D01*
X1366575D01*
Y553622D01*
X1366486Y553622D01*
X1366486Y553801D01*
X1366397D01*
Y553979D01*
X1366308D01*
Y554246D01*
X1366219Y554246D01*
Y554424D01*
X1366130D01*
Y554781D01*
X1366308D01*
X1366308Y554870D01*
X1366575D01*
Y554959D01*
X1366753D01*
X1366753Y555048D01*
X1367021D01*
Y555137D01*
X1367199Y555137D01*
Y555226D01*
X1367466D01*
X1367466Y555316D01*
X1367734D01*
Y555405D01*
X1367912D01*
Y555494D01*
X1368179Y555494D01*
Y555583D01*
X1368447D01*
Y555672D01*
X1368714D01*
X1368714Y555761D01*
X1369070Y555761D01*
Y555850D01*
X1369338D01*
Y555939D01*
X1369694Y555939D01*
Y556028D01*
X1370051D01*
Y556118D01*
X1370407D01*
Y556207D01*
X1370853D01*
Y556296D01*
X1371387Y556296D01*
X1371387Y556385D01*
X1372189D01*
X1372189Y556474D01*
X1374952D01*
Y556385D01*
D02*
G37*
G36*
X1559684D02*
X1560486D01*
X1560486Y556296D01*
X1561021Y556296D01*
Y556207D01*
X1561378D01*
Y556118D01*
X1561734D01*
Y556028D01*
X1562091D01*
Y555939D01*
X1562358D01*
Y555850D01*
X1562536Y555850D01*
Y555761D01*
X1562803D01*
Y555672D01*
X1562982Y555672D01*
Y555583D01*
X1563160D01*
Y555494D01*
X1563338D01*
X1563338Y555405D01*
X1563516D01*
Y555316D01*
X1563695Y555316D01*
X1563695Y555226D01*
X1563873D01*
X1563873Y555137D01*
X1563962D01*
Y555048D01*
X1564140Y555048D01*
Y554959D01*
X1564229Y554959D01*
Y554870D01*
X1564408D01*
X1564408Y554781D01*
X1564497Y554781D01*
Y554692D01*
X1564586D01*
X1564586Y554603D01*
X1564675D01*
Y554514D01*
X1564853D01*
X1564853Y554424D01*
X1564942Y554424D01*
X1564942Y554335D01*
X1565031Y554335D01*
Y554246D01*
X1565120D01*
Y554157D01*
X1565210Y554157D01*
X1565210Y554068D01*
X1565299Y554068D01*
Y553979D01*
X1565388D01*
Y553801D01*
X1565477D01*
Y553712D01*
X1565566Y553711D01*
X1565566Y553622D01*
X1565655D01*
Y553533D01*
X1565744Y553533D01*
X1565744Y553355D01*
X1565833D01*
Y553266D01*
X1565922D01*
Y553088D01*
X1566012D01*
X1566012Y552999D01*
X1566101D01*
Y552820D01*
X1566190D01*
Y552642D01*
X1566279D01*
X1566279Y552464D01*
X1566368Y552464D01*
Y552286D01*
X1566457Y552286D01*
X1566457Y552018D01*
X1566546Y552018D01*
Y551751D01*
X1566635D01*
Y551484D01*
X1566725D01*
X1566725Y551127D01*
X1566814D01*
Y550682D01*
X1566903Y550682D01*
Y549880D01*
X1566992D01*
Y548721D01*
X1566903Y548721D01*
Y547919D01*
X1566814D01*
X1566814Y547473D01*
X1566725Y547473D01*
X1566725Y547117D01*
X1566635Y547117D01*
X1566635Y546850D01*
X1566546D01*
X1566546Y546582D01*
X1566457D01*
X1566457Y546404D01*
X1566368D01*
X1566368Y546226D01*
X1566279D01*
Y546048D01*
X1566190D01*
Y545869D01*
X1566101D01*
X1566101Y545691D01*
X1566012Y545691D01*
Y545602D01*
X1565922Y545602D01*
Y545424D01*
X1565833Y545424D01*
Y545335D01*
X1565744D01*
X1565744Y545157D01*
X1565655D01*
Y545067D01*
X1565566Y545067D01*
Y544889D01*
X1565477D01*
Y544800D01*
X1565388D01*
X1565388Y544711D01*
X1565299Y544711D01*
Y544622D01*
X1565210D01*
X1565210Y544533D01*
X1565120D01*
Y544444D01*
X1565031D01*
Y544265D01*
X1564942D01*
X1564942Y544176D01*
X1564853D01*
Y544087D01*
X1564764D01*
Y543998D01*
X1564586D01*
X1564586Y543909D01*
X1564497D01*
Y543820D01*
X1564408Y543820D01*
Y543731D01*
X1564318Y543731D01*
Y543642D01*
X1564229D01*
Y543553D01*
X1564140D01*
X1564140Y543463D01*
X1563962D01*
X1563962Y543374D01*
X1563873Y543374D01*
X1563873Y543285D01*
X1563695D01*
Y543196D01*
X1563605D01*
Y543107D01*
X1563427D01*
X1563427Y543018D01*
X1563338D01*
X1563338Y542929D01*
X1563160D01*
Y542840D01*
X1563071D01*
X1563071Y542751D01*
X1562893D01*
Y542661D01*
X1562714D01*
Y542572D01*
X1562625D01*
Y542483D01*
X1562447D01*
X1562447Y542394D01*
X1562269D01*
Y542305D01*
X1562091Y542305D01*
X1562090Y542216D01*
X1561912Y542216D01*
X1561912Y542127D01*
X1561734Y542127D01*
Y542038D01*
X1561556D01*
X1561556Y541948D01*
X1561378D01*
Y541859D01*
X1561199Y541859D01*
Y541770D01*
X1561021Y541770D01*
Y541681D01*
X1560843D01*
Y541592D01*
X1560665Y541592D01*
Y541503D01*
X1560486D01*
X1560486Y541414D01*
X1560308D01*
X1560308Y541325D01*
X1560130D01*
Y541236D01*
X1559952D01*
X1559952Y541146D01*
X1559774D01*
X1559774Y541057D01*
X1559595D01*
Y540968D01*
X1559417Y540968D01*
Y540879D01*
X1559239D01*
X1559239Y540790D01*
X1559061D01*
Y540701D01*
X1558882Y540701D01*
Y540612D01*
X1558704D01*
X1558704Y540523D01*
X1558526D01*
Y540434D01*
X1558348D01*
Y540344D01*
X1558170Y540344D01*
X1558170Y540255D01*
X1558080Y540255D01*
X1558080Y540166D01*
X1557902D01*
Y540077D01*
X1557724D01*
Y539988D01*
X1557635D01*
Y539899D01*
X1557457Y539899D01*
X1557457Y539810D01*
X1557368Y539810D01*
Y539721D01*
X1557278Y539721D01*
Y539632D01*
X1557100D01*
X1557100Y539542D01*
X1557011D01*
X1557011Y539453D01*
X1556922D01*
Y539364D01*
X1556833Y539364D01*
X1556833Y539275D01*
X1556744D01*
Y539186D01*
X1556655D01*
Y539097D01*
X1556566D01*
X1556566Y539008D01*
X1556476Y539008D01*
X1556476Y538919D01*
X1556387D01*
X1556387Y538740D01*
X1556298Y538740D01*
Y538651D01*
X1556209D01*
Y538473D01*
X1556120D01*
Y538206D01*
X1556031Y538206D01*
Y537849D01*
X1555942D01*
Y537047D01*
X1556031Y537047D01*
Y536602D01*
X1556120D01*
Y536423D01*
X1556209Y536423D01*
Y536156D01*
X1556298D01*
X1556298Y536067D01*
X1556387D01*
Y535889D01*
X1556476D01*
X1556476Y535800D01*
X1556566D01*
X1556566Y535710D01*
X1556655D01*
Y535621D01*
X1556744D01*
Y535532D01*
X1556833Y535532D01*
X1556833Y535443D01*
X1557011D01*
X1557011Y535354D01*
X1557100Y535354D01*
Y535265D01*
X1557278D01*
Y535176D01*
X1557457D01*
Y535087D01*
X1557724D01*
Y534998D01*
X1557991Y534998D01*
Y534908D01*
X1558437D01*
Y534819D01*
X1559150D01*
Y534730D01*
X1560219D01*
Y534819D01*
X1561110D01*
Y534908D01*
X1561645D01*
Y534998D01*
X1562090Y534998D01*
X1562091Y535087D01*
X1562536D01*
Y535176D01*
X1562893Y535176D01*
Y535265D01*
X1563160Y535265D01*
X1563160Y535354D01*
X1563516D01*
Y535443D01*
X1563784D01*
X1563784Y535532D01*
X1564051D01*
X1564051Y535621D01*
X1564318D01*
Y535710D01*
X1564586D01*
Y535800D01*
X1564764D01*
X1564764Y535889D01*
X1565031D01*
X1565031Y535978D01*
X1565299D01*
X1565299Y536067D01*
X1565477D01*
Y536156D01*
X1565744D01*
Y536245D01*
X1565922Y536245D01*
Y536334D01*
X1566190D01*
Y536423D01*
X1566368Y536423D01*
Y536512D01*
X1566546Y536512D01*
Y536602D01*
X1566814Y536602D01*
Y536691D01*
X1566992D01*
Y536780D01*
X1567170D01*
Y536869D01*
X1567259Y536869D01*
X1567259Y531790D01*
X1567081D01*
Y531700D01*
X1566814D01*
Y531611D01*
X1566635Y531611D01*
X1566635Y531522D01*
X1566457Y531522D01*
Y531433D01*
X1566190Y531433D01*
Y531344D01*
X1566012D01*
Y531255D01*
X1565744Y531255D01*
X1565744Y531166D01*
X1565477D01*
Y531077D01*
X1565210D01*
X1565210Y530988D01*
X1564853D01*
X1564853Y530898D01*
X1564497D01*
Y530809D01*
X1564140D01*
Y530720D01*
X1563695D01*
X1563695Y530631D01*
X1563249D01*
Y530542D01*
X1562625D01*
X1562625Y530453D01*
X1561823D01*
X1561823Y530364D01*
X1558437D01*
X1558437Y530453D01*
X1557724D01*
Y530542D01*
X1557100D01*
X1557100Y530631D01*
X1556744D01*
Y530720D01*
X1556298D01*
Y530809D01*
X1556031D01*
Y530898D01*
X1555764D01*
Y530988D01*
X1555496D01*
X1555496Y531077D01*
X1555229D01*
X1555229Y531166D01*
X1555051Y531166D01*
X1555051Y531255D01*
X1554783Y531255D01*
Y531344D01*
X1554605D01*
Y531433D01*
X1554427D01*
Y531522D01*
X1554249D01*
X1554249Y531611D01*
X1554159Y531611D01*
Y531700D01*
X1553981D01*
Y531790D01*
X1553803Y531790D01*
Y531879D01*
X1553714Y531879D01*
Y531968D01*
X1553536D01*
X1553536Y532057D01*
X1553447D01*
X1553447Y532146D01*
X1553268D01*
Y532235D01*
X1553179D01*
Y532324D01*
X1553090D01*
X1553090Y532413D01*
X1553001D01*
X1553001Y532502D01*
X1552912Y532502D01*
X1552912Y532592D01*
X1552734D01*
Y532681D01*
X1552645Y532681D01*
X1552645Y532770D01*
X1552555D01*
Y532859D01*
X1552466D01*
X1552466Y532948D01*
X1552377Y532948D01*
Y533037D01*
X1552288Y533037D01*
Y533215D01*
X1552199D01*
Y533304D01*
X1552110Y533304D01*
Y533394D01*
X1552021Y533394D01*
Y533483D01*
X1551932D01*
Y533661D01*
X1551842D01*
X1551842Y533750D01*
X1551753D01*
X1551753Y533928D01*
X1551664D01*
Y534017D01*
X1551575D01*
Y534196D01*
X1551486D01*
Y534374D01*
X1551397Y534374D01*
Y534552D01*
X1551308D01*
Y534730D01*
X1551219D01*
X1551219Y534998D01*
X1551130D01*
Y535176D01*
X1551040Y535176D01*
Y535443D01*
X1550951D01*
X1550951Y535800D01*
X1550862D01*
Y536245D01*
X1550773Y536245D01*
Y536958D01*
X1550684D01*
Y538562D01*
X1550773D01*
Y539186D01*
X1550862D01*
Y539632D01*
X1550951D01*
Y539988D01*
X1551040Y539988D01*
Y540255D01*
X1551129Y540255D01*
Y540523D01*
X1551219Y540523D01*
Y540701D01*
X1551308D01*
Y540879D01*
X1551397D01*
Y541057D01*
X1551486D01*
X1551486Y541236D01*
X1551575Y541236D01*
X1551575Y541414D01*
X1551664D01*
Y541503D01*
X1551753D01*
Y541681D01*
X1551842Y541681D01*
Y541770D01*
X1551932D01*
Y541948D01*
X1552021D01*
Y542038D01*
X1552110D01*
Y542127D01*
X1552199Y542127D01*
Y542216D01*
X1552288D01*
X1552288Y542305D01*
X1552377D01*
X1552377Y542394D01*
X1552466D01*
Y542572D01*
X1552645D01*
Y542661D01*
X1552734D01*
X1552734Y542751D01*
X1552823D01*
X1552823Y542840D01*
X1552912D01*
X1552912Y542929D01*
X1553001D01*
X1553001Y543018D01*
X1553090D01*
Y543107D01*
X1553179D01*
Y543196D01*
X1553357Y543196D01*
Y543285D01*
X1553447D01*
X1553447Y543374D01*
X1553536D01*
X1553536Y543463D01*
X1553714D01*
Y543553D01*
X1553803D01*
Y543642D01*
X1553892D01*
Y543731D01*
X1554070Y543731D01*
Y543820D01*
X1554159Y543820D01*
Y543909D01*
X1554338D01*
X1554338Y543998D01*
X1554427Y543998D01*
Y544087D01*
X1554605D01*
Y544176D01*
X1554783D01*
Y544265D01*
X1554872D01*
X1554872Y544355D01*
X1555051D01*
X1555051Y544444D01*
X1555229D01*
X1555229Y544533D01*
X1555407D01*
Y544622D01*
X1555496Y544622D01*
Y544711D01*
X1555674D01*
Y544800D01*
X1555853D01*
Y544889D01*
X1556031D01*
Y544978D01*
X1556209Y544978D01*
Y545067D01*
X1556387D01*
Y545157D01*
X1556566D01*
Y545246D01*
X1556744D01*
Y545335D01*
X1556922D01*
Y545424D01*
X1557100D01*
Y545513D01*
X1557278D01*
Y545602D01*
X1557457D01*
Y545691D01*
X1557635D01*
Y545780D01*
X1557813D01*
X1557813Y545869D01*
X1557991D01*
X1557991Y545959D01*
X1558259D01*
Y546048D01*
X1558437D01*
X1558437Y546137D01*
X1558615D01*
Y546226D01*
X1558704D01*
Y546315D01*
X1558882D01*
Y546404D01*
X1559061D01*
X1559061Y546493D01*
X1559239D01*
Y546582D01*
X1559417D01*
Y546671D01*
X1559595D01*
Y546761D01*
X1559774D01*
Y546850D01*
X1559952D01*
Y546939D01*
X1560041Y546939D01*
Y547028D01*
X1560219D01*
Y547117D01*
X1560308D01*
Y547206D01*
X1560486D01*
X1560486Y547295D01*
X1560576Y547295D01*
Y547384D01*
X1560665D01*
Y547473D01*
X1560754Y547473D01*
Y547563D01*
X1560843D01*
X1560843Y547652D01*
X1561021D01*
Y547830D01*
X1561110Y547830D01*
Y547919D01*
X1561199D01*
Y548008D01*
X1561288D01*
X1561288Y548097D01*
X1561378D01*
Y548275D01*
X1561467D01*
X1561467Y548454D01*
X1561556Y548454D01*
X1561556Y548632D01*
X1561645D01*
Y548988D01*
X1561734D01*
Y549880D01*
X1561645D01*
Y550236D01*
X1561556Y550236D01*
Y550503D01*
X1561467D01*
Y550682D01*
X1561378Y550682D01*
Y550771D01*
X1561288Y550771D01*
Y550949D01*
X1561199D01*
Y551038D01*
X1561110D01*
X1561110Y551127D01*
X1561021D01*
Y551216D01*
X1560932D01*
Y551305D01*
X1560843D01*
Y551395D01*
X1560754D01*
Y551484D01*
X1560576D01*
X1560576Y551573D01*
X1560397Y551573D01*
Y551662D01*
X1560219D01*
Y551751D01*
X1560041D01*
Y551840D01*
X1559774D01*
Y551929D01*
X1559328D01*
Y552018D01*
X1557457Y552018D01*
Y551929D01*
X1556833Y551929D01*
X1556833Y551840D01*
X1556387Y551840D01*
Y551751D01*
X1555942D01*
Y551662D01*
X1555585D01*
Y551573D01*
X1555318D01*
Y551484D01*
X1555051D01*
X1555051Y551395D01*
X1554783D01*
Y551305D01*
X1554516Y551305D01*
X1554516Y551216D01*
X1554249D01*
X1554249Y551127D01*
X1553981D01*
Y551038D01*
X1553714D01*
Y550949D01*
X1553536Y550949D01*
X1553536Y550860D01*
X1553268D01*
Y550771D01*
X1553001D01*
Y550682D01*
X1552823Y550682D01*
X1552823Y550592D01*
X1552645D01*
Y550503D01*
X1552555D01*
Y550592D01*
X1552466Y550592D01*
Y550860D01*
X1552377D01*
Y551038D01*
X1552288D01*
X1552288Y551216D01*
X1552199D01*
Y551484D01*
X1552110D01*
X1552110Y551662D01*
X1552021Y551662D01*
Y551929D01*
X1551932Y551929D01*
Y552107D01*
X1551842D01*
X1551842Y552286D01*
X1551753Y552286D01*
X1551753Y552553D01*
X1551664D01*
Y552731D01*
X1551575D01*
X1551575Y552999D01*
X1551486D01*
X1551486Y553177D01*
X1551397D01*
X1551397Y553355D01*
X1551308D01*
Y553622D01*
X1551219Y553622D01*
X1551219Y553801D01*
X1551130Y553801D01*
Y554068D01*
X1551040Y554068D01*
X1551040Y554246D01*
X1550951D01*
X1550951Y554424D01*
X1550862D01*
Y554781D01*
X1551040Y554781D01*
X1551040Y554870D01*
X1551308D01*
Y554959D01*
X1551486D01*
X1551486Y555048D01*
X1551753D01*
Y555137D01*
X1551932D01*
X1551932Y555226D01*
X1552199D01*
X1552199Y555316D01*
X1552466D01*
X1552466Y555405D01*
X1552645D01*
X1552645Y555494D01*
X1552912D01*
Y555583D01*
X1553179D01*
Y555672D01*
X1553447D01*
X1553447Y555761D01*
X1553803Y555761D01*
Y555850D01*
X1554070Y555850D01*
Y555939D01*
X1554427Y555939D01*
Y556029D01*
X1554783Y556028D01*
Y556118D01*
X1555140D01*
Y556207D01*
X1555585D01*
X1555585Y556296D01*
X1556209D01*
Y556385D01*
X1556922D01*
Y556474D01*
X1559684D01*
X1559684Y556385D01*
D02*
G37*
G36*
X1535356Y556563D02*
X1535356Y556474D01*
X1536960D01*
Y556385D01*
X1537673D01*
X1537673Y556296D01*
X1538208D01*
Y556207D01*
X1538654D01*
Y556118D01*
X1539010D01*
X1539010Y556028D01*
X1539367D01*
Y555939D01*
X1539634Y555939D01*
X1539634Y555850D01*
X1539901Y555850D01*
Y555761D01*
X1540169D01*
Y555672D01*
X1540436Y555672D01*
Y555583D01*
X1540614D01*
Y555494D01*
X1540792Y555494D01*
Y555405D01*
X1541060D01*
Y555316D01*
X1541238D01*
Y555226D01*
X1541416D01*
X1541416Y555137D01*
X1541505D01*
Y555048D01*
X1541684Y555048D01*
Y554959D01*
X1541862D01*
Y554870D01*
X1542040D01*
Y554781D01*
X1542129Y554781D01*
Y554692D01*
X1542307D01*
X1542307Y554603D01*
X1542397D01*
X1542396Y554514D01*
X1542575Y554513D01*
X1542575Y554424D01*
X1542664Y554424D01*
X1542664Y554335D01*
X1542842D01*
Y554246D01*
X1542931D01*
Y554157D01*
X1543020Y554157D01*
X1543020Y554068D01*
X1543109Y554068D01*
Y553979D01*
X1543288D01*
Y553890D01*
X1543377D01*
Y553801D01*
X1543466D01*
Y553711D01*
X1543555Y553712D01*
Y553622D01*
X1543644Y553622D01*
Y553533D01*
X1543733D01*
Y553444D01*
X1543822D01*
Y553355D01*
X1543911D01*
Y553266D01*
X1544001D01*
X1544001Y553177D01*
X1544090D01*
Y553088D01*
X1544179D01*
Y552999D01*
X1544268D01*
Y552909D01*
X1544357D01*
Y552820D01*
X1544446D01*
Y552642D01*
X1544535Y552642D01*
X1544535Y552553D01*
X1544624Y552553D01*
X1544624Y552464D01*
X1544713Y552464D01*
Y552286D01*
X1544803Y552286D01*
X1544803Y552197D01*
X1544892Y552197D01*
X1544892Y552107D01*
X1544981D01*
Y551929D01*
X1545070Y551929D01*
Y551840D01*
X1545159Y551840D01*
Y551662D01*
X1545248D01*
Y551484D01*
X1545337D01*
X1545337Y551395D01*
X1545426D01*
Y551216D01*
X1545515D01*
X1545515Y551038D01*
X1545605Y551038D01*
Y550860D01*
X1545694Y550860D01*
Y550682D01*
X1545783D01*
Y550503D01*
X1545872D01*
Y550325D01*
X1545961D01*
Y550147D01*
X1546050D01*
Y549880D01*
X1546139D01*
X1546139Y549701D01*
X1546228D01*
Y549434D01*
X1546317D01*
Y549167D01*
X1546407Y549167D01*
X1546407Y548899D01*
X1546496D01*
Y548632D01*
X1546585D01*
Y548275D01*
X1546674D01*
X1546674Y547919D01*
X1546763D01*
Y547473D01*
X1546852D01*
X1546852Y547028D01*
X1546941D01*
Y546404D01*
X1547030D01*
Y545602D01*
X1547119Y545602D01*
Y543909D01*
X1547209D01*
Y543107D01*
X1547119D01*
Y541325D01*
X1547030D01*
Y540523D01*
X1546941D01*
Y539988D01*
X1546852Y539988D01*
X1546852Y539453D01*
X1546763D01*
Y539008D01*
X1546674D01*
X1546674Y538651D01*
X1546585D01*
Y538295D01*
X1546496D01*
X1546496Y538027D01*
X1546407Y538027D01*
X1546407Y537760D01*
X1546317D01*
Y537493D01*
X1546228D01*
Y537225D01*
X1546139D01*
X1546139Y537047D01*
X1546050Y537047D01*
Y536780D01*
X1545961D01*
Y536602D01*
X1545872Y536602D01*
Y536423D01*
X1545783Y536423D01*
Y536245D01*
X1545694Y536245D01*
Y536067D01*
X1545605D01*
X1545605Y535889D01*
X1545515D01*
Y535710D01*
X1545426D01*
Y535532D01*
X1545337D01*
Y535354D01*
X1545248Y535354D01*
Y535265D01*
X1545159Y535265D01*
Y535087D01*
X1545070D01*
Y534998D01*
X1544981D01*
X1544981Y534819D01*
X1544892D01*
Y534730D01*
X1544803D01*
Y534552D01*
X1544713D01*
Y534463D01*
X1544624D01*
X1544624Y534374D01*
X1544535Y534374D01*
Y534196D01*
X1544446D01*
Y534106D01*
X1544357D01*
Y534017D01*
X1544268D01*
Y533928D01*
X1544179D01*
X1544179Y533839D01*
X1544090D01*
Y533750D01*
X1544001D01*
Y533572D01*
X1543911D01*
X1543911Y533483D01*
X1543822Y533483D01*
Y533394D01*
X1543733Y533394D01*
Y533304D01*
X1543644Y533304D01*
Y533215D01*
X1543466D01*
Y533126D01*
X1543377D01*
X1543377Y533037D01*
X1543288Y533037D01*
X1543288Y532948D01*
X1543199Y532948D01*
Y532859D01*
X1543109D01*
Y532770D01*
X1543020Y532770D01*
Y532681D01*
X1542842D01*
Y532592D01*
X1542753D01*
Y532502D01*
X1542664D01*
X1542664Y532413D01*
X1542486D01*
X1542486Y532324D01*
X1542396D01*
Y532235D01*
X1542218Y532235D01*
Y532146D01*
X1542129Y532146D01*
Y532057D01*
X1541951D01*
X1541951Y531968D01*
X1541773D01*
Y531879D01*
X1541684Y531879D01*
Y531790D01*
X1541505D01*
X1541505Y531700D01*
X1541327Y531700D01*
Y531611D01*
X1541149Y531611D01*
Y531522D01*
X1540971D01*
Y531433D01*
X1540792D01*
Y531344D01*
X1540525D01*
Y531255D01*
X1540347Y531255D01*
Y531166D01*
X1540079Y531166D01*
Y531077D01*
X1539812D01*
X1539812Y530988D01*
X1539545D01*
Y530898D01*
X1539277D01*
Y530809D01*
X1538921D01*
Y530720D01*
X1538475D01*
Y530631D01*
X1538030D01*
X1538030Y530542D01*
X1537495D01*
Y530453D01*
X1536693D01*
X1536693Y530364D01*
X1533396D01*
Y530453D01*
X1532594D01*
X1532594Y530542D01*
X1532059D01*
Y530631D01*
X1531614D01*
Y530720D01*
X1531257D01*
Y530809D01*
X1530901D01*
Y530898D01*
X1530544D01*
Y530988D01*
X1530277D01*
X1530277Y531077D01*
X1530010D01*
Y531166D01*
X1529831Y531166D01*
X1529831Y531255D01*
X1529564D01*
Y531344D01*
X1529386D01*
X1529386Y531433D01*
X1529208Y531433D01*
X1529208Y531522D01*
X1528940D01*
Y531611D01*
X1528762Y531611D01*
Y531700D01*
X1528673D01*
Y531790D01*
X1528495D01*
Y531879D01*
X1528316Y531879D01*
Y531968D01*
X1528138D01*
Y532057D01*
X1528049Y532057D01*
Y532146D01*
X1527871D01*
X1527871Y532235D01*
X1527782D01*
Y532324D01*
X1527603D01*
Y532413D01*
X1527514D01*
Y532502D01*
X1527336D01*
X1527336Y532592D01*
X1527247D01*
X1527247Y532681D01*
X1527158D01*
Y532770D01*
X1527069D01*
X1527069Y532859D01*
X1526891D01*
X1526891Y532948D01*
X1526801Y532948D01*
Y533037D01*
X1526712Y533037D01*
Y533126D01*
X1526623Y533126D01*
Y533215D01*
X1526534D01*
Y533304D01*
X1526445Y533304D01*
Y533394D01*
X1526356Y533394D01*
Y533483D01*
X1526267Y533483D01*
Y533572D01*
X1526178D01*
Y533661D01*
X1526089D01*
X1526089Y533750D01*
X1525999D01*
Y533839D01*
X1525910D01*
Y533928D01*
X1525821D01*
X1525821Y534017D01*
X1525732D01*
Y534196D01*
X1525643D01*
Y534285D01*
X1525554D01*
Y534374D01*
X1525465D01*
X1525465Y534463D01*
X1525376D01*
Y534641D01*
X1525287Y534641D01*
Y534730D01*
X1525197Y534730D01*
Y534908D01*
X1525108D01*
X1525108Y534998D01*
X1525019D01*
Y535176D01*
X1524930Y535176D01*
Y535265D01*
X1524841Y535265D01*
Y535443D01*
X1524752D01*
X1524752Y535621D01*
X1524663D01*
X1524663Y535800D01*
X1524574D01*
Y535889D01*
X1524485D01*
X1524485Y536067D01*
X1524395D01*
Y536245D01*
X1524306D01*
Y536423D01*
X1524217D01*
X1524217Y536691D01*
X1524128D01*
X1524128Y536869D01*
X1524039Y536869D01*
Y537047D01*
X1523950Y537047D01*
Y537314D01*
X1523861D01*
X1523861Y537582D01*
X1523772D01*
Y537849D01*
X1523683D01*
Y538117D01*
X1523593D01*
Y538473D01*
X1523504D01*
X1523504Y538829D01*
X1523415D01*
X1523415Y539186D01*
X1523326D01*
Y539632D01*
X1523237D01*
X1523237Y540166D01*
X1523148D01*
X1523148Y540790D01*
X1523059D01*
Y541681D01*
X1522970D01*
Y545157D01*
X1523059D01*
Y546137D01*
X1523148D01*
Y546761D01*
X1523237Y546761D01*
Y547295D01*
X1523326Y547295D01*
Y547741D01*
X1523415D01*
X1523415Y548097D01*
X1523504D01*
Y548454D01*
X1523593D01*
X1523593Y548810D01*
X1523683D01*
Y549077D01*
X1523772D01*
Y549345D01*
X1523861Y549345D01*
Y549612D01*
X1523950D01*
Y549790D01*
X1524039D01*
Y550058D01*
X1524128D01*
Y550236D01*
X1524217D01*
Y550414D01*
X1524306Y550414D01*
Y550592D01*
X1524395D01*
Y550771D01*
X1524485Y550771D01*
Y550949D01*
X1524574Y550949D01*
Y551127D01*
X1524663D01*
Y551305D01*
X1524752D01*
Y551484D01*
X1524841D01*
Y551573D01*
X1524930D01*
X1524930Y551751D01*
X1525019D01*
X1525019Y551929D01*
X1525108D01*
X1525108Y552018D01*
X1525197D01*
Y552197D01*
X1525287D01*
Y552286D01*
X1525376Y552286D01*
Y552375D01*
X1525465D01*
Y552553D01*
X1525554D01*
Y552642D01*
X1525643D01*
Y552731D01*
X1525732D01*
X1525732Y552820D01*
X1525821D01*
Y552999D01*
X1525910D01*
Y553088D01*
X1525999D01*
Y553177D01*
X1526089D01*
Y553266D01*
X1526178D01*
Y553355D01*
X1526267D01*
Y553444D01*
X1526356D01*
Y553533D01*
X1526445D01*
Y553622D01*
X1526534D01*
Y553712D01*
X1526623D01*
Y553801D01*
X1526712Y553801D01*
Y553890D01*
X1526801D01*
Y553979D01*
X1526980D01*
Y554068D01*
X1527069D01*
Y554157D01*
X1527158D01*
Y554246D01*
X1527247Y554246D01*
Y554335D01*
X1527425D01*
Y554424D01*
X1527514D01*
X1527514Y554514D01*
X1527693D01*
Y554603D01*
X1527782D01*
X1527782Y554692D01*
X1527960D01*
X1527960Y554781D01*
X1528049D01*
X1528049Y554870D01*
X1528227D01*
Y554959D01*
X1528406D01*
Y555048D01*
X1528495D01*
X1528495Y555137D01*
X1528673D01*
Y555226D01*
X1528851D01*
X1528851Y555316D01*
X1529029D01*
Y555405D01*
X1529297D01*
Y555494D01*
X1529475Y555494D01*
Y555583D01*
X1529653D01*
Y555672D01*
X1529921Y555672D01*
Y555761D01*
X1530188D01*
Y555850D01*
X1530455D01*
Y555939D01*
X1530723Y555939D01*
X1530723Y556029D01*
X1531079D01*
Y556118D01*
X1531435D01*
Y556207D01*
X1531881D01*
Y556296D01*
X1532416Y556296D01*
Y556385D01*
X1533129D01*
X1533129Y556474D01*
X1534733D01*
Y556563D01*
X1535356Y556563D01*
D02*
G37*
G36*
X1427618Y556474D02*
X1429222D01*
Y556385D01*
X1429935D01*
Y556296D01*
X1430470D01*
X1430470Y556207D01*
X1430915D01*
X1430915Y556118D01*
X1431361D01*
Y556028D01*
X1431628Y556028D01*
Y555939D01*
X1431985Y555939D01*
X1431985Y555850D01*
X1432252D01*
Y555761D01*
X1432519D01*
X1432519Y555672D01*
X1432697Y555672D01*
X1432697Y555583D01*
X1432965D01*
Y555494D01*
X1433143Y555494D01*
Y555405D01*
X1433321Y555405D01*
Y555316D01*
X1433499Y555316D01*
Y555226D01*
X1433678D01*
Y555137D01*
X1433856D01*
Y555048D01*
X1434034Y555048D01*
Y554959D01*
X1434212D01*
Y554870D01*
X1434391D01*
X1434391Y554781D01*
X1434480D01*
Y554692D01*
X1434658D01*
Y554603D01*
X1434747D01*
Y554514D01*
X1434925D01*
Y554424D01*
X1435014Y554424D01*
Y554335D01*
X1435104Y554335D01*
Y554246D01*
X1435282D01*
X1435282Y554157D01*
X1435371D01*
Y554068D01*
X1435460D01*
Y553979D01*
X1435549D01*
Y553890D01*
X1435727D01*
Y553801D01*
X1435816Y553801D01*
X1435816Y553712D01*
X1435906D01*
Y553622D01*
X1435995Y553622D01*
Y553533D01*
X1436084Y553533D01*
Y553444D01*
X1436173D01*
Y553355D01*
X1436262D01*
X1436262Y553266D01*
X1436351D01*
Y553177D01*
X1436440Y553177D01*
X1436440Y553088D01*
X1436529D01*
Y552999D01*
X1436618D01*
X1436618Y552820D01*
X1436708Y552820D01*
Y552731D01*
X1436797D01*
X1436797Y552642D01*
X1436886D01*
X1436886Y552553D01*
X1436975D01*
Y552375D01*
X1437064D01*
Y552286D01*
X1437153D01*
X1437153Y552197D01*
X1437242D01*
Y552018D01*
X1437331D01*
Y551929D01*
X1437421Y551929D01*
Y551751D01*
X1437510D01*
X1437510Y551662D01*
X1437599D01*
Y551484D01*
X1437688D01*
Y551305D01*
X1437777D01*
X1437777Y551216D01*
X1437866Y551216D01*
Y551038D01*
X1437955D01*
Y550860D01*
X1438044D01*
Y550682D01*
X1438133Y550682D01*
Y550503D01*
X1438223D01*
Y550236D01*
X1438312Y550236D01*
Y550058D01*
X1438401Y550058D01*
Y549880D01*
X1438490D01*
X1438490Y549612D01*
X1438579D01*
Y549345D01*
X1438668Y549345D01*
Y549077D01*
X1438757D01*
X1438757Y548810D01*
X1438846D01*
Y548543D01*
X1438936D01*
X1438935Y548186D01*
X1439025D01*
X1439025Y547830D01*
X1439114D01*
Y547384D01*
X1439203D01*
Y546850D01*
X1439292D01*
Y546226D01*
X1439381Y546226D01*
X1439381Y545335D01*
X1439470D01*
Y541592D01*
X1439381Y541592D01*
Y540701D01*
X1439292D01*
X1439292Y540077D01*
X1439203Y540077D01*
Y539542D01*
X1439114D01*
Y539186D01*
X1439025D01*
X1439025Y538740D01*
X1438935Y538740D01*
X1438936Y538384D01*
X1438846Y538384D01*
Y538117D01*
X1438757D01*
Y537849D01*
X1438668Y537849D01*
Y537582D01*
X1438579Y537582D01*
X1438579Y537314D01*
X1438490D01*
Y537047D01*
X1438401Y537047D01*
Y536869D01*
X1438312Y536869D01*
Y536602D01*
X1438223Y536602D01*
Y536423D01*
X1438133D01*
Y536245D01*
X1438044D01*
Y536067D01*
X1437955D01*
Y535889D01*
X1437866Y535889D01*
X1437866Y535710D01*
X1437777D01*
X1437777Y535621D01*
X1437688D01*
X1437688Y535443D01*
X1437599D01*
Y535265D01*
X1437510D01*
X1437510Y535176D01*
X1437421Y535176D01*
Y534998D01*
X1437331D01*
Y534819D01*
X1437242D01*
Y534730D01*
X1437153D01*
Y534641D01*
X1437064D01*
Y534463D01*
X1436975Y534463D01*
Y534374D01*
X1436886D01*
X1436886Y534285D01*
X1436797D01*
X1436797Y534106D01*
X1436708D01*
Y534017D01*
X1436618D01*
Y533928D01*
X1436529D01*
Y533839D01*
X1436440D01*
Y533750D01*
X1436351D01*
Y533661D01*
X1436262D01*
X1436262Y533572D01*
X1436173D01*
Y533483D01*
X1436084Y533483D01*
X1436084Y533394D01*
X1435995Y533394D01*
Y533304D01*
X1435906Y533304D01*
X1435906Y533215D01*
X1435816D01*
X1435816Y533126D01*
X1435727Y533126D01*
Y533037D01*
X1435638D01*
Y532948D01*
X1435549D01*
Y532859D01*
X1435460Y532859D01*
X1435460Y532770D01*
X1435282D01*
X1435282Y532681D01*
X1435193D01*
Y532592D01*
X1435103D01*
X1435104Y532502D01*
X1434925D01*
X1434925Y532413D01*
X1434836D01*
X1434836Y532324D01*
X1434747D01*
X1434747Y532235D01*
X1434569D01*
X1434569Y532146D01*
X1434391D01*
X1434391Y532057D01*
X1434301D01*
X1434301Y531968D01*
X1434123D01*
Y531879D01*
X1433945Y531879D01*
X1433945Y531790D01*
X1433856Y531790D01*
Y531700D01*
X1433678D01*
Y531611D01*
X1433499Y531611D01*
Y531522D01*
X1433321D01*
Y531433D01*
X1433054D01*
X1433054Y531344D01*
X1432876D01*
Y531255D01*
X1432697Y531255D01*
Y531166D01*
X1432430D01*
X1432430Y531077D01*
X1432163D01*
Y530988D01*
X1431895D01*
X1431895Y530898D01*
X1431539D01*
Y530809D01*
X1431272D01*
X1431272Y530720D01*
X1430826D01*
X1430826Y530631D01*
X1430381D01*
Y530542D01*
X1429846D01*
Y530453D01*
X1429044D01*
X1429044Y530364D01*
X1425747D01*
Y530453D01*
X1424945D01*
X1424945Y530542D01*
X1424410D01*
Y530631D01*
X1423964D01*
X1423964Y530720D01*
X1423519D01*
X1423519Y530809D01*
X1423162D01*
X1423162Y530898D01*
X1422895D01*
Y530988D01*
X1422628D01*
Y531077D01*
X1422360D01*
X1422360Y531166D01*
X1422093Y531166D01*
Y531255D01*
X1421915D01*
Y531344D01*
X1421736D01*
Y531433D01*
X1421469Y531433D01*
X1421469Y531522D01*
X1421291D01*
Y531611D01*
X1421113Y531611D01*
X1421113Y531700D01*
X1420934D01*
Y531790D01*
X1420756D01*
Y531879D01*
X1420667Y531879D01*
Y531968D01*
X1420489D01*
Y532057D01*
X1420311D01*
Y532146D01*
X1420222D01*
X1420222Y532235D01*
X1420043D01*
Y532324D01*
X1419954D01*
Y532413D01*
X1419776D01*
X1419776Y532502D01*
X1419687D01*
Y532592D01*
X1419598Y532592D01*
Y532681D01*
X1419420D01*
Y532770D01*
X1419330Y532770D01*
Y532859D01*
X1419241D01*
Y532948D01*
X1419152Y532948D01*
Y533037D01*
X1419063Y533037D01*
Y533126D01*
X1418974D01*
Y533215D01*
X1418885D01*
Y533304D01*
X1418796Y533304D01*
Y533394D01*
X1418707D01*
X1418707Y533483D01*
X1418618Y533483D01*
Y533572D01*
X1418528D01*
X1418528Y533661D01*
X1418439D01*
Y533750D01*
X1418350D01*
Y533839D01*
X1418261D01*
X1418261Y533928D01*
X1418172D01*
X1418172Y534017D01*
X1418083D01*
Y534106D01*
X1417994D01*
Y534285D01*
X1417905D01*
X1417905Y534374D01*
X1417816D01*
Y534463D01*
X1417726Y534463D01*
Y534552D01*
X1417637Y534552D01*
Y534730D01*
X1417548Y534730D01*
Y534819D01*
X1417459D01*
Y534998D01*
X1417370Y534998D01*
Y535087D01*
X1417281D01*
Y535265D01*
X1417192D01*
Y535443D01*
X1417103D01*
X1417103Y535532D01*
X1417014D01*
Y535710D01*
X1416924D01*
X1416924Y535889D01*
X1416835D01*
Y536067D01*
X1416746D01*
Y536245D01*
X1416657Y536245D01*
Y536423D01*
X1416568D01*
Y536602D01*
X1416479D01*
X1416479Y536780D01*
X1416390D01*
Y537047D01*
X1416301Y537047D01*
Y537225D01*
X1416212Y537225D01*
Y537493D01*
X1416122D01*
X1416122Y537760D01*
X1416033D01*
Y538027D01*
X1415944Y538027D01*
Y538384D01*
X1415855Y538384D01*
Y538740D01*
X1415766Y538740D01*
X1415766Y539097D01*
X1415677D01*
Y539542D01*
X1415588D01*
Y539988D01*
X1415499Y539988D01*
Y540612D01*
X1415409Y540612D01*
X1415409Y541414D01*
X1415320D01*
X1415320Y545424D01*
X1415409Y545424D01*
Y546315D01*
X1415499D01*
X1415499Y546939D01*
X1415588Y546939D01*
Y547384D01*
X1415677Y547384D01*
Y547830D01*
X1415766D01*
X1415766Y548186D01*
X1415855D01*
Y548543D01*
X1415944D01*
Y548810D01*
X1416033D01*
X1416033Y549167D01*
X1416122D01*
Y549434D01*
X1416212D01*
Y549612D01*
X1416301D01*
X1416301Y549880D01*
X1416390D01*
Y550058D01*
X1416479D01*
X1416479Y550325D01*
X1416568D01*
Y550503D01*
X1416657D01*
Y550682D01*
X1416746Y550682D01*
Y550860D01*
X1416835D01*
Y551038D01*
X1416924D01*
Y551216D01*
X1417014D01*
Y551395D01*
X1417103D01*
X1417103Y551484D01*
X1417192D01*
Y551662D01*
X1417281Y551662D01*
X1417281Y551751D01*
X1417370D01*
Y551929D01*
X1417459D01*
Y552107D01*
X1417548D01*
Y552197D01*
X1417637Y552197D01*
X1417637Y552286D01*
X1417726D01*
Y552464D01*
X1417816Y552464D01*
Y552553D01*
X1417905D01*
Y552642D01*
X1417994D01*
X1417994Y552820D01*
X1418083D01*
Y552909D01*
X1418172D01*
X1418172Y552999D01*
X1418261D01*
Y553088D01*
X1418350D01*
Y553177D01*
X1418439D01*
Y553266D01*
X1418528D01*
X1418528Y553355D01*
X1418618D01*
Y553444D01*
X1418707Y553444D01*
Y553533D01*
X1418796D01*
Y553622D01*
X1418885D01*
Y553712D01*
X1418974Y553711D01*
X1418974Y553801D01*
X1419063D01*
Y553890D01*
X1419152Y553890D01*
Y553979D01*
X1419241D01*
Y554068D01*
X1419420Y554068D01*
Y554157D01*
X1419509D01*
X1419509Y554246D01*
X1419598D01*
X1419598Y554335D01*
X1419776D01*
X1419776Y554424D01*
X1419865Y554424D01*
Y554514D01*
X1419954D01*
Y554603D01*
X1420132D01*
X1420132Y554692D01*
X1420222D01*
X1420222Y554781D01*
X1420400D01*
X1420400Y554870D01*
X1420578D01*
Y554959D01*
X1420667Y554959D01*
Y555048D01*
X1420845D01*
Y555137D01*
X1421024D01*
Y555226D01*
X1421202D01*
X1421202Y555316D01*
X1421380Y555316D01*
Y555405D01*
X1421558Y555405D01*
Y555494D01*
X1421826D01*
Y555583D01*
X1422004D01*
X1422004Y555672D01*
X1422271D01*
X1422271Y555761D01*
X1422538D01*
Y555850D01*
X1422806D01*
Y555939D01*
X1423073Y555939D01*
X1423073Y556028D01*
X1423430D01*
Y556118D01*
X1423786D01*
Y556207D01*
X1424232D01*
X1424232Y556296D01*
X1424766D01*
X1424766Y556385D01*
X1425479Y556385D01*
X1425479Y556474D01*
X1427083D01*
X1427083Y556563D01*
X1427618D01*
X1427618Y556474D01*
D02*
G37*
G36*
X1409973Y530720D02*
X1405161D01*
Y544265D01*
X1405251D01*
X1405251Y546315D01*
X1405340D01*
Y548008D01*
X1405429D01*
X1405429Y549434D01*
X1405518D01*
Y549969D01*
X1405340Y549969D01*
Y549880D01*
X1405251D01*
Y549701D01*
X1405161Y549701D01*
Y549612D01*
X1405072Y549612D01*
Y549434D01*
X1404983D01*
X1404983Y549256D01*
X1404894D01*
X1404894Y549077D01*
X1404805D01*
X1404805Y548988D01*
X1404716Y548988D01*
Y548810D01*
X1404627Y548810D01*
Y548632D01*
X1404538D01*
Y548543D01*
X1404448Y548543D01*
Y548365D01*
X1404359Y548365D01*
X1404359Y548186D01*
X1404270D01*
Y548008D01*
X1404181D01*
Y547919D01*
X1404092D01*
Y547741D01*
X1404003D01*
Y547563D01*
X1403914Y547563D01*
Y547384D01*
X1403825D01*
X1403825Y547295D01*
X1403736D01*
X1403736Y547117D01*
X1403646D01*
Y546939D01*
X1403557Y546939D01*
X1403557Y546761D01*
X1403468Y546761D01*
Y546671D01*
X1403379D01*
Y546493D01*
X1403290D01*
Y546315D01*
X1403201D01*
Y546137D01*
X1403112D01*
X1403112Y546048D01*
X1403023D01*
Y545869D01*
X1402934D01*
X1402934Y545691D01*
X1402844Y545691D01*
X1402844Y545513D01*
X1402755Y545513D01*
Y545424D01*
X1402666D01*
Y545246D01*
X1402577D01*
Y545067D01*
X1402488D01*
X1402488Y544978D01*
X1402399Y544978D01*
Y544800D01*
X1402310D01*
X1402310Y544622D01*
X1402221D01*
Y544444D01*
X1402132Y544444D01*
Y544355D01*
X1402042D01*
Y544176D01*
X1401953D01*
Y543998D01*
X1401864Y543998D01*
Y543820D01*
X1401775Y543820D01*
Y543731D01*
X1401686D01*
Y543553D01*
X1401597D01*
Y543374D01*
X1401508Y543374D01*
X1401508Y543196D01*
X1401419D01*
Y543107D01*
X1401329Y543107D01*
X1401329Y542929D01*
X1401240D01*
X1401240Y542751D01*
X1401151D01*
Y542572D01*
X1401062D01*
Y542483D01*
X1400973D01*
Y542305D01*
X1400884D01*
X1400884Y542127D01*
X1400795D01*
Y542038D01*
X1400706D01*
X1400706Y541859D01*
X1400617Y541859D01*
Y541681D01*
X1400527Y541681D01*
Y541503D01*
X1400438Y541503D01*
X1400438Y541414D01*
X1400349D01*
Y541236D01*
X1400260Y541236D01*
Y541057D01*
X1400171D01*
Y540879D01*
X1400082D01*
Y540790D01*
X1399993D01*
Y540612D01*
X1399904D01*
Y540434D01*
X1399814Y540434D01*
X1399815Y540255D01*
X1399725Y540255D01*
Y540166D01*
X1399636D01*
X1399636Y539988D01*
X1399547Y539988D01*
Y539810D01*
X1399458Y539810D01*
Y539632D01*
X1399369Y539632D01*
Y539542D01*
X1399280D01*
Y539364D01*
X1399191D01*
Y539186D01*
X1399102D01*
X1399102Y539008D01*
X1399012Y539008D01*
X1399012Y538919D01*
X1398923D01*
Y538740D01*
X1398834Y538740D01*
Y538562D01*
X1398745D01*
Y538473D01*
X1398656D01*
Y538295D01*
X1398567D01*
Y538117D01*
X1398478D01*
X1398478Y537938D01*
X1398389D01*
Y537849D01*
X1398300Y537849D01*
Y537671D01*
X1398210D01*
X1398210Y537493D01*
X1398121D01*
Y537314D01*
X1398032D01*
X1398032Y537225D01*
X1397943D01*
Y537047D01*
X1397854Y537047D01*
X1397854Y536869D01*
X1397765Y536869D01*
Y536691D01*
X1397676D01*
Y536602D01*
X1397587D01*
X1397587Y536423D01*
X1397498D01*
Y536245D01*
X1397408D01*
X1397408Y536067D01*
X1397319D01*
Y535978D01*
X1397230D01*
X1397230Y535800D01*
X1397141D01*
X1397141Y535621D01*
X1397052Y535621D01*
Y535443D01*
X1396963D01*
Y535354D01*
X1396874Y535354D01*
Y535176D01*
X1396785D01*
Y534998D01*
X1396696D01*
Y534908D01*
X1396606Y534908D01*
Y534730D01*
X1396517D01*
Y534552D01*
X1396428Y534552D01*
Y534374D01*
X1396339Y534374D01*
Y534285D01*
X1396250Y534285D01*
Y534106D01*
X1396161D01*
Y533928D01*
X1396072D01*
X1396072Y533750D01*
X1395983D01*
X1395983Y533661D01*
X1395894Y533661D01*
Y533483D01*
X1395804D01*
Y533304D01*
X1395715D01*
X1395715Y533126D01*
X1395626Y533126D01*
Y533037D01*
X1395537Y533037D01*
X1395537Y532859D01*
X1395448D01*
Y532681D01*
X1395359Y532681D01*
Y532502D01*
X1395270D01*
Y532413D01*
X1395181D01*
Y532235D01*
X1395092Y532235D01*
Y532057D01*
X1395002D01*
X1395002Y531879D01*
X1394913D01*
Y531790D01*
X1394824D01*
Y531611D01*
X1394735Y531611D01*
X1394735Y531433D01*
X1394646Y531433D01*
Y531344D01*
X1394557D01*
X1394557Y531166D01*
X1394468D01*
Y530988D01*
X1394379D01*
X1394379Y530809D01*
X1394290D01*
Y530720D01*
X1387428D01*
Y556118D01*
X1392240D01*
Y552197D01*
Y552107D01*
Y542483D01*
X1392151Y542483D01*
X1392151Y540077D01*
X1392062Y540077D01*
Y538206D01*
X1391973Y538206D01*
Y537047D01*
X1392151Y537047D01*
Y537225D01*
X1392240Y537225D01*
X1392240Y537314D01*
X1392329D01*
Y537493D01*
X1392418Y537493D01*
X1392418Y537671D01*
X1392507D01*
X1392507Y537849D01*
X1392596Y537849D01*
X1392596Y537938D01*
X1392686D01*
Y538117D01*
X1392775D01*
Y538295D01*
X1392864D01*
Y538473D01*
X1392953D01*
X1392953Y538562D01*
X1393042D01*
Y538740D01*
X1393131D01*
Y538919D01*
X1393220D01*
Y539008D01*
X1393309Y539008D01*
Y539186D01*
X1393398D01*
X1393398Y539364D01*
X1393488Y539364D01*
Y539542D01*
X1393577D01*
X1393577Y539632D01*
X1393666D01*
Y539810D01*
X1393755D01*
Y539988D01*
X1393844D01*
X1393844Y540166D01*
X1393933D01*
X1393933Y540255D01*
X1394022Y540255D01*
X1394022Y540434D01*
X1394111D01*
Y540612D01*
X1394200D01*
Y540701D01*
X1394290D01*
Y540879D01*
X1394379D01*
Y541057D01*
X1394468D01*
X1394468Y541236D01*
X1394557Y541236D01*
Y541325D01*
X1394646D01*
X1394646Y541503D01*
X1394735Y541503D01*
Y541681D01*
X1394824Y541681D01*
Y541770D01*
X1394913Y541770D01*
Y541948D01*
X1395002Y541948D01*
Y542127D01*
X1395092Y542127D01*
Y542305D01*
X1395181D01*
Y542394D01*
X1395270D01*
Y542572D01*
X1395359D01*
Y542751D01*
X1395448D01*
X1395448Y542929D01*
X1395537D01*
Y543018D01*
X1395626Y543018D01*
Y543196D01*
X1395715Y543196D01*
Y543374D01*
X1395804D01*
Y543463D01*
X1395894D01*
Y543642D01*
X1395983Y543642D01*
X1395983Y543820D01*
X1396072Y543820D01*
X1396072Y543998D01*
X1396161D01*
Y544087D01*
X1396250D01*
Y544265D01*
X1396339D01*
X1396339Y544444D01*
X1396428D01*
Y544622D01*
X1396517Y544622D01*
Y544711D01*
X1396606D01*
Y544889D01*
X1396696D01*
X1396696Y545067D01*
X1396785D01*
Y545157D01*
X1396874D01*
Y545335D01*
X1396963Y545335D01*
Y545513D01*
X1397052Y545513D01*
Y545691D01*
X1397141Y545691D01*
X1397141Y545780D01*
X1397230D01*
X1397230Y545959D01*
X1397319D01*
X1397319Y546137D01*
X1397408D01*
Y546315D01*
X1397498D01*
X1397498Y546404D01*
X1397587D01*
X1397587Y546582D01*
X1397676D01*
Y546761D01*
X1397765D01*
Y546850D01*
X1397854D01*
X1397854Y547028D01*
X1397943D01*
X1397943Y547206D01*
X1398032D01*
Y547384D01*
X1398121D01*
Y547473D01*
X1398210Y547473D01*
Y547652D01*
X1398300D01*
Y547830D01*
X1398389D01*
Y547919D01*
X1398478D01*
X1398478Y548097D01*
X1398567D01*
X1398567Y548275D01*
X1398656D01*
Y548454D01*
X1398745D01*
Y548543D01*
X1398834Y548543D01*
Y548721D01*
X1398923Y548721D01*
Y548899D01*
X1399012D01*
X1399012Y549077D01*
X1399102Y549077D01*
Y549167D01*
X1399191D01*
Y549345D01*
X1399280D01*
Y549523D01*
X1399369D01*
Y549612D01*
X1399458D01*
X1399458Y549790D01*
X1399547D01*
Y549969D01*
X1399636Y549969D01*
X1399636Y550147D01*
X1399725D01*
Y550236D01*
X1399814D01*
Y550414D01*
X1399904Y550414D01*
Y550592D01*
X1399993D01*
Y550771D01*
X1400082Y550771D01*
Y550860D01*
X1400171Y550860D01*
Y551038D01*
X1400260D01*
X1400260Y551216D01*
X1400349D01*
Y551305D01*
X1400438D01*
Y551484D01*
X1400527D01*
X1400527Y551662D01*
X1400616D01*
X1400617Y551840D01*
X1400706Y551840D01*
X1400706Y551929D01*
X1400795D01*
Y552107D01*
X1400884D01*
Y552286D01*
X1400973Y552286D01*
Y552375D01*
X1401062D01*
Y552553D01*
X1401151D01*
Y552731D01*
X1401240D01*
X1401240Y552909D01*
X1401329D01*
X1401329Y552999D01*
X1401419D01*
X1401419Y553177D01*
X1401508D01*
X1401508Y553355D01*
X1401597D01*
Y553533D01*
X1401686D01*
Y553622D01*
X1401775Y553622D01*
Y553801D01*
X1401864Y553801D01*
Y553979D01*
X1401953D01*
Y554068D01*
X1402042Y554068D01*
Y554246D01*
X1402132Y554246D01*
Y554424D01*
X1402221Y554424D01*
Y554603D01*
X1402310D01*
X1402310Y554692D01*
X1402399D01*
Y554870D01*
X1402488Y554870D01*
X1402488Y555048D01*
X1402577D01*
X1402577Y555226D01*
X1402666D01*
Y555316D01*
X1402755D01*
Y555494D01*
X1402844D01*
Y555672D01*
X1402934D01*
X1402934Y555761D01*
X1403023D01*
Y555939D01*
X1403112D01*
Y556118D01*
X1409973D01*
Y530720D01*
D02*
G37*
G36*
X1498018Y538919D02*
X1497929D01*
Y538027D01*
X1497840D01*
Y537493D01*
X1497751D01*
Y537047D01*
X1497661Y537047D01*
X1497661Y536691D01*
X1497572D01*
Y536423D01*
X1497483Y536423D01*
Y536156D01*
X1497394D01*
Y535889D01*
X1497305D01*
Y535621D01*
X1497216Y535621D01*
Y535443D01*
X1497127D01*
X1497127Y535265D01*
X1497038D01*
Y535087D01*
X1496948D01*
Y534908D01*
X1496859Y534908D01*
Y534730D01*
X1496770D01*
X1496770Y534641D01*
X1496681Y534641D01*
Y534463D01*
X1496592D01*
X1496592Y534285D01*
X1496503Y534285D01*
X1496503Y534196D01*
X1496414D01*
Y534017D01*
X1496325D01*
Y533928D01*
X1496236D01*
X1496236Y533839D01*
X1496146D01*
X1496146Y533661D01*
X1496057D01*
Y533572D01*
X1495968D01*
Y533483D01*
X1495879D01*
X1495879Y533394D01*
X1495790D01*
Y533304D01*
X1495701Y533304D01*
Y533215D01*
X1495612D01*
Y533126D01*
X1495523Y533126D01*
Y533037D01*
X1495434D01*
Y532948D01*
X1495344Y532948D01*
Y532859D01*
X1495255D01*
Y532770D01*
X1495166D01*
Y532681D01*
X1495077D01*
Y532592D01*
X1494988D01*
X1494988Y532502D01*
X1494810D01*
X1494810Y532413D01*
X1494721Y532413D01*
Y532324D01*
X1494632D01*
X1494632Y532235D01*
X1494542D01*
Y532146D01*
X1494364D01*
Y532057D01*
X1494275D01*
X1494275Y531968D01*
X1494097D01*
X1494097Y531879D01*
X1493919Y531879D01*
X1493919Y531790D01*
X1493829Y531790D01*
Y531700D01*
X1493651Y531700D01*
Y531611D01*
X1493473Y531611D01*
Y531522D01*
X1493295D01*
X1493295Y531433D01*
X1493117Y531433D01*
X1493117Y531344D01*
X1492938D01*
Y531255D01*
X1492760D01*
Y531166D01*
X1492493D01*
X1492493Y531077D01*
X1492225D01*
X1492225Y530988D01*
X1491958D01*
X1491958Y530898D01*
X1491691Y530898D01*
Y530809D01*
X1491334Y530809D01*
X1491334Y530720D01*
X1490978D01*
Y530631D01*
X1490532D01*
Y530542D01*
X1489998Y530542D01*
Y530453D01*
X1489285D01*
X1489285Y530364D01*
X1486077D01*
Y530453D01*
X1485275D01*
Y530542D01*
X1484740D01*
Y530631D01*
X1484294D01*
X1484294Y530720D01*
X1483938D01*
X1483938Y530809D01*
X1483581D01*
X1483581Y530898D01*
X1483314D01*
Y530988D01*
X1483047D01*
X1483047Y531077D01*
X1482779D01*
X1482779Y531166D01*
X1482601Y531166D01*
X1482601Y531255D01*
X1482334D01*
Y531344D01*
X1482156D01*
Y531433D01*
X1481977Y531433D01*
Y531522D01*
X1481799D01*
X1481799Y531611D01*
X1481621D01*
X1481621Y531700D01*
X1481443Y531700D01*
Y531790D01*
X1481264D01*
Y531879D01*
X1481175D01*
Y531968D01*
X1480997D01*
Y532057D01*
X1480908D01*
X1480908Y532146D01*
X1480730D01*
X1480730Y532235D01*
X1480641D01*
Y532324D01*
X1480462D01*
X1480462Y532413D01*
X1480373D01*
X1480373Y532502D01*
X1480284D01*
Y532592D01*
X1480106D01*
X1480106Y532681D01*
X1480017Y532681D01*
Y532770D01*
X1479928D01*
Y532859D01*
X1479839D01*
Y532948D01*
X1479749Y532948D01*
Y533037D01*
X1479660Y533037D01*
Y533126D01*
X1479571Y533126D01*
Y533215D01*
X1479482D01*
Y533304D01*
X1479393D01*
Y533394D01*
X1479304Y533394D01*
Y533483D01*
X1479215D01*
Y533572D01*
X1479126D01*
X1479126Y533661D01*
X1479037D01*
Y533839D01*
X1478947D01*
X1478947Y533928D01*
X1478858D01*
X1478858Y534017D01*
X1478769D01*
Y534196D01*
X1478680D01*
Y534285D01*
X1478591D01*
Y534463D01*
X1478502D01*
X1478502Y534552D01*
X1478413Y534552D01*
Y534730D01*
X1478324Y534730D01*
X1478324Y534908D01*
X1478235D01*
X1478235Y534998D01*
X1478145Y534998D01*
Y535176D01*
X1478056Y535176D01*
Y535354D01*
X1477967Y535354D01*
X1477967Y535621D01*
X1477878D01*
X1477878Y535800D01*
X1477789D01*
Y535978D01*
X1477700D01*
Y536245D01*
X1477611D01*
Y536512D01*
X1477522Y536512D01*
X1477522Y536869D01*
X1477433D01*
Y537225D01*
X1477343D01*
X1477343Y537582D01*
X1477254D01*
Y538206D01*
X1477165D01*
Y556118D01*
X1482423D01*
Y540434D01*
X1482512D01*
Y539097D01*
X1482601D01*
Y538562D01*
X1482690D01*
Y538206D01*
X1482779D01*
Y537849D01*
X1482868Y537849D01*
Y537582D01*
X1482958D01*
X1482958Y537314D01*
X1483047D01*
Y537136D01*
X1483136D01*
Y536958D01*
X1483225D01*
X1483225Y536780D01*
X1483314D01*
Y536691D01*
X1483403D01*
Y536512D01*
X1483492Y536512D01*
Y536423D01*
X1483581Y536423D01*
Y536334D01*
X1483671Y536334D01*
X1483671Y536156D01*
X1483760D01*
Y536067D01*
X1483849D01*
X1483849Y535978D01*
X1483938D01*
X1483938Y535889D01*
X1484116D01*
Y535800D01*
X1484205D01*
Y535710D01*
X1484294D01*
X1484294Y535621D01*
X1484473D01*
X1484473Y535532D01*
X1484562D01*
X1484562Y535443D01*
X1484740D01*
X1484740Y535354D01*
X1484918D01*
Y535265D01*
X1485185D01*
Y535176D01*
X1485364Y535176D01*
X1485364Y535087D01*
X1485720D01*
Y534998D01*
X1486077D01*
X1486077Y534908D01*
X1486700Y534908D01*
Y534819D01*
X1488394D01*
Y534908D01*
X1489017D01*
X1489017Y534998D01*
X1489374D01*
Y535087D01*
X1489730D01*
X1489730Y535176D01*
X1489998D01*
Y535265D01*
X1490176Y535265D01*
Y535354D01*
X1490354D01*
Y535443D01*
X1490532D01*
Y535532D01*
X1490710Y535532D01*
X1490710Y535621D01*
X1490800Y535621D01*
X1490800Y535710D01*
X1490978D01*
Y535800D01*
X1491067D01*
Y535889D01*
X1491156D01*
X1491156Y535978D01*
X1491245D01*
X1491245Y536067D01*
X1491334D01*
Y536156D01*
X1491423D01*
Y536245D01*
X1491512D01*
Y536334D01*
X1491602D01*
Y536512D01*
X1491691Y536512D01*
Y536602D01*
X1491780Y536602D01*
Y536780D01*
X1491869Y536780D01*
Y536869D01*
X1491958Y536869D01*
Y537047D01*
X1492047Y537047D01*
Y537225D01*
X1492136D01*
Y537493D01*
X1492225Y537493D01*
Y537760D01*
X1492314D01*
Y538027D01*
X1492404Y538027D01*
Y538384D01*
X1492493Y538384D01*
X1492493Y538919D01*
X1492582D01*
Y539721D01*
X1492671Y539721D01*
Y556118D01*
X1498018D01*
Y538919D01*
D02*
G37*
G36*
X1517623Y531522D02*
Y531433D01*
X1517623Y530720D01*
X1501939D01*
Y535087D01*
X1512276D01*
Y556118D01*
X1517623D01*
Y531522D01*
D02*
G37*
G36*
X1473333Y551662D02*
X1466472D01*
Y551573D01*
X1466382D01*
Y530720D01*
X1461036D01*
Y551662D01*
X1454174D01*
X1454174Y556118D01*
X1473333D01*
X1473333Y551662D01*
D02*
G37*
G36*
X1450164Y556118D02*
Y530720D01*
X1444817D01*
Y556118D01*
X1450164Y556118D01*
D02*
G37*
%LPC*%
G36*
X1430462Y723770D02*
X1429482D01*
Y723681D01*
X1429126D01*
Y723592D01*
X1428858D01*
Y723503D01*
X1428680D01*
Y723414D01*
X1428502D01*
Y723325D01*
X1428324D01*
Y723236D01*
X1428235D01*
Y723147D01*
X1428056D01*
Y723057D01*
X1427967D01*
Y722968D01*
X1427878D01*
Y722879D01*
X1427789D01*
Y722790D01*
X1427700D01*
Y722701D01*
X1427611D01*
Y722612D01*
X1427522D01*
Y722523D01*
X1427433D01*
Y722345D01*
X1427343D01*
Y722255D01*
X1427254D01*
Y722077D01*
X1427165D01*
Y721899D01*
X1427076D01*
Y721721D01*
X1426987D01*
Y721453D01*
X1426898D01*
Y721008D01*
X1426809D01*
Y720206D01*
X1426898D01*
Y719760D01*
X1426987D01*
Y719493D01*
X1427076D01*
Y719315D01*
X1427165D01*
Y719137D01*
X1427254D01*
Y718958D01*
X1427343D01*
Y718780D01*
X1427433D01*
Y718691D01*
X1427522D01*
Y718602D01*
X1427611D01*
Y718513D01*
X1427700D01*
Y718424D01*
X1427789D01*
Y718335D01*
X1427878D01*
Y718245D01*
X1427967D01*
Y718156D01*
X1428056D01*
Y718067D01*
X1428145D01*
Y717978D01*
X1428324D01*
Y717889D01*
X1428413D01*
Y717800D01*
X1428591D01*
Y717711D01*
X1428858D01*
Y717622D01*
X1429126D01*
Y717533D01*
X1429482D01*
Y717443D01*
X1430551D01*
Y717533D01*
X1430908D01*
Y717622D01*
X1431175D01*
Y717711D01*
X1431354D01*
Y717800D01*
X1431532D01*
Y717889D01*
X1431710D01*
Y717978D01*
X1431799D01*
Y718067D01*
X1431888D01*
Y718156D01*
X1432066D01*
Y718245D01*
X1432156D01*
Y718335D01*
X1432245D01*
Y718424D01*
X1432334D01*
Y718513D01*
X1432423D01*
Y718691D01*
X1432512D01*
Y718780D01*
X1432601D01*
Y718869D01*
X1432690D01*
Y719047D01*
X1432779D01*
Y719226D01*
X1432868D01*
Y719404D01*
X1432958D01*
Y719671D01*
X1433047D01*
Y720028D01*
X1433136D01*
Y721186D01*
X1433047D01*
Y721543D01*
X1432958D01*
Y721810D01*
X1432868D01*
Y721988D01*
X1432779D01*
Y722166D01*
X1432690D01*
Y722345D01*
X1432601D01*
Y722434D01*
X1432512D01*
Y722523D01*
X1432423D01*
Y722612D01*
X1432334D01*
Y722790D01*
X1432245D01*
Y722879D01*
X1432156D01*
Y722968D01*
X1431977D01*
Y723057D01*
X1431888D01*
Y723147D01*
X1431799D01*
Y723236D01*
X1431621D01*
Y723325D01*
X1431532D01*
Y723414D01*
X1431354D01*
Y723503D01*
X1431086D01*
Y723592D01*
X1430819D01*
Y723681D01*
X1430462D01*
Y723770D01*
D02*
G37*
G36*
X1467355Y665134D02*
X1466464D01*
Y665044D01*
X1466019D01*
Y664955D01*
X1465841D01*
Y664866D01*
X1465573D01*
Y664777D01*
X1465395D01*
Y664688D01*
X1465306D01*
Y664599D01*
X1465128D01*
Y664510D01*
X1465038D01*
Y664421D01*
X1464949D01*
Y664332D01*
X1464860D01*
Y664242D01*
X1464771D01*
Y664153D01*
X1464682D01*
Y664064D01*
X1464593D01*
Y663975D01*
X1464504D01*
Y663886D01*
X1464415D01*
Y663797D01*
X1464326D01*
Y663619D01*
X1464236D01*
Y663440D01*
X1464147D01*
Y663262D01*
X1464058D01*
Y663084D01*
X1463969D01*
Y662728D01*
X1463880D01*
Y661391D01*
X1463969D01*
Y661124D01*
X1464058D01*
Y660856D01*
X1464147D01*
Y660678D01*
X1464236D01*
Y660500D01*
X1464326D01*
Y660411D01*
X1464415D01*
Y660232D01*
X1464504D01*
Y660143D01*
X1464593D01*
Y660054D01*
X1464682D01*
Y659965D01*
X1464771D01*
Y659876D01*
X1464860D01*
Y659787D01*
X1464949D01*
Y659698D01*
X1465038D01*
Y659609D01*
X1465217D01*
Y659520D01*
X1465306D01*
Y659430D01*
X1465484D01*
Y659341D01*
X1465662D01*
Y659252D01*
X1465841D01*
Y659163D01*
X1466197D01*
Y659074D01*
X1466643D01*
Y658985D01*
X1467177D01*
Y659074D01*
X1467623D01*
Y659163D01*
X1467890D01*
Y659252D01*
X1468158D01*
Y659341D01*
X1468336D01*
Y659430D01*
X1468514D01*
Y659520D01*
X1468603D01*
Y659609D01*
X1468692D01*
Y659698D01*
X1468870D01*
Y659787D01*
X1468960D01*
Y659876D01*
X1469049D01*
Y659965D01*
X1469138D01*
Y660054D01*
X1469227D01*
Y660143D01*
X1469316D01*
Y660322D01*
X1469405D01*
Y660411D01*
X1469494D01*
Y660589D01*
X1469583D01*
Y660767D01*
X1469672D01*
Y660945D01*
X1469762D01*
Y661034D01*
Y661124D01*
Y661213D01*
X1469851D01*
Y661569D01*
X1469940D01*
Y662638D01*
X1469851D01*
Y662995D01*
X1469762D01*
Y663173D01*
X1469672D01*
Y663440D01*
X1469583D01*
Y663619D01*
X1469494D01*
Y663708D01*
X1469405D01*
Y663886D01*
X1469316D01*
Y663975D01*
X1469227D01*
Y664064D01*
X1469138D01*
Y664153D01*
X1469049D01*
Y664242D01*
X1468960D01*
Y664332D01*
X1468870D01*
Y664421D01*
X1468781D01*
Y664510D01*
X1468692D01*
Y664599D01*
X1468514D01*
Y664688D01*
X1468336D01*
Y664777D01*
X1468247D01*
Y664866D01*
X1467979D01*
Y664955D01*
X1467712D01*
Y665044D01*
X1467355D01*
Y665134D01*
D02*
G37*
G36*
X1518418Y716998D02*
X1497030D01*
Y716909D01*
X1496317D01*
Y716820D01*
X1495783D01*
Y716730D01*
X1495426D01*
Y716641D01*
X1494981D01*
Y716552D01*
X1494713D01*
Y716463D01*
X1494357D01*
Y716374D01*
X1494090D01*
Y716285D01*
X1493822D01*
Y716196D01*
X1493644D01*
Y716107D01*
X1493377D01*
Y716018D01*
X1493109D01*
Y715928D01*
X1492931D01*
Y715839D01*
X1492753D01*
Y715750D01*
X1492575D01*
Y715661D01*
X1492396D01*
Y715572D01*
X1492218D01*
Y715483D01*
X1492040D01*
Y715394D01*
X1491862D01*
Y715305D01*
X1491684D01*
Y715216D01*
X1491505D01*
Y715126D01*
X1491416D01*
Y715037D01*
X1491238D01*
Y714948D01*
X1491149D01*
Y714859D01*
X1490971D01*
Y714770D01*
X1490882D01*
Y714681D01*
X1490703D01*
Y714592D01*
X1490614D01*
Y714503D01*
X1490436D01*
Y714414D01*
X1490347D01*
Y714324D01*
X1490258D01*
Y714235D01*
X1490079D01*
Y714146D01*
X1489990D01*
Y714057D01*
X1489901D01*
Y713968D01*
X1489812D01*
Y713879D01*
X1489634D01*
Y713790D01*
X1489545D01*
Y713701D01*
X1489456D01*
Y713612D01*
X1489367D01*
Y713522D01*
X1489277D01*
Y713433D01*
X1489188D01*
Y713344D01*
X1489099D01*
Y713255D01*
X1489010D01*
Y713166D01*
X1488921D01*
Y713077D01*
X1488832D01*
Y712988D01*
X1488743D01*
Y712899D01*
X1488654D01*
Y712810D01*
X1488564D01*
Y712720D01*
X1488475D01*
Y712631D01*
X1488386D01*
Y712542D01*
X1488297D01*
Y712453D01*
X1488208D01*
Y712364D01*
X1488119D01*
Y712275D01*
X1488030D01*
Y712096D01*
X1487941D01*
Y712007D01*
X1487852D01*
Y711918D01*
X1487762D01*
Y711829D01*
X1487673D01*
Y711651D01*
X1487584D01*
Y711562D01*
X1487495D01*
Y711473D01*
X1487406D01*
Y711294D01*
X1487317D01*
Y711205D01*
X1487228D01*
Y711027D01*
X1487139D01*
Y710938D01*
X1487050D01*
Y710760D01*
X1486960D01*
Y710671D01*
X1486871D01*
Y710492D01*
X1486782D01*
Y710403D01*
X1486693D01*
Y710225D01*
X1486604D01*
Y710047D01*
X1486515D01*
Y709869D01*
X1486426D01*
Y709690D01*
X1486337D01*
Y709512D01*
X1486248D01*
Y709334D01*
X1486158D01*
Y709156D01*
X1486069D01*
Y708978D01*
X1485980D01*
Y708710D01*
X1485891D01*
Y708532D01*
X1485802D01*
Y708265D01*
X1485713D01*
Y708086D01*
X1485624D01*
Y707819D01*
X1485535D01*
Y707552D01*
X1485446D01*
Y707195D01*
X1485356D01*
Y706839D01*
X1485267D01*
Y706482D01*
X1485178D01*
Y706037D01*
X1485089D01*
Y705591D01*
X1485000D01*
Y704789D01*
X1484911D01*
Y704344D01*
X1505764D01*
Y683491D01*
X1505942D01*
Y683580D01*
X1506833D01*
Y683669D01*
X1507368D01*
Y683758D01*
X1507813D01*
Y683848D01*
X1508170D01*
Y683937D01*
X1508526D01*
Y684026D01*
X1508882D01*
Y684115D01*
X1509150D01*
Y684204D01*
X1509417D01*
Y684293D01*
X1509684D01*
Y684382D01*
X1509863D01*
Y684471D01*
X1510130D01*
Y684560D01*
X1510308D01*
Y684650D01*
X1510486D01*
Y684739D01*
X1510754D01*
Y684828D01*
X1510932D01*
Y684917D01*
X1511110D01*
Y685006D01*
X1511288D01*
Y685095D01*
X1511378D01*
Y685184D01*
X1511556D01*
Y685273D01*
X1511734D01*
Y685362D01*
X1511912D01*
Y685452D01*
X1512001D01*
Y685541D01*
X1512180D01*
Y685630D01*
X1512269D01*
Y685719D01*
X1512447D01*
Y685808D01*
X1512536D01*
Y685897D01*
X1512714D01*
Y685986D01*
X1512803D01*
Y686075D01*
X1512982D01*
Y686164D01*
X1513071D01*
Y686254D01*
X1513160D01*
Y686343D01*
X1513249D01*
Y686432D01*
X1513427D01*
Y686521D01*
X1513516D01*
Y686610D01*
X1513605D01*
Y686699D01*
X1513695D01*
Y686788D01*
X1513784D01*
Y686877D01*
X1513962D01*
Y686966D01*
X1514051D01*
Y687056D01*
X1514140D01*
Y687145D01*
X1514229D01*
Y687234D01*
X1514318D01*
Y687323D01*
X1514408D01*
Y687412D01*
X1514497D01*
Y687501D01*
X1514586D01*
Y687590D01*
X1514675D01*
Y687679D01*
X1514764D01*
Y687768D01*
X1514853D01*
Y687858D01*
X1514942D01*
Y687947D01*
X1515031D01*
Y688125D01*
X1515120D01*
Y688214D01*
X1515210D01*
Y688303D01*
X1515299D01*
Y688392D01*
X1515388D01*
Y688481D01*
X1515477D01*
Y688570D01*
X1515566D01*
Y688749D01*
X1515655D01*
Y688838D01*
X1515744D01*
Y688927D01*
X1515833D01*
Y689105D01*
X1515922D01*
Y689194D01*
X1516012D01*
Y689373D01*
X1516101D01*
Y689462D01*
X1516190D01*
Y689640D01*
X1516279D01*
Y689729D01*
X1516368D01*
Y689907D01*
X1516457D01*
Y689996D01*
X1516546D01*
Y690175D01*
X1516635D01*
Y690353D01*
X1516725D01*
Y690531D01*
X1516814D01*
Y690620D01*
X1516903D01*
Y690798D01*
X1516992D01*
Y690977D01*
X1517081D01*
Y691155D01*
X1517170D01*
Y691422D01*
X1517259D01*
Y691600D01*
X1517348D01*
Y691779D01*
X1517437D01*
Y692046D01*
X1517527D01*
Y692224D01*
X1517616D01*
Y692492D01*
X1517705D01*
Y692759D01*
X1517794D01*
Y693026D01*
X1517883D01*
Y693383D01*
X1517972D01*
Y693739D01*
X1518061D01*
Y694096D01*
X1518150D01*
Y694541D01*
X1518239D01*
Y695076D01*
X1518329D01*
Y695967D01*
X1518418D01*
Y716998D01*
D02*
G37*
G36*
X1481257Y686610D02*
Y686521D01*
X1480990D01*
Y686432D01*
X1480723D01*
Y686343D01*
X1480544D01*
Y686254D01*
X1480366D01*
Y686164D01*
X1480188D01*
Y686075D01*
X1480099D01*
Y685986D01*
X1480010D01*
Y685897D01*
X1479831D01*
Y685808D01*
X1479742D01*
Y685719D01*
X1479653D01*
Y685541D01*
X1479564D01*
Y685452D01*
X1479475D01*
Y685362D01*
X1479386D01*
Y685273D01*
X1479297D01*
Y685095D01*
X1479208D01*
Y684917D01*
X1479118D01*
Y684739D01*
X1479029D01*
Y684471D01*
X1478940D01*
Y684115D01*
X1478851D01*
Y683046D01*
X1478940D01*
Y682689D01*
X1479029D01*
Y682422D01*
X1479118D01*
Y682243D01*
X1479208D01*
Y682065D01*
X1479297D01*
Y681976D01*
Y681887D01*
X1479386D01*
Y681798D01*
X1479475D01*
Y681709D01*
X1479564D01*
Y681620D01*
X1479653D01*
Y681441D01*
X1479742D01*
Y681352D01*
X1479921D01*
Y681263D01*
X1480010D01*
Y681174D01*
X1480099D01*
Y681085D01*
X1480188D01*
Y680996D01*
X1480366D01*
Y680907D01*
X1480544D01*
Y680818D01*
X1480723D01*
Y680729D01*
X1480990D01*
Y680639D01*
X1481257D01*
Y680550D01*
X1482505D01*
Y680639D01*
X1482861D01*
Y680729D01*
X1483040D01*
Y680818D01*
X1483307D01*
Y680907D01*
X1483396D01*
Y680996D01*
X1483574D01*
Y681085D01*
X1483663D01*
Y681174D01*
X1483842D01*
Y681263D01*
X1483931D01*
Y681352D01*
X1484020D01*
Y681441D01*
X1484109D01*
Y681531D01*
X1484198D01*
Y681620D01*
X1484287D01*
Y681798D01*
X1484376D01*
Y681887D01*
X1484465D01*
Y682065D01*
X1484554D01*
Y682154D01*
X1484644D01*
Y682422D01*
X1484733D01*
Y682600D01*
X1484822D01*
Y682956D01*
X1484911D01*
Y684204D01*
X1484822D01*
Y684560D01*
X1484733D01*
Y684828D01*
X1484644D01*
Y685006D01*
X1484554D01*
Y685095D01*
X1484465D01*
Y685273D01*
X1484376D01*
Y685362D01*
X1484287D01*
Y685541D01*
X1484198D01*
Y685630D01*
X1484109D01*
Y685719D01*
X1484020D01*
Y685808D01*
X1483931D01*
Y685897D01*
X1483842D01*
Y685986D01*
X1483663D01*
Y686075D01*
X1483574D01*
Y686164D01*
X1483396D01*
Y686254D01*
X1483307D01*
Y686343D01*
X1483040D01*
Y686432D01*
X1482861D01*
Y686521D01*
X1482505D01*
Y686610D01*
X1481257D01*
D02*
G37*
G36*
X1518418Y628241D02*
Y628152D01*
X1517972D01*
Y628062D01*
X1517705D01*
Y627973D01*
X1517527D01*
Y627884D01*
X1517348D01*
Y627795D01*
X1517170D01*
Y627706D01*
X1516992D01*
Y627617D01*
X1516903D01*
Y627528D01*
X1516814D01*
Y627439D01*
X1516725D01*
Y627349D01*
X1516635D01*
Y627260D01*
X1516546D01*
Y627171D01*
X1516457D01*
Y627082D01*
X1516368D01*
Y626993D01*
X1516279D01*
Y626904D01*
X1516190D01*
Y626726D01*
X1516101D01*
Y626637D01*
X1516012D01*
Y626458D01*
X1515922D01*
Y626280D01*
X1515833D01*
Y626013D01*
X1515744D01*
Y625656D01*
X1515655D01*
Y624409D01*
X1515744D01*
Y624320D01*
Y624230D01*
Y624141D01*
X1515833D01*
Y623874D01*
X1515922D01*
Y623607D01*
X1516012D01*
Y623517D01*
X1516101D01*
Y623339D01*
X1516190D01*
Y623250D01*
X1516279D01*
Y623072D01*
X1516368D01*
Y622983D01*
X1516457D01*
Y622894D01*
X1516546D01*
Y622805D01*
X1516635D01*
Y622715D01*
X1516725D01*
Y622626D01*
X1516814D01*
Y622537D01*
X1516992D01*
Y622448D01*
X1517081D01*
Y622359D01*
X1517259D01*
Y622270D01*
X1517348D01*
Y622181D01*
X1517616D01*
Y622092D01*
X1517794D01*
Y622003D01*
X1518150D01*
Y621913D01*
X1519398D01*
Y622003D01*
X1519754D01*
Y622092D01*
X1520022D01*
Y622181D01*
X1520200D01*
Y622270D01*
X1520378D01*
Y622359D01*
X1520467D01*
Y622448D01*
X1520645D01*
Y622537D01*
X1520735D01*
Y622626D01*
X1520824D01*
Y622715D01*
X1520913D01*
Y622805D01*
X1521002D01*
Y622894D01*
X1521091D01*
Y622983D01*
X1521180D01*
Y623072D01*
X1521269D01*
Y623161D01*
X1521358D01*
Y623250D01*
X1521447D01*
Y623428D01*
X1521537D01*
Y623607D01*
X1521626D01*
Y623785D01*
X1521715D01*
Y623963D01*
X1521804D01*
Y624230D01*
X1521893D01*
Y624676D01*
X1521982D01*
Y625389D01*
X1521893D01*
Y625835D01*
X1521804D01*
Y626102D01*
X1521715D01*
Y626369D01*
X1521626D01*
Y626547D01*
X1521537D01*
Y626726D01*
X1521447D01*
Y626815D01*
X1521358D01*
Y626904D01*
X1521269D01*
Y627082D01*
X1521180D01*
Y627171D01*
X1521091D01*
Y627260D01*
X1521002D01*
Y627349D01*
X1520913D01*
Y627439D01*
X1520824D01*
Y627528D01*
X1520645D01*
Y627617D01*
X1520556D01*
Y627706D01*
X1520467D01*
Y627795D01*
X1520289D01*
Y627884D01*
X1520111D01*
Y627973D01*
X1519843D01*
Y628062D01*
X1519576D01*
Y628152D01*
X1519131D01*
Y628241D01*
X1518418D01*
D02*
G37*
G36*
X1455414Y686432D02*
X1454167D01*
Y686343D01*
X1453899D01*
Y686254D01*
X1453632D01*
Y686164D01*
X1453454D01*
Y686075D01*
X1453275D01*
Y685986D01*
X1453097D01*
Y685897D01*
X1453008D01*
Y685808D01*
X1452830D01*
Y685719D01*
X1452741D01*
Y685630D01*
X1452652D01*
Y685541D01*
X1452563D01*
Y685452D01*
X1452473D01*
Y685362D01*
X1452384D01*
Y685273D01*
X1452295D01*
Y685184D01*
X1452206D01*
Y685006D01*
X1452117D01*
Y684917D01*
X1452028D01*
Y684739D01*
X1451939D01*
Y684560D01*
X1451850D01*
Y684293D01*
X1451761D01*
Y683937D01*
X1451671D01*
Y682600D01*
X1451761D01*
Y682243D01*
X1451850D01*
Y682065D01*
X1451939D01*
Y681887D01*
X1452028D01*
Y681709D01*
X1452117D01*
Y681531D01*
X1452206D01*
Y681441D01*
X1452295D01*
Y681352D01*
X1452384D01*
Y681174D01*
X1452473D01*
Y681085D01*
X1452563D01*
Y680996D01*
X1452652D01*
Y680907D01*
X1452830D01*
Y680818D01*
X1452919D01*
Y680729D01*
X1453008D01*
Y680639D01*
X1453186D01*
Y680550D01*
X1453275D01*
Y680461D01*
X1453454D01*
Y680372D01*
X1453721D01*
Y680283D01*
X1453988D01*
Y680194D01*
X1454434D01*
Y680105D01*
X1455236D01*
Y680194D01*
X1455592D01*
Y680283D01*
X1455860D01*
Y680372D01*
X1456127D01*
Y680461D01*
X1456305D01*
Y680550D01*
X1456484D01*
Y680639D01*
X1456573D01*
Y680729D01*
X1456662D01*
Y680818D01*
X1456840D01*
Y680907D01*
X1456929D01*
Y680996D01*
X1457018D01*
Y681085D01*
X1457107D01*
Y681174D01*
X1457197D01*
Y681263D01*
X1457286D01*
Y681441D01*
X1457375D01*
Y681531D01*
X1457464D01*
Y681709D01*
X1457553D01*
Y681798D01*
X1457642D01*
Y681976D01*
X1457731D01*
Y682243D01*
X1457820D01*
Y682511D01*
X1457909D01*
Y683046D01*
X1457999D01*
Y683491D01*
X1457909D01*
Y684026D01*
X1457820D01*
Y684293D01*
X1457731D01*
Y684560D01*
X1457642D01*
Y684739D01*
X1457553D01*
Y684917D01*
X1457464D01*
Y685006D01*
X1457375D01*
Y685184D01*
X1457286D01*
Y685273D01*
X1457197D01*
Y685362D01*
X1457107D01*
Y685452D01*
X1457018D01*
Y685541D01*
X1456929D01*
Y685630D01*
X1456840D01*
Y685719D01*
X1456751D01*
Y685808D01*
X1456662D01*
Y685897D01*
X1456484D01*
Y685986D01*
X1456395D01*
Y686075D01*
X1456216D01*
Y686164D01*
X1455949D01*
Y686254D01*
X1455771D01*
Y686343D01*
X1455414D01*
Y686432D01*
D02*
G37*
G36*
X1443027Y662104D02*
X1442225D01*
Y662015D01*
X1441602D01*
Y661926D01*
X1441156D01*
Y661836D01*
X1440710D01*
Y661747D01*
X1440354D01*
Y661658D01*
X1439998D01*
Y661569D01*
X1439730D01*
Y661480D01*
X1439463D01*
Y661391D01*
X1439196D01*
Y661302D01*
X1439017D01*
Y661213D01*
X1438750D01*
Y661124D01*
X1438572D01*
Y661034D01*
X1438304D01*
Y660945D01*
X1438126D01*
Y660856D01*
X1437948D01*
Y660767D01*
X1437770D01*
Y660678D01*
X1437592D01*
Y660589D01*
X1437413D01*
Y660500D01*
X1437235D01*
Y660411D01*
X1437146D01*
Y660322D01*
X1436968D01*
Y660232D01*
X1436790D01*
Y660143D01*
X1436700D01*
Y660054D01*
X1436522D01*
Y659965D01*
X1436433D01*
Y659876D01*
X1436255D01*
Y659787D01*
X1436166D01*
Y659698D01*
X1435988D01*
Y659609D01*
X1435898D01*
Y659520D01*
X1435720D01*
Y659430D01*
X1435631D01*
Y659341D01*
X1435542D01*
Y659252D01*
X1435453D01*
Y659163D01*
X1435275D01*
Y659074D01*
X1435185D01*
Y658985D01*
X1435096D01*
Y658896D01*
X1435007D01*
Y658807D01*
X1434918D01*
Y658717D01*
X1434829D01*
Y658628D01*
X1434740D01*
Y658539D01*
X1434562D01*
Y658450D01*
X1434473D01*
Y658361D01*
X1434383D01*
Y658272D01*
X1434294D01*
Y658183D01*
X1434205D01*
Y658094D01*
X1434116D01*
Y658005D01*
X1434027D01*
Y657826D01*
X1433938D01*
Y657737D01*
X1433849D01*
Y657648D01*
X1433760D01*
Y657559D01*
X1433671D01*
Y657470D01*
X1433581D01*
Y657381D01*
X1433492D01*
Y657292D01*
X1433403D01*
Y657113D01*
X1433314D01*
Y657024D01*
X1433225D01*
Y656935D01*
X1433136D01*
Y656846D01*
X1433047D01*
Y656668D01*
X1432958D01*
Y656579D01*
X1432868D01*
Y656490D01*
X1432779D01*
Y656311D01*
X1432690D01*
Y656222D01*
X1432601D01*
Y656044D01*
X1432512D01*
Y655955D01*
X1432423D01*
Y655777D01*
X1432334D01*
Y655599D01*
X1432245D01*
Y655509D01*
X1432156D01*
Y655331D01*
X1432066D01*
Y655153D01*
X1431977D01*
Y654975D01*
X1431888D01*
Y654797D01*
X1431799D01*
Y654618D01*
X1431710D01*
Y654440D01*
X1431621D01*
Y654262D01*
X1431532D01*
Y654084D01*
X1431443D01*
Y653905D01*
X1431354D01*
Y653638D01*
X1431264D01*
Y653371D01*
X1431175D01*
Y653192D01*
X1431086D01*
Y652925D01*
X1430997D01*
Y652658D01*
X1430908D01*
Y652301D01*
X1430819D01*
Y651945D01*
X1430730D01*
Y651588D01*
X1430641D01*
Y651143D01*
X1430551D01*
Y650608D01*
X1430462D01*
Y649806D01*
X1430373D01*
Y628686D01*
X1430462D01*
Y628597D01*
X1450780D01*
Y628686D01*
X1452028D01*
Y628775D01*
X1452652D01*
Y628864D01*
X1453097D01*
Y628954D01*
X1453543D01*
Y629043D01*
X1453899D01*
Y629132D01*
X1454256D01*
Y629221D01*
X1454523D01*
Y629310D01*
X1454790D01*
Y629399D01*
X1455058D01*
Y629488D01*
X1455236D01*
Y629577D01*
X1455503D01*
Y629666D01*
X1455682D01*
Y629756D01*
X1455949D01*
Y629845D01*
X1456127D01*
Y629934D01*
X1456305D01*
Y630023D01*
X1456484D01*
Y630112D01*
X1456662D01*
Y630201D01*
X1456840D01*
Y630290D01*
X1457018D01*
Y630379D01*
X1457107D01*
Y630468D01*
X1457286D01*
Y630558D01*
X1457464D01*
Y630647D01*
X1457553D01*
Y630736D01*
X1457731D01*
Y630825D01*
X1457820D01*
Y630914D01*
X1457999D01*
Y631003D01*
X1458088D01*
Y631092D01*
X1458266D01*
Y631181D01*
X1458355D01*
Y631270D01*
X1458533D01*
Y631359D01*
X1458622D01*
Y631449D01*
X1458712D01*
Y631538D01*
X1458801D01*
Y631627D01*
X1458979D01*
Y631716D01*
X1459068D01*
Y631805D01*
X1459157D01*
Y631894D01*
X1459246D01*
Y631983D01*
X1459335D01*
Y632072D01*
X1459424D01*
Y632162D01*
X1459514D01*
Y632251D01*
X1459692D01*
Y632340D01*
X1459781D01*
Y632429D01*
X1459870D01*
Y632518D01*
X1459959D01*
Y632607D01*
X1460048D01*
Y632696D01*
X1460137D01*
Y632785D01*
X1460226D01*
Y632874D01*
X1460316D01*
Y633053D01*
X1460405D01*
Y633142D01*
X1460494D01*
Y633231D01*
X1460583D01*
Y633320D01*
X1460672D01*
Y633409D01*
X1460761D01*
Y633498D01*
X1460850D01*
Y633587D01*
X1460939D01*
Y633766D01*
X1461028D01*
Y633855D01*
X1461118D01*
Y633944D01*
X1461207D01*
Y634122D01*
X1461296D01*
Y634211D01*
X1461385D01*
Y634300D01*
X1461474D01*
Y634478D01*
X1461563D01*
Y634568D01*
X1461652D01*
Y634746D01*
X1461741D01*
Y634835D01*
X1461830D01*
Y635013D01*
X1461920D01*
Y635191D01*
X1462009D01*
Y635281D01*
X1462098D01*
Y635459D01*
X1462187D01*
Y635637D01*
X1462276D01*
Y635815D01*
X1462365D01*
Y635904D01*
X1462454D01*
Y636083D01*
X1462543D01*
Y636350D01*
X1462632D01*
Y636528D01*
X1462722D01*
Y636706D01*
X1462811D01*
Y636885D01*
X1462900D01*
Y637152D01*
X1462989D01*
Y637330D01*
X1463078D01*
Y637598D01*
X1463167D01*
Y637865D01*
X1463256D01*
Y638132D01*
X1463345D01*
Y638489D01*
X1463434D01*
Y638756D01*
X1463524D01*
Y639202D01*
X1463613D01*
Y639558D01*
X1463702D01*
Y640093D01*
X1463791D01*
Y640895D01*
X1463880D01*
Y641251D01*
X1463791D01*
Y641340D01*
X1443027D01*
Y662104D01*
D02*
G37*
G36*
X1494001Y665579D02*
X1493911D01*
Y665490D01*
X1493288D01*
Y665401D01*
X1493020D01*
Y665312D01*
X1492753D01*
Y665223D01*
X1492575D01*
Y665134D01*
X1492396D01*
Y665044D01*
X1492218D01*
Y664955D01*
X1492129D01*
Y664866D01*
X1492040D01*
Y664777D01*
X1491951D01*
Y664688D01*
X1491773D01*
Y664599D01*
X1491684D01*
Y664421D01*
X1491594D01*
Y664332D01*
X1491505D01*
Y664242D01*
X1491416D01*
Y664153D01*
X1491327D01*
Y663975D01*
X1491238D01*
Y663797D01*
X1491149D01*
Y663619D01*
X1491060D01*
Y663440D01*
X1490971D01*
Y663173D01*
X1490882D01*
Y662638D01*
X1490792D01*
Y662104D01*
X1490882D01*
Y661569D01*
X1490971D01*
Y661302D01*
X1491060D01*
Y661124D01*
X1491149D01*
Y660945D01*
X1491238D01*
Y660767D01*
X1491327D01*
Y660589D01*
X1491416D01*
Y660500D01*
X1491505D01*
Y660411D01*
X1491594D01*
Y660232D01*
X1491684D01*
Y660143D01*
X1491773D01*
Y660054D01*
X1491862D01*
Y659965D01*
X1492040D01*
Y659876D01*
X1492129D01*
Y659787D01*
X1492218D01*
Y659698D01*
X1492396D01*
Y659609D01*
X1492575D01*
Y659520D01*
X1492753D01*
Y659430D01*
X1492931D01*
Y659341D01*
X1493288D01*
Y659252D01*
X1493822D01*
Y659163D01*
X1494179D01*
Y659252D01*
X1494713D01*
Y659341D01*
X1494981D01*
Y659430D01*
X1495248D01*
Y659520D01*
X1495426D01*
Y659609D01*
X1495605D01*
Y659698D01*
X1495694D01*
Y659787D01*
X1495872D01*
Y659876D01*
X1495961D01*
Y659965D01*
X1496050D01*
Y660054D01*
X1496139D01*
Y660143D01*
X1496228D01*
Y660232D01*
X1496317D01*
Y660322D01*
X1496407D01*
Y660411D01*
X1496496D01*
Y660500D01*
X1496585D01*
Y660678D01*
X1496674D01*
Y660767D01*
X1496763D01*
Y660945D01*
X1496852D01*
Y661124D01*
X1496941D01*
Y661391D01*
X1497030D01*
Y661480D01*
Y661658D01*
X1497119D01*
Y662995D01*
X1497030D01*
Y663351D01*
X1496941D01*
Y663619D01*
X1496852D01*
Y663797D01*
X1496763D01*
Y663975D01*
X1496674D01*
Y664064D01*
X1496585D01*
Y664242D01*
X1496496D01*
Y664332D01*
X1496407D01*
Y664421D01*
X1496317D01*
Y664510D01*
X1496228D01*
Y664599D01*
X1496139D01*
Y664688D01*
X1496050D01*
Y664777D01*
X1495961D01*
Y664866D01*
X1495872D01*
Y664955D01*
X1495694D01*
Y665044D01*
X1495605D01*
Y665134D01*
X1495426D01*
Y665223D01*
X1495248D01*
Y665312D01*
X1494981D01*
Y665401D01*
X1494713D01*
Y665490D01*
X1494001D01*
Y665579D01*
D02*
G37*
G36*
X1534376Y588109D02*
X1531525D01*
Y588020D01*
X1531079D01*
Y587931D01*
X1530723D01*
Y587842D01*
X1530455D01*
Y587753D01*
X1530188D01*
Y587664D01*
X1530010D01*
Y587575D01*
X1529831D01*
Y587486D01*
X1529742D01*
Y587396D01*
X1529564D01*
Y587307D01*
X1529475D01*
Y587218D01*
X1529386D01*
Y587129D01*
X1529297D01*
Y587040D01*
X1529208D01*
Y586951D01*
X1529118D01*
Y586862D01*
X1529029D01*
Y586684D01*
X1528940D01*
Y586594D01*
X1528851D01*
Y586416D01*
X1528762D01*
Y586149D01*
X1528673D01*
Y585882D01*
X1528584D01*
Y585347D01*
X1528495D01*
Y584545D01*
X1528584D01*
Y583921D01*
X1528673D01*
Y583564D01*
X1528762D01*
Y583297D01*
X1528851D01*
Y583119D01*
X1528940D01*
Y582941D01*
X1529029D01*
Y582762D01*
X1529118D01*
Y582584D01*
X1529208D01*
Y582495D01*
X1529297D01*
Y582406D01*
X1529386D01*
Y582317D01*
X1529475D01*
Y582228D01*
X1529564D01*
Y582139D01*
X1529653D01*
Y582050D01*
X1529742D01*
Y581960D01*
X1529831D01*
Y581871D01*
X1530010D01*
Y581782D01*
X1530188D01*
Y581693D01*
X1530277D01*
Y581604D01*
X1530544D01*
Y581515D01*
X1530723D01*
Y581426D01*
X1530990D01*
Y581337D01*
X1531346D01*
Y581248D01*
X1531881D01*
Y581158D01*
X1534376D01*
Y588109D01*
D02*
G37*
G36*
X1534733Y552107D02*
Y552018D01*
X1533752D01*
Y551929D01*
X1533307D01*
Y551840D01*
X1532950D01*
Y551751D01*
X1532683D01*
Y551662D01*
X1532416D01*
Y551573D01*
X1532238D01*
Y551484D01*
X1532059D01*
Y551395D01*
X1531881D01*
Y551305D01*
X1531703D01*
Y551216D01*
X1531525D01*
Y551127D01*
X1531435D01*
Y551038D01*
X1531346D01*
Y550949D01*
X1531168D01*
Y550860D01*
X1531079D01*
Y550771D01*
X1530990D01*
Y550682D01*
X1530901D01*
Y550592D01*
X1530812D01*
Y550503D01*
X1530723D01*
Y550414D01*
X1530633D01*
Y550325D01*
X1530544D01*
Y550236D01*
X1530455D01*
Y550147D01*
X1530366D01*
Y550058D01*
X1530277D01*
Y549969D01*
X1530188D01*
Y549790D01*
X1530099D01*
Y549701D01*
X1530010D01*
Y549523D01*
X1529921D01*
Y549434D01*
X1529831D01*
Y549256D01*
X1529742D01*
Y549077D01*
X1529653D01*
Y548899D01*
X1529564D01*
Y548721D01*
X1529475D01*
Y548543D01*
X1529386D01*
Y548365D01*
X1529297D01*
Y548097D01*
X1529208D01*
Y547830D01*
X1529118D01*
Y547563D01*
X1529029D01*
Y547206D01*
X1528940D01*
Y546850D01*
X1528851D01*
Y546315D01*
X1528762D01*
Y545780D01*
X1528673D01*
Y544889D01*
X1528584D01*
Y541948D01*
X1528673D01*
Y541146D01*
X1528762D01*
Y540523D01*
X1528851D01*
Y540077D01*
X1528940D01*
Y539721D01*
X1529029D01*
Y539364D01*
X1529118D01*
Y539097D01*
X1529208D01*
Y538829D01*
X1529297D01*
Y538562D01*
X1529386D01*
Y538384D01*
X1529475D01*
Y538117D01*
X1529564D01*
Y537938D01*
X1529653D01*
Y537760D01*
X1529742D01*
Y537671D01*
X1529831D01*
Y537493D01*
X1529921D01*
Y537314D01*
X1530010D01*
Y537225D01*
X1530099D01*
Y537047D01*
X1530188D01*
Y536958D01*
X1530277D01*
Y536869D01*
X1530366D01*
Y536780D01*
X1530455D01*
Y536602D01*
X1530544D01*
Y536512D01*
X1530633D01*
Y536423D01*
X1530723D01*
Y536334D01*
X1530812D01*
Y536245D01*
X1530901D01*
Y536156D01*
X1531079D01*
Y536067D01*
X1531168D01*
Y535978D01*
X1531257D01*
Y535889D01*
X1531435D01*
Y535800D01*
X1531525D01*
Y535710D01*
X1531703D01*
Y535621D01*
X1531792D01*
Y535532D01*
X1531970D01*
Y535443D01*
X1532148D01*
Y535354D01*
X1532416D01*
Y535265D01*
X1532594D01*
X1532594Y535176D01*
X1532861D01*
Y535087D01*
X1533218D01*
Y534998D01*
X1533663D01*
Y534908D01*
X1534287D01*
Y534819D01*
X1535802D01*
Y534908D01*
X1536515D01*
Y534998D01*
X1536871D01*
Y535087D01*
X1537228D01*
Y535176D01*
X1537495D01*
Y535265D01*
X1537762D01*
Y535354D01*
X1537941D01*
Y535443D01*
X1538119D01*
Y535532D01*
X1538297D01*
Y535621D01*
X1538475D01*
Y535710D01*
X1538564D01*
Y535800D01*
X1538743D01*
Y535889D01*
X1538832D01*
Y535978D01*
X1538921D01*
Y536067D01*
X1539099D01*
Y536156D01*
X1539188D01*
Y536245D01*
X1539277D01*
Y536334D01*
X1539367D01*
Y536423D01*
X1539456D01*
Y536512D01*
X1539545D01*
Y536602D01*
X1539634D01*
Y536691D01*
X1539723D01*
Y536869D01*
X1539812D01*
Y536958D01*
X1539901D01*
Y537047D01*
X1539990D01*
Y537136D01*
X1540079D01*
Y537314D01*
X1540169D01*
Y537404D01*
X1540258D01*
Y537582D01*
X1540347D01*
Y537760D01*
X1540436D01*
Y537938D01*
X1540525D01*
Y538117D01*
X1540614D01*
Y538295D01*
X1540703D01*
Y538473D01*
X1540792D01*
Y538740D01*
X1540882D01*
Y539008D01*
X1540971D01*
Y539275D01*
X1541060D01*
Y539632D01*
X1541149D01*
Y539988D01*
X1541238D01*
Y540344D01*
X1541327D01*
Y540879D01*
X1541416D01*
Y541592D01*
X1541505D01*
Y541859D01*
Y541948D01*
Y545246D01*
X1541416D01*
Y545959D01*
X1541327D01*
Y546493D01*
X1541238D01*
Y546939D01*
X1541149D01*
Y547295D01*
X1541060D01*
Y547563D01*
X1540971D01*
Y547830D01*
X1540882D01*
Y548097D01*
X1540792D01*
Y548365D01*
X1540703D01*
Y548543D01*
X1540614D01*
Y548721D01*
X1540525D01*
Y548899D01*
X1540436D01*
Y549077D01*
X1540347D01*
Y549256D01*
X1540258D01*
Y549434D01*
X1540169D01*
Y549523D01*
X1540079D01*
Y549701D01*
X1539990D01*
Y549790D01*
X1539901D01*
Y549969D01*
X1539812D01*
Y550058D01*
X1539723D01*
Y550147D01*
X1539634D01*
Y550236D01*
X1539545D01*
Y550325D01*
X1539456D01*
Y550414D01*
X1539367D01*
Y550503D01*
X1539277D01*
Y550592D01*
X1539188D01*
Y550682D01*
X1539099D01*
Y550771D01*
X1539010D01*
Y550860D01*
X1538921D01*
Y550949D01*
X1538743D01*
Y551038D01*
X1538654D01*
Y551127D01*
X1538475D01*
Y551216D01*
X1538386D01*
Y551305D01*
X1538208D01*
Y551395D01*
X1538030D01*
Y551484D01*
X1537852D01*
Y551573D01*
X1537584D01*
Y551662D01*
X1537317D01*
Y551751D01*
X1537050D01*
Y551840D01*
X1536693D01*
Y551929D01*
X1536248D01*
Y552018D01*
X1535356D01*
Y552107D01*
X1534733D01*
D02*
G37*
G36*
X1427618D02*
X1427083D01*
Y552018D01*
X1426103D01*
Y551929D01*
X1425658D01*
Y551840D01*
X1425301D01*
Y551751D01*
X1425034D01*
Y551662D01*
X1424766D01*
Y551573D01*
X1424588D01*
Y551484D01*
X1424410D01*
Y551395D01*
X1424232D01*
Y551305D01*
X1424053D01*
Y551216D01*
X1423875D01*
Y551127D01*
X1423786D01*
Y551038D01*
X1423608D01*
Y550949D01*
X1423519D01*
Y550860D01*
X1423430D01*
Y550771D01*
X1423341D01*
Y550682D01*
X1423162D01*
Y550592D01*
X1423073D01*
Y550503D01*
X1422984D01*
Y550414D01*
X1422895D01*
Y550325D01*
X1422806D01*
Y550147D01*
X1422717D01*
Y550058D01*
X1422628D01*
Y549969D01*
X1422538D01*
Y549880D01*
X1422449D01*
Y549701D01*
X1422360D01*
Y549612D01*
X1422271D01*
Y549434D01*
X1422182D01*
Y549345D01*
X1422093D01*
Y549256D01*
Y549167D01*
X1422004D01*
Y548988D01*
X1421915D01*
Y548810D01*
X1421826D01*
Y548632D01*
X1421736D01*
Y548365D01*
X1421647D01*
Y548186D01*
X1421558D01*
Y547919D01*
X1421469D01*
Y547563D01*
X1421380D01*
Y547295D01*
X1421291D01*
Y546939D01*
X1421202D01*
Y546493D01*
X1421113D01*
Y545959D01*
X1421024D01*
Y545157D01*
X1420934D01*
Y541681D01*
X1421024D01*
Y540968D01*
X1421113D01*
Y540434D01*
X1421202D01*
Y539988D01*
X1421291D01*
Y539632D01*
X1421380D01*
Y539275D01*
X1421469D01*
Y539008D01*
X1421558D01*
Y538740D01*
X1421647D01*
Y538473D01*
X1421736D01*
Y538295D01*
X1421826D01*
Y538117D01*
X1421915D01*
Y537938D01*
X1422004D01*
Y537760D01*
X1422093D01*
Y537582D01*
X1422182D01*
Y537404D01*
X1422271D01*
Y537314D01*
X1422360D01*
Y537136D01*
X1422449D01*
Y537047D01*
X1422538D01*
Y536958D01*
X1422628D01*
Y536780D01*
X1422717D01*
Y536691D01*
X1422806D01*
Y536602D01*
X1422895D01*
Y536512D01*
X1422984D01*
Y536423D01*
X1423073D01*
Y536334D01*
X1423162D01*
Y536245D01*
X1423251D01*
Y536156D01*
X1423341D01*
Y536067D01*
X1423519D01*
Y535978D01*
X1423608D01*
Y535889D01*
X1423697D01*
Y535800D01*
X1423875D01*
Y535710D01*
X1423964D01*
Y535621D01*
X1424143D01*
Y535532D01*
X1424321D01*
Y535443D01*
X1424499D01*
Y535354D01*
X1424677D01*
Y535265D01*
X1424945D01*
Y535176D01*
X1425212D01*
Y535087D01*
X1425568D01*
Y534998D01*
X1425925D01*
Y534908D01*
X1426638D01*
Y534819D01*
X1428153D01*
Y534908D01*
X1428777D01*
Y534998D01*
X1429222D01*
Y535087D01*
X1429579D01*
Y535176D01*
X1429846D01*
Y535265D01*
X1430024D01*
Y535354D01*
X1430291D01*
Y535443D01*
X1430470D01*
Y535532D01*
X1430648D01*
Y535621D01*
X1430737D01*
Y535710D01*
X1430915D01*
Y535800D01*
X1431004D01*
Y535889D01*
X1431183D01*
Y535978D01*
X1431272D01*
Y536067D01*
X1431361D01*
Y536156D01*
X1431450D01*
Y536245D01*
X1431628D01*
Y536334D01*
X1431717D01*
Y536423D01*
X1431806D01*
Y536512D01*
X1431895D01*
Y536691D01*
X1431985D01*
Y536780D01*
X1432074D01*
Y536869D01*
X1432163D01*
Y536958D01*
X1432252D01*
Y537047D01*
X1432341D01*
Y537225D01*
X1432430D01*
Y537314D01*
X1432519D01*
Y537493D01*
X1432608D01*
Y537671D01*
X1432697D01*
Y537760D01*
X1432787D01*
Y537938D01*
X1432876D01*
Y538117D01*
X1432965D01*
Y538384D01*
X1433054D01*
Y538562D01*
X1433143D01*
Y538829D01*
X1433232D01*
Y539097D01*
X1433321D01*
Y539364D01*
X1433410D01*
Y539721D01*
X1433499D01*
Y540077D01*
X1433589D01*
Y540523D01*
X1433678D01*
Y541057D01*
X1433767D01*
Y541859D01*
X1433856D01*
Y544978D01*
X1433767D01*
Y545780D01*
X1433678D01*
Y546404D01*
X1433589D01*
Y546850D01*
X1433499D01*
Y547206D01*
X1433410D01*
Y547473D01*
X1433321D01*
Y547830D01*
X1433232D01*
Y548097D01*
X1433143D01*
Y548275D01*
X1433054D01*
Y548543D01*
X1432965D01*
Y548721D01*
X1432876D01*
Y548899D01*
X1432787D01*
Y549077D01*
X1432697D01*
Y549256D01*
X1432608D01*
Y549345D01*
X1432519D01*
Y549523D01*
X1432430D01*
Y549612D01*
X1432341D01*
Y549790D01*
X1432252D01*
Y549880D01*
X1432163D01*
Y549969D01*
X1432074D01*
Y550147D01*
X1431985D01*
Y550236D01*
X1431895D01*
Y550325D01*
X1431806D01*
Y550414D01*
X1431717D01*
Y550503D01*
X1431628D01*
Y550592D01*
X1431539D01*
Y550682D01*
X1431450D01*
Y550771D01*
X1431361D01*
Y550860D01*
X1431183D01*
Y550949D01*
X1431093D01*
Y551038D01*
X1430915D01*
Y551127D01*
X1430826D01*
Y551216D01*
X1430648D01*
Y551305D01*
X1430559D01*
Y551395D01*
X1430381D01*
Y551484D01*
X1430113D01*
Y551573D01*
X1429935D01*
Y551662D01*
X1429668D01*
Y551751D01*
X1429400D01*
Y551840D01*
X1429044D01*
Y551929D01*
X1428598D01*
Y552018D01*
X1427618D01*
Y552107D01*
D02*
G37*
%LPD*%
D12*
X1766250Y237750D02*
X1786250D01*
X1766250Y226750D02*
X1786250D01*
X1766250D02*
Y237750D01*
X1786250Y226750D02*
Y237750D01*
X1792500Y74000D02*
X1813500D01*
Y120000D01*
X1792500D02*
X1813500D01*
X1792500Y74000D02*
Y120000D01*
X1766250Y210750D02*
X1786250D01*
X1766250D02*
Y221750D01*
X1786250D01*
Y210750D02*
Y221750D01*
X1804000Y323000D02*
X1815000D01*
X1804000Y303000D02*
Y323000D01*
Y303000D02*
X1815000D01*
Y323000D01*
D14*
X1820830Y338332D02*
X1822496Y339998D01*
X1825828D01*
X1827494Y338332D01*
Y331668D01*
X1825828Y330002D01*
X1822496D01*
X1820830Y331668D01*
X1817498Y338332D02*
X1815831Y339998D01*
X1812499D01*
X1810833Y338332D01*
Y336666D01*
X1812499Y335000D01*
X1814165D01*
X1812499D01*
X1810833Y333334D01*
Y331668D01*
X1812499Y330002D01*
X1815831D01*
X1817498Y331668D01*
X1807501Y330002D02*
X1804169D01*
X1805835D01*
Y339998D01*
X1807501Y338332D01*
X1792506Y330002D02*
X1799170D01*
X1792506Y336666D01*
Y338332D01*
X1794172Y339998D01*
X1797504D01*
X1799170Y338332D01*
X1760827Y227502D02*
Y237498D01*
X1755829D01*
X1754163Y235832D01*
Y232500D01*
X1755829Y230834D01*
X1760827D01*
X1757495D02*
X1754163Y227502D01*
X1750831Y235832D02*
X1749164Y237498D01*
X1745832D01*
X1744166Y235832D01*
Y234166D01*
X1745832Y232500D01*
X1747498D01*
X1745832D01*
X1744166Y230834D01*
Y229168D01*
X1745832Y227502D01*
X1749164D01*
X1750831Y229168D01*
X1734169Y227502D02*
X1740834D01*
X1734169Y234166D01*
Y235832D01*
X1735836Y237498D01*
X1739168D01*
X1740834Y235832D01*
X1730837D02*
X1729171Y237498D01*
X1725839D01*
X1724173Y235832D01*
Y229168D01*
X1725839Y227502D01*
X1729171D01*
X1730837Y229168D01*
Y235832D01*
X1753330Y218332D02*
X1754996Y219998D01*
X1758328D01*
X1759994Y218332D01*
Y211668D01*
X1758328Y210002D01*
X1754996D01*
X1753330Y211668D01*
X1749998Y218332D02*
X1748331Y219998D01*
X1744999D01*
X1743333Y218332D01*
Y216666D01*
X1744999Y215000D01*
X1746665D01*
X1744999D01*
X1743333Y213334D01*
Y211668D01*
X1744999Y210002D01*
X1748331D01*
X1749998Y211668D01*
X1740001Y210002D02*
X1736669D01*
X1738335D01*
Y219998D01*
X1740001Y218332D01*
X1731670Y219998D02*
X1725006D01*
Y218332D01*
X1731670Y211668D01*
Y210002D01*
X1813330Y135832D02*
X1814996Y137498D01*
X1818328D01*
X1819994Y135832D01*
Y129168D01*
X1818328Y127502D01*
X1814996D01*
X1813330Y129168D01*
X1809998Y135832D02*
X1808331Y137498D01*
X1804999D01*
X1803333Y135832D01*
Y134166D01*
X1804999Y132500D01*
X1806665D01*
X1804999D01*
X1803333Y130834D01*
Y129168D01*
X1804999Y127502D01*
X1808331D01*
X1809998Y129168D01*
X1800001Y127502D02*
X1796669D01*
X1798335D01*
Y137498D01*
X1800001Y135832D01*
X1785006Y137498D02*
X1791670D01*
Y132500D01*
X1788338Y134166D01*
X1786672D01*
X1785006Y132500D01*
Y129168D01*
X1786672Y127502D01*
X1790004D01*
X1791670Y129168D01*
M02*
